<?xml version="1.0" encoding="utf-8"?>
<!-- Generator: Adobe Illustrator 21.1.0, SVG Export Plug-In . SVG Version: 6.00 Build 0)  -->
<svg version="1.1" id="Calque_1" xmlns="http://www.w3.org/2000/svg" xmlns:xlink="http://www.w3.org/1999/xlink" x="0px" y="0px"
	 viewBox="0 0 1024 1024" style="enable-background:new 0 0 1024 1024;" xml:space="preserve">
<g>
	<path d="M994.4,283.7c-24.5-10.2-52.5,1.4-62.7,25.9l-129.5,312h-495l-136-472.9c-5.9-20.6-24.7-34.7-46.1-34.7H48
		c-26.5,0-48,21.5-48,48s21.5,48,48,48h41l136,472.9c5.9,20.6,24.7,34.7,46.1,34.7h563.1c19.4,0,36.9-11.7,44.3-29.6l141.8-341.6
		C1030.5,321.9,1018.9,293.8,994.4,283.7z"/>
	<path d="M362.7,777.9c-60.8,0-110.3,49.5-110.3,110.3c0,60.8,49.5,110.3,110.3,110.3S472.9,949,472.9,888.2
		C472.9,827.4,423.4,777.9,362.7,777.9z M362.7,918c-16.4,0-29.8-13.4-29.8-29.8s13.4-29.8,29.8-29.8s29.8,13.4,29.8,29.8
		S379.1,918,362.7,918z"/>
	<path d="M772.9,777.9c-60.8,0-110.3,49.5-110.3,110.3c0,60.8,49.5,110.3,110.3,110.3c60.8,0,110.3-49.5,110.3-110.3
		C883.2,827.4,833.7,777.9,772.9,777.9z M772.9,918c-16.4,0-29.8-13.4-29.8-29.8s13.4-29.8,29.8-29.8c16.4,0,29.8,13.4,29.8,29.8
		S789.3,918,772.9,918z"/>
	<path d="M568.3,554.5c30,0,60.7-3.3,91.8-11.9c16.7-4.6,28.3-19.9,28.3-37.2v0c0-23.7-21.2-42-44.6-38.2c-24.7,4-49.1,5.8-73.2,5.8
		c-105,0-171.5-67.6-171.5-182.6c0-103.9,64.8-183.2,165.3-183.2c105.6,0,151.9,79.9,151.9,160.9c0,49.1-2.8,82.7-27.9,82.7
		c-16.2,0-21.2-10.6-21.2-27.9V204.3c0-12.3-10-22.3-22.3-22.3h-32.4c-12.3,0-22.3,10-22.3,22.3v0c-14.5-19-31.8-29-57-29
		c-58.6,0-86,54.2-86,116.2c0,62,27.4,116.2,86,116.2c27.9,0,44.7-10.6,61.4-34.1c15.1,29,45.2,47.5,84.9,47.5
		c77.6,0,121.2-50.8,121.2-153c0-107.8-69.8-242.4-236.3-242.4c-161.4,0-250.2,129-250.2,264.7C314.2,465.1,428.1,554.5,568.3,554.5
		z M583.4,315c0,7.3-3.2,14.3-9,18.8c-4.1,3.2-9.1,5.2-16.1,5.2c-17.3,0-27.4-16.2-27.4-47.5s10.1-47.5,27.4-47.5
		c5.9,0,10.4,1.3,14.1,3.5c7,4.3,11,12,11,20.2V315z"/>
</g>
</svg>
