<?xml version="1.0" encoding="utf-8"?>
<!-- Generator: Adobe Illustrator 21.1.0, SVG Export Plug-In . SVG Version: 6.00 Build 0)  -->
<svg version="1.1" id="Calque_1" xmlns="http://www.w3.org/2000/svg" xmlns:xlink="http://www.w3.org/1999/xlink" x="0px" y="0px"
	 viewBox="0 0 1024 1024" style="enable-background:new 0 0 1024 1024;" xml:space="preserve">
<g>
	<path d="M1015.9,257.1c-8.9-13.3-23.9-21.3-39.9-21.3H361.7c-26.5,0-48,21.5-48,48c0,26.5,21.5,48,48,48h542.5l-102,245.6h-495
		l-136-472.9c-5.9-20.6-24.7-34.7-46.1-34.7H48c-26.5,0-48,21.5-48,48s21.5,48,48,48h41l136,472.9c5.9,20.6,24.7,34.7,46.1,34.7
		h563.1c19.4,0,36.9-11.7,44.3-29.6l141.8-341.6C1026.5,287.3,1024.8,270.4,1015.9,257.1z"/>
	<path d="M362.7,733.7c-60.8,0-110.3,49.5-110.3,110.3s49.5,110.3,110.3,110.3S472.9,904.8,472.9,844S423.5,733.7,362.7,733.7z
		 M362.7,873.8c-16.4,0-29.8-13.4-29.8-29.8s13.4-29.8,29.8-29.8c16.4,0,29.8,13.4,29.8,29.8S379.1,873.8,362.7,873.8z"/>
	<path d="M772.9,733.7c-60.8,0-110.3,49.5-110.3,110.3s49.5,110.3,110.3,110.3c60.8,0,110.3-49.5,110.3-110.3
		S833.7,733.7,772.9,733.7z M772.9,873.8c-16.4,0-29.8-13.4-29.8-29.8s13.4-29.8,29.8-29.8s29.8,13.4,29.8,29.8
		S789.4,873.8,772.9,873.8z"/>
</g>
</svg>
