<?xml version="1.0" encoding="utf-8"?>
<!-- Generator: Adobe Illustrator 21.1.0, SVG Export Plug-In . SVG Version: 6.00 Build 0)  -->
<svg version="1.1" id="Calque_1" xmlns="http://www.w3.org/2000/svg" xmlns:xlink="http://www.w3.org/1999/xlink" x="0px" y="0px"
	 viewBox="0 0 1024 1024" style="enable-background:new 0 0 1024 1024;" xml:space="preserve">
<g>
	<path d="M982.1,566.9c-25-5.5-49.6,10.3-55.1,35.2C903,711.5,837.6,805,743.3,865.3s-206.6,80.3-316,56.2
		c-225.8-49.7-369.2-274-319.4-499.8s274-369.1,499.8-319.4c158.9,35,284.3,160.3,319.5,319.2c5.5,24.9,30.2,40.6,55.1,35.1
		s40.6-30.2,35.1-55.1C974.5,207.6,821.4,54.7,627.5,12C351.8-48.7,78.1,126.2,17.5,401.9c-60.6,275.7,114.3,549.3,389.9,610
		c30.6,6.7,61.8,10.7,93.2,11.8c102.7,3.6,204-23.9,292.5-80.4c115.2-73.7,194.8-187.8,224.2-321.3
		C1022.8,597,1007,572.4,982.1,566.9z"/>
	<path d="M512,783c25.7,0,46.5-20.8,46.5-46.5v-178h178c25.7,0,46.5-20.8,46.5-46.5c0-25.7-20.8-46.5-46.5-46.5h-178v-178
		c0-25.7-20.8-46.5-46.5-46.5c-25.7,0-46.5,20.8-46.5,46.5v178h-178c-25.7,0-46.5,20.8-46.5,46.5c0,25.7,20.8,46.5,46.5,46.5h178
		v178C465.5,762.2,486.3,783,512,783z"/>
</g>
</svg>
