<svg id="63bcc10b-a0c9-4188-b07a-35ad93403f66" data-name="Calque 6" xmlns="http://www.w3.org/2000/svg" viewBox="0 0 807.25 1024"><title>alerte</title><path d="M909.18,635.74c-13.66-33.21-45.88-53.35-80-53.69l-104-252.83c-53.43-129.8-184.91-205.5-319.33-196.12L375,58.11C355.41,10.54,300.33-12.44,252.26,6.8l-8.89,3.63a92.83,92.83,0,0,0-51.6,50.47,91.85,91.85,0,0,0-.29,71.29L222.71,208c-38.33,32-69.68,71.6-89.56,118.7a310.66,310.66,0,0,0-1,240.82L236.09,819.92a86.12,86.12,0,0,0-18.88,27.87,85.22,85.22,0,0,0-.44,66c13.75,33.39,46.45,53.71,80.86,53.71a87.36,87.36,0,0,0,32.55-6.28L387,938.4c28.09,52.08,83.28,85.6,144.38,85.6,90.24,0,163.64-72.61,163.64-161.82,0-15.34-2.84-30.09-7-44.49l173.11-69.42a85.87,85.87,0,0,0,47.58-46.59A84.88,84.88,0,0,0,909.18,635.74ZM237.92,113.05a42.05,42.05,0,0,1,.15-32.55,43.33,43.33,0,0,1,24.06-23.42L271,53.45c22.58-9,48.36,1.67,57.44,23.81l26.25,63.83a322,322,0,0,0-46.43,14.28c-15.43,6.18-29.57,14.33-43.6,22.59ZM179.5,346.21C207.39,280.18,259.72,229,327,202a272,272,0,0,1,101.39-19.59c106.64,0,207.78,62.7,250.3,165.95L780,594.58l-122.22,49L280.15,795,178.62,548.35A260.77,260.77,0,0,1,179.5,346.21Zm465.29,516c0,61.52-50.86,111.55-113.37,111.55-40.35,0-76-21.66-96.16-54.66l206.36-82.75A110.36,110.36,0,0,1,644.79,862.18ZM862.44,682.09a36,36,0,0,1-19.93,19.54l-531,212.93c-18.85,7.46-40.6-1.37-48.16-19.88a35.11,35.11,0,0,1,.2-27.3,36.15,36.15,0,0,1,20-19.59L449.86,781.1,814.65,634.87a38,38,0,0,1,13.82-2.67,36.79,36.79,0,0,1,34.17,22.63A35,35,0,0,1,862.44,682.09Z" transform="translate(-108.37 0)"/></svg>