<?xml version="1.0" encoding="utf-8"?>
<!-- Generator: Adobe Illustrator 21.1.0, SVG Export Plug-In . SVG Version: 6.00 Build 0)  -->
<svg version="1.1" id="Calque_1" xmlns="http://www.w3.org/2000/svg" xmlns:xlink="http://www.w3.org/1999/xlink" x="0px" y="0px"
	 viewBox="0 0 1024 1024" style="enable-background:new 0 0 1024 1024;" xml:space="preserve">
<path d="M823.8,657.7V401c0-42.1-8.2-82.9-24.5-121.4c-15.7-37.1-38.2-70.5-66.8-99.1c-28.6-28.6-62-51.1-99.1-66.8
	c-24.1-10.2-49.2-17.2-74.9-21.1V46.5C558.5,20.8,537.7,0,512,0c-25.7,0-46.5,20.8-46.5,46.5v46.1c-25.7,3.8-50.7,10.9-74.9,21.1
	c-37.1,15.7-70.5,38.2-99.1,66.8s-51.1,62-66.8,99.1c-16.3,38.5-24.5,79.3-24.5,121.4v256.7c-53,13.5-92.4,61.6-92.4,118.8
	c0,67.6,55,122.5,122.5,122.5h125.2c16.4,71.5,80.5,125,156.9,125c76.4,0,140.5-53.5,156.9-125h124.2c67.6,0,122.5-55,122.5-122.5
	C916.2,719.3,876.8,671.2,823.8,657.7z M357.3,246.3c41.3-41.3,96.2-64.1,154.7-64.1c58.4,0,113.4,22.8,154.7,64.1
	c41.3,41.3,64.1,96.2,64.1,154.7v253H293.3V401C293.3,342.5,316,287.6,357.3,246.3z M512.5,940.1c-29.5,0-55.2-16.7-68.2-41.1h136.3
	C567.7,923.4,542,940.1,512.5,940.1z M793.6,806H230.4c-16.3,0-29.5-13.2-29.5-29.5s13.2-29.5,29.5-29.5h563.2
	c16.3,0,29.5,13.2,29.5,29.5S809.9,806,793.6,806z"/>
</svg>
