<?xml version="1.0" encoding="utf-8"?>
<!-- Generator: Adobe Illustrator 21.1.0, SVG Export Plug-In . SVG Version: 6.00 Build 0)  -->
<svg version="1.1" id="Calque_1" xmlns="http://www.w3.org/2000/svg" xmlns:xlink="http://www.w3.org/1999/xlink" x="0px" y="0px"
	 viewBox="0 0 1024 1024" style="enable-background:new 0 0 1024 1024;" xml:space="preserve">
<g>
	<path d="M512,496.3c61.9,0,120.1-24.1,163.9-67.9c43.8-43.8,67.9-102,67.9-163.9s-24.1-120.1-67.9-163.9
		c-43.8-43.8-102-67.9-163.9-67.9s-120.1,24.1-163.9,67.9c-43.8,43.8-67.9,102-67.9,163.9s24.1,120.1,67.9,163.9
		C391.9,472.2,450.1,496.3,512,496.3z M512,125.8c76.5,0,138.7,62.2,138.7,138.7S588.5,403.2,512,403.2
		c-76.5,0-138.7-62.2-138.7-138.7S435.5,125.8,512,125.8z"/>
	<path d="M1024,518.2c0-38-14.8-73.7-41.6-100.5c-55.4-55.4-145.6-55.4-201.1,0l-130,130c-37.3,37.3-86.9,57.9-139.7,57.9
		c-52.8,0-102.4-20.5-139.7-57.9L242.7,418.4c-55.4-55.4-145.6-55.4-201.1,0C14.8,445.3,0,481,0,519c0,38,14.8,73.7,41.6,100.5
		l302.2,302.2c44.9,44.9,104.6,69.7,168.2,69.7c63.5,0,123.2-24.7,168.2-69.7l32.9-32.9l-0.4-0.4l269.6-269.6
		C1009.2,591.9,1024,556.2,1024,518.2z M916.5,553L605.5,864c-56.8,48.1-142.2,45.4-195.8-8.2L107.5,553.7
		c-19.1-19.1-19.1-50.3,0-69.4c9.6-9.6,22.1-14.4,34.7-14.4c12.6,0,25.1,4.8,34.7,14.4l129.3,129.3c54.9,54.9,127.9,85.1,205.5,85.1
		c77.6,0,150.6-30.2,205.5-85.1l130-130c19.1-19.1,50.3-19.1,69.4,0c9.3,9.3,14.4,21.6,14.4,34.7C930.9,531.4,925.8,543.7,916.5,553
		z"/>
</g>
</svg>
