<?xml version="1.0" encoding="utf-8"?>
<!-- Generator: Adobe Illustrator 21.1.0, SVG Export Plug-In . SVG Version: 6.00 Build 0)  -->
<svg version="1.1" id="Calque_1" xmlns="http://www.w3.org/2000/svg" xmlns:xlink="http://www.w3.org/1999/xlink" x="0px" y="0px"
	 viewBox="0 0 1024 1024" style="enable-background:new 0 0 1024 1024;" xml:space="preserve">
<g>
	<path d="M729.9,180.9c-55-56.8-128.7-89.5-207.5-92.1c-42.7-1.4-84.2,5.7-123.3,21.4c-37.8,15.1-71.6,37.2-100.6,65.9
		c-29,28.7-51.5,62.3-67,99.9c-16,39-23.7,80.4-22.7,123.1c1.7,73.8,30.1,144.3,80.1,198.6c24.9,27.1,38.6,62,38.6,98.3v52.7
		c0,52,42.3,94.3,94.3,94.3h180.4c52,0,94.3-42.3,94.3-94.3v-52.7c0-4.9,0.3-9.9,0.8-14.8c1.6-15.4,5.7-30.4,12.2-44.7
		c6.5-14.3,15.2-27.4,25.9-39.1c51.6-56.1,80-129,80-205.3C815.4,312.8,785,237.8,729.9,180.9z M666.8,534.2
		c-17.4,18.9-31.6,40.3-42.1,63.6c-10.6,23.4-17.4,48.1-20,73.5c-0.8,8.1-1.3,16.3-1.3,24.5v52.7c0,0.6-0.5,1.1-1.1,1.1H421.8
		c-0.6,0-1.1-0.5-1.1-1.1v-52.7c0-59.8-22.5-117.1-63.3-161.4c-34.6-37.6-54.4-86.4-55.5-137.5c-1.3-58.8,20.7-113.6,62.1-154.6
		c39.6-39.2,91.9-60.5,147.8-60.5c2.5,0,5,0,7.5,0.1c54.6,1.8,105.7,24.5,143.8,63.8c38.2,39.4,59.2,91.4,59.2,146.2
		C722.2,444.8,702.5,495.3,666.8,534.2z"/>
	<path d="M620.4,877.8H403.6c-25.7,0-46.6,20.9-46.6,46.6s20.9,46.6,46.6,46.6h216.7c25.7,0,46.6-20.9,46.6-46.6
		S646.1,877.8,620.4,877.8z"/>
	<path d="M977.4,382.1H927c-25.7,0-46.6,20.9-46.6,46.6s20.9,46.6,46.6,46.6h50.5c25.7,0,46.6-20.9,46.6-46.6
		S1003.1,382.1,977.4,382.1z"/>
	<path d="M97,382.1H46.6C20.9,382.1,0,402.9,0,428.7s20.9,46.6,46.6,46.6H97c25.7,0,46.6-20.9,46.6-46.6S122.8,382.1,97,382.1z"/>
	<path d="M838.4,689.1c-18.2-18.2-47.7-18.2-65.9,0c-18.2,18.2-18.2,47.7,0,65.9l35.7,35.7c9.1,9.1,21,13.6,32.9,13.6
		s23.8-4.5,32.9-13.6c18.2-18.2,18.2-47.7,0-65.9L838.4,689.1z"/>
	<path d="M185.6,168.2c9.1,9.1,21,13.6,32.9,13.6c11.9,0,23.8-4.5,32.9-13.6c18.2-18.2,18.2-47.7,0-65.9l-35.7-35.7
		c-18.2-18.2-47.7-18.2-65.9,0c-18.2,18.2-18.2,47.7,0,65.9L185.6,168.2z"/>
	<path d="M805.4,181.8c11.9,0,23.8-4.5,32.9-13.6l35.7-35.7c18.2-18.2,18.2-47.7,0-65.9c-18.2-18.2-47.7-18.2-65.9,0l-35.7,35.7
		c-18.2,18.2-18.2,47.7,0,65.9C781.6,177.3,793.5,181.8,805.4,181.8z"/>
	<path d="M185.6,689.1L150,724.8c-18.2,18.2-18.2,47.7,0,65.9c9.1,9.1,21,13.6,32.9,13.6s23.8-4.5,32.9-13.6l35.7-35.7
		c18.2-18.2,18.2-47.7,0-65.9C233.3,670.9,203.8,670.9,185.6,689.1z"/>
</g>
</svg>
