<?xml version="1.0" encoding="utf-8"?>
<!-- Generator: Adobe Illustrator 21.1.0, SVG Export Plug-In . SVG Version: 6.00 Build 0)  -->
<svg version="1.1" id="Calque_1" xmlns="http://www.w3.org/2000/svg" xmlns:xlink="http://www.w3.org/1999/xlink" x="0px" y="0px"
	 viewBox="0 0 1024 1024" style="enable-background:new 0 0 1024 1024;" xml:space="preserve">
<g id="Page-1_1_">
	<g id="icon-1-copy-13">
		<g id="Page-1" transform="translate(207.000000, 29.000000)">
			<path d="M466.5,775.7H143.7c-19.8,0-36.1-8.9-45.7-25.1c-6.3-10.6-9.4-23.8-9.4-40.3v-22.8c0-63.9-32.1-129.6-63.2-193.2
				c-8.4-17.2-17.1-35-25-52.4c-23.8-52.6-33.5-111.1-28-169.4c7.2-75.2,40.8-146.8,94.8-201.7C121.3,16,192.4-18.8,267.4-27
				c48.7-5.3,96.6-0.4,142.3,14.7c43.8,14.5,83.5,37.5,118,68.4c34.6,31,61.9,68.1,81.1,110.2c19.9,43.6,30,90.2,30,138.5
				c0,44.3-8.7,87.6-25.7,128.5c-8.2,19.5-17.2,39.5-25.9,58.8c-32.4,71.6-65.9,145.7-65.9,218.1c0,16.5-3,29.7-9.2,40.2
				C502.6,766.8,486.4,775.7,466.5,775.7z M149.8,720.3L149.8,720.3L149.8,720.3z M148.9,715.7h312.3c0.1-1.4,0.2-3.2,0.2-5.4
				c0-85.4,36.2-165.5,71.2-242.9c9-19.8,17.4-38.5,25.2-57.2c14-33.5,21.1-69,21.1-105.4c0-39.6-8.3-77.8-24.6-113.6
				c-15.8-34.6-38.2-65-66.6-90.5c-28.3-25.4-60.9-44.3-96.8-56.2c-37.5-12.4-76.9-16.4-117-12.1c-61.3,6.7-119.6,35.2-163.9,80.3
				c-44.3,45.1-72,103.8-77.8,165.3c-4.6,47.8,3.4,95.9,22.9,139c7.5,16.6,15.6,33.2,24.2,50.8c34.1,69.7,69.3,141.7,69.3,219.5
				v22.8C148.6,712.5,148.7,714.3,148.9,715.7z M466.8,715.7C466.8,715.7,466.8,715.7,466.8,715.7L466.8,715.7z M143.4,715.7
				C143.4,715.7,143.4,715.7,143.4,715.7C143.4,715.7,143.4,715.7,143.4,715.7z"/>
			<path d="M472.1,883.7H137.7c-16.6,0-30-13.4-30-30s13.4-30,30-30h334.4c16.6,0,30,13.4,30,30S488.7,883.7,472.1,883.7z"/>
			<path d="M424.6,994.8H185.1c-16.6,0-30-13.4-30-30s13.4-30,30-30h239.4c16.6,0,30,13.4,30,30S441.1,994.8,424.6,994.8z"/>
		</g>
	</g>
</g>
</svg>
