<?xml version="1.0" encoding="utf-8"?>
<!-- Generator: Adobe Illustrator 21.1.0, SVG Export Plug-In . SVG Version: 6.00 Build 0)  -->
<svg version="1.1" id="Calque_1" xmlns="http://www.w3.org/2000/svg" xmlns:xlink="http://www.w3.org/1999/xlink" x="0px" y="0px"
	 viewBox="0 0 1024 1024" style="enable-background:new 0 0 1024 1024;" xml:space="preserve">
<path d="M21.1,564.6l319.4,293l0.6,0.5c18.5,16.4,45.1,20.5,67.7,10.3c22.6-10.2,37.2-32.8,37.2-57.5V692.8h351.5
	c25.6,0,46.3-20.7,46.3-46.3s-20.7-46.3-46.3-46.3H353.5v143.6L107,517.6l246.5-235.5v146.2H977c25.6,0,46.3-20.7,46.3-46.3
	s-20.7-46.3-46.3-46.3H446.1V213.2c0-25.3-15-48.1-38.3-58c-8-3.4-16.4-5.1-24.8-5.1c-15.9,0-31.6,6-43.6,17.5L20.2,472.4
	c-12.6,12-19.7,28.9-19.5,46.3C0.9,536.1,8.3,552.8,21.1,564.6z"/>
</svg>
