<?xml version="1.0" encoding="utf-8"?>
<!-- Generator: Adobe Illustrator 21.1.0, SVG Export Plug-In . SVG Version: 6.00 Build 0)  -->
<svg version="1.1" id="Calque_1" xmlns="http://www.w3.org/2000/svg" xmlns:xlink="http://www.w3.org/1999/xlink" x="0px" y="0px"
	 viewBox="0 0 1024 1024" style="enable-background:new 0 0 1024 1024;" xml:space="preserve">
<g id="Page-1_1_">
	<g id="icon-1-copy">
		<g id="Page-1" transform="translate(157.000000, 20.000000)">
			<path d="M237.3,1004c-21.7,0-42.2-8.5-57.5-23.8L3.8,804.2C-11.5,788.9-20,768.5-20,746.7c0-21.7,8.5-42.2,23.8-57.5l175.9-175.9
				c15.3-15.4,35.7-23.8,57.5-23.8c21.8,0,42.2,8.5,57.5,23.9c15.3,15.3,23.8,35.8,23.8,57.5c0,21.7-8.5,42.1-23.8,57.5l-31,31h378
				c48.5,0,87.9,39.4,87.9,87.9s-39.4,87.9-87.9,87.9H264.9l29.9,29.9c15.3,15.3,23.8,35.7,23.8,57.5c0,21.8-8.5,42.2-23.8,57.5
				C279.4,995.5,259,1004,237.3,1004z M237.3,529.5c-11.1,0-21.4,4.3-29.2,12.1L32.1,717.5c-7.8,7.8-12.1,18.2-12.1,29.2
				c0,11,4.3,21.4,12.1,29.2L208,951.8c7.8,7.8,18.2,12.1,29.2,12.1c11,0,21.4-4.3,29.2-12.1c7.8-7.8,12.1-18.2,12.1-29.2
				c0-11.1-4.3-21.4-12.1-29.2l-58.6-58.7c-2-2-4-4.2-5.9-6.4L173,795.2h468.8c26.4,0,47.9-21.5,47.9-47.9s-21.5-47.9-47.9-47.9
				h-469l27.9-32.9c2.3-2.7,4.6-5.3,7.1-7.7l58.6-58.6c7.8-7.8,12.1-18.2,12.1-29.2c0-11-4.3-21.4-12.1-29.2
				C258.7,533.8,248.3,529.5,237.3,529.5z"/>
			<path d="M472.5,494.5c-21.7,0-42.1-8.5-57.5-23.8c-15.4-15.3-23.8-35.8-23.8-57.5c0-21.8,8.5-42.2,23.8-57.5l29.9-29.9H67.9
				c-48.5,0-87.9-39.4-87.9-87.9s39.4-87.9,87.9-87.9h378l-31-31c-15.4-15.4-23.8-35.9-23.8-57.5c0-21.7,8.5-42.1,23.8-57.5
				C430.3-11.5,450.7-20,472.5-20c21.8,0,42.2,8.5,57.6,23.9l175.9,175.8c15.4,15.4,23.8,35.8,23.8,57.5c0,21.8-8.5,42.2-23.9,57.5
				L530,470.6C514.7,486,494.2,494.5,472.5,494.5z M67.9,189.8c-26.4,0-47.9,21.5-47.9,47.9c0,26.4,21.5,47.9,47.9,47.9h468.9
				l-28.9,33.2c-1.9,2.2-3.9,4.3-6,6.4l-58.6,58.6c-7.8,7.8-12.1,18.2-12.1,29.2s4.3,21.4,12.1,29.2c7.8,7.8,18.2,12.1,29.2,12.1
				c11,0,21.4-4.3,29.2-12.1l175.9-175.9c7.8-7.8,12.1-18.2,12.1-29.2c0-11-4.3-21.4-12.1-29.2L501.7,32.1
				c-7.8-7.8-18.2-12.1-29.3-12.1c-11,0-21.4,4.3-29.2,12.1c-7.8,7.8-12.2,18.2-12.2,29.2c0,11,4.3,21.4,12.2,29.3l58.6,58.6
				c2.5,2.5,4.9,5.1,7.1,7.7l27.9,32.9H67.9z"/>
		</g>
	</g>
</g>
</svg>
