<?xml version="1.0" encoding="utf-8"?>
<!-- Generator: Adobe Illustrator 21.1.0, SVG Export Plug-In . SVG Version: 6.00 Build 0)  -->
<svg version="1.1" id="Calque_1" xmlns="http://www.w3.org/2000/svg" xmlns:xlink="http://www.w3.org/1999/xlink" x="0px" y="0px"
	 viewBox="0 0 1024 1024" style="enable-background:new 0 0 1024 1024;" xml:space="preserve">
<path d="M1002.9,459.5l-319.4-293l-0.6-0.5c-18.5-16.4-45.1-20.5-67.7-10.3c-22.6,10.2-37.2,32.8-37.2,57.5v118.1H226.4
	c-25.6,0-46.3,20.7-46.3,46.3s20.7,46.3,46.3,46.3h444.1V280.3L917,506.4L670.5,741.9V595.7H47c-25.6,0-46.3,20.7-46.3,46.3
	s20.7,46.3,46.3,46.3h530.9v122.5c0,25.3,15,48.1,38.3,58c8,3.4,16.4,5.1,24.8,5.1c15.9,0,31.6-6,43.6-17.5l319.2-304.9
	c12.6-12,19.7-28.9,19.5-46.3C1023.1,487.9,1015.7,471.2,1002.9,459.5z"/>
</svg>
