<?xml version="1.0" encoding="utf-8"?>
<!-- Generator: Adobe Illustrator 17.0.0, SVG Export Plug-In . SVG Version: 6.00 Build 0)  -->
<!DOCTYPE svg PUBLIC "-//W3C//DTD SVG 1.1//EN" "http://www.w3.org/Graphics/SVG/1.1/DTD/svg11.dtd">
<svg version="1.1" id="Calque_1" xmlns="http://www.w3.org/2000/svg" xmlns:xlink="http://www.w3.org/1999/xlink" x="0px" y="0px"
	 width="1024px" height="1024px" viewBox="0 0 1024 1024" enable-background="new 0 0 1024 1024" xml:space="preserve">
<title>CN-1280-BORNE-BURALISTES-ICONS</title>
<g>
	<g>
		<path d="M274.3,783c-5.1,0-10.2-1.9-14.1-5.8L6.3,523.7c-3.8-3.8-5.9-8.8-5.9-14.2s2.1-10.4,5.9-14.2l246.9-246.5
			c7.8-7.8,20.5-7.8,28.3,0c7.8,7.8,7.8,20.5,0,28.3L69.5,488.7H1004c11,0,20,9,20,20c0,11-9,20-20,20H67.9l220.4,220.1
			c7.8,7.8,7.8,20.5,0,28.3C284.5,781.1,279.4,783,274.3,783z"/>
	</g>
</g>
</svg>
