<?xml version="1.0" encoding="utf-8"?>
<!-- Generator: Adobe Illustrator 17.0.0, SVG Export Plug-In . SVG Version: 6.00 Build 0)  -->
<!DOCTYPE svg PUBLIC "-//W3C//DTD SVG 1.1//EN" "http://www.w3.org/Graphics/SVG/1.1/DTD/svg11.dtd">
<svg version="1.1" id="Calque_1" xmlns="http://www.w3.org/2000/svg" xmlns:xlink="http://www.w3.org/1999/xlink" x="0px" y="0px"
	 width="1024px" height="1024px" viewBox="0 0 1024 1024" enable-background="new 0 0 1024 1024" xml:space="preserve">
<title>CN-1280-BORNE-BURALISTES-ICONS</title>
<g>
	<path d="M512,1024c-69.1,0-136.1-13.5-199.2-40.3C251.8,957.9,197,921,150,874c-47-47-84-101.8-109.8-162.7
		C13.5,648.1,0,581.1,0,512s13.5-136.1,40.3-199.2C66.1,251.8,103,197,150,150s101.8-84,162.7-109.8C375.9,13.5,442.9,0,512,0
		s136.1,13.5,199.2,40.3C772.2,66.1,827,103,874,150c47,47,84,101.8,109.8,162.7c26.7,63.1,40.3,130.2,40.3,199.2
		s-13.5,136.1-40.3,199.2C957.9,772.2,921,827,874,874c-47,47-101.8,84-162.7,109.8C648.1,1010.5,581.1,1024,512,1024z M512,40
		c-63.7,0-125.5,12.5-183.7,37.1c-56.2,23.8-106.7,57.8-150,101.2c-43.4,43.4-77.4,93.8-101.2,150C52.5,386.5,40,448.3,40,512
		s12.5,125.5,37.1,183.7c23.8,56.2,57.8,106.7,101.2,150c43.4,43.4,93.8,77.4,150,101.2c58.2,24.6,120,37.1,183.7,37.1
		s125.5-12.5,183.7-37.1c56.2-23.8,106.7-57.8,150-101.2c43.4-43.4,77.4-93.9,101.2-150c24.6-58.2,37.1-120,37.1-183.7
		s-12.5-125.5-37.1-183.7c-23.8-56.2-57.8-106.7-101.2-150c-43.4-43.4-93.9-77.4-150-101.2C637.5,52.5,575.7,40,512,40z"/>
	<g>
		<path d="M391.9,792c-7.7,0-15.4-2.9-21.2-8.8c-11.7-11.7-11.7-30.7,0-42.4L596,515.5L363.8,283.2c-11.7-11.7-11.7-30.7,0-42.4
			c11.7-11.7,30.7-11.7,42.4,0l253.5,253.5c11.7,11.7,11.7,30.7,0,42.4L413.2,783.2C407.3,789.1,399.6,792,391.9,792z"/>
	</g>
</g>
</svg>
