<?xml version="1.0" encoding="utf-8"?>
<!-- Generator: Adobe Illustrator 21.1.0, SVG Export Plug-In . SVG Version: 6.00 Build 0)  -->
<svg version="1.1" id="Calque_1" xmlns="http://www.w3.org/2000/svg" xmlns:xlink="http://www.w3.org/1999/xlink" x="0px" y="0px"
	 viewBox="0 0 1024 1024" style="enable-background:new 0 0 1024 1024;" xml:space="preserve">
<path d="M254.8,846.6c-15.1,0-29.8-6-40.9-17.2L16.4,627.5c-21.7-22.2-21.9-57.2-0.5-79.7l197.5-206.8c16.3-17,40.9-22.4,62.7-13.6
	c21.9,8.8,36,29.6,36,53.2v79.2h488.2v69.5L914,420.8L800.4,316.6v68.9H501.7c-25.8,0-46.7-20.9-46.7-46.7
	c0-25.8,20.9-46.7,46.7-46.7h205.4v-57.5c0-22.5,13.3-43,33.8-52.2c20.5-9.2,44.7-5.6,61.5,9.4l0.6,0.5L1005.4,378
	c11.6,10.7,18.4,25.9,18.6,41.6c0.2,15.8-6.3,31.1-17.7,42L804,654.9c-16.6,15.9-40.9,20.3-62.1,11.3c-21.1-9-34.8-29.7-34.8-52.7
	v-60.3H218.9v-82.6L107.5,587.2L218.9,701v-73.4h314.5c25.8,0,46.7,20.9,46.7,46.7s-20.9,46.7-46.7,46.7H312.2v68.4
	c0,23.4-14,44.2-35.6,53C269.5,845.2,262.1,846.6,254.8,846.6z M739.6,587.4C739.6,587.4,739.5,587.4,739.6,587.4L739.6,587.4z"/>
</svg>
