<svg id="04662a7c-b41a-4c3f-916f-ee0a6d646fb7" data-name="Calque 42" xmlns="http://www.w3.org/2000/svg" viewBox="0 0 738.65 1024"><title>03</title><path d="M810.63,707H367.49q3-3.48,6.23-6.76l61-61A63.83,63.83,0,1,0,344.45,549L161.39,732a63.77,63.77,0,0,0,0,90.27l183.05,183.05A63.83,63.83,0,1,0,434.72,915l-61-61q-2.72-2.72-5.23-5.59H810.63a70.7,70.7,0,0,0,0-141.4Z" transform="translate(-142.68)"/><path d="M213.38,318.14H655.52q-2.51,2.87-5.23,5.59l-61,61A63.83,63.83,0,1,0,679.55,475L862.61,292a63.77,63.77,0,0,0,0-90.27l-183.05-183a63.85,63.85,0,0,0-109,45.11A63.61,63.61,0,0,0,589.28,109l61,61q3.27,3.26,6.23,6.76H213.38a70.7,70.7,0,1,0,0,141.4Z" transform="translate(-142.68)"/></svg>