<?xml version="1.0" encoding="utf-8"?>
<!-- Generator: Adobe Illustrator 23.0.3, SVG Export Plug-In . SVG Version: 6.00 Build 0)  -->
<svg version="1.1" id="Calque_1" xmlns="http://www.w3.org/2000/svg" xmlns:xlink="http://www.w3.org/1999/xlink" x="0px" y="0px"
	 viewBox="0 0 1024 1024" style="enable-background:new 0 0 1024 1024;" xml:space="preserve">
<g>
	<path d="M728.11,498.11c-25.96,0-47,21.04-47,47v315.77c0,25.96,21.04,47,47,47s47-21.04,47-47V545.11
		C775.11,519.16,754.06,498.11,728.11,498.11z"/>
	<path d="M698.04,76.77C648.34,27.1,582.27-0.25,512-0.25S375.66,27.1,325.96,76.77c-49.7,49.67-77.07,115.72-77.07,185.97v580.41
		c0,99.86,81.27,181.1,181.17,181.1c99.9,0,181.17-81.24,181.17-181.1V304.52c0-64.86-52.79-117.63-117.67-117.63
		c-64.88,0-117.67,52.77-117.67,117.63v473.19c0,25.96,21.04,47,47,47s47-21.04,47-47V304.52c0-13.03,10.62-23.63,23.67-23.63
		s23.67,10.6,23.67,23.63v538.63c0,48.03-39.1,87.1-87.17,87.1s-87.17-39.07-87.17-87.1V262.74c0-93.18,75.86-168.99,169.11-168.99
		c93.25,0,169.11,75.81,169.11,168.99v114.21c0,25.96,21.04,47,47,47s47-21.04,47-47V262.74
		C775.11,192.49,747.74,126.44,698.04,76.77z"/>
</g>
</svg>
