<?xml version="1.0" encoding="utf-8"?>
<!-- Generator: Adobe Illustrator 21.1.0, SVG Export Plug-In . SVG Version: 6.00 Build 0)  -->
<svg version="1.1" id="Calque_1" xmlns="http://www.w3.org/2000/svg" xmlns:xlink="http://www.w3.org/1999/xlink" x="0px" y="0px"
	 viewBox="0 0 1024 1024" style="enable-background:new 0 0 1024 1024;" xml:space="preserve">
<g>
	<path d="M179.6,56.4h312c17.7,0,45.4,5.5,61.8,12.3l120.2,49.7c22.3,9.2,35.5,33.8,28.4,56.8c-7.4,24.4-33.2,38.3-57.6,30.9
		c-1.4-0.4-2.9-0.9-4.3-1.5l-122.1-50.5c-8.5-3.2-17.4-5-26.4-5.2H195.8c-11.4,0-22.1,5.6-28.5,14.9c-40.7,59-94.6,262.4-68.4,386.1
		c2.4,11.4,6.7,22.4,12.9,32.3c4.2,6.6,11.5,10.5,19.4,10.5H295c38.2,0,69.1,31,69.1,69.1l0,0v203.1c0,2.6,0,9.7,9.5,11.4
		c8.4,1.5,11.3-3.5,12.5-6.4L446.6,675c6.2-19.9,25-46.5,41.7-58.9l141.9-105.7c20.5-15.3,49.5-11,64.7,9.5c1.9,2.6,3.6,5.3,4.9,8.3
		c9.4,20,2.3,43.9-15.4,57.1l-140.9,105c-2.6,2.1-7.5,9.1-8.7,12.4l-60.8,196c-0.3,0.8-0.5,1.6-0.8,2.4c-17.9,48-65.5,75.1-115.9,66
		c-50.4-9.2-85.6-51.1-85.6-102.3V685H119.7C11.7,685,0,539.3,0,476.7c0-82.9,16-180.4,42.8-260.8C78,110.1,124,56.4,179.6,56.4z"/>
	<path d="M836,55.1h111.2c42.4,0,76.7,34.4,76.8,76.8v426.7c0,42.4-34.4,76.7-76.8,76.8H836c-42.4,0-76.7-34.4-76.8-76.8V131.9
		C759.3,89.5,793.6,55.2,836,55.1z M920,147.6h-56.8c-6.4,0-11.6,5.2-11.6,11.5v372.3c0,6.4,5.2,11.5,11.6,11.5H920
		c6.4,0,11.5-5.2,11.5-11.5V159.1C931.5,152.7,926.4,147.6,920,147.6z"/>
</g>
</svg>
