<?xml version="1.0" encoding="utf-8"?>
<!-- Generator: Adobe Illustrator 21.1.0, SVG Export Plug-In . SVG Version: 6.00 Build 0)  -->
<svg version="1.1" id="Calque_1" xmlns="http://www.w3.org/2000/svg" xmlns:xlink="http://www.w3.org/1999/xlink" x="0px" y="0px"
	 viewBox="0 0 1024 1024" style="enable-background:new 0 0 1024 1024;" xml:space="preserve">
<path d="M877,217.5H689.3V183c0-80.8-65.7-146.5-146.5-146.5h-61.6c-80.8,0-146.5,65.7-146.5,146.5v34.5H147
	C66.2,217.5,0.5,283.2,0.5,364v477c0,80.8,65.7,146.5,146.5,146.5h730c80.8,0,146.5-65.7,146.5-146.5V364
	C1023.5,283.2,957.8,217.5,877,217.5z M427.7,183c0-29.5,24-53.5,53.5-53.5h61.6c29.5,0,53.5,24,53.5,53.5v34.5H427.7V183z
	 M930.5,841c0,29.5-24,53.5-53.5,53.5H147c-29.5,0-53.5-24-53.5-53.5V697.4c16.6,6.5,34.6,10.1,53.5,10.1h634
	c25.7,0,46.5-20.8,46.5-46.5s-20.8-46.5-46.5-46.5H147c-29.5,0-53.5-24-53.5-53.5V364c0-29.5,24-53.5,53.5-53.5h730
	c29.5,0,53.5,24,53.5,53.5V841z"/>
</svg>
