<?xml version="1.0" encoding="utf-8"?>
<!-- Generator: Adobe Illustrator 17.0.0, SVG Export Plug-In . SVG Version: 6.00 Build 0)  -->
<!DOCTYPE svg PUBLIC "-//W3C//DTD SVG 1.1//EN" "http://www.w3.org/Graphics/SVG/1.1/DTD/svg11.dtd">
<svg version="1.1" id="Calque_1" xmlns="http://www.w3.org/2000/svg" xmlns:xlink="http://www.w3.org/1999/xlink" x="0px" y="0px"
	 width="1024px" height="1024px" viewBox="0 0 1024 1024" enable-background="new 0 0 1024 1024" xml:space="preserve">
<g>
	<title>CN-1280-BORNE-BURALISTES-ICONS</title>
	<g>
		<g>
			<path d="M898.6,949.1H166.4C74.7,949.1,0,874.4,0,782.6V343.1c0-91.8,74.7-166.5,166.4-166.5h691.1
				c91.8,0,166.4,74.7,166.4,166.5v439.5c0,48.2-8.5,86.6-25.3,114c-10.3,16.8-23.7,29.7-40,38.5
				C941.6,944.4,921.4,949.1,898.6,949.1z M166.4,216.6C96.7,216.6,40,273.3,40,343.1v439.5c0,69.8,56.7,126.5,126.4,126.5h732.1
				c30.6,0,52.2-10.9,66-33.4c12.9-21,19.4-52.4,19.4-93.1V343.1c0-69.8-56.7-126.5-126.4-126.5H166.4z"/>
			<path d="M510.1,756.7c-11,0-20-9-20-20v-83H160.6C72,653.6,0,578.9,0,487.1c0-11,9-20,20-20s20,9,20,20
				c0,69.8,54.1,126.5,120.6,126.5h329.5v-47.9c0-11,9-20,20-20s20,9,20,20v47.9h333.4c66.5,0,120.6-56.8,120.6-126.5
				c0-11,9-20,20-20s20,9,20,20c0,91.8-72,166.5-160.6,166.5H530.1v83C530.1,747.7,521.1,756.7,510.1,756.7z M599.7,216.4
				c-11,0-20-9-20-20v-54.8c0-15.2-12.4-27.6-27.5-27.6H457c-15.2,0-27.5,12.4-27.5,27.6v54.8c0,11-9,20-20,20s-20-9-20-20v-54.8
				c0-37.3,30.3-67.6,67.5-67.6h95.1c37.2,0,67.5,30.3,67.5,67.6v54.8C619.7,207.4,610.7,216.4,599.7,216.4z"/>
		</g>
	</g>
</g>
</svg>
