<?xml version="1.0" encoding="utf-8"?>
<!-- Generator: Adobe Illustrator 17.0.0, SVG Export Plug-In . SVG Version: 6.00 Build 0)  -->
<!DOCTYPE svg PUBLIC "-//W3C//DTD SVG 1.1//EN" "http://www.w3.org/Graphics/SVG/1.1/DTD/svg11.dtd">
<svg version="1.1" id="Calque_1" xmlns="http://www.w3.org/2000/svg" xmlns:xlink="http://www.w3.org/1999/xlink" x="0px" y="0px"
	 width="1024px" height="1024px" viewBox="0 0 1024 1024" enable-background="new 0 0 1024 1024" xml:space="preserve">
<title>CN-1280-BORNE-BURALISTES-ICONS</title>
<g>
	<g>
		<path d="M681,1024.5H343.7c-104,0-188.7-84.7-188.7-188.8V329.3c0-104.1,84.6-188.8,188.7-188.8H383c-0.1-0.9-0.2-1.7-0.2-2.6
			V74.8c0-41.2,33.5-74.8,74.8-74.8h109.5c41.2,0,74.8,33.6,74.8,74.8v63.1c0,0.9-0.1,1.8-0.2,2.6H681c104,0,188.7,84.7,188.7,188.8
			v506.3C869.7,939.8,785,1024.5,681,1024.5z M195,710.8v124.9c0,82,66.7,148.8,148.7,148.8H681c82,0,148.7-66.7,148.7-148.8V711.5
			h-95.1v101c0,11-9,20-20,20s-20-9-20-20v-101H200.3C198.5,711.5,196.7,711.2,195,710.8z M343.7,180.6
			c-82,0-148.7,66.7-148.7,148.8v342.9c1.7-0.5,3.5-0.7,5.3-0.7h629.4V329.3c0-82-66.7-148.8-148.7-148.8H343.7z M422.6,140.6H602
			c-0.1-0.9-0.2-1.7-0.2-2.6V74.8c0-19.2-15.6-34.8-34.8-34.8H457.6c-19.2,0-34.8,15.6-34.8,34.8v63.1
			C422.8,138.8,422.7,139.7,422.6,140.6z"/>
	</g>
</g>
</svg>
