<?xml version="1.0" encoding="utf-8"?>
<!-- Generator: Adobe Illustrator 21.1.0, SVG Export Plug-In . SVG Version: 6.00 Build 0)  -->
<svg version="1.1" id="Calque_1" xmlns="http://www.w3.org/2000/svg" xmlns:xlink="http://www.w3.org/1999/xlink" x="0px" y="0px"
	 viewBox="0 0 1024 1024" style="enable-background:new 0 0 1024 1024;" xml:space="preserve">
<path d="M724.3,181.5V147c0-80.8-65.7-146.5-146.5-146.5H446.2c-80.8,0-146.5,65.7-146.5,146.5v34.5C219.7,182.5,155,247.8,155,328
	v549c0,80.8,65.7,146.5,146.5,146.5h421c80.8,0,146.5-65.7,146.5-146.5V328C869,247.8,804.3,182.5,724.3,181.5z M446.2,93.5h131.6
	c29.5,0,53.5,24,53.5,53.5v34.5H392.7V147C392.7,117.5,416.7,93.5,446.2,93.5z M776,877c0,29.5-24,53.5-53.5,53.5h-421
	c-29.5,0-53.5-24-53.5-53.5V727.5h399c25.7,0,46.5-20.8,46.5-46.5s-20.8-46.5-46.5-46.5H248V328c0-29.5,24-53.5,53.5-53.5h421
	c29.5,0,53.5,24,53.5,53.5V877z"/>
</svg>
