<?xml version="1.0" encoding="utf-8"?>
<!-- Generator: Adobe Illustrator 17.0.0, SVG Export Plug-In . SVG Version: 6.00 Build 0)  -->
<!DOCTYPE svg PUBLIC "-//W3C//DTD SVG 1.1//EN" "http://www.w3.org/Graphics/SVG/1.1/DTD/svg11.dtd">
<svg version="1.1" id="Calque_1" xmlns="http://www.w3.org/2000/svg" xmlns:xlink="http://www.w3.org/1999/xlink" x="0px" y="0px"
	 width="1024px" height="1024px" viewBox="0 0 1024 1024" enable-background="new 0 0 1024 1024" xml:space="preserve">
<title>CN-1280-BORNE-BURALISTES-ICONS</title>
<g>
	<g>
		<path d="M691.1,1024.5H332.9c-11,0-20-9-20-20c0-106.3,83.8-193.5,188.8-198.8V182.2c-39.2-4.4-71-33.6-79.2-71.5H235.4l168,256
			c2.7,4.1,3.7,8.7,3.2,13.2c0.1,0.7,0.1,1.5,0.1,2.2c0,70.3-57.2,127.5-127.5,127.5H126.9c-70.3,0-127.5-57.2-127.5-127.5
			c0-0.8,0-1.5,0.1-2.2c-0.5-4.3,0.4-8.9,2.9-12.8L180.2,82.7c3.1-7.1,10.1-12,18.3-12h224.1C431.9,30,468.5-0.5,512-0.5
			s80.1,30.5,89.4,71.2h224.1c8.2,0,15.3,4.9,18.3,12l177.7,284.3c2.5,4,3.4,8.5,2.9,12.8c0.1,0.7,0.1,1.5,0.1,2.2
			c0,70.3-57.2,127.5-127.5,127.5H744.8c-70.3,0-127.5-57.2-127.5-127.5c0-0.8,0-1.5,0.1-2.2c-0.5-4.5,0.5-9.1,3.2-13.2l168-256
			H601.5c-6.9,31.4-29.9,56.8-59.8,67.1v629.8c95.7,14.4,169.4,97.2,169.4,196.9C711.1,1015.6,702.1,1024.5,691.1,1024.5z
			 M354.2,984.5h315.7C660,906.2,593,845.4,512,845.4C431,845.4,364,906.2,354.2,984.5z M659.7,402.2c9.1,38.6,43.8,67.5,85.2,67.5
			h152.2c41.3,0,76.1-28.8,85.2-67.5H659.7z M41.8,402.2c9.1,38.6,43.8,67.5,85.2,67.5h152.2c41.3,0,76.1-28.8,85.2-67.5H41.8z
			 M671.5,362.2h299.8L825,128.2L671.5,362.2z M52.8,362.2h299.8L199,128.2L52.8,362.2z M512,39.5c-28.5,0-51.6,23.2-51.6,51.6
			c0,28.5,23.2,51.6,51.6,51.6s51.6-23.2,51.6-51.6C563.6,62.6,540.5,39.5,512,39.5z"/>
	</g>
</g>
</svg>
