<?xml version="1.0" encoding="utf-8"?>
<!-- Generator: Adobe Illustrator 21.1.0, SVG Export Plug-In . SVG Version: 6.00 Build 0)  -->
<svg version="1.1" id="Calque_1" xmlns="http://www.w3.org/2000/svg" xmlns:xlink="http://www.w3.org/1999/xlink" x="0px" y="0px"
	 viewBox="0 0 1024 1024" style="enable-background:new 0 0 1024 1024;" xml:space="preserve">
<path d="M1003.7,345.4l-117-229.5c-6.8-17.3-23.6-29.6-43.3-29.6H635.5c-18.9-50.2-67.4-86-124.1-86c-56.7,0-105.2,35.8-124.1,86
	H181.4c-19.7,0-36.5,12.2-43.3,29.5L20.5,345.1c-28.8,56.2-26.7,122.2,5.7,176.6c32,53.7,88.2,86.6,150.5,88c1.5,0,2.9,0,4.4,0
	s2.9,0,4.4,0c62.1-1.4,118.4-34.3,150.4-87.9c32.4-54.3,34.7-120.2,6-176.5l-84.7-166.1h130.3c13.4,35.7,41.9,64.1,77.6,77.6v571.9
	c0,3.5,0.4,6.8,1.1,10.1c-0.4,2.4-0.6,4.9-0.6,7.4c0,25.7,20.8,46.5,46.5,46.5h186.5v38h-410v-38.5h86c25.7,0,46.5-20.8,46.5-46.5
	s-20.8-46.5-46.5-46.5H241.9c-25.7,0-46.5,20.8-46.5,46.5v131.5c0,25.7,20.8,46.5,46.5,46.5h503c25.7,0,46.5-20.8,46.5-46.5v-131
	c0-25.7-20.8-46.5-46.5-46.5h-187V256.8c35.7-13.4,64.1-41.9,77.6-77.6h132.1l-85.1,165.8c-28.8,56.2-26.7,122.2,5.7,176.6
	c32,53.7,88.2,86.6,150.5,88c1.4,0,2.9,0,4.4,0s2.9,0,4.4,0c62.1-1.4,118.4-34.3,150.4-87.9C1030.1,467.5,1032.4,401.6,1003.7,345.4
	z M511.4,93.2c21.8,0,39.5,17.7,39.5,39.5s-17.7,39.5-39.5,39.5s-39.5-17.7-39.5-39.5S489.7,93.2,511.4,93.2z M255.9,474.1
	c-15.8,26.4-42.2,41.9-72.6,42.6c-1.5,0-3.1,0-4.6,0c-30.4-0.7-56.9-16.2-72.6-42.6c-15.9-26.7-16.9-59-2.8-86.5l78.1-152.2
	l77.6,152.2C272.9,415.1,271.8,447.5,255.9,474.1z M917.9,474.1c-15.8,26.4-42.2,41.9-72.6,42.6c-1.5,0-3.1,0-4.6,0
	c-30.4-0.7-56.9-16.2-72.6-42.6c-15.9-26.7-16.9-59-2.8-86.5l78.1-152.2l77.6,152.2C934.9,415.1,933.8,447.5,917.9,474.1z"/>
</svg>
