<svg id="b8d07663-214c-47e1-aa07-42a95294e145" data-name="Calque 1" xmlns="http://www.w3.org/2000/svg" viewBox="0 0 1024 790.94"><title>picto-dev</title><path d="M920.94,210.53a9.07,9.07,0,0,1,9.06,9.06V804.41a9.06,9.06,0,0,1-9.06,9.06H103.06A9.06,9.06,0,0,1,94,804.41V219.59a9.07,9.07,0,0,1,9.06-9.06H920.94m0-94H103.06A103.06,103.06,0,0,0,0,219.59V804.41A103.06,103.06,0,0,0,103.06,907.47H920.94A103.06,103.06,0,0,0,1024,804.41V219.59A103.06,103.06,0,0,0,920.94,116.53Z" transform="translate(0 -116.53)"/><path d="M320.4,666.47a46.85,46.85,0,0,1-33.23-13.76L181,546.56a47,47,0,0,1-.4-66l106.14-108.8A47,47,0,1,1,354,437.35l-73.72,75.57,73.31,73.32a47,47,0,0,1-33.23,80.23Z" transform="translate(0 -116.53)"/><path d="M703.6,666.47A47,47,0,0,1,670,586.65l73.72-75.57-73.31-73.32a47,47,0,1,1,66.46-66.46L843,477.44a47,47,0,0,1,.4,66.05L737.24,652.29A46.85,46.85,0,0,1,703.6,666.47Z" transform="translate(0 -116.53)"/><path d="M428.68,762a47,47,0,0,1-43.51-64.74l165.41-406a47,47,0,1,1,87,35.46l-165.4,406A47,47,0,0,1,428.68,762Z" transform="translate(0 -116.53)"/></svg>