<?xml version="1.0" encoding="utf-8"?>
<!-- Generator: Adobe Illustrator 21.1.0, SVG Export Plug-In . SVG Version: 6.00 Build 0)  -->
<svg version="1.1" id="Calque_1" xmlns="http://www.w3.org/2000/svg" xmlns:xlink="http://www.w3.org/1999/xlink" x="0px" y="0px"
	 viewBox="0 0 1024 1024" style="enable-background:new 0 0 1024 1024;" xml:space="preserve">
<g>
	<path d="M841.3,558.6c-2.9-25.1-16.9-47.2-38.4-60.6L620,384.6l95.6-274.4c12.7-36.5-1.3-76.4-34-96.9
		C648.8-7.2,606.9-2.5,579.5,24.9L206.1,398.3c-17.9,17.9-26.5,42.6-23.6,67.7c2.9,25.1,16.9,47.2,38.4,60.6L403.7,640l-95.6,274.4
		c-12.7,36.5,1.3,76.4,34,96.9c13.6,8.5,28.8,12.7,43.9,12.7c21.2,0,42.2-8.3,58.2-24.2l373.5-373.5
		C835.6,608.4,844.2,583.7,841.3,558.6z M464.2,816.9l78.8-226.1L316.8,450.5l242.8-242.8l-78.8,226.1l226.1,140.2L464.2,816.9z"/>
	<path d="M414.9,16.9c-22.5-22.5-59-22.5-81.5,0L16.9,333.4c-22.5,22.5-22.5,59,0,81.5c11.3,11.3,26,16.9,40.7,16.9
		s29.5-5.6,40.7-16.9L414.9,98.4C437.4,75.9,437.4,39.4,414.9,16.9z"/>
	<path d="M1007.1,609c-22.5-22.5-59-22.5-81.5,0L609.1,925.6c-22.5,22.5-22.5,59,0,81.5c11.3,11.2,26,16.9,40.7,16.9
		c14.7,0,29.5-5.6,40.7-16.9l316.5-316.5C1029.6,668,1029.6,631.5,1007.1,609z"/>
</g>
</svg>
