<?xml version="1.0" encoding="utf-8"?>
<!-- Generator: Adobe Illustrator 21.1.0, SVG Export Plug-In . SVG Version: 6.00 Build 0)  -->
<svg version="1.1" id="Calque_1" xmlns="http://www.w3.org/2000/svg" xmlns:xlink="http://www.w3.org/1999/xlink" x="0px" y="0px"
	 viewBox="0 0 1024 1024" style="enable-background:new 0 0 1024 1024;" xml:space="preserve">
<g id="Page-1_1_">
	<g id="icon-1-copy-11">
		<g id="Page-1" transform="translate(25.000000, 159.000000)">
			<path d="M0.3,553.6c-7.2,0-14.2-3.1-19.1-8.8c-7.5-8.8-8-21.5-1.2-30.8l61.3-85l36.1-52.1c-26.7-40-40.7-84.8-40.7-130.6
				c0-37.3,8.9-73.3,26.6-107.3c16.8-32.3,40.7-61.3,71.2-86c61.5-50.1,143-77.6,229.4-77.6c70.1,0,136.9,18,193.2,52.1
				c27.4,16.6,51.4,36.5,71.4,59.2c20.5,23.3,36.2,48.9,46.9,76.3c1,2.6,2,5.2,2.9,7.8c2.8,8.1,1.3,17.2-4.1,23.9
				c-5.4,6.7-13.9,10.2-22.4,9.2c-13.5-1.6-27.3-2.4-41.1-2.4c-152.8,0-277.1,99.1-277.1,220.9c0,20,3.4,39.9,10,59
				c2.8,8.1,1.3,17.2-4.1,23.9c-5.4,6.7-13.9,10.2-22.5,9.1c-3.5-0.4-7-0.9-10.4-1.4c-44.2-6.5-87.1-21-124.8-41.9l-48.3,19l-122,61
				C7.9,552.7,4.1,553.6,0.3,553.6z M363.9,25.3c-152.8,0-277.1,99.1-277.1,220.9c0,40.5,14.2,80.3,41.1,115.1
				c6.7,8.6,7,20.6,0.7,29.5l-46.3,66.7c-0.1,0.1-0.2,0.2-0.3,0.4l-2,2.8l32.1-16c0.7-0.3,1.3-0.6,2-0.9l60.5-23.8
				c7.3-2.8,15.4-2.2,22.1,1.9c27,16.3,57.5,28.6,89.5,36.2c-1.9-11.9-2.8-23.9-2.8-35.9c0-37.2,8.9-73.3,26.6-107.2
				c16.8-32.3,40.7-61.3,71.2-86c62.4-50.8,145.3-78.4,233-77.6c-19.1-31.7-47.7-59.9-83-81.2C482.7,40.8,424.8,25.3,363.9,25.3z"/>
			<path d="M974.2,729.7c-3.8,0-7.6-0.9-11.2-2.6l-121.9-61l-48.2-18.9c-54.2,30.2-116.9,46.1-182.3,46.1
				c-86.4,0-167.9-27.6-229.4-77.6c-30.4-24.8-54.4-53.7-71.2-86c-17.6-33.9-26.6-70-26.6-107.3c0-37.2,8.9-73.3,26.6-107.2
				c16.8-32.3,40.7-61.3,71.2-86c61.5-50.1,143-77.6,229.4-77.6c34.2,0,67.9,4.3,100.2,12.9c64.8,17.2,120.7,50.2,161.7,95.4
				c42.7,47.1,65.3,103.4,65.3,162.6c0,45.8-14,90.6-40.7,130.6l36.1,52.1l61.3,85.1c6.7,9.3,6.2,22.1-1.2,30.8
				C988.3,726.6,981.3,729.7,974.2,729.7z M610.6,201.4c-152.8,0-277.1,99.1-277.1,220.9c0,121.8,124.3,220.9,277.1,220.9
				c60.6,0,118.4-15.6,167.2-45.2c6.7-4,14.8-4.7,22.1-1.9l60.5,23.8c0.7,0.3,1.4,0.6,2,0.9l32,16l-2-2.8c-0.1-0.1-0.2-0.2-0.3-0.4
				l-46.3-66.7c-6.2-8.9-5.9-20.9,0.7-29.5c26.9-34.9,41.1-74.7,41.1-115.1c0-46.6-18.1-91.2-52.3-129
				c-34-37.5-82.8-66.1-137.4-80.6C669.8,205.2,640.4,201.4,610.6,201.4z"/>
		</g>
	</g>
</g>
</svg>
