<svg id="Calque_3" data-name="Calque 3" xmlns="http://www.w3.org/2000/svg" viewBox="0 0 1024 1024"><title>Plan de travail 1</title><path d="M203.79,1024a46.32,46.32,0,0,1-18-89c.94-.4,94.89-39.95,150.86-68a81.49,81.49,0,0,1,60.57-4.94,392.76,392.76,0,0,0,158.22,14.76c188.24-20.48,338.34-178.57,349.16-367.74A394.4,394.4,0,0,0,789,206.69C709,127.38,598.36,86.18,485.57,93.47c-196.78,12.81-354.17,171-366.12,367.86A394,394,0,0,0,234.52,764.44c17.52,17.44,20.11,46.2,3.83,64.8a46.34,46.34,0,0,1-67.45,2.57A486.57,486.57,0,0,1,27,455.72C41.77,212.35,236.32,16.88,479.56,1A486,486,0,0,1,997.1,514.37C983.73,748.19,798.18,943.6,565.49,968.91a485.11,485.11,0,0,1-182.94-14.66,22.9,22.9,0,0,0-16.23,1.41c-58.66,28.54-140.89,63.16-144.61,64.71A46.11,46.11,0,0,1,203.79,1024Z"/><path d="M672.68,434.53H344.07a46.31,46.31,0,1,1,0-92.63h328.6a46.31,46.31,0,1,1,0,92.63Z"/><path d="M672.68,629.9H344.07a46.31,46.31,0,1,1,0-92.63h328.6a46.31,46.31,0,1,1,0,92.63Z"/></svg>