<?xml version="1.0" encoding="utf-8"?>
<!-- Generator: Adobe Illustrator 21.1.0, SVG Export Plug-In . SVG Version: 6.00 Build 0)  -->
<svg version="1.1" id="Calque_1" xmlns="http://www.w3.org/2000/svg" xmlns:xlink="http://www.w3.org/1999/xlink" x="0px" y="0px"
	 viewBox="0 0 1024 1024" style="enable-background:new 0 0 1024 1024;" xml:space="preserve">
<g id="Page-1">
	<g id="icon-1-copy-13">
		<path d="M30,925c-8.6,0-17-3.7-22.9-10.6c-8.9-10.5-9.6-25.8-1.5-37l88.9-123.2l54.8-78.9C109.8,617.5,89,552.5,89,486.1
			c0-52.9,12.7-104.2,37.8-152.4c23.9-46.1,58.1-87.3,101.4-122.6c88-71.6,204.6-111,328.3-111s240.3,39.4,328.3,111
			c43.4,35.3,77.5,76.6,101.4,122.6c25.1,48.2,37.8,99.5,37.8,152.4s-12.7,104.2-37.8,152.4c-23.9,46.1-58.1,87.3-101.4,122.6
			c-88,71.6-204.6,111-328.3,111c-94.5,0-185.3-23.3-263.4-67.4l-72.9,28.6L43.4,921.8C39.1,924,34.6,925,30,925z M556.5,160
			C331.8,160,149,306.3,149,486.1c0,60,21,118.9,60.8,170.5c8,10.4,8.3,24.7,0.9,35.4l-67,96.6c-0.1,0.1-0.2,0.3-0.3,0.4l-17.7,24.5
			l69-34.5c0.8-0.4,1.6-0.8,2.4-1.1l87.7-34.4c8.7-3.4,18.5-2.6,26.5,2.3c71.6,43.4,156.4,66.3,245.3,66.3
			c224.7,0,407.5-146.3,407.5-326.1C964,306.3,781.2,160,556.5,160z"/>
	</g>
</g>
</svg>
