<svg id="48e3bcc8-1238-4204-862b-e7a2fe062872" data-name="Calque 35" xmlns="http://www.w3.org/2000/svg" viewBox="0 0 915.04 1024"><title>shopping</title><path d="M288.36,728.78H671.55a161.17,161.17,0,0,0,126.54-61.93l166.6-214.33a22.91,22.91,0,0,0-11.41-36L214.91,192.09V117.45a22.9,22.9,0,0,0-8.33-17.68L92,5.21A22.92,22.92,0,0,0,62.81,40.57l106.26,87.69v80.63c0,.07,0,.12,0,.19V609.5c0,.15,0,.29,0,.44V734.07a115.91,115.91,0,0,0,31.53,79.2c-41.66,15.28-71.63,55-71.63,101.88a108.86,108.86,0,0,0,217.71,0,107.85,107.85,0,0,0-21.56-64.39H723.46a107.85,107.85,0,0,0-21.56,64.39,108.86,108.86,0,0,0,217.71,0c0-56.69-43.71-102.86-99.11-107.87a22.52,22.52,0,0,0-9.74-2.35H285.81a71,71,0,0,1-70.9-70.86V702.79C235.22,718.82,260.53,728.78,288.36,728.78Zm619.7-278.07-146.14,188a115.15,115.15,0,0,1-90.37,44.2H288.36a73.54,73.54,0,0,1-73.45-73V240ZM237.82,978.17a63,63,0,1,1,63-63A63.1,63.1,0,0,1,237.82,978.17Zm636-63a63,63,0,1,1-63-63A63.1,63.1,0,0,1,873.77,915.14Z" transform="translate(-54.48 0)"/></svg>