<?xml version="1.0" encoding="utf-8"?>
<!-- Generator: Adobe Illustrator 23.0.3, SVG Export Plug-In . SVG Version: 6.00 Build 0)  -->
<svg version="1.1" id="Calque_1" xmlns="http://www.w3.org/2000/svg" xmlns:xlink="http://www.w3.org/1999/xlink" x="0px" y="0px"
	 viewBox="0 0 1024 1024" style="enable-background:new 0 0 1024 1024;" xml:space="preserve">
<g>
	<path d="M876.5,0h-729C66.7,0,1,65.7,1,146.5v731C1,958.3,66.7,1024,147.5,1024h729c80.8,0,146.5-65.7,146.5-146.5v-731
		C1023,65.7,957.3,0,876.5,0z M930,146.5V466H558V93h318.5C906,93,930,117,930,146.5z M94,373V251V146.5C94,117,118,93,147.5,93H466
		v373H94v-82V373z M94,877.5V558h372v373H147.5C118,931,94,907,94,877.5z M876.5,931H558V558h372v319.5C930,907,906,931,876.5,931z"
		/>
	<path d="M194,327h11h146h11c25.41,0,46-20.59,46-46s-20.59-46-46-46h-11H205h-11c-25.41,0-46,20.59-46,46S168.59,327,194,327z"/>
	<path d="M830,695H673c-25.41,0-46,20.59-46,46s20.59,46,46,46h157c25.41,0,46-20.59,46-46S855.41,695,830,695z"/>
	<path d="M705.23,643.52c0.07,0.75,0.17,1.5,0.28,2.25c0.11,0.73,0.24,1.48,0.39,2.22c0.15,0.73,0.32,1.47,0.5,2.2
		c0.18,0.72,0.39,1.45,0.6,2.16c0.22,0.72,0.46,1.44,0.71,2.14c0.25,0.71,0.53,1.41,0.81,2.1c0.29,0.69,0.6,1.39,0.92,2.06
		c0.31,0.68,0.65,1.35,1,2.01c0.36,0.66,0.73,1.32,1.11,1.97c0.39,0.64,0.79,1.28,1.2,1.9c0.42,0.63,0.85,1.25,1.3,1.85
		c0.44,0.61,0.91,1.21,1.38,1.79c0.48,0.58,0.98,1.16,1.48,1.71c0.51,0.56,1.03,1.11,1.56,1.65c0.53,0.53,1.09,1.05,1.65,1.56
		c0.55,0.5,1.13,1,1.71,1.47c0.58,0.48,1.18,0.94,1.79,1.39c0.6,0.44,1.22,0.88,1.84,1.29c0.63,0.42,1.27,0.82,1.91,1.21
		c0.64,0.38,1.3,0.75,1.96,1.1s1.34,0.69,2.02,1.01c0.67,0.32,1.37,0.63,2.05,0.92c0.7,0.28,1.4,0.55,2.11,0.81
		c0.7,0.25,1.42,0.49,2.13,0.7c0.72,0.22,1.45,0.43,2.17,0.61c0.73,0.18,1.47,0.35,2.2,0.5c0.74,0.15,1.48,0.28,2.22,0.39
		c0.75,0.11,1.5,0.21,2.25,0.28c0.74,0.08,1.5,0.13,2.25,0.17S750.25,685,751,685s1.51-0.02,2.27-0.06c0.75-0.04,1.5-0.09,2.25-0.17
		c0.75-0.07,1.5-0.17,2.24-0.28c0.74-0.11,1.49-0.24,2.23-0.39c0.73-0.15,1.47-0.32,2.2-0.5c0.72-0.18,1.45-0.39,2.16-0.61
		c0.72-0.21,1.44-0.45,2.14-0.7c0.71-0.26,1.41-0.53,2.1-0.81c0.69-0.29,1.39-0.6,2.06-0.92c0.68-0.32,1.35-0.66,2.01-1.01
		c0.66-0.35,1.32-0.72,1.97-1.1c0.64-0.39,1.28-0.79,1.9-1.21c0.63-0.41,1.25-0.85,1.85-1.29c0.61-0.45,1.21-0.91,1.79-1.39
		c0.58-0.47,1.16-0.97,1.71-1.47c0.56-0.51,1.11-1.03,1.64-1.56c0.54-0.54,1.06-1.09,1.57-1.65c0.5-0.55,1-1.13,1.47-1.71
		c0.48-0.58,0.94-1.18,1.39-1.79c0.44-0.6,0.88-1.22,1.29-1.85c0.42-0.62,0.82-1.26,1.21-1.9c0.38-0.65,0.75-1.31,1.1-1.97
		c0.35-0.66,0.69-1.33,1.01-2.01c0.32-0.67,0.63-1.37,0.91-2.06c0.29-0.69,0.56-1.39,0.82-2.1c0.25-0.7,0.49-1.42,0.7-2.14
		c0.22-0.71,0.43-1.44,0.61-2.16c0.18-0.73,0.35-1.47,0.5-2.2c0.15-0.74,0.28-1.49,0.39-2.22c0.11-0.75,0.21-1.5,0.28-2.25
		c0.08-0.75,0.13-1.5,0.17-2.25c0.04-0.76,0.06-1.52,0.06-2.27s-0.02-1.52-0.06-2.27s-0.09-1.51-0.17-2.25
		c-0.07-0.75-0.17-1.5-0.28-2.25c-0.11-0.74-0.24-1.48-0.39-2.22c-0.15-0.73-0.32-1.47-0.5-2.2c-0.18-0.72-0.39-1.45-0.61-2.17
		c-0.21-0.71-0.45-1.43-0.7-2.13c-0.26-0.71-0.53-1.41-0.82-2.11c-0.28-0.69-0.59-1.38-0.91-2.05c-0.32-0.68-0.66-1.36-1.01-2.02
		s-0.72-1.32-1.1-1.96c-0.39-0.64-0.79-1.28-1.21-1.91c-0.41-0.62-0.85-1.24-1.29-1.84c-0.45-0.61-0.91-1.21-1.39-1.79
		c-0.47-0.58-0.97-1.16-1.47-1.71c-0.51-0.56-1.03-1.12-1.57-1.65c-0.53-0.53-1.08-1.06-1.64-1.56c-0.55-0.5-1.13-1-1.71-1.48
		c-0.58-0.47-1.18-0.94-1.79-1.38c-0.6-0.45-1.22-0.88-1.85-1.3c-0.62-0.41-1.26-0.81-1.9-1.2c-0.65-0.38-1.31-0.75-1.97-1.1
		c-0.66-0.36-1.33-0.7-2.01-1.01c-0.67-0.32-1.37-0.63-2.06-0.92c-0.69-0.28-1.39-0.55-2.1-0.81c-0.7-0.25-1.42-0.49-2.14-0.71
		c-0.71-0.21-1.44-0.42-2.16-0.6c-0.73-0.18-1.47-0.35-2.2-0.5c-0.74-0.15-1.49-0.28-2.23-0.39s-1.49-0.21-2.24-0.28
		c-0.75-0.08-1.5-0.13-2.25-0.17c-1.51-0.08-3.03-0.08-4.54,0c-0.75,0.04-1.51,0.09-2.25,0.17c-0.75,0.07-1.5,0.17-2.25,0.28
		c-0.74,0.11-1.48,0.24-2.22,0.39c-0.73,0.15-1.47,0.32-2.2,0.5c-0.72,0.18-1.45,0.39-2.17,0.6c-0.71,0.22-1.43,0.46-2.13,0.71
		c-0.71,0.26-1.41,0.53-2.11,0.81c-0.68,0.29-1.38,0.6-2.05,0.92c-0.68,0.31-1.36,0.65-2.02,1.01c-0.66,0.35-1.32,0.72-1.96,1.1
		c-0.64,0.39-1.28,0.79-1.91,1.2c-0.62,0.42-1.24,0.85-1.84,1.3c-0.61,0.44-1.21,0.91-1.79,1.38c-0.58,0.48-1.16,0.98-1.71,1.48
		c-0.56,0.5-1.12,1.03-1.65,1.56s-1.05,1.09-1.56,1.65c-0.5,0.55-1,1.13-1.48,1.71c-0.47,0.58-0.94,1.18-1.38,1.79
		c-0.45,0.6-0.88,1.22-1.3,1.84c-0.41,0.63-0.81,1.27-1.2,1.91c-0.38,0.64-0.75,1.3-1.11,1.96c-0.35,0.66-0.69,1.34-1,2.02
		c-0.32,0.67-0.63,1.36-0.92,2.05c-0.28,0.7-0.56,1.4-0.81,2.11c-0.25,0.7-0.49,1.42-0.71,2.13c-0.21,0.72-0.42,1.45-0.6,2.17
		c-0.18,0.73-0.35,1.47-0.5,2.2c-0.15,0.74-0.28,1.48-0.39,2.22c-0.11,0.75-0.21,1.5-0.28,2.25c-0.08,0.74-0.14,1.5-0.17,2.25
		c-0.04,0.75-0.06,1.52-0.06,2.27s0.02,1.51,0.06,2.27C705.09,642.02,705.15,642.77,705.23,643.52z"/>
	<path d="M796.77,838.48c-0.07-0.75-0.17-1.5-0.28-2.25c-0.11-0.74-0.24-1.48-0.39-2.22c-0.15-0.73-0.32-1.47-0.5-2.2
		c-0.18-0.72-0.39-1.45-0.61-2.17c-0.21-0.71-0.45-1.43-0.71-2.13c-0.25-0.71-0.52-1.41-0.81-2.1c-0.28-0.69-0.59-1.39-0.91-2.06
		c-0.32-0.68-0.66-1.36-1.01-2.02s-0.72-1.32-1.1-1.96c-0.39-0.64-0.79-1.28-1.21-1.9c-0.41-0.63-0.85-1.25-1.29-1.85
		c-0.45-0.61-0.91-1.21-1.39-1.79c-0.47-0.58-0.97-1.16-1.47-1.71c-0.51-0.56-1.03-1.11-1.57-1.65c-0.53-0.53-1.08-1.05-1.64-1.56
		c-0.56-0.5-1.13-1-1.72-1.47c-0.58-0.48-1.18-0.95-1.78-1.39c-0.6-0.45-1.22-0.88-1.85-1.3c-0.62-0.41-1.26-0.81-1.9-1.2
		c-0.65-0.38-1.31-0.75-1.97-1.11c-0.66-0.35-1.33-0.69-2.01-1c-0.67-0.32-1.37-0.63-2.06-0.92c-0.69-0.28-1.39-0.56-2.1-0.81
		c-0.7-0.25-1.42-0.49-2.14-0.71c-0.71-0.21-1.44-0.42-2.16-0.6c-0.73-0.18-1.47-0.35-2.2-0.5c-0.74-0.15-1.49-0.28-2.23-0.39
		s-1.49-0.21-2.24-0.28c-0.75-0.08-1.5-0.14-2.25-0.17c-1.51-0.08-3.03-0.08-4.54,0c-0.75,0.03-1.51,0.09-2.26,0.17
		c-0.74,0.07-1.49,0.17-2.24,0.28c-0.74,0.11-1.48,0.24-2.22,0.39c-0.73,0.15-1.47,0.32-2.2,0.5c-0.72,0.18-1.45,0.39-2.17,0.6
		c-0.71,0.22-1.43,0.46-2.13,0.71c-0.71,0.25-1.41,0.53-2.11,0.81c-0.69,0.29-1.38,0.6-2.05,0.92c-0.68,0.31-1.36,0.65-2.02,1
		c-0.66,0.36-1.32,0.73-1.96,1.11c-0.64,0.39-1.28,0.79-1.91,1.2c-0.62,0.42-1.24,0.85-1.84,1.3c-0.61,0.44-1.21,0.91-1.79,1.39
		c-0.58,0.47-1.16,0.97-1.71,1.47c-0.56,0.51-1.11,1.03-1.65,1.56c-0.53,0.54-1.05,1.09-1.56,1.65c-0.5,0.55-1,1.13-1.47,1.71
		c-0.48,0.58-0.95,1.18-1.39,1.79c-0.45,0.6-0.88,1.22-1.3,1.85c-0.41,0.62-0.81,1.26-1.2,1.9c-0.38,0.64-0.75,1.3-1.1,1.96
		c-0.36,0.66-0.7,1.34-1.01,2.02c-0.32,0.67-0.63,1.37-0.92,2.06c-0.28,0.69-0.55,1.39-0.81,2.1c-0.25,0.7-0.49,1.42-0.71,2.13
		c-0.21,0.72-0.42,1.45-0.6,2.17c-0.18,0.73-0.35,1.47-0.5,2.2c-0.15,0.74-0.28,1.48-0.39,2.22c-0.11,0.75-0.21,1.5-0.28,2.25
		c-0.08,0.74-0.13,1.5-0.17,2.25S705,842.25,705,843s0.02,1.51,0.06,2.27c0.04,0.75,0.09,1.5,0.17,2.25
		c0.07,0.75,0.17,1.5,0.28,2.24s0.24,1.49,0.39,2.23c0.15,0.73,0.32,1.47,0.5,2.2c0.18,0.72,0.39,1.45,0.6,2.16
		c0.22,0.72,0.46,1.44,0.71,2.14c0.26,0.71,0.53,1.41,0.81,2.1c0.29,0.69,0.6,1.39,0.92,2.06c0.31,0.68,0.65,1.35,1.01,2.01
		c0.35,0.66,0.72,1.32,1.1,1.97c0.39,0.64,0.79,1.28,1.2,1.9c0.42,0.63,0.85,1.25,1.3,1.85c0.44,0.61,0.91,1.21,1.39,1.79
		c0.47,0.58,0.97,1.16,1.47,1.71c0.51,0.56,1.03,1.11,1.56,1.65c0.54,0.53,1.09,1.05,1.65,1.56c0.55,0.5,1.13,1,1.71,1.47
		c0.58,0.48,1.18,0.94,1.79,1.39c0.6,0.44,1.22,0.88,1.84,1.29c0.63,0.42,1.27,0.82,1.91,1.21c0.64,0.38,1.3,0.75,1.96,1.1
		s1.34,0.69,2.02,1.01c0.67,0.32,1.36,0.63,2.05,0.92c0.7,0.28,1.4,0.55,2.11,0.81c0.7,0.25,1.42,0.49,2.13,0.7
		c0.72,0.22,1.45,0.43,2.17,0.61c0.73,0.18,1.47,0.35,2.2,0.5c0.74,0.15,1.48,0.28,2.22,0.39c0.75,0.11,1.5,0.21,2.24,0.28
		c0.75,0.08,1.51,0.13,2.26,0.17S750.25,889,751,889s1.51-0.02,2.27-0.06c0.75-0.04,1.5-0.09,2.25-0.17
		c0.75-0.07,1.5-0.17,2.24-0.28c0.74-0.11,1.49-0.24,2.23-0.39c0.73-0.15,1.47-0.32,2.2-0.5c0.72-0.18,1.45-0.39,2.16-0.61
		c0.72-0.21,1.44-0.45,2.14-0.7c0.71-0.26,1.41-0.53,2.1-0.81c0.69-0.29,1.39-0.6,2.06-0.92c0.68-0.32,1.35-0.66,2.01-1.01
		c0.66-0.35,1.32-0.72,1.97-1.1c0.64-0.39,1.28-0.79,1.9-1.21c0.63-0.41,1.25-0.85,1.85-1.29c0.6-0.45,1.2-0.91,1.78-1.39
		c0.59-0.47,1.16-0.97,1.72-1.47c0.56-0.51,1.11-1.03,1.64-1.56c0.54-0.54,1.06-1.09,1.57-1.65c0.5-0.55,1-1.13,1.47-1.71
		c0.48-0.58,0.94-1.18,1.39-1.79c0.44-0.6,0.88-1.22,1.29-1.85c0.42-0.62,0.82-1.26,1.21-1.9c0.38-0.65,0.75-1.31,1.1-1.97
		c0.35-0.66,0.69-1.33,1.01-2.01c0.32-0.67,0.63-1.37,0.91-2.06c0.29-0.69,0.56-1.39,0.81-2.1c0.26-0.7,0.5-1.42,0.71-2.14
		c0.22-0.71,0.43-1.44,0.61-2.16c0.18-0.73,0.35-1.47,0.5-2.2c0.15-0.74,0.28-1.49,0.39-2.23c0.11-0.74,0.21-1.49,0.28-2.24
		c0.08-0.75,0.13-1.5,0.17-2.25c0.04-0.76,0.06-1.52,0.06-2.27s-0.02-1.52-0.06-2.27S796.85,839.22,796.77,838.48z"/>
	<path d="M362,695h-32.5v-32.5c0-25.41-20.59-46-46-46s-46,20.59-46,46V695H205c-25.41,0-46,20.59-46,46s20.59,46,46,46h32.5v32.5
		c0,25.41,20.59,46,46,46s46-20.59,46-46V787H362c25.41,0,46-20.59,46-46S387.41,695,362,695z"/>
	<path d="M684.45,281l-22.98,22.98c-17.96,17.96-17.96,47.09,0,65.05c8.98,8.98,20.75,13.47,32.53,13.47s23.54-4.49,32.53-13.47
		l22.98-22.98l22.98,22.98c8.98,8.98,20.75,13.47,32.53,13.47s23.54-4.49,32.53-13.47c17.96-17.96,17.96-47.09,0-65.05L814.55,281
		l22.98-22.98c17.96-17.96,17.96-47.09,0-65.05c-17.96-17.96-47.09-17.96-65.05,0l-22.98,22.98l-22.98-22.98
		c-17.96-17.96-47.09-17.96-65.05,0c-17.96,17.96-17.96,47.09,0,65.05L684.45,281z"/>
</g>
</svg>
