<?xml version="1.0" encoding="utf-8"?>
<!-- Generator: Adobe Illustrator 21.1.0, SVG Export Plug-In . SVG Version: 6.00 Build 0)  -->
<svg version="1.1" id="Calque_1" xmlns="http://www.w3.org/2000/svg" xmlns:xlink="http://www.w3.org/1999/xlink" x="0px" y="0px"
	 viewBox="0 0 1024 1024" style="enable-background:new 0 0 1024 1024;" xml:space="preserve">
<path d="M836.1,82.3h-66.2V47c0-25.7-20.8-46.5-46.5-46.5S676.9,21.3,676.9,47v35.3H347.1V47c0-25.7-20.8-46.5-46.5-46.5
	S254.1,21.3,254.1,47v35.3h-66.2c-80.8,0-146.5,65.7-146.5,146.5V877c0,80.8,65.7,146.5,146.5,146.5h648.2
	c80.8,0,146.5-65.7,146.5-146.5V228.8C982.6,148,916.9,82.3,836.1,82.3z M889.6,877c0,29.5-24,53.5-53.5,53.5H187.9
	c-29.5,0-53.5-24-53.5-53.5V475.3h589.1c25.7,0,46.5-20.8,46.5-46.5s-20.8-46.5-46.5-46.5H134.4V228.8c0-29.5,24-53.5,53.5-53.5
	h66.2v36.5c0,25.7,20.8,46.5,46.5,46.5s46.5-20.8,46.5-46.5v-36.5h329.9v36.5c0,25.7,20.8,46.5,46.5,46.5s46.5-20.8,46.5-46.5v-36.5
	h66.2c29.5,0,53.5,24,53.5,53.5V877z"/>
</svg>
