<?xml version="1.0" encoding="utf-8"?>
<!-- Generator: Adobe Illustrator 17.0.0, SVG Export Plug-In . SVG Version: 6.00 Build 0)  -->
<!DOCTYPE svg PUBLIC "-//W3C//DTD SVG 1.1//EN" "http://www.w3.org/Graphics/SVG/1.1/DTD/svg11.dtd">
<svg version="1.1" id="Calque_1" xmlns="http://www.w3.org/2000/svg" xmlns:xlink="http://www.w3.org/1999/xlink" x="0px" y="0px"
	 width="1024px" height="1024px" viewBox="0 0 1024 1024" enable-background="new 0 0 1024 1024" xml:space="preserve">
<title>CN-1280-BORNE-BURALISTES-ICONS</title>
<g>
	<g>
		<path d="M760.3,1023.8H263.4c-55.1,0-106.9-21.5-145.9-60.4S57,872.5,57,817.4V320.5c0-55.1,21.5-106.9,60.4-145.9
			s90.8-60.4,145.9-60.4h496.9c55.1,0,106.9,21.5,145.9,60.4c39,39,60.4,90.8,60.4,145.9v496.9c0,55.1-21.5,106.9-60.4,145.9
			C867.2,1002.3,815.4,1023.8,760.3,1023.8z M263.4,154.1C171.6,154.1,97,228.7,97,320.5v496.9c0,91.7,74.6,166.4,166.4,166.4h496.9
			c91.7,0,166.4-74.6,166.4-166.4V320.5c0-91.7-74.6-166.4-166.4-166.4H263.4z"/>
		<path d="M338.3,667.6h-97.9c-31.2,0-56.6-25.4-56.6-56.7v-97.8c0-31.3,25.4-56.7,56.6-56.7h97.9c31.3,0,56.7,25.4,56.7,56.7v97.8
			C395,642.2,369.6,667.6,338.3,667.6z M240.4,496.4c-9.2,0-16.6,7.5-16.6,16.7v97.8c0,9.2,7.5,16.7,16.6,16.7h97.9
			c9.2,0,16.7-7.5,16.7-16.7v-97.8c0-9.2-7.5-16.7-16.7-16.7H240.4z M941,388.6H77v-40h864V388.6z M720.3,262.4h-11.2
			c-38.1,0-69-31-69-69V69c0-38.1,31-69,69-69h11.2c38.1,0,69,31,69,69v124.4C789.4,231.4,758.4,262.4,720.3,262.4z M709.2,40
			c-16,0-29,13-29,29v124.4c0,16,13,29,29,29h11.2c16,0,29-13,29-29V69c0-16-13-29-29-29H709.2z M289.3,262.4h-11.2
			c-38.1,0-69-31-69-69V69c0-38.1,31-69,69-69h11.2c38.1,0,69,31,69,69v124.4C358.3,231.4,327.4,262.4,289.3,262.4z M278.1,40
			c-16,0-29,13-29,29v124.4c0,16,13,29,29,29h11.2c16,0,29-13,29-29V69c0-16-13-29-29-29H278.1z"/>
	</g>
</g>
</svg>
