<?xml version="1.0" encoding="utf-8"?>
<!-- Generator: Adobe Illustrator 23.0.0, SVG Export Plug-In . SVG Version: 6.00 Build 0)  -->
<svg version="1.1" id="Calque_1" xmlns="http://www.w3.org/2000/svg" xmlns:xlink="http://www.w3.org/1999/xlink" x="0px" y="0px"
	 viewBox="0 0 1024 1024" style="enable-background:new 0 0 1024 1024;" xml:space="preserve">
<g>
	<path d="M1010.2,395.2c-6.3-26.9-33.2-43.6-60.1-37.3c-26.9,6.3-43.6,33.2-37.3,60.1c7.2,30.6,10.8,62.2,10.8,93.9
		c0,55.6-10.9,109.5-32.3,160.2c-20.7,49-50.4,93-88.2,130.8s-81.8,67.5-130.8,88.2c-50.7,21.4-104.6,32.3-160.2,32.3
		s-109.5-10.9-160.2-32.3c-49-20.7-93-50.4-130.8-88.2s-67.5-81.8-88.2-130.8c-21.4-50.7-32.3-104.6-32.3-160.2
		s10.9-109.5,32.3-160.2c20.7-49,50.4-93,88.2-130.8s81.8-67.5,130.8-88.2c50.7-21.4,104.6-32.3,160.2-32.3
		c64.2,0,125.7,14.4,182.7,42.7c54.4,27,103.1,66.6,140.8,114.5c17.1,21.7,48.5,25.5,70.2,8.4s25.5-48.5,8.4-70.2
		c-46.9-59.4-107.4-108.6-175-142.2C668.2,18.4,591.8,0.5,512,0.5c-69,0-136,13.5-199.1,40.2C252,66.5,197.3,103.3,150.3,150.3
		S66.5,252,40.7,312.9C14,376,0.5,443,0.5,512S14,648,40.7,711.1c25.8,60.9,62.6,115.6,109.6,162.6S252,957.5,312.9,983.3
		C376,1010,443,1023.5,512,1023.5s136-13.5,199.1-40.2c60.9-25.8,115.7-62.7,162.7-109.7S957.6,771.9,983.4,711
		c26.7-63.1,40.2-130.1,40.2-199.1C1023.6,472.5,1019.1,433.2,1010.2,395.2z"/>
	<path d="M223.2,512c0,159.5,129.3,288.8,288.8,288.8S800.8,671.5,800.8,512S671.5,223.2,512,223.2S223.2,352.5,223.2,512z
		 M562,375.9c0,27.6-22.4,50-50,50c-47.5,0-86.1,38.6-86.1,86.1c0,27.6-22.4,50-50,50s-50-22.4-50-50
		c0-102.6,83.5-186.1,186.1-186.1C539.6,325.9,562,348.3,562,375.9z"/>
</g>
</svg>
