<?xml version="1.0" encoding="utf-8"?>
<!-- Generator: Adobe Illustrator 21.1.0, SVG Export Plug-In . SVG Version: 6.00 Build 0)  -->
<svg version="1.1" id="Calque_1" xmlns="http://www.w3.org/2000/svg" xmlns:xlink="http://www.w3.org/1999/xlink" x="0px" y="0px"
	 viewBox="0 0 1024 1024" style="enable-background:new 0 0 1024 1024;" xml:space="preserve">
<g>
	<path d="M891.8,142.3H132.2c-72.8,0-132,59.2-132,132v475.4c0,72.8,59.2,132,132,132h759.7c72.8,0,132-59.2,132-132V274.3
		C1023.9,201.5,964.6,142.3,891.8,142.3z M929.9,749.7c0,21-17.1,38-38,38H132.2c-21,0-38-17.1-38-38V406.3c0-5.5,4.5-10,10-10
		h354.1c25.8,0,47.4-20.5,47.8-46.3c0.4-26.3-20.8-47.7-47-47.7H104.2c-5.5,0-10-4.5-10-10v-18c0-21,17.1-38,38-38h759.7
		c21,0,38,17.1,38,38V749.7z"/>
	<path d="M803.6,492.3H207.1c-26,0-47,21-47,47s21,47,47,47h596.5c26,0,47-21,47-47S829.5,492.3,803.6,492.3z"/>
	<path d="M423.6,642.3H207.1c-26,0-47,21-47,47s21,47,47,47h216.5c26,0,47-21,47-47S449.5,642.3,423.6,642.3z"/>
	<path d="M803.6,642.3H587.1c-26,0-47,21-47,47s21,47,47,47h216.5c26,0,47-21,47-47S829.5,642.3,803.6,642.3z"/>
</g>
</svg>
