<?xml version="1.0" encoding="utf-8"?>
<!-- Generator: Adobe Illustrator 17.0.0, SVG Export Plug-In . SVG Version: 6.00 Build 0)  -->
<!DOCTYPE svg PUBLIC "-//W3C//DTD SVG 1.1//EN" "http://www.w3.org/Graphics/SVG/1.1/DTD/svg11.dtd">
<svg version="1.1" id="Calque_1" xmlns="http://www.w3.org/2000/svg" xmlns:xlink="http://www.w3.org/1999/xlink" x="0px" y="0px"
	 width="1024px" height="1024px" viewBox="0 0 1024 1024" enable-background="new 0 0 1024 1024" xml:space="preserve">
<title>CN-1280-BORNE-BURALISTES-ICONS</title>
<g>
	<g transform="translate(15 84)">
		<path fill="#333333" d="M894.5,713.1H246.6c-8.3,0-15-6.7-15-15s6.7-15,15-15h647.9c27.8,0,50.5-22.6,50.5-50.5V477.1
			c0-8.3,6.7-15,15-15s15,6.7,15,15v155.5C975,677,938.9,713.1,894.5,713.1z M174.3,633c-8.3,0-15-6.7-15-15V239.8
			c0-44.4,36.1-80.5,80.5-80.5h375.8c8.3,0,15,6.7,15,15s-6.7,15-15,15H239.8c-27.8,0-50.5,22.6-50.5,50.5V618
			C189.3,626.3,182.6,633,174.3,633z M960,440.3c-8.3,0-15-6.7-15-15V239.8c0-27.8-22.6-50.5-50.5-50.5H784.4c-8.3,0-15-6.7-15-15
			s6.7-15,15-15h110.1c44.4,0,80.5,36.1,80.5,80.5v185.5C975,433.6,968.3,440.3,960,440.3z"/>
		<path fill="#333333" d="M435.6,886.9c-20.3,0-40.6-1.3-60.9-4c-49.6-6.6-97.5-21.5-142.4-44.4c-43.7-22.3-83.3-51.5-117.9-86.8
			C79.8,716.4,51.4,676.1,30,632C8,586.6-6,538.4-11.7,488.7c-7.5-66-1-130.9,19.3-192.8C27,236.5,58.1,182.7,99.9,136
			c41.9-46.9,92-83.9,149-109.9c59-27,122-40.6,187.3-40.6c60.9,0,119.9,11.9,175.5,35.4C665.3,43.5,713.6,76,755,117.4
			c41.4,41.4,73.9,89.6,96.6,143.3c21.6,51,33.4,104.9,35.2,160.5h106c6,0,11.4,3.6,13.8,9c2.4,5.5,1.3,11.9-2.8,16.2L833.2,628.3
			c-2.7,2.9-6.5,4.6-10.5,4.7c-4,0.1-7.9-1.4-10.8-4.1L621.6,447c-4.4-4.2-5.8-10.7-3.6-16.4c2.3-5.7,7.8-9.4,13.9-9.4h112.2
			c-1.8-37.1-10.1-73-24.7-107c-16.1-37.3-39.1-70.6-68.3-99c-29.2-28.4-63.1-50.4-100.7-65.4c-39.1-15.6-80.4-22.9-122.9-21.7
			c-59,1.6-116.3,20.8-165.8,55.4c-6.8,4.7-16.1,3.1-20.9-3.7c-4.7-6.8-3.1-16.1,3.7-20.9c54.3-38,117.3-59,182.2-60.8
			c46.6-1.3,92,6.7,134.9,23.8c41.3,16.5,78.5,40.6,110.5,71.8c32.1,31.2,57.3,67.7,74.9,108.6c18.3,42.4,27.5,87.4,27.5,133.9
			c0,8.3-6.7,15-15,15h-90.1l152.3,145.5l136.5-145.5H872c-8.3,0-15-6.7-15-15c0-56.8-11.1-111.9-33.1-163.8
			c-21.2-50.1-51.5-95.1-90.2-133.8c-38.7-38.7-83.7-69-133.8-90.2c-51.9-21.9-107-33.1-163.8-33.1c-61,0-119.8,12.8-174.9,37.9
			c-53.2,24.3-100,58.9-139.1,102.7c-39,43.7-68,93.9-86.1,149.2c-18.9,57.8-25,118.4-18,180.1c5.2,46.3,18.3,91.3,38.8,133.6
			c20,41.2,46.5,78.8,78.8,111.8c32.3,33,69.3,60.2,110.1,81.1c41.9,21.4,86.5,35.3,132.7,41.4c71.7,9.5,144.5,0.9,210.4-24.8
			c11.9-4.6,20.8-14.4,24.5-26.7c3.7-12.4,1.5-25.5-6.1-36c-11.1-15.4-31.1-20.9-49.9-13.7c-38.7,14.9-79.5,22.4-121.3,22.4
			c-73.9,0-144.1-23.4-203-67.7c-15.6-11.7-30.3-24.9-43.7-39.2c-13-13.9-24.9-29-35.3-44.6c-38.6-58.2-58-126.1-56.1-196.4
			c1.8-65,22.9-128,61-182.4c4.8-6.8,14.1-8.4,20.9-3.7c6.8,4.8,8.4,14.1,3.7,20.9c-34.7,49.5-53.9,106.9-55.5,166
			c-1.8,64,15.9,125.9,51.1,178.9c9.5,14.3,20.3,28,32.2,40.7c12.2,13,25.6,25,39.9,35.7c53.7,40.4,117.7,61.7,185,61.7
			c38.1,0,75.3-6.9,110.5-20.4c31.2-12,66.2-2,85,24.2c13,18.1,16.8,40.7,10.5,62c-6.3,21.3-21.7,38.1-42.3,46.1
			C547.9,876.6,492,886.9,435.6,886.9z"/>
		<path fill="#333333" d="M329.6,406.9h-56.9c-19.3,0-35-15.7-35-35V315c0-19.3,15.7-35,35-35h56.9c19.3,0,35,15.7,35,35v56.9
			C364.6,391.2,348.9,406.9,329.6,406.9z M272.7,310c-2.8,0-5,2.2-5,5v56.9c0,2.8,2.2,5,5,5h56.9c2.8,0,5-2.2,5-5V315
			c0-2.8-2.2-5-5-5H272.7z"/>
	</g>
</g>
</svg>
