<?xml version="1.0" encoding="utf-8"?>
<!-- Generator: Adobe Illustrator 21.1.0, SVG Export Plug-In . SVG Version: 6.00 Build 0)  -->
<svg version="1.1" id="Calque_1" xmlns="http://www.w3.org/2000/svg" xmlns:xlink="http://www.w3.org/1999/xlink" x="0px" y="0px"
	 viewBox="0 0 1024 1024" style="enable-background:new 0 0 1024 1024;" xml:space="preserve">
<g>
	<path d="M873.9,129.9H150.8c-83.1,0-150.5,67.4-150.5,150.5v477c0,27.1,23.1,48.9,50.7,46.2c24-2.3,41.7-24,41.7-48.1V280.4
		c0-31.9,26-57.9,57.9-57.9h723.3c31.9,0,57.9,25.9,57.9,57.9v466.7c0,32.1-26,58-57.9,58H222.8c-27.1,0-48.6,23.1-46.1,50.8
		c2.2,24,23.9,41.7,48.1,41.7h649c83,0,150.4-67.4,150.4-150.5V280.4C1024.3,197.2,956.9,129.9,873.9,129.9z"/>
	<path d="M596.8,469.3h191c25.5,0,46.1-20.6,46.1-46.1c0-25.6-20.6-46.4-46.1-46.4h-191c-25.6,0-46.3,20.8-46.3,46.4
		C550.5,448.7,571.2,469.3,596.8,469.3z"/>
	<path d="M596.8,650.7h191c25.5,0,46.1-20.8,46.1-46.3c0-25.6-20.6-46.2-46.1-46.2h-191c-25.6,0-46.3,20.6-46.3,46.2
		C550.5,629.9,571.2,650.7,596.8,650.7z"/>
	<path d="M416.2,411.3c0-49.5-40.4-90-90-90c-49.6,0-90,40.5-90,90c0,49.7,40.4,90,90,90C375.8,501.3,416.2,461,416.2,411.3z"/>
	<path d="M183.5,675.2c0,49.8,284.1,49.8,284.1,0c0-74.2-63.6-141.9-142-141.9C247.2,533.4,183.5,596.8,183.5,675.2z"/>
</g>
</svg>
