<svg id="Calque_9" data-name="Calque 9" xmlns="http://www.w3.org/2000/svg" viewBox="0 0 1024 1024"><title>Plan de travail 1</title><path d="M511.92,1005.68a46.15,46.15,0,0,1-19-4.09l-327.55-147a46.46,46.46,0,0,1-25-57.1l98.56-295.22L12.62,243.77c-11.52-13.15-16-31.67-9.86-48a46.5,46.5,0,0,1,57-28.44l185.21,55.57V164.68c0-12.08,3.83-24.16,12-33.06a46.48,46.48,0,0,1,59.8-7.78l50.3,32.7,205.75-131a46.49,46.49,0,0,1,52.63,1.88l379.81,281.8a46.47,46.47,0,0,1,9.9,64.62l-137,188.58,58.63,225.78A46.45,46.45,0,0,1,918.42,838L795.9,923.74a46.48,46.48,0,0,1-44.53,4.82l-145.18-60.5c-22.39-9.33-35.57-34-28.4-57.22a46.5,46.5,0,0,1,62.33-29.32l117.52,49a11.62,11.62,0,0,0,11.13-1.21L832.08,785a11.61,11.61,0,0,0,4.58-12.44l-54-208a46.44,46.44,0,0,1,7.38-39L906.15,365.79a11.62,11.62,0,0,0-2.48-16.16L602.13,125.9a11.62,11.62,0,0,0-13.16-.47L391.67,251a46.41,46.41,0,0,1-50.25-.26h0a2.3,2.3,0,0,0-3.56,1.93v31.09c0,8.91-1.93,17.9-6.59,25.49a46.56,46.56,0,0,1-53.23,20.55L199.34,306.2a3.48,3.48,0,0,0-3.62,5.63L326.36,461.07a46.45,46.45,0,0,1,9.11,45.31L245.11,777a11.62,11.62,0,0,0,6.26,14.28L531,916.82a46.47,46.47,0,0,1-19,88.86Z"/></svg>