<?xml version="1.0" encoding="utf-8"?>
<!-- Generator: Adobe Illustrator 21.1.0, SVG Export Plug-In . SVG Version: 6.00 Build 0)  -->
<svg version="1.1" id="Calque_1" xmlns="http://www.w3.org/2000/svg" xmlns:xlink="http://www.w3.org/1999/xlink" x="0px" y="0px"
	 viewBox="0 0 1024 1024" style="enable-background:new 0 0 1024 1024;" xml:space="preserve">
<g>
	<path d="M1005.1,465.6c-21.1-17.5-52.4-14.7-69.9,6.4l-34.4,41.4V412.5c0-50.5-9-99.9-26.9-146.7c-17.2-45.2-42.1-86.8-73.9-123.5
		C721.6,51.9,607.9,0,488.3,0c-71.9,0-142.6,18.8-204.7,54.3c-60.1,34.4-111,83.8-147.3,142.9c-14.3,23.4-7,53.9,16.4,68.2
		c23.4,14.3,53.9,7,68.2-16.4c27.5-44.9,66.2-82.5,111.9-108.7c47.1-26.9,100.8-41.2,155.4-41.2c90.8,0,177.1,39.4,236.7,108.1
		c24.2,27.9,43.1,59.4,56.1,93.8c13.5,35.5,20.4,73,20.4,111.4v97l-36-39.3c-18.5-20.2-49.9-21.6-70.1-3.1
		c-20.2,18.5-21.6,49.9-3.1,70.1L820.5,677c9.4,10.3,22.7,16.1,36.6,16.1c0.4,0,0.8,0,1.2,0c14.3-0.3,27.8-6.9,37-17.9l116.3-139.8
		C1029.1,514.4,1026.2,483.1,1005.1,465.6z"/>
	<path d="M871.2,758.5c-23.4-14.3-53.9-7-68.2,16.4c-27.5,44.9-66.2,82.5-111.9,108.7c-47.1,26.9-100.8,41.2-155.4,41.2
		c-90.8,0-177.1-39.4-236.7-108.1c-24.2-27.9-43.1-59.4-56.1-93.8c-13.5-35.5-20.4-73-20.4-111.4v-97l36,39.3
		c18.5,20.2,49.9,21.6,70.1,3.1c20.2-18.5,21.6-49.9,3.1-70.1L203.5,347c-9.7-10.6-23.5-16.4-37.8-16.1c-14.3,0.3-27.8,6.9-37,17.9
		L12.5,488.5c-17.5,21.1-14.7,52.4,6.4,69.9c9.3,7.7,20.5,11.5,31.7,11.5c14.2,0,28.4-6.1,38.2-17.9l34.4-41.4v100.9
		c0,50.5,9,99.9,26.9,146.7c17.2,45.2,42.1,86.8,73.9,123.5c78.5,90.4,192.1,142.3,311.7,142.3c71.9,0,142.6-18.8,204.7-54.3
		c60.1-34.4,111-83.8,147.3-142.9C901.9,803.4,894.6,772.8,871.2,758.5z"/>
</g>
</svg>
