<?xml version="1.0" encoding="utf-8"?>
<!-- Generator: Adobe Illustrator 21.1.0, SVG Export Plug-In . SVG Version: 6.00 Build 0)  -->
<svg version="1.1" id="Calque_1" xmlns="http://www.w3.org/2000/svg" xmlns:xlink="http://www.w3.org/1999/xlink" x="0px" y="0px"
	 viewBox="0 0 1024 1024" style="enable-background:new 0 0 1024 1024;" xml:space="preserve">
<path d="M912.5,166H115.4C52.9,166,2,217.5,2,280.8v462C2,806,52.9,857.5,115.4,857.5h797.1c62.5,0,113.5-51.5,113.5-114.8v-462
	C1026,217.5,975.1,166,912.5,166z M969.9,742.8c0,32.3-25.7,58.6-57.3,58.6H115.4c-31.6,0-57.3-26.3-57.3-58.6V492.5h911.7V742.8z
	 M969.9,436.4H58.1v-93.6h911.7V436.4z M969.9,286.7H58.1v-6c0-32.3,25.7-58.6,57.3-58.6h797.1c31.6,0,57.3,26.3,57.3,58.6V286.7z"
	/>
</svg>
