<?xml version="1.0" encoding="utf-8"?>
<!-- Generator: Adobe Illustrator 23.0.3, SVG Export Plug-In . SVG Version: 6.00 Build 0)  -->
<svg version="1.1" xmlns="http://www.w3.org/2000/svg" xmlns:xlink="http://www.w3.org/1999/xlink" x="0px" y="0px"
	 viewBox="0 0 1024 1024" style="enable-background:new 0 0 1024 1024;" xml:space="preserve">
<g id="Calque_1">
</g>
<g id="Calque_2">
</g>
<g id="Calque_3">
	<g>
		<path d="M804.12,603.67c-24.97-3.92-50.24,5.02-67.18,23.78c-2.14,2.29-5.73,2.42-8.03,0.28c-0.1-0.09-0.19-0.18-0.28-0.28
			c-16.93-18.74-42.17-27.68-67.12-23.79c-30.71,4.64-56.07,28.66-62.05,59.14c-8.4,40.61,17.71,80.34,58.32,88.75
			c25.95,5.37,52.82-3.34,70.68-22.92c2.13-2.41,5.81-2.63,8.22-0.49c0.17,0.15,0.34,0.32,0.49,0.49
			c27.96,30.63,75.46,32.79,106.08,4.83c19.55-17.85,28.26-44.68,22.92-70.61C860.16,632.37,834.83,608.34,804.12,603.67z"/>
		<path d="M977.66,308.66L977.66,308.66c-25.52,0.04-46.19,20.74-46.19,46.26v390.51c0,31.95-25.9,57.85-57.85,57.85H296.8
			c-25.56,0-46.28,20.72-46.28,46.28v0c0,25.56,20.72,46.28,46.28,46.28h576.67c83,0,150.53-67.47,150.53-150.42v-390.5
			C1024,329.34,1003.24,308.61,977.66,308.66z"/>
		<path d="M1014.69,134.92c-15.51-20.81-44.95-25.11-65.77-9.6l-18.71,13.94c-17.52-7.15-36.67-11.1-56.74-11.1H727.21H566.8H150.52
			C67.53,128.16,0,195.63,0,278.58v144.06v249.45v57.22c0,31.08,9.46,59.98,25.65,83.99l-6.73,5.01
			c-20.81,15.51-25.11,44.96-9.6,65.77C18.54,896.47,32.7,903,47.04,903c9.76,0,19.61-3.03,28.05-9.32l930-693
			C1025.9,185.18,1030.2,155.73,1014.69,134.92z M92.56,729.46l0-287.18c0.41-6.02,5.41-10.78,11.53-10.78h338.99
			c24.17,0,45.76-17.67,48.06-41.73c2.51-25.44-16.08-48.1-41.53-50.61c-1.51-0.15,1.9-0.22,0.39-0.22H104.14
			c-6.39,0-11.57-5.18-11.57-11.57v-48.79c0-31.95,25.9-57.85,57.85-57.85h576.79c0.13,0,0.26-0.01,0.4-0.01h93.28L100.02,757.88
			C95.28,749.48,92.56,739.79,92.56,729.46z"/>
	</g>
</g>
</svg>
