<?xml version="1.0" encoding="utf-8"?>
<!-- Generator: Adobe Illustrator 21.1.0, SVG Export Plug-In . SVG Version: 6.00 Build 0)  -->
<svg version="1.1" id="Calque_1" xmlns="http://www.w3.org/2000/svg" xmlns:xlink="http://www.w3.org/1999/xlink" x="0px" y="0px"
	 viewBox="0 0 1024 1024" style="enable-background:new 0 0 1024 1024;" xml:space="preserve">
<g>
	<path d="M215,378.1h-57.8c-4.5,0-8.1,3.6-8.1,8.1V444c0,4.5,3.6,8.1,8.1,8.1H215c4.5,0,8.1-3.7,8.1-8.1v-57.8
		C223.1,381.7,219.5,378.1,215,378.1z"/>
	<path d="M810.1,681c-5.5,11.8-5.5,25.4,0,37.2C815.6,706.4,815.6,692.7,810.1,681z"/>
	<path d="M851.6,653.9c-5.7,0.1-11.3,1.2-16.6,3.4c16.7,25.7,16.7,58.9,0,84.6c5.3,2.2,11,3.3,16.7,3.4c25.2,0.4,46-19.8,46.4-45
		s-19.8-46-45-46.4C852.6,653.9,852.1,653.9,851.6,653.9L851.6,653.9z"/>
	<path d="M772.7,699.5c0-15,4.4-29.7,12.5-42.3c-5.3-2.2-11-3.3-16.7-3.4c-25.2-0.4-46,19.8-46.4,45s19.8,46,45,46.4
		c0.5,0,0.9,0,1.4,0c5.7-0.1,11.4-1.2,16.7-3.4C777.1,729.2,772.7,714.6,772.7,699.5z"/>
	<path d="M917.5,174H108.4C49.1,174.1,1.1,222.1,1,281.5v462.3c0.1,59.3,48.1,107.4,107.4,107.5h809.1
		c59.3-0.1,107.4-48.1,107.5-107.5V281.5C1024.9,222.1,976.9,174.1,917.5,174z M107.5,386.2c0-27.4,22.3-49.6,49.7-49.6H215
		c27.4,0,49.6,22.2,49.7,49.6V444c0,27.4-22.2,49.7-49.7,49.7h-57.8c-27.4,0-49.6-22.3-49.7-49.7L107.5,386.2z M128.3,585.8H215
		c11.5,0,20.8,9.3,20.7,20.8c0,11.5-9.3,20.7-20.7,20.7h-86.7c-11.5,0-20.8-9.3-20.7-20.8C107.6,595.1,116.9,585.8,128.3,585.8
		L128.3,585.8z M359.5,714H128.3c-11.5,0-20.8-9.3-20.7-20.8c0-11.5,9.3-20.7,20.7-20.7h231.2c11.5,0,20.8,9.3,20.8,20.7
		C380.3,704.7,371,714,359.5,714C359.5,714,359.5,714,359.5,714z M359.5,627.3h-86.7c-11.5,0-20.8-9.3-20.8-20.7s9.3-20.8,20.7-20.8
		c0,0,0,0,0,0h86.7c11.5,0,20.8,9.3,20.8,20.7C380.3,618,371,627.3,359.5,627.3C359.5,627.3,359.5,627.3,359.5,627.3z M504,627.3
		h-86.7c-11.5,0-20.8-9.3-20.8-20.7c0-11.5,9.3-20.8,20.7-20.8c0,0,0,0,0,0H504c11.5,0,20.8,9.3,20.7,20.8
		C524.7,618,515.5,627.3,504,627.3L504,627.3z M648.4,627.3h-86.7c-11.5,0-20.8-9.3-20.7-20.8c0-11.5,9.3-20.7,20.7-20.7h86.7
		c11.5,0,20.8,9.3,20.8,20.7S660,627.3,648.4,627.3C648.5,627.3,648.5,627.3,648.4,627.3L648.4,627.3z M851.6,778.5
		c-14.7,0-29.1-4.2-41.5-12.1c-12.4,7.9-26.8,12.1-41.5,12.1c-43.6,0-78.9-35.3-78.9-78.9s35.3-78.9,78.9-78.9l0,0
		c14.7,0,29.1,4.2,41.5,12.1c12.4-7.9,26.8-12,41.5-12.1c43.6,0,78.9,35.3,78.9,78.9S895.2,778.5,851.6,778.5L851.6,778.5z"/>
</g>
</svg>
