<?xml version="1.0" encoding="utf-8"?>
<!-- Generator: Adobe Illustrator 21.1.0, SVG Export Plug-In . SVG Version: 6.00 Build 0)  -->
<svg version="1.1" id="Calque_1" xmlns="http://www.w3.org/2000/svg" xmlns:xlink="http://www.w3.org/1999/xlink" x="0px" y="0px"
	 viewBox="0 0 1024 1024" style="enable-background:new 0 0 1024 1024;" xml:space="preserve">
<g id="Page-1_1_">
	<g id="icon-1-copy-8">
		<g id="Page-1" transform="translate(50.000000, 0.000000)">
			<path id="Fill-1" d="M615.6,824.4c23.4-4.1,45.1,4.4,59,3.4c13.7,5.2,29.2,8.6,43.8,12.8c10.9,9.7,30.7,10.4,42.1,19.7
				c9.5,0.9,20.1,5.3,29.5,6.8c11.8,2,10.9-2.3,16.8-10.3c5-6.7,13-12.9,19.4-20.5c16.7-20.1,37.8-46.3,52.2-66.7
				c-18.6-13.1-33.4-29.1-42.1-53.9c-0.5-1.5-0.5-5-0.8-6c-3.6-10.3-9-30.4-10.1-43.6c-0.5-5.8,0.8-11.5,0.8-18
				c0.1-14.4-3.1-27.9-2.5-44.5c1-26.3,10.4-51.3,5.1-79.5c-9-0.6-16.8,0-21.9,3.4c-9.1-5.9-19.7,0-31.2-2.6
				c-11.3-8.4,1.2-20.4,6.7-29.1c6.8-10.7,10.6-22.9,17.7-27.4c14.4-32.7,42.5-58.9,64-87.2c8.4-43.5,11.5-91.9,18.5-130
				c-19.7-3.2-42.1-3.8-59-12.8c-15.6,0.7-30.5-6.6-42.9-12c-10.1,0.3-16.9-2.7-21.9-9.4c-1,1-1.5,2.4-4.2,1.7
				c-6.3-2.7-9.7-8.4-18.5-8.6c-20.5-16.8-46.8-27.7-64.9-47c-11.6-4.7-21.3-11.4-28.6-20.5c-2.9-0.8-6-1.3-8.4-2.6
				c-3.5-3.1-1.7-7-5.9-8.5c-2.1-18.2-13.6-30.9-16.8-50.4c-8.5-7.1-19.2-10-27.8-16.3C571,56,560.2,44.8,546.6,37
				c-3.5-6.4-10.1-9.7-15.2-14.5c-7.9,2.6-15.5,7.3-25.3,12c-7.2,3.5-21.5,6.6-24.4,12.8c-2.6,5.7,0.9,18.7-0.9,26.5
				c-2.2,9.7-5,18.2-10.9,28.2c-10.8,18.1-28.2,30.6-47.2,41c-13.9,7.7-27.8,15.3-44.6,21.4c-1.3,5.2-3.4,9.7-4.2,15.4
				c-15.5,17.1-40.4,31.3-66.5,26.5c-5.8-1.1-10.6-5.3-17.7-4.3c-13.2-10.5-26.3-21.2-37.1-34.2c-4.9,1.7-14.1-1.3-18.5,0.9
				c0.5,5.5,3.4,8.5,5.9,12c5.3,34.1,9.6,75.4-14.3,94c-13.7,10.7-31.4,6-48,3.4c-21-3.2-33.4-12.9-49.7-22.2
				c-5-2.8-11.1-7.7-15.2-8.6c-5.1-1.1-10.2,1.3-16,1.7c-4.7,0.3-9.6-1-13.5-0.8c-18.6,0.8-41.2,6.3-59,10.3c0.6,18.6,1.4,41.1,0,65
				c6.3,3.8,8.9,9.2,18.5,6.8c0.6,2,4.4,0.6,3.4,4.3c6-1.9,10.9,3.5,16.8,5.1c2.1,0.6,4.4-0.5,6.7,0c6,1.3,12.6,6.5,19.4,7.7
				c2.1,0.4,4.8-0.5,6.7,0c9.5,2.7,14.6,11.1,25.3,9.4c1.4,0.5-0.1,4.1,1.7,4.3c1.4,2,5.8,1,7.6,2.6c8,3.8,12.9,10.8,21.9,13.7
				c9,10,17.3,20.7,27.8,29.1c10.9,25,27.5,41,36.2,66.7c0.1,2.2,3.1,1.4,4.2,2.6c15.7,37.5,27,81.7,31.2,124.8
				c-3.1,4.9,2.6,60.5,0,65.8c-8.9,1.1-9.3,0-21.9-76.9c-9.6-83-45.2-143.6-87.6-195.8c-19.2-14.4-42.4-24.8-65.7-35.1
				c-27.4-3.8-47.4-15.2-69.9-23.9C3,323.2,5,308.3,4.2,290.9c-0.3-7,1.8-14,1.7-20.5c-0.2-9.9-6-18.9,0-28.2
				c35.6-7.4,76-12.4,116.2-13.7c1.9,1.8,2.8,4.5,4.2,6.8c8.6,2.8,16.6,5.2,23.6,10.3c2.5,1.8,4,5.3,6.7,6.8
				c7.5,4.2,23.7,2.1,33.7,6c5.3,2.1,8.7,6.3,16,1.7c2.3-1.5,2.4-4.1,5-6.8c2.7-2.8,6.6-3.6,7.6-5.1c7.5-11,5.3-43.9,2.5-58.1
				c-3.2-16.6-18.9-25.8-7.6-41.9c10.5,0.5,21.2-0.2,32,1.7c6.7,1.2,11.6-1.5,17.7,0.8c7.8,3,10.6,11.2,16,17.1
				c6,6.5,13.2,8.5,18.5,14.5c14,3.4,25.9-1.5,37.9-0.9c6.8-4.2,12.2-9.9,19.4-13.7c0.4-7.3,3.5-11.8,5-17.9
				c6.4-4.6,13.8-7,21.1-10.3c7.4-3.3,12.6-8.3,19.4-12c5.4-2.9,11.8-3.7,16.8-6.8c13.2-8.2,26.9-18.7,34.5-32.5
				c4.2-7.5,9.9-20.2,10.1-30.8c0.1-3.2-2-5.3-1.7-8.5c0.5-6.5,4.5-13.3,5.9-20.5c4.2,0.5,6-4.2,9.3-6c4.2-2.3,11.2-3.9,17.7-6.8
				c9.5-4.4,20.1-10.9,31.2-14.5c5.6-1.9,11.6-0.9,17.7,0c2.8,8,11.2,10.3,13.5,18.8c13.4,7.7,23.2,17.7,35.4,28.2
				c14,5.2,23.6,14.8,37.9,19.7c3.4,10.9,8.3,22.1,10.1,33.3c4.5,5.7,9.5,12.6,9.3,20.5c4.8,6.8,11.6,11.6,20.2,14.5
				c2,2.3,3.3,5.2,5.1,7.7c3.9,0.6,5.6,3.5,9.3,4.3c12.6,10.6,26.1,20.3,41.3,28.2c26.9,22.8,68.2,31,105.3,43.6
				c17.9,2.1,42.4,8.9,63.2,6c4.8,3.6,12.5,4.4,16,9.4c-0.5,11.6-7,26.3-8.4,42.8c-0.3,3.8-0.6,5-1.7,10.3
				c-2,10.1-2.6,22.4-4.2,31.6c-4.6,26.3-4.9,51-11.8,76.9c-2.1,0.9-4.1,2.1-5.9,3.4c-26.6,32.6-54.2,64.1-73.3,104.3
				c17.8-0.7,30.7-10.7,44.6,0c6.5,27.5,3.2,50.5-0.9,75.2c-4.1,25.5-2.5,55.4,0,83.8c0.7,3-0.9,3.6-1.7,5.1
				c5.2,27.5,14.4,55.8,33.7,73.5c9.6,8.8,40.2,29.7,12.6,38.5c-0.8,5.7-5.7,7.3-5.9,13.7c-2.2,0.3-2.5,2.6-5.1,2.6
				c-5.3,15.4-18.5,22.8-26.1,35.9c-2,0.3-3.5,1-5.1,1.7c-4.3,9.7-10.5,17.3-18.5,23.1c-4.3,9.6-14.1,20.3-21.9,29.1
				c-5.3,0.3-8.2-1.7-12.6,0c-3.3,0.3-2.3-4-5-4.3c-15.7-1.4-28.7-5.6-43-8.5c-1.4-0.8-1.7-2.8-3.4-3.4c-13-3.9-24.3-6.5-37.1-12.8
				c-16.4-8.1-41.1-13.7-64.8-15.4c-29.3-2-45.2,7.2-58.1,23.1c-4.9,6.1-11.8,14-14.3,20.5c-1.3,3.4-0.3,8.9-1.7,13.7
				c-0.7,2.5-2.9,4.3-3.4,6.8c-1.5,7.8-0.4,17.4,0,26.5c0.5,11.7-1,20.1-0.9,29.9c3.1,9.1,7.2,21.5,4.2,31.6
				c-17.1,6.1-32-3.8-48.8-5.1c-18.6-1.5-31.5-10-47.2-12.8c-37.3-14.9-75.8-28.5-115.4-41c-24.2-14.1-50.8-27.4-75.8-40.2
				c-9.1-4.7-18.7-7.4-24.4-14.5c-24.7-14-52-25.3-72.4-43.6c4.9-16.5,7-31.4,14.3-47.9c7.2-41.7,29.4-69.9,32-119.7
				c3.6-3.5,5.1-9.1,10.9-10.3c3.8,1.5,6.7,4,9.3,6.8c-2.7,31.4-10.3,62-24.4,88.1c-4.5,23.1-14.4,48-21.1,71.8
				c17.4,18.5,47.3,24.4,65.7,41.9c1.2,0.5,4.4-1,4.2,0.8c27.7,15.1,53.7,27.4,80.9,41.9c17.5,9.3,38.9,14.5,58.1,23.9
				c12.8,0.8,27.1,7.2,37.1,13.7c12.1,1.8,18.9,4.4,27,9.4c11.9,0.1,20,4.2,26.1,10.3c13.2,2.1,27.1,7.1,42.9,7.7
				c-2.2-46.8-7.8-105.8,31.2-130.8c1.3-3,2.3-6.2,5.1-7.7c0.5-0.2,3.2-2.1,3.4,0C588.3,832.5,603.1,826.6,615.6,824.4z"/>
			<path id="Fill-3" d="M481.7,408.9c-2.1,12.3-5.7,43.8-4.2,64.1c0.4,5.8,2.3,13.1-4.2,15.4c-5.1,1.7-11.3-1.3-15.2-4.3
				c-2.1-12.5,0.3-24.5,0.8-35.9c0.5-10.8-0.9-21.2,0-30.8c0.5-4.8,2.9-9.2,3.4-13.7c1-9.7-2.9-22,5.9-29.1c6.4,0.9,8.4,0,14.3,1.7
				c20.3,19.6,35.3,44.5,49.7,70.1c2.5-13.1,6-27.3,7.6-41c1-8.1,2.5-17.7,2.5-25.7c0.1-5.8-1.3-11.9,5.9-13.7
				c5.2-1.3,14,3.1,15.2,6.8c2.9,9.1-4,23.7-4.2,31.6c-0.4,13.4-3.3,28.1-5.9,43.6c-2.6,15.3-0.1,29.4-6.7,39.3
				c-23.8,4.5-32.1-28.9-43-47C496.9,429.3,490.5,417,481.7,408.9"/>
			<path id="Fill-5" d="M889.4,865.5c-9.9,9-33.2,16.9-37.9,24.8c-7.4,12.5,0.9,34.2,5.1,49.6c6.6,24.4,13.8,43,27,55.6
				c14.4-38.8,13.3-89.5,10.1-132.5C890.4,862.3,890.3,864.6,889.4,865.5 M911.3,834.7c4.5,17.1,4.6,36.1,5.9,54.7
				c3.1,46.4-5.2,96.7-20.2,135.1c-5.1-0.2-11.5-1.8-15.2-0.9c-18.1-11.5-28.7-30.8-37.9-51.3c-2.3-19.2-10.3-34.9-13.5-53.9
				c-2.1-12.2,3.6-23.4,1.7-37.6c1.6-2.1,3.5-3.9,4.2-6.8c24-9.8,44.8-22.9,59-42.8C903.4,831.4,902.9,835.8,911.3,834.7"/>
			<path id="Fill-7" d="M438.8,374.7c-1.6,2.6-5,4.2-6.7,6.8c-14.7,22.6-14.8,47.2-13.5,74.4c2.1,9.2,6,16.7,7.6,26.5
				c12.9,23.5,37.4,35.4,65.7,43.6c19.6-1.6,41.4-4.1,54.7-12c10.4-1.1,18.9-10.8,26.9-17.1c10.9-20.2,15.5-47.6,20.2-71.8
				c-0.5-8.1-4.4-20.1-4.2-29.9c-10.1-10.3-10-30.8-27.8-33.3c-6-7.3-14.7-11.9-25.3-14.5c-19.7-20-63.1-1.7-80,12
				c-3.5,0.8-3.4-0.1-7.6,0C443.9,363.8,442.2,369,438.8,374.7 M619,428.6c-7,31.7-20.3,62.7-25.3,94.9c-4.3,28.1-9.9,51.3-19.4,77
				c-5.3,14.3-8.2,29.2-12.6,42.8c-1.1,3.5-4,6.7-5.1,10.3c-6.9,23.6-8.8,48.6-22.7,69.3c-6.7-0.5-10.9,1.3-15.2-0.9
				c-23-46.2-47.4-98.3-74.9-142.8c-0.3-2-1.3-3.2-0.9-6c-7.7-12.9-20.6-28.1-27.8-46.2c-3-7.6-4.5-16.6-7.6-24.8
				c-3.3-8.8-8.3-18-9.3-27.4c-0.4-4.2,1.1-9.1,0.9-13.7c-1.6-33-1.1-61.5,15.2-87.2c9.7-15.2,19.6-28.4,36.2-35
				c0.6-4.2,5.5-4.1,6.7-7.7c16.5-4.8,30.4-11,53.1-11.1c6.7,3.8,15.1,1.3,21.9,3.4c3.6,1.1,6.8,5.4,10.9,6.8c2.2,0.8,4.8,0,6.7,0.8
				c12.8,5.8,21.4,19.9,36.2,21.4c1.9,2.9,4.4,5.2,7.6,6.8c9.8,17.7,19.7,35.8,20.2,61.6C615.4,423.7,618.4,424.9,619,428.6"/>
		</g>
	</g>
</g>
</svg>
