<?xml version="1.0" encoding="utf-8"?>
<!-- Generator: Adobe Illustrator 17.0.0, SVG Export Plug-In . SVG Version: 6.00 Build 0)  -->
<!DOCTYPE svg PUBLIC "-//W3C//DTD SVG 1.1//EN" "http://www.w3.org/Graphics/SVG/1.1/DTD/svg11.dtd">
<svg version="1.1" id="Calque_1" xmlns="http://www.w3.org/2000/svg" xmlns:xlink="http://www.w3.org/1999/xlink" x="0px" y="0px"
	 width="1024px" height="1024px" viewBox="0 0 1024 1024" enable-background="new 0 0 1024 1024" xml:space="preserve">
<title>CN-1280-BORNE-BURALISTES-ICONS</title>
<g>
	<g>
		<path fill="#333333" d="M921.6,871.1H102.1c-56.6,0-102.6-46-102.6-102.6V255.1c0-56.6,46-102.6,102.6-102.6h819.4
			c56.6,0,102.6,46,102.6,102.6v513.4C1024.1,825.1,978.1,871.1,921.6,871.1z M102.1,192.6c-34.5,0-62.6,28.1-62.6,62.6v513.4
			c0,34.5,28.1,62.6,62.6,62.6h819.4c34.5,0,62.6-28.1,62.6-62.6V255.1c0-34.5-28.1-62.6-62.6-62.6H102.1z M382.4,619.8
			c-11,0-20-9-20-20c0-47.7-29.5-90.2-71.8-103.4c-10.5-3.3-16.4-14.5-13.2-25c3.3-10.5,14.5-16.4,25-13.2
			c28.4,8.8,54,27.5,71.9,52.7c18.3,25.8,28,56.5,28,88.8C402.4,610.9,393.5,619.8,382.4,619.8z M144.3,619.8c-11,0-20-9-20-20
			c0-66.6,42.3-125.1,102.8-142.4c10.6-3,21.7,3.1,24.7,13.7c3,10.6-3.1,21.7-13.7,24.7c-43.5,12.4-73.8,55.1-73.8,103.9
			C164.3,610.9,155.3,619.8,144.3,619.8z M810.9,334.8H494.4c-11,0-20-9-20-20c0-11,9-20,20-20h316.5c11,0,20,9,20,20
			C830.9,325.8,822,334.8,810.9,334.8z"/>
		<path fill="#333333" d="M664.8,626.5H494.4c-11,0-20-9-20-20s9-20,20-20h170.5c11,0,20,9,20,20S675.9,626.5,664.8,626.5z
			 M810.9,529.3H494.4c-11,0-20-9-20-20s9-20,20-20h316.5c11,0,20,9,20,20S822,529.3,810.9,529.3z M264.6,500.8
			c-58.3,0-105.7-50.1-105.7-111.7c0-61.6,47.4-111.7,105.7-111.7c58.3,0,105.7,50.1,105.7,111.7v0
			C370.3,450.7,322.9,500.8,264.6,500.8z M264.6,317.4c-36.2,0-65.7,32.2-65.7,71.7c0,39.5,29.5,71.7,65.7,71.7
			c36.2,0,65.7-32.2,65.7-71.7C330.3,349.5,300.8,317.4,264.6,317.4z M810.9,432H494.4c-11,0-20-9-20-20c0-11,9-20,20-20h316.5
			c11,0,20,9,20,20C830.9,423.1,822,432,810.9,432z"/>
	</g>
</g>
</svg>
