<?xml version="1.0" encoding="utf-8"?>
<!-- Generator: Adobe Illustrator 17.0.0, SVG Export Plug-In . SVG Version: 6.00 Build 0)  -->
<!DOCTYPE svg PUBLIC "-//W3C//DTD SVG 1.1//EN" "http://www.w3.org/Graphics/SVG/1.1/DTD/svg11.dtd">
<svg version="1.1" id="Calque_1" xmlns="http://www.w3.org/2000/svg" xmlns:xlink="http://www.w3.org/1999/xlink" x="0px" y="0px"
	 width="1024px" height="1024px" viewBox="0 0 1024 1024" enable-background="new 0 0 1024 1024" xml:space="preserve">
<title>CN-1280-BORNE-BURALISTES-ICONS</title>
<g>
	<g>
		<path fill="#333333" d="M917.2,850.2H106.9C48,850.2,0.1,802.3,0.1,743.3V280C0.1,221,48,173.1,106.9,173.1h810.3
			c58.9,0,106.8,47.9,106.8,106.9v463.4C1024,802.3,976.1,850.2,917.2,850.2z M106.9,213.1c-36.8,0-66.8,30-66.8,66.9v463.4
			c0,36.9,30,66.9,66.8,66.9h810.3c36.8,0,66.8-30,66.8-66.9V280c0-36.9-30-66.9-66.8-66.9H106.9z"/>
		<path fill="#333333" d="M213.6,491.8C213.6,491.8,213.6,491.8,213.6,491.8l-57.9,0c-27,0-48.9-22-48.9-49V385c0-27,22-49,48.9-49
			h57.9c27,0,48.9,22,48.9,49v57.9C262.6,469.9,240.6,491.8,213.6,491.8z M155.7,376c-4.9,0-8.9,4-8.9,9v57.9c0,4.9,4,9,8.9,9
			l57.9,0c4.9,0,8.9-4,8.9-9V385c0-4.9-4-9-8.9-9H155.7z"/>
	</g>
</g>
</svg>
