<?xml version="1.0" encoding="utf-8"?>
<!-- Generator: Adobe Illustrator 21.1.0, SVG Export Plug-In . SVG Version: 6.00 Build 0)  -->
<svg version="1.1" id="Calque_1" xmlns="http://www.w3.org/2000/svg" xmlns:xlink="http://www.w3.org/1999/xlink" x="0px" y="0px"
	 viewBox="0 0 1024 1024" style="enable-background:new 0 0 1024 1024;" xml:space="preserve">
<path d="M877,127.5H147C66.2,127.5,0.5,193.2,0.5,274v476c0,80.8,65.7,146.5,146.5,146.5h730c80.8,0,146.5-65.7,146.5-146.5V274
	C1023.5,193.2,957.8,127.5,877,127.5z M147,220.5h730c21.9,0,40.7,13.2,49,32H98C106.3,233.7,125.1,220.5,147,220.5z M877,803.5H147
	c-29.5,0-53.5-24-53.5-53.5V505.5H815c25.7,0,46.5-20.8,46.5-46.5s-20.8-46.5-46.5-46.5H93.5v-67h837V750
	C930.5,779.5,906.5,803.5,877,803.5z"/>
</svg>
