<?xml version="1.0" encoding="utf-8"?>
<!-- Generator: Adobe Illustrator 21.1.0, SVG Export Plug-In . SVG Version: 6.00 Build 0)  -->
<svg version="1.1" id="Calque_1" xmlns="http://www.w3.org/2000/svg" xmlns:xlink="http://www.w3.org/1999/xlink" x="0px" y="0px"
	 viewBox="0 0 1024 1024" style="enable-background:new 0 0 1024 1024;" xml:space="preserve">
<g>
	<path d="M812,65.5H212c-80.8,0-146.5,65.7-146.5,146.5v600c0,80.8,65.7,146.5,146.5,146.5h600c80.8,0,146.5-65.7,146.5-146.5V212
		C958.5,131.2,892.8,65.5,812,65.5z M865.5,812c0,29.5-24,53.5-53.5,53.5H212c-29.5,0-53.5-24-53.5-53.5V212
		c0-29.5,24-53.5,53.5-53.5h600c29.5,0,53.5,24,53.5,53.5V812z"/>
	<path d="M693.6,329.1L426.5,596.2l-96.1-96.1c-18.2-18.2-47.6-18.2-65.8,0c-18.2,18.2-18.2,47.6,0,65.8l128.9,128.9
		c9.1,9.1,21,13.6,32.9,13.6s23.8-4.5,32.9-13.6l300-300c18.2-18.2,18.2-47.6,0-65.8C741.2,311,711.8,311,693.6,329.1z"/>
</g>
</svg>
