<?xml version="1.0" encoding="utf-8"?>
<!-- Generator: Adobe Illustrator 17.0.0, SVG Export Plug-In . SVG Version: 6.00 Build 0)  -->
<!DOCTYPE svg PUBLIC "-//W3C//DTD SVG 1.1//EN" "http://www.w3.org/Graphics/SVG/1.1/DTD/svg11.dtd">
<svg version="1.1" id="Calque_1" xmlns="http://www.w3.org/2000/svg" xmlns:xlink="http://www.w3.org/1999/xlink" x="0px" y="0px"
	 width="1024px" height="1024px" viewBox="0 0 1024 1024" enable-background="new 0 0 1024 1024" xml:space="preserve">
<title>CN-1280-BORNE-BURALISTES-ICONS</title>
<g>
	<g>
		<path d="M429.5,980.9c-58,0-114.2-11.4-167.2-33.8c-51.1-21.6-97.1-52.6-136.5-92c-39.4-39.4-70.4-85.4-92-136.5
			C11.4,665.6,0,609.4,0,551.4c0-58,11.4-114.2,33.8-167.2c21.6-51.1,52.6-97.1,92-136.5c39.4-39.4,85.4-70.4,136.5-92
			c53-22.4,109.2-33.8,167.2-33.8c47.3,0,93.8,7.6,138.2,22.7c42.9,14.6,83.1,35.8,119.5,63.2c8.8,6.6,10.6,19.2,4,28
			c-6.6,8.8-19.2,10.6-28,4c-67.8-51-148.6-77.9-233.7-77.9c-52.6,0-103.6,10.3-151.6,30.6c-46.4,19.6-88,47.7-123.8,83.5
			s-63.9,77.4-83.5,123.8c-20.3,48-30.6,99-30.6,151.6C40,604,50.3,655,70.6,703c19.6,46.4,47.7,88,83.5,123.8
			c35.8,35.8,77.4,63.9,123.8,83.5c48,20.3,99,30.6,151.6,30.6c52.6,0,103.6-10.3,151.6-30.6c46.4-19.6,88-47.7,123.8-83.5
			c35.8-35.8,63.9-77.4,83.5-123.8c20.3-48,30.6-99,30.6-151.6c0-46.7-8.2-92.4-24.3-135.8c-3.9-10.4,1.4-21.9,11.8-25.7
			c10.4-3.9,21.9,1.4,25.7,11.8c17.8,47.9,26.8,98.3,26.8,149.8c0,58-11.4,114.2-33.8,167.2c-21.6,51.1-52.6,97.1-92,136.5
			s-85.4,70.4-136.5,92C543.7,969.5,487.4,980.9,429.5,980.9z"/>
		<path d="M433.9,652c-5.3,0-10.4-2.1-14.1-5.9L259.9,486.2c-7.8-7.8-7.8-20.5,0-28.3c7.8-7.8,20.5-7.8,28.3,0l145.8,145.8
			L989.2,48.5c7.8-7.8,20.5-7.8,28.3,0c7.8,7.8,7.8,20.5,0,28.3L448.1,646.2C444.3,649.9,439.3,652,433.9,652z"/>
	</g>
</g>
</svg>
