<?xml version="1.0" encoding="utf-8"?>
<!-- Generator: Adobe Illustrator 22.0.1, SVG Export Plug-In . SVG Version: 6.00 Build 0)  -->
<svg version="1.1" id="Calque_1" xmlns="http://www.w3.org/2000/svg" xmlns:xlink="http://www.w3.org/1999/xlink" x="0px" y="0px"
	 viewBox="0 0 1024 1024" style="enable-background:new 0 0 1024 1024;" xml:space="preserve">
<g>
	<path d="M983.7,312.7C957.9,251.8,921,197,874,150c-47-47.1-101.7-84-162.7-109.8C648.2,13.5,581.1,0,512,0S375.8,13.5,312.7,40.2
		C251.7,66,197.1,103,150,150c-47.1,47-84,101.7-109.8,162.7C13.5,375.8,0,442.9,0,512s13.5,136.2,40.3,199.3
		C66.1,772.2,103,827,150,874s101.7,84,162.7,109.8c63.1,26.7,130.2,40.2,199.3,40.2s136.2-13.5,199.3-40.3
		C772.2,957.9,827,921,874,874s84-101.7,109.7-162.7c26.7-63.1,40.2-130.2,40.2-199.3S1010.4,375.8,983.7,312.7z M928.5,687.9
		c-22.8,53.8-55.4,102.2-96.9,143.7s-89.9,74.1-143.7,96.9C632.2,952.1,573,964,512,964s-120.2-11.9-175.9-35.5
		c-53.8-22.8-102.2-55.4-143.7-96.9s-74.1-89.9-96.9-143.7C71.9,632.2,60,573,60,512s11.9-120.2,35.5-175.9
		c22.8-53.8,55.4-102.2,96.9-143.7s89.9-74.1,143.7-96.9C391.8,71.9,451,60,512,60s120.2,11.9,175.9,35.5
		c53.8,22.8,102.2,55.4,143.7,96.9s74.1,89.9,96.9,143.7C952.1,391.8,964,451,964,512S952.1,632.2,928.5,687.9z"/>
	<path d="M714.8,327.6L411.1,631.3L309.2,529.4c-11.7-11.7-30.7-11.7-42.4,0s-11.7,30.7,0,42.4l144.3,144.3L757.2,370
		c11.7-11.7,11.7-30.7,0-42.4S726.5,315.9,714.8,327.6z"/>
</g>
</svg>
