<?xml version="1.0" encoding="utf-8"?>
<!-- Generator: Adobe Illustrator 21.1.0, SVG Export Plug-In . SVG Version: 6.00 Build 0)  -->
<svg version="1.1" id="Calque_1" xmlns="http://www.w3.org/2000/svg" xmlns:xlink="http://www.w3.org/1999/xlink" x="0px" y="0px"
	 viewBox="0 0 1024 1024" style="enable-background:new 0 0 1024 1024;" xml:space="preserve">
<g id="Page-1">
	<g id="icon-1-copy-10">
		<g id="Group-16">
			<path d="M512,1024c-69.1,0-136.2-13.5-199.3-40.2C251.7,958,197,921,150,874c-47-47-83.9-101.8-109.7-162.7
				C13.5,648.2,0,581.1,0,512s13.5-136.2,40.2-199.3C66,251.7,102.9,197,150,150S251.7,66,312.7,40.2C375.8,13.5,442.9,0,512,0
				s136.2,13.5,199.3,40.2C772.3,66,827,102.9,874,150c47,47,83.9,101.8,109.7,162.7c26.7,63.1,40.2,130.2,40.2,199.3
				s-13.5,136.2-40.2,199.3C958,772.3,921,827,874,874c-47,47-101.8,83.9-162.7,109.7C648.2,1010.5,581.1,1024,512,1024z M512,60
				c-61,0-120.2,11.9-175.9,35.5c-53.8,22.8-102.2,55.4-143.7,96.9s-74.1,89.9-96.9,143.7C71.9,391.8,60,451,60,512
				c0,61,11.9,120.2,35.5,175.9c22.8,53.8,55.4,102.2,96.9,143.7s89.9,74.1,143.7,96.9C391.8,952.1,451,964,512,964
				c61,0,120.2-11.9,175.9-35.5c53.8-22.8,102.2-55.4,143.7-96.9s74.1-89.9,96.9-143.7C952.1,632.2,964,573,964,512
				c0-61-11.9-120.2-35.5-175.9c-22.8-53.8-55.4-102.2-96.9-143.7s-89.9-74.1-143.7-96.9C632.2,71.9,573,60,512,60z"/>
			<path d="M411.1,716.1L266.8,571.8c-11.7-11.7-11.7-30.7,0-42.4c11.7-11.7,30.7-11.7,42.4,0l101.9,101.9l303.7-303.7
				c11.7-11.7,30.7-11.7,42.4,0c11.7,11.7,11.7,30.7,0,42.4L411.1,716.1z"/>
		</g>
		<g id="Group-16-Copy">
			<path d="M512,1024c-69.1,0-136.2-13.5-199.3-40.2C251.7,958,197,921,150,874c-47-47-83.9-101.8-109.7-162.7
				C13.5,648.2,0,581.1,0,512s13.5-136.2,40.2-199.3C66,251.7,102.9,197,150,150S251.7,66,312.7,40.2C375.8,13.5,442.9,0,512,0
				s136.2,13.5,199.3,40.2C772.3,66,827,102.9,874,150c47,47,83.9,101.8,109.7,162.7c26.7,63.1,40.2,130.2,40.2,199.3
				s-13.5,136.2-40.2,199.3C958,772.3,921,827,874,874c-47,47-101.8,83.9-162.7,109.7C648.2,1010.5,581.1,1024,512,1024z M512,60
				c-61,0-120.2,11.9-175.9,35.5c-53.8,22.8-102.2,55.4-143.7,96.9s-74.1,89.9-96.9,143.7C71.9,391.8,60,451,60,512
				c0,61,11.9,120.2,35.5,175.9c22.8,53.8,55.4,102.2,96.9,143.7s89.9,74.1,143.7,96.9C391.8,952.1,451,964,512,964
				c61,0,120.2-11.9,175.9-35.5c53.8-22.8,102.2-55.4,143.7-96.9s74.1-89.9,96.9-143.7C952.1,632.2,964,573,964,512
				c0-61-11.9-120.2-35.5-175.9c-22.8-53.8-55.4-102.2-96.9-143.7s-89.9-74.1-143.7-96.9C632.2,71.9,573,60,512,60z"/>
			<path d="M411.1,716.1L266.8,571.8c-11.7-11.7-11.7-30.7,0-42.4c11.7-11.7,30.7-11.7,42.4,0l101.9,101.9l303.7-303.7
				c11.7-11.7,30.7-11.7,42.4,0c11.7,11.7,11.7,30.7,0,42.4L411.1,716.1z"/>
		</g>
	</g>
</g>
</svg>
