<?xml version="1.0" encoding="utf-8"?>
<!-- Generator: Adobe Illustrator 21.1.0, SVG Export Plug-In . SVG Version: 6.00 Build 0)  -->
<svg version="1.1" id="Calque_1" xmlns="http://www.w3.org/2000/svg" xmlns:xlink="http://www.w3.org/1999/xlink" x="0px" y="0px"
	 viewBox="0 0 1024 1024" style="enable-background:new 0 0 1024 1024;" xml:space="preserve">
<path d="M500.6,1023.7c-31.4-1.1-62.6-5.1-93.2-11.8c-275.6-60.7-450.5-334.3-389.9-610S351.8-48.7,627.5,12
	c193.9,42.7,347,195.6,389.9,389.5c5.5,24.9-10.2,49.6-35.1,55.1s-49.6-10.2-55.1-35.1C892,262.6,766.6,137.3,607.7,102.3
	c-225.8-49.7-450,93.6-499.8,319.4s93.6,450.1,319.4,499.8c109.4,24.1,221.7,4.1,316-56.2S903,711.5,927,602.1
	c5.5-24.9,30.1-40.7,55.1-35.2c24.9,5.5,40.7,30.1,35.2,55.1l0,0c-29.4,133.5-109,247.6-224.2,321.3
	C704.6,999.8,603.3,1027.3,500.6,1023.7z"/>
<path d="M842.1,559H512c-26,0-47-21-47-47V220.8c0-26,21-47,47-47c26,0,47,21,47,47V465h283.1c26,0,47,21,47,47S868,559,842.1,559z"
	/>
</svg>
