<?xml version="1.0" encoding="utf-8"?>
<!-- Generator: Adobe Illustrator 22.0.1, SVG Export Plug-In . SVG Version: 6.00 Build 0)  -->
<svg version="1.1" id="Calque_1" xmlns="http://www.w3.org/2000/svg" xmlns:xlink="http://www.w3.org/1999/xlink" x="0px" y="0px"
	 viewBox="0 0 1024 1024" style="enable-background:new 0 0 1024 1024;" xml:space="preserve">
<g>
	<path d="M983.3,307.8c-25.7-60.9-62.6-115.6-109.6-162.6C826.7,98.3,772,61.4,711.1,35.6C648,8.9,581-4.6,512-4.6
		S376,8.9,312.8,35.6c-60.9,25.7-115.6,62.6-162.6,109.6c-46.9,47-83.8,101.7-109.6,162.6C13.9,370.9,0.4,437.9,0.4,507
		s13.5,136.1,40.3,199.2c25.7,60.9,62.6,115.6,109.6,162.6c47,46.9,101.7,83.8,162.6,109.6c63.1,26.7,130.1,40.2,199.1,40.2
		s136-13.5,199.1-40.2c60.9-25.7,115.6-62.6,162.6-109.6c46.9-47,83.8-101.7,109.6-162.6c26.7-63.1,40.2-130.1,40.2-199.2
		S1010,370.9,983.3,307.8z M512,45.4c62.3,0,122.8,12.2,179.7,36.3c54.9,23.2,104.3,56.5,146.7,98.9c42.4,42.4,75.6,91.7,98.9,146.7
		c24.1,56.9,36.3,117.4,36.3,179.7c0,62.4-12.2,122.8-36.3,179.7c-23.2,54.9-56.5,104.3-98.9,146.7s-91.7,75.7-146.7,98.9
		c-56.9,24.1-117.4,36.3-179.7,36.3c-62.4,0-122.8-12.2-179.7-36.3c-54.9-23.2-104.3-56.5-146.7-98.9
		C143.2,791,110,741.7,86.7,686.7C62.6,629.8,50.4,569.3,50.4,507s12.2-122.8,36.3-179.7c23.2-54.9,56.5-104.3,98.9-146.7
		c42.4-42.4,91.7-75.7,146.7-98.9C389.2,57.6,449.7,45.4,512,45.4z"/>
	<path d="M512,532h243.3c13.8,0,25-11.2,25-25s-11.2-25-25-25H537V166.4c0-13.8-11.2-25-25-25s-25,11.2-25,25V507
		C487,520.8,498.2,532,512,532z"/>
</g>
</svg>
