<?xml version="1.0" encoding="utf-8"?>
<!-- Generator: Adobe Illustrator 21.1.0, SVG Export Plug-In . SVG Version: 6.00 Build 0)  -->
<svg version="1.1" id="Calque_1" xmlns="http://www.w3.org/2000/svg" xmlns:xlink="http://www.w3.org/1999/xlink" x="0px" y="0px"
	 viewBox="0 0 1024 1024" style="enable-background:new 0 0 1024 1024;" xml:space="preserve">
<g id="Page-1_1_">
	<g id="icon-1-copy-4">
		<g id="Page-1" transform="translate(25.000000, 20.000000)">
			<path d="M487,998.6c-69,0-136-13.5-199.1-40.2c-60.9-25.8-115.6-62.7-162.6-109.6c-47-47-83.9-101.7-109.6-162.6
				C-11.1,623.1-24.6,556.1-24.6,487c0-69.1,13.5-136.1,40.2-199.2c25.8-60.9,62.7-115.6,109.6-162.6c47-47,101.7-83.9,162.6-109.6
				C351-11.1,418-24.6,487-24.6s136,13.5,199.1,40.2c60.9,25.8,115.6,62.7,162.6,109.6c47,47,83.9,101.7,109.6,162.6
				c26.7,63.1,40.2,130.1,40.2,199.2c0,69.1-13.5,136.1-40.2,199.2c-25.8,60.9-62.7,115.6-109.6,162.6
				c-47,47-101.7,83.9-162.6,109.6C623,985.1,556,998.6,487,998.6z M487,25.4c-62.3,0-122.8,12.2-179.7,36.3
				c-55,23.2-104.3,56.5-146.7,98.9c-42.4,42.4-75.7,91.8-98.9,146.7C37.6,364.2,25.4,424.7,25.4,487c0,62.3,12.2,122.8,36.3,179.7
				c23.3,55,56.5,104.3,98.9,146.7c42.4,42.4,91.8,75.7,146.7,98.9c56.9,24.1,117.3,36.3,179.7,36.3c62.3,0,122.8-12.2,179.7-36.3
				c55-23.2,104.3-56.5,146.7-98.9c42.4-42.4,75.7-91.8,98.9-146.7c24.1-56.9,36.3-117.3,36.3-179.7c0-62.3-12.2-122.8-36.3-179.7
				c-23.3-55-56.5-104.3-98.9-146.7c-42.4-42.4-91.8-75.7-146.7-98.9C609.8,37.6,549.3,25.4,487,25.4z"/>
			<path d="M487,993.6c-68.4,0-134.7-13.4-197.2-39.8c-60.3-25.5-114.5-62-161-108.6c-46.5-46.5-83.1-100.7-108.6-161
				C-6.2,621.7-19.6,555.4-19.6,487c0-68.4,13.4-134.7,39.8-197.2c25.5-60.3,62-114.5,108.6-161c46.5-46.5,100.7-83,161-108.6
				C352.3-6.2,418.6-19.6,487-19.6S621.7-6.2,684.2,20.2c60.3,25.5,114.5,62,161,108.6c46.5,46.5,83.1,100.7,108.6,161
				c26.4,62.5,39.8,128.8,39.8,197.2c0,68.4-13.4,134.7-39.8,197.2c-25.5,60.3-62,114.5-108.6,161c-46.5,46.5-100.7,83-161,108.6
				C621.7,980.2,555.4,993.6,487,993.6z M487,20.4c-63,0-124.1,12.3-181.6,36.7c-55.6,23.5-105.5,57.1-148.3,100
				c-42.9,42.9-76.5,92.8-100,148.3C32.7,362.9,20.4,424,20.4,487c0,63,12.3,124.1,36.7,181.6c23.5,55.6,57.2,105.5,100,148.3
				c42.9,42.9,92.8,76.5,148.3,100c57.5,24.3,118.6,36.7,181.6,36.7c63,0,124.1-12.3,181.6-36.7c55.6-23.5,105.5-57.1,148.3-100
				c42.9-42.9,76.5-92.8,100-148.3c24.3-57.5,36.7-118.6,36.7-181.6c0-63-12.3-124.1-36.7-181.6c-23.5-55.6-57.2-105.5-100-148.3
				c-42.9-42.9-92.8-76.5-148.3-100C611.1,32.7,550,20.4,487,20.4z"/>
			<path d="M730.3,512H487c-13.8,0-25-11.2-25-25V146.4c0-13.8,11.2-25,25-25c13.8,0,25,11.2,25,25V462h218.3c13.8,0,25,11.2,25,25
				C755.3,500.8,744.1,512,730.3,512z"/>
		</g>
	</g>
</g>
</svg>
