<?xml version="1.0" encoding="utf-8"?>
<!-- Generator: Adobe Illustrator 21.1.0, SVG Export Plug-In . SVG Version: 6.00 Build 0)  -->
<svg version="1.1" id="Calque_1" xmlns="http://www.w3.org/2000/svg" xmlns:xlink="http://www.w3.org/1999/xlink" x="0px" y="0px"
	 viewBox="0 0 1024 1024" style="enable-background:new 0 0 1024 1024;" xml:space="preserve">
<g id="Page-1">
	<g id="icon-1-copy-13">
		<g id="Group-23" transform="translate(-55.000000, 40.000000)">
			<path d="M97.1,981.9c-10.2,0-20.5-3.9-28.3-11.7c-15.6-15.6-15.6-40.9,0-56.6l941.9-941.9c15.6-15.6,40.9-15.6,56.6,0
				s15.6,40.9,0,56.6L125.4,970.2C117.6,978,107.4,981.9,97.1,981.9z"/>
			<path d="M1039,981.9c-10.2,0-20.5-3.9-28.3-11.7L68.8,28.3c-15.6-15.6-15.6-40.9,0-56.6s40.9-15.6,56.6,0l941.9,941.9
				c15.6,15.6,15.6,40.9,0,56.6C1059.5,978,1049.2,981.9,1039,981.9z"/>
		</g>
	</g>
</g>
</svg>
