<svg id="1b883557-ee69-4943-b2f0-a50e77e39adb" data-name="Calque 16" xmlns="http://www.w3.org/2000/svg" viewBox="0 0 1024 1024"><title>delete-2</title><path d="M512,0C229.68,0,0,229.68,0,512s229.68,512,512,512,512-229.68,512-512S794.32,0,512,0Zm0,930.91C281,930.91,93.09,743,93.09,512S281,93.09,512,93.09,930.91,281,930.91,512,743,930.91,512,930.91Z"/><polygon points="669.29 301.55 520.61 450.23 371.93 301.55 301.52 371.95 450.2 520.64 301.52 669.32 371.93 739.73 520.61 591.04 669.29 739.73 739.71 669.32 591.02 520.64 739.71 371.95 669.29 301.55"/></svg>