<?xml version="1.0" encoding="utf-8"?>
<!-- Generator: Adobe Illustrator 17.0.0, SVG Export Plug-In . SVG Version: 6.00 Build 0)  -->
<!DOCTYPE svg PUBLIC "-//W3C//DTD SVG 1.1//EN" "http://www.w3.org/Graphics/SVG/1.1/DTD/svg11.dtd">
<svg version="1.1" id="Calque_1" xmlns="http://www.w3.org/2000/svg" xmlns:xlink="http://www.w3.org/1999/xlink" x="0px" y="0px"
	 width="1024px" height="1024px" viewBox="0 0 1024 1024" enable-background="new 0 0 1024 1024" xml:space="preserve">
<title>CN-1280-BORNE-BURALISTES-ICONS</title>
<g>
	<g transform="translate(19 282)">
		<path fill="#333333" d="M902.4,480.1H83.5C27,480.1-19,434.2-19,377.6V83.5C-19,27,27-19,83.5-19h818.8
			c56.5,0,102.5,46,102.5,102.5v294.1C1004.9,434.2,958.9,480.1,902.4,480.1z M83.5,21C49,21,21,49,21,83.5v294.1
			c0,34.5,28,62.5,62.5,62.5h818.9c34.5,0,62.5-28,62.5-62.5V83.5c0-34.5-28-62.5-62.5-62.5H83.5z"/>
		<circle fill="#333333" cx="146.7" cy="230.7" r="48.7"/>
		<circle fill="#333333" cx="316.7" cy="230.7" r="48.7"/>
		<circle fill="#333333" cx="487.7" cy="230.7" r="48.7"/>
		<circle fill="#333333" cx="657.7" cy="230.7" r="48.7"/>
		<circle fill="#333333" cx="827.7" cy="230.7" r="48.7"/>
	</g>
</g>
</svg>
