<?xml version="1.0" encoding="utf-8"?>
<!-- Generator: Adobe Illustrator 21.1.0, SVG Export Plug-In . SVG Version: 6.00 Build 0)  -->
<svg version="1.1" id="Calque_1" xmlns="http://www.w3.org/2000/svg" xmlns:xlink="http://www.w3.org/1999/xlink" x="0px" y="0px"
	 viewBox="0 0 1024 1024" style="enable-background:new 0 0 1024 1024;" xml:space="preserve">
<g>
	<path d="M877.3,276.4H146.7C65.8,276.4,0,342.2,0,423.1v177.8c0,80.9,65.8,146.7,146.7,146.7h541.1c25.7,0,46.6-20.8,46.6-46.6
		c0-25.7-20.8-46.6-46.6-46.6H146.7c-29.5,0-53.6-24-53.6-53.6V423.1c0-29.5,24-53.6,53.6-53.6h730.6c29.5,0,53.6,24,53.6,53.6
		v177.8c0,29.5-24,53.6-53.6,53.6h-30.2c-25.7,0-46.6,20.8-46.6,46.6c0,25.7,20.8,46.6,46.6,46.6h30.2
		c80.9,0,146.7-65.8,146.7-146.7V423.1C1024,342.2,958.2,276.4,877.3,276.4z"/>
	<circle cx="230.4" cy="512" r="63.9"/>
	<circle cx="418.1" cy="512" r="63.9"/>
	<circle cx="605.9" cy="512" r="63.9"/>
	<circle cx="793.6" cy="512" r="63.9"/>
</g>
</svg>
