<?xml version="1.0" encoding="utf-8"?>
<!-- Generator: Adobe Illustrator 21.1.0, SVG Export Plug-In . SVG Version: 6.00 Build 0)  -->
<svg version="1.1" id="Calque_1" xmlns="http://www.w3.org/2000/svg" xmlns:xlink="http://www.w3.org/1999/xlink" x="0px" y="0px"
	 viewBox="0 0 1024 1024" style="enable-background:new 0 0 1024 1024;" xml:space="preserve">
<path d="M138.3,183C62,183,0,245.6,0,322.4S62,462,138.3,462s138.3-62.6,138.3-139.6S214.5,183,138.3,183z M138.3,409.7
	c-47.4,0-85.9-39.1-85.9-87.2s38.6-87.2,85.9-87.2s86,39.1,86,87.2S185.6,409.7,138.3,409.7L138.3,409.7z"/>
<path d="M512,183c-76.3,0-138.3,62.6-138.3,139.5S435.7,462,512,462s138.3-62.6,138.3-139.6S588.3,183,512,183z M512,409.7
	c-47.4,0-86-39.1-86-87.2s38.6-87.2,86-87.2s86,39.1,86,87.1S559.4,409.7,512,409.7L512,409.7z"/>
<path d="M885.7,462c76.3,0,138.3-62.6,138.3-139.6S962,183,885.7,183s-138.3,62.6-138.3,139.4S809.5,462,885.7,462z M885.7,235.3
	c47.4,0,85.9,39.1,85.9,87.2s-38.5,87.2-85.9,87.2s-86-39.1-86-87.2S838.3,235.3,885.7,235.3L885.7,235.3z"/>
<path d="M138.3,560.8C62,560.8,0,623.4,0,700.4s62,139.4,138.3,139.4s138.3-62.6,138.3-139.4S214.5,560.8,138.3,560.8z M138.3,787.6
	c-47.4,0-85.9-39.1-85.9-87.1s38.5-87.2,85.9-87.2s86,39.1,86,87.2S185.6,787.6,138.3,787.6z"/>
<path d="M512,560.8c-76.3,0-138.3,62.6-138.3,139.6s62,139.5,138.3,139.5s138.3-62.6,138.3-139.5S588.3,560.8,512,560.8z M512,787.6
	c-47.4,0-86-39.1-86-87.2s38.6-87.2,86-87.2s86,39.1,86,87.2S559.4,787.6,512,787.6z"/>
<path d="M885.7,560.8c-76.3,0-138.3,62.6-138.3,139.6s62,139.5,138.3,139.5S1024,777.3,1024,700.4S962,560.8,885.7,560.8z
	 M885.7,787.6c-47.4,0-86-39.1-86-87.2s38.6-87.2,86-87.2s85.9,39.1,85.9,87.2S933.1,787.6,885.7,787.6z"/>
<path d="M180.3,306.7c0-7.5-5.6-14.9-13.2-14.9c-5.8,0-10.9,5.4-18,10.5c0.5-5.4,2-12.1,2-16.2c0-8.5-6.1-11.8-12.9-11.8
	s-13,3.3-13,11.8c0,4.1,1.6,10.8,2,16.2c-7.3-5.1-12.7-10.5-18.2-10.5c-7.9,0-12.7,7.4-12.7,14.9c0,9.8,12.4,11.8,20,16
	c-7.6,3.9-20,5.9-20,15.6c0,7.5,4.8,15.1,12.8,15.1c5.5,0,10.9-5.7,18.2-10.8c-0.4,5.4-2,12.1-2,16.2c0,8.5,6.1,11.8,13,11.8
	s12.9-3.3,12.9-11.8c0-4.1-1.5-10.8-2-16.2c7.1,5.1,12.2,10.8,18,10.8c7.6,0,13.2-7.7,13.2-15.2c0-9.8-12.5-11.8-20.3-15.6
	C167.9,318.5,180.3,316.4,180.3,306.7z"/>
<path d="M180.3,684.6c0-7.5-5.6-14.9-13.2-14.9c-5.8,0-10.9,5.4-18,10.5c0.5-5.4,2-12.1,2-16.2c0-8.5-6.1-11.8-12.9-11.8
	s-13,3.3-13,11.8c0,4.1,1.6,10.8,2,16.2c-7.3-5.1-12.7-10.5-18.2-10.5c-7.9,0-12.7,7.4-12.7,14.9c0,9.8,12.4,11.8,20,16
	c-7.6,3.8-20,5.9-20,15.6c0,7.5,4.8,15.2,12.7,15.2c5.5,0,10.9-5.7,18.2-10.8c-0.4,5.4-2,12.1-2,16.2c0,8.5,6.1,11.8,13,11.8
	s12.9-3.3,12.9-11.8c0-4.1-1.5-10.8-2-16.2c7.1,5.1,12.2,10.8,18,10.8c7.6,0,13.2-7.7,13.2-15.2c0-9.8-12.5-11.8-20.3-15.6
	C167.9,696.4,180.3,694.3,180.3,684.6z"/>
<path d="M554.1,306.7c0-7.5-5.6-14.9-13.2-14.9c-5.8,0-10.9,5.4-18,10.5c0.5-5.4,2-12.1,2-16.2c0-8.5-6.1-11.8-12.9-11.8
	s-13,3.3-13,11.8c0,4.1,1.6,10.8,2,16.2c-7.3-5.1-12.7-10.5-18.2-10.5c-7.9,0-12.7,7.4-12.7,14.9c0,9.8,12.4,11.8,20,16
	c-7.6,3.9-20,5.9-20,15.6c0,7.5,4.8,15.2,12.7,15.2c5.5,0,10.9-5.7,18.2-10.8c-0.5,5.4-2,12.1-2,16.2c0,8.5,6.1,11.8,13,11.8
	s12.9-3.3,12.9-11.8c0-4.1-1.5-10.8-2-16.2c7.1,5.1,12.2,10.8,18,10.8c7.6,0,13.2-7.7,13.2-15.2c0-9.8-12.5-11.8-20.3-15.6
	C541.6,318.5,554.1,316.4,554.1,306.7z"/>
<path d="M843.7,338.3c0,7.5,4.8,15.2,12.7,15.2c5.5,0,10.9-5.7,18.2-10.8c-0.5,5.4-2,12.1-2,16.2c0,8.5,6.1,11.8,13,11.8
	s12.9-3.3,12.9-11.8c0-4.1-1.5-10.8-2-16.2c7.1,5.1,12.2,10.8,18,10.8c7.6,0,13.2-7.7,13.2-15.2c0-9.8-12.5-11.8-20.3-15.6
	c7.8-4.2,20.3-6.2,20.3-16c0-7.5-5.6-14.9-13.2-14.9c-5.8,0-10.9,5.4-18,10.5c0.5-5.4,2-12.1,2-16.2c0-8.5-6.1-11.8-12.9-11.8
	s-13,3.3-13,11.8c0,4.1,1.6,10.8,2,16.2c-7.3-5.1-12.7-10.5-18.2-10.5c-7.9,0-12.7,7.4-12.7,14.9c0,9.8,12.4,11.8,20,16
	C856.1,326.5,843.7,328.5,843.7,338.3z"/>
</svg>
