<svg id="Calque_7" data-name="Calque 7" xmlns="http://www.w3.org/2000/svg" viewBox="0 0 1024 1024"><title>Plan de travail 1</title><path d="M839,874.54c-12.53,0-21.49-1.26-35-3.15l-6.07-.85a46.15,46.15,0,1,1,12.62-91.43l6.25.87c12.27,1.72,16.43,2.26,22.24,2.26a92.67,92.67,0,1,0,0-185.34c-5.72,0-9.8.53-21.82,2.21l-6.7.93A46.15,46.15,0,1,1,798,508.6l6.48-.9c13.36-1.86,22.18-3.1,34.6-3.1,102,0,185,83,185,185S941,874.54,839,874.54Z"/><path d="M247.48,346.34a46.15,46.15,0,0,1-46.15-46.15V65.3a46.15,46.15,0,0,1,92.3,0V300.19A46.15,46.15,0,0,1,247.48,346.34Z"/><path d="M448.8,346.34a46.15,46.15,0,0,1-46.15-46.15V65.3a46.15,46.15,0,0,1,92.3,0V300.19A46.15,46.15,0,0,1,448.8,346.34Z"/><path d="M554.67,1004.85H150c-82.7,0-150-67.28-150-150V488.93a79.78,79.78,0,0,1,79.69-79.7H625a79.78,79.78,0,0,1,79.69,79.7V854.86C704.66,937.57,637.37,1004.85,554.67,1004.85ZM92.3,513.07V854.86A57.69,57.69,0,0,0,150,912.55H554.67a57.69,57.69,0,0,0,57.69-57.69V513.07a11.54,11.54,0,0,0-11.54-11.54h-497A11.54,11.54,0,0,0,92.3,513.07Z"/></svg>