<svg id="0c2b159b-52c5-4bf1-a6ed-2dfda0156fdc" data-name="Calque 41" xmlns="http://www.w3.org/2000/svg" viewBox="0 0 1024 925.47"><title>01</title><path d="M833.93,680.24c-72.33,0-131.16-58.85-131.16-131.18s58.82-131.18,131.16-131.18H994.59c1.37,0,2.65.34,4,.41V382.94a23.58,23.58,0,0,1-10.73,2.8H113.32a24.09,24.09,0,0,1,0-48.19H235.09L449.26,123.38H104.4A104.51,104.51,0,0,0,0,227.78V870.31A104.51,104.51,0,0,0,104.4,974.74H492.6a24.3,24.3,0,0,0,6.71-.94,24,24,0,0,0,6.68.94H894.16A104.52,104.52,0,0,0,998.59,870.31V679.83c-1.35.07-2.63.41-4,.41Z" transform="translate(0 -49.26)"/><path d="M904.75,337.55l-280-279.94c-11.11-11.15-30.45-11.11-41.62,0L303.23,337.55Z" transform="translate(0 -49.26)"/><path d="M994.59,466.07H833.93a83,83,0,0,0,0,166H994.59A29.46,29.46,0,0,0,1024,602.59V495.5A29.44,29.44,0,0,0,994.59,466.07ZM826.11,589.2a40.15,40.15,0,1,1,40.19-40.14A40.19,40.19,0,0,1,826.11,589.2Z" transform="translate(0 -49.26)"/><path d="M826.11,541a8,8,0,0,0-8,8c0,8.85,16,8.85,16,0A8.06,8.06,0,0,0,826.11,541Z" transform="translate(0 -49.26)"/><path d="M969.16,337.55h18.69a23.58,23.58,0,0,1,10.73,2.8V227.78a104.51,104.51,0,0,0-104.43-104.4H758.71L961.79,326.44C965,329.62,966.6,333.9,969.16,337.55Z" transform="translate(0 -49.26)"/></svg>