<?xml version="1.0" encoding="utf-8"?>
<!-- Generator: Adobe Illustrator 21.1.0, SVG Export Plug-In . SVG Version: 6.00 Build 0)  -->
<svg version="1.1" id="Calque_1" xmlns="http://www.w3.org/2000/svg" xmlns:xlink="http://www.w3.org/1999/xlink" x="0px" y="0px"
	 viewBox="0 0 1024 1024" style="enable-background:new 0 0 1024 1024;" xml:space="preserve">
<g id="Page-1">
	<g id="icon-1-copy-2">
		<g id="_x31_" transform="translate(20.000000, 22.000000)">
			<path d="M597,944.7H78.2c-54.1,0-98.2-44.1-98.2-98.2V220.8c0-54.1,44.1-98.2,98.2-98.2h298.4c11,0,20,9,20,20s-9,20-20,20H78.2
				c-32.1,0-58.2,26.1-58.2,58.2v625.6c0,32.1,26.1,58.2,58.2,58.2H597c11,0,20,9,20,20S608,944.7,597,944.7z"/>
			<path d="M905.9,944.7H387.1c-11,0-20-9-20-20s9-20,20-20h518.7c32.1,0,58.2-26.1,58.2-58.2V220.8c0-32.1-26.1-58.2-58.2-58.2H715
				c-11,0-20-9-20-20s9-20,20-20h190.8c54.1,0,98.2,44.1,98.2,98.2v625.6C1004.1,900.6,960,944.7,905.9,944.7z"/>
			<path d="M213.6,329.7c-5.1,0-10.2-2-14.1-5.9c-7.8-7.8-7.8-20.5,0-28.3L494.6,0.5c13.1-13.1,30.5-20.3,48.9-20.3
				c18.5,0,35.9,7.2,48.9,20.3l278.4,278.4c6.6,6.6,11.7,14.3,15.2,22.9c4.2,10.2-0.8,21.9-11,26.1c-10.2,4.2-21.9-0.8-26.1-11
				c-1.5-3.7-3.6-6.9-6.4-9.7L564.1,28.7c-5.5-5.5-12.9-8.6-20.7-8.6c-7.8,0-15.1,3-20.7,8.6L227.7,323.9
				C223.8,327.8,218.7,329.7,213.6,329.7z"/>
			<path d="M880.5,657.9H659.5c-68.5,0-124.3-55.7-124.3-124.3c0-68.5,55.7-124.3,124.3-124.3h220.9c39.8,0,72.1,32.4,72.1,72.1
				v104.3C952.6,625.6,920.2,657.9,880.5,657.9z M659.5,449.4c-46.5,0-84.3,37.8-84.3,84.3c0,46.5,37.8,84.3,84.3,84.3h220.9
				c17.7,0,32.1-14.4,32.1-32.1V481.5c0-17.7-14.4-32.1-32.1-32.1H659.5z"/>
			<path d="M684.2,592.7c-32.6,0-59.1-26.5-59.1-59.1s26.5-59.1,59.1-59.1s59.1,26.5,59.1,59.1S716.8,592.7,684.2,592.7z
				 M684.2,514.5c-10.5,0-19.1,8.6-19.1,19.1s8.6,19.1,19.1,19.1s19.1-8.6,19.1-19.1S694.7,514.5,684.2,514.5z"/>
			<path d="M928,339.8H119.8c-11,0-20-9-20-20s9-20,20-20H928c11,0,20,9,20,20S939,339.8,928,339.8z"/>
		</g>
	</g>
</g>
</svg>
