<?xml version="1.0" encoding="utf-8"?>
<!-- Generator: Adobe Illustrator 17.0.0, SVG Export Plug-In . SVG Version: 6.00 Build 0)  -->
<!DOCTYPE svg PUBLIC "-//W3C//DTD SVG 1.1//EN" "http://www.w3.org/Graphics/SVG/1.1/DTD/svg11.dtd">
<svg version="1.1" id="Calque_1" xmlns="http://www.w3.org/2000/svg" xmlns:xlink="http://www.w3.org/1999/xlink" x="0px" y="0px"
	 width="1024px" height="1024px" viewBox="0 0 1024 1024" enable-background="new 0 0 1024 1024" xml:space="preserve">
<title>CN-1280-BORNE-BURALISTES-ICONS</title>
<g>
	<path d="M924,1024c-55.2,0-100-44.8-100-100c0-97.8-19.1-192.6-56.9-281.8c-36.5-86.2-88.7-163.6-155.2-230.2
		c-66.5-66.5-144-118.7-230.2-155.2C292.6,219.1,197.8,200,100,200C44.8,200,0,155.2,0,100S44.8,0,100,0
		c124.7,0,245.7,24.4,359.7,72.7c110,46.5,208.8,113.2,293.7,198c84.8,84.8,151.4,183.6,198,293.7c48.2,114,72.7,235,72.7,359.7
		C1024,979.2,979.2,1024,924,1024z"/>
</g>
</svg>
