<?xml version="1.0" encoding="utf-8"?>
<!-- Generator: Adobe Illustrator 21.1.0, SVG Export Plug-In . SVG Version: 6.00 Build 0)  -->
<svg version="1.1" id="Calque_1" xmlns="http://www.w3.org/2000/svg" xmlns:xlink="http://www.w3.org/1999/xlink" x="0px" y="0px"
	 viewBox="0 0 1024 1024" style="enable-background:new 0 0 1024 1024;" xml:space="preserve">
<path d="M976.9,291.7c-26,0-47.1,21.1-47.1,47.1v276c0,45-36.6,81.7-81.7,81.7h-439c-45,0-81.7-36.6-81.7-81.7v-439
	c0-45,36.6-81.7,81.7-81.7h439c11,0,21.7,2.2,31.8,6.4c14.6,6.2,27.1,16.4,36,29.6c14.6,21.5,43.8,27.2,65.4,12.7
	c21.5-14.6,27.2-43.8,12.7-65.4c-19.2-28.3-45.9-50.4-77.3-63.6C894.9,4.7,871.9,0,848.2,0h-439c-96.9,0-175.8,78.9-175.8,175.8
	v57.4l-58,0.2C78.4,233.6-0.3,312.7,0,409.6l1.2,439C1.5,945.4,80.3,1024,177,1024c0.2,0,0.3,0,0.5,0l439-1.2
	c96.9-0.3,175.6-79.3,175.3-176.3l-0.2-55.9h56.5c96.9,0,175.8-78.9,175.8-175.8v-276C1024,312.8,1002.9,291.7,976.9,291.7z
	 M697.7,846.8c0.1,45-36.4,81.8-81.5,81.9l-439,1.2c-0.1,0-0.1,0-0.2,0c-44.9,0-81.5-36.5-81.7-81.5l-1.2-439
	c-0.1-45,36.4-81.8,81.5-81.9l57.8-0.2v287.5c0,96.9,78.9,175.8,175.8,175.8h288.4L697.7,846.8z"/>
</svg>
