<?xml version="1.0" encoding="utf-8"?>
<!-- Generator: Adobe Illustrator 23.0.3, SVG Export Plug-In . SVG Version: 6.00 Build 0)  -->
<svg version="1.1" id="Calque_2" xmlns="http://www.w3.org/2000/svg" xmlns:xlink="http://www.w3.org/1999/xlink" x="0px" y="0px"
	 viewBox="0 0 1024 1024" style="enable-background:new 0 0 1024 1024;" xml:space="preserve">
<path d="M909.8,777.4c-47.1,0-87.7,28.6-105.2,69.3H603.9c-17.7-41-58.6-69.8-106.1-69.8s-88.3,28.8-106.1,69.8H235.2
	c-78,0-141.4-63.4-141.4-141.4c0-78,63.4-141.4,141.4-141.4h153.3c15.6,45.3,58.7,78,109.2,78c50.6,0,93.6-32.7,109.2-78h181.3
	c62.9,0,122-24.5,166.5-69s69-103.6,69-166.5s-24.5-122-69-166.5s-103.6-69-166.5-69H606.8c-15.9-44.7-58.7-77-109-77
	s-93.1,32.3-109,77.2H222.7c-15.8-44.4-58.2-76.2-107.9-76.2C51.7,16.9,0.3,68.3,0.3,131.4s51.4,114.5,114.5,114.5
	c42.9,0,80.4-23.8,100-58.8h181.8c19.7,35.6,57.7,59.8,101.2,59.8s81.5-24.2,101.2-59.8h189.4c78,0,141.4,63.4,141.4,141.4
	s-63.4,141.4-141.4,141.4H598.5c-19.8-35.2-57.5-59-100.7-59s-80.9,23.8-100.7,59H235.2c-62.9,0-122,24.5-166.5,69
	s-69,103.6-69,166.5s24.5,122,69,166.5s103.6,69,166.5,69h157.7c18.3,39.6,58.4,67.2,104.9,67.2c46.4,0,86.6-27.6,104.9-67.2h203.6
	c18.4,38.8,57.9,65.7,103.5,65.7c63.1,0,114.5-51.4,114.5-114.5S972.9,777.4,909.8,777.4z M497.8,504.9c11.9,0,21.5,9.6,21.5,21.5
	s-9.6,21.5-21.5,21.5c-11.9,0-21.5-9.6-21.5-21.5S485.9,504.9,497.8,504.9z M497.8,913.9c-11.9,0-21.5-9.6-21.5-21.5
	s9.6-21.5,21.5-21.5c11.9,0,21.5,9.6,21.5,21.5S509.7,913.9,497.8,913.9z M909.8,913.9c-11.9,0-21.5-9.6-21.5-21.5
	s9.6-21.5,21.5-21.5s21.5,9.6,21.5,21.5S921.7,913.9,909.8,913.9z"/>
</svg>
