<svg id="728b4217-0a3d-4041-bcd1-bc192b56d3ba" data-name="Calque 22" xmlns="http://www.w3.org/2000/svg" viewBox="0 0 1024 894.95"><title>recevoir</title><path d="M331,585V703.5a26.19,26.19,0,0,0,10.46,20.91L647.89,954.27a26.12,26.12,0,0,0,41.78-20.91V847.49L813.78,953.25a26.21,26.21,0,0,0,16.94,6.22,26.07,26.07,0,0,0,26.12-26.12V854.22l124.77,99.54a26.11,26.11,0,0,0,42.39-20.4V320.46a26.19,26.19,0,0,0-10.46-20.91L707.07,69.74a26.11,26.11,0,0,0-41.78,20.89v73.13l-125.39-94a26.11,26.11,0,0,0-41.78,20.89v73.13l-125.39-94A26.11,26.11,0,0,0,331,90.63V299.7a26.12,26.12,0,1,0,52.24,0V142.86L637.44,333.52V881.12L383.2,690.44V585A26.12,26.12,0,0,0,331,585Zm525.88,202.5v-467a26.19,26.19,0,0,0-10.46-20.91L708.54,196.19a25.75,25.75,0,0,0,9-19.37V142.86L971.76,333.52V879.13ZM541.38,196.19a25.75,25.75,0,0,0,9-19.37V142.86L804.6,333.52V876.79L694.42,782.88c-1.43-1.22-3.15-1.77-4.74-2.62V320.46a26.19,26.19,0,0,0-10.46-20.91Z" transform="translate(0 -64.52)"/><path d="M0,443.45A74,74,0,0,0,22.8,497L168,637.75a77.75,77.75,0,0,0,108-.1,74.12,74.12,0,0,0-.1-106.87l-6.58-6.38H438.54c45.35,0,82.23-36.12,82.23-80.5s-36.88-80.55-82.23-80.55h-170l7.5-7.29a74,74,0,0,0-.1-107c-28.57-28-79.07-28.06-107.94.1L22.8,389.94A74,74,0,0,0,0,443.45Zm52.24,0a21.86,21.86,0,0,1,6.89-16L204.35,286.69c9.49-9.18,25.86-9.18,35.2-.1a21.79,21.79,0,0,1,.1,32l-48.41,47c-2.3,2.24-4.54,4.54-6.58,6.94l-36.93,43.1H438.54c16.53,0,30,12.7,30,28.31s-13.47,28.26-30,28.26H146.76l39.07,43.56q2.75,3.06,5.82,6l48,46.57a21.9,21.9,0,0,1,.05,31.93c-9.54,9.34-25.86,9.18-35.25.05L59.12,459.41A21.86,21.86,0,0,1,52.24,443.45Z" transform="translate(0 -64.52)"/></svg>