<?xml version="1.0" encoding="utf-8"?>
<!-- Generator: Adobe Illustrator 21.1.0, SVG Export Plug-In . SVG Version: 6.00 Build 0)  -->
<svg version="1.1" id="Calque_1" xmlns="http://www.w3.org/2000/svg" xmlns:xlink="http://www.w3.org/1999/xlink" x="0px" y="0px"
	 viewBox="0 0 1024 1024" style="enable-background:new 0 0 1024 1024;" xml:space="preserve">
<path d="M792,1024H232c-73.6,0-133.5-59.9-133.5-133.5v-75c0-25.7,20.8-46.5,46.5-46.5s46.5,20.8,46.5,46.5v75
	c0,22.3,18.2,40.5,40.5,40.5h560c22.3,0,40.5-18.2,40.5-40.5v-75c0-25.7,20.8-46.5,46.5-46.5s46.5,20.8,46.5,46.5v75
	C925.5,964.1,865.6,1024,792,1024z"/>
<path d="M721,838H303c-25.7,0-46.5-20.8-46.5-46.5S277.3,745,303,745h418c25.7,0,46.5,20.8,46.5,46.5S746.7,838,721,838z"/>
<path d="M721,662H303c-25.7,0-46.5-20.8-46.5-46.5S277.3,569,303,569h418c25.7,0,46.5,20.8,46.5,46.5S746.7,662,721,662z"/>
<path d="M792,1024H232c-73.6,0-133.5-59.9-133.5-133.5v-75c0-25.7,20.8-46.5,46.5-46.5s46.5,20.8,46.5,46.5v75
	c0,22.3,18.2,40.5,40.5,40.5h560c22.3,0,40.5-18.2,40.5-40.5v-75c0-25.7,20.8-46.5,46.5-46.5s46.5,20.8,46.5,46.5v75
	C925.5,964.1,865.6,1024,792,1024z"/>
<path d="M721,838H303c-25.7,0-46.5-20.8-46.5-46.5S277.3,745,303,745h418c25.7,0,46.5,20.8,46.5,46.5S746.7,838,721,838z"/>
<path d="M512,503.6c-18.5,0-35.9-7.6-48.4-20.9L272.7,315.3l-2.5-3.2c-16.2-20.1-19.3-47.1-8.2-70.4s34.1-37.8,60-37.8h37V47.5
	C359,21.8,379.8,1,405.5,1S452,21.8,452,47.5V297h-59.2L512,401.5L631.2,297H572V93h-40.5C505.8,93,485,72.2,485,46.5
	S505.8,0,531.5,0h67C635.2,0,665,29.8,665,66.5V204h37c25.8,0,48.8,14.5,60,37.8s8,50.3-8.2,70.4l-2.5,3.2L560.4,482.7
	C547.9,496,530.5,503.6,512,503.6z"/>
</svg>
