<?xml version="1.0" encoding="utf-8"?>
<!-- Generator: Adobe Illustrator 21.1.0, SVG Export Plug-In . SVG Version: 6.00 Build 0)  -->
<svg version="1.1" id="Calque_1" xmlns="http://www.w3.org/2000/svg" xmlns:xlink="http://www.w3.org/1999/xlink" x="0px" y="0px"
	 viewBox="0 0 1024 1024" style="enable-background:new 0 0 1024 1024;" xml:space="preserve">
<path d="M998.8,495c-7.8-8.9-17-16.3-27.2-22c-0.4-90.9-61-167.8-143.8-193l150-170.7c17-19.3,15.1-48.7-4.2-65.7
	c-19.3-17-48.7-15.1-65.7,4.2L752.3,225c-2.4-8.9-5.3-17.6-8.7-26.1l43.4-120c8.7-24.2-3.8-50.9-27.9-59.6
	c-24.2-8.7-50.9,3.8-59.6,27.9l-22.2,61.4C637,75.6,587,57.6,534.2,57.6c-59.1,0-115,22.7-157.3,63.9c-5.7,5.5-11.1,11.4-16.2,17.5
	c-16.4,19.8-13.8,49.1,6,65.6c19.8,16.4,49.1,13.8,65.6-6c3-3.6,6.2-7.1,9.5-10.3c24.9-24.2,57.7-37.5,92.4-37.5
	c73.1,0,132.6,59.5,132.6,132.6c0,5.1,0.8,10,2.3,14.5c-57.5,32.7-97.5,92.8-102.2,162.4h-62.4c-2.8-55.9-25.9-108.1-65.8-147.9
	c-42.6-42.6-99.3-66.1-159.6-66.1s-116.9,23.5-159.6,66.1c-42.6,42.6-66.1,99.3-66.1,159.6c0,0.2,0,0.5,0,0.7
	c-10.6,5.7-20.2,13.3-28.3,22.6C5.9,517-3,546.3,0.9,575.4c0.3,2.4,0.6,4.7,1,7.1C19.3,700.8,79.2,809,170.5,887.1
	c90.9,77.7,206.7,120.4,326.3,120.4c0.2,0,0.4,0,0.6,0l30.3,0c119.6-0.1,235.5-43.1,326.2-120.9c91.1-78.1,150.8-186.1,168.2-304.3
	l0,0c0.3-2.3,0.7-4.6,1-6.9C1027,546.3,1018.1,517,998.8,495z M769,364.4c55.7,0,101.9,41.8,108.7,95.7H660.3
	C667.2,406.2,713.3,364.4,769,364.4z M279.1,339.2c69.2,0,126.1,53.3,132,120.9H147.1C153,392.4,209.9,339.2,279.1,339.2z
	 M930.8,563c-0.3,1.9-0.5,3.8-0.8,5.7l0,0c-14.1,95.9-62.6,183.7-136.6,247.2c-73.9,63.4-168.3,98.3-265.8,98.5l-30.3,0
	c-0.2,0-0.3,0-0.5,0c-97.4,0-191.8-34.8-265.8-98.1C156.8,752.8,108.1,665,94,568.9c-0.3-1.9-0.6-3.9-0.8-5.8
	c-0.4-3.2,0.9-5.4,2.1-6.8c1.2-1.4,3.4-3.1,6.8-3.1H922c3.4,0,5.6,1.7,6.8,3.1C929.9,557.6,931.3,559.9,930.8,563z"/>
</svg>
