<svg id="cae694ac-533a-45c8-8166-67173f64ac7f" data-name="Calque 22" xmlns="http://www.w3.org/2000/svg" viewBox="0 0 1024 894.95"><title>prelevements</title><path d="M666.92,558.83A26.1,26.1,0,0,0,640.8,585V690.44L386.56,881.12V333.52L640.8,142.86V299.7a26.12,26.12,0,1,0,52.24,0V90.63a26.11,26.11,0,0,0-41.78-20.89l-125.39,94V90.63A26.11,26.11,0,0,0,484.1,69.74l-125.39,94V90.63a26.11,26.11,0,0,0-41.78-20.89L10.46,299.54A26.19,26.19,0,0,0,0,320.46v612.9a26.1,26.1,0,0,0,42.39,20.4l124.77-99.54v79.13a26.13,26.13,0,0,0,43.05,19.89L334.33,847.49v85.87a26.13,26.13,0,0,0,41.78,20.91L682.58,724.42A26.19,26.19,0,0,0,693,703.5V585A26.1,26.1,0,0,0,666.92,558.83ZM52.24,879.13V333.52L306.48,142.86v33.95a25.75,25.75,0,0,0,9,19.37L177.62,299.54a26.19,26.19,0,0,0-10.46,20.91v467ZM344.79,299.54a26.19,26.19,0,0,0-10.46,20.91V780.25c-1.6.86-3.31,1.41-4.74,2.62L219.4,876.79V333.52L473.64,142.86v33.95a25.75,25.75,0,0,0,9,19.37Z" transform="translate(0 -64.52)"/><path d="M1001.2,389.94,856,249.2c-28.87-28.16-79.37-28.06-107.94-.1a74,74,0,0,0-.1,107l7.5,7.29h-170c-45.35,0-82.23,36.12-82.23,80.55s36.88,80.5,82.23,80.5H754.61L748,530.78a74.12,74.12,0,0,0-.1,106.87,77.75,77.75,0,0,0,108,.1L1001.2,497a74.19,74.19,0,0,0,0-107Zm-36.32,69.48L819.6,600.26c-9.39,9.13-25.71,9.28-35.25-.05a21.9,21.9,0,0,1,.05-31.93l48-46.57q3.06-2.91,5.82-6l39.07-43.56H585.46c-16.53,0-30-12.7-30-28.26s13.47-28.31,30-28.31H876.27l-36.93-43.1c-2-2.4-4.28-4.69-6.58-6.94l-48.41-47a21.79,21.79,0,0,1,.1-32c9.34-9.08,25.71-9.08,35.2.1L964.88,427.48a22,22,0,0,1,0,31.93Z" transform="translate(0 -64.52)"/></svg>