<?xml version="1.0" encoding="utf-8"?>
<!-- Generator: Adobe Illustrator 21.1.0, SVG Export Plug-In . SVG Version: 6.00 Build 0)  -->
<svg version="1.1" id="Calque_1" xmlns="http://www.w3.org/2000/svg" xmlns:xlink="http://www.w3.org/1999/xlink" x="0px" y="0px"
	 viewBox="0 0 1024 1024" style="enable-background:new 0 0 1024 1024;" xml:space="preserve">
<path d="M792,1024H232c-73.6,0-133.5-59.9-133.5-133.5v-75c0-25.7,20.8-46.5,46.5-46.5s46.5,20.8,46.5,46.5v75
	c0,22.3,18.2,40.5,40.5,40.5h560c22.3,0,40.5-18.2,40.5-40.5v-75c0-25.7,20.8-46.5,46.5-46.5s46.5,20.8,46.5,46.5v75
	C925.5,964.1,865.6,1024,792,1024z"/>
<path d="M721,838H303c-25.7,0-46.5-20.8-46.5-46.5S277.3,745,303,745h418c25.7,0,46.5,20.8,46.5,46.5S746.7,838,721,838z"/>
<path d="M721,662H303c-25.7,0-46.5-20.8-46.5-46.5S277.3,569,303,569h418c25.7,0,46.5,20.8,46.5,46.5S746.7,662,721,662z"/>
<path d="M792,1024H232c-73.6,0-133.5-59.9-133.5-133.5v-75c0-25.7,20.8-46.5,46.5-46.5s46.5,20.8,46.5,46.5v75
	c0,22.3,18.2,40.5,40.5,40.5h560c22.3,0,40.5-18.2,40.5-40.5v-75c0-25.7,20.8-46.5,46.5-46.5s46.5,20.8,46.5,46.5v75
	C925.5,964.1,865.6,1024,792,1024z"/>
<path d="M721,838H303c-25.7,0-46.5-20.8-46.5-46.5S277.3,745,303,745h418c25.7,0,46.5,20.8,46.5,46.5S746.7,838,721,838z"/>
<path d="M512,0c18.5,0,35.9,7.6,48.4,20.9l190.9,167.4l2.5,3.2c16.2,20.1,19.3,47.1,8.2,70.4s-34.1,37.8-60,37.8h-37v156.5
	c0,25.7-20.8,46.5-46.5,46.5S572,481.8,572,456.1V206.6h59.2L512,102.1L392.8,206.6H452v204h40.5c25.7,0,46.5,20.8,46.5,46.5
	s-20.8,46.5-46.5,46.5h-67c-36.7,0-66.5-29.8-66.5-66.5V299.6h-37c-25.8,0-48.8-14.5-60-37.8c-11.2-23.3-8-50.3,8.2-70.4l2.5-3.2
	L463.6,20.9C476.1,7.6,493.5,0,512,0z"/>
</svg>
