<?xml version="1.0" encoding="utf-8"?>
<!-- Generator: Adobe Illustrator 21.1.0, SVG Export Plug-In . SVG Version: 6.00 Build 0)  -->
<svg version="1.1" id="Calque_1" xmlns="http://www.w3.org/2000/svg" xmlns:xlink="http://www.w3.org/1999/xlink" x="0px" y="0px"
	 viewBox="0 0 1024 1024" style="enable-background:new 0 0 1024 1024;" xml:space="preserve">
<path d="M516.2,1022.9H207.8c-80.8,0-146.5-65.7-146.5-146.5V147.6C61.2,66.8,127,1.1,207.8,1.1h308.5
	c80.8,0,146.5,65.7,146.5,146.5v728.8C662.8,957.2,597,1022.9,516.2,1022.9z M207.8,94.1c-29.5,0-53.5,24-53.5,53.5v728.8
	c0,29.5,24,53.5,53.5,53.5h308.5c29.5,0,53.5-24,53.5-53.5V147.6c0-29.5-24-53.5-53.5-53.5H207.8z"/>
<path d="M349.8,614.1v-4c3.9,0.3,8,0.7,12.2,0.7c4.1,0,8.1-0.4,12.3-0.7v2.7c0,15.8,11.5,29.9,27.1,31.4
	c18.1,1.7,33.1-12.3,33.1-30.1v-20c0-0.5,0.4-1,0.8-1.2c52.4-26.8,88.3-81.1,88.3-143.8c0-16.3-2.5-32.6-7.4-48.1
	c-6-19.4-29.7-28.3-47.7-14.7c-10.1,7.6-13.4,21-9.7,33.1c3,9.5,4.5,19.6,4.5,29.7c0,25.8-9.7,49.5-25.9,67.4c-0.9,1-2.7,0.3-2.7-1
	V461c0-15.7-11.5-29.9-27.2-31.3c-17.9-1.8-33.1,12.3-33.1,30V548c0,0.8-0.6,1.4-1.6,1.6c-3.5,0.4-7,0.7-10.7,0.7
	c-3.7,0-7.4-0.3-11-0.7c-0.7-0.1-1.2-0.7-1.2-1.6v-87c0-15.7-11.7-29.9-27.3-31.3c-18.1-1.8-33.2,12.3-33.2,30v55.8
	c0,1.4-1.6,2-2.5,1c-16.1-17.9-25.9-41.6-25.9-67.4c0-10.1,1.4-20.2,4.4-29.6c3.7-12.2,0.3-25.6-9.7-33.3
	c-18.1-13.6-41.8-4.6-47.8,14.7c-4.9,15.6-7.4,31.8-7.4,48.1c0,62.6,36,116.9,88.3,143.8c0.4,0.3,0.7,0.8,0.7,1.2v18.7
	c0,15.8,11.5,29.9,27.3,31.4C334.6,645.9,349.8,631.8,349.8,614.1z"/>
<path d="M1009.9,137.1l-127-127C871-1.8,851.6-1.5,840,10.7L718.8,137.9c-17.7,18.6-17,48,1.6,65.7c9,8.6,20.5,12.8,32.1,12.8
	c12.3,0,24.5-4.8,33.7-14.4l29.8-31.3v495c0,25.5,20.2,46.8,45.7,47.3c26,0.4,47.3-20.5,47.3-46.5V167.8l35.1,35.1
	c18.2,18.2,47.6,18.2,65.8,0C1028,184.7,1028,155.3,1009.9,137.1z"/>
</svg>
