<?xml version="1.0" encoding="utf-8"?>
<!-- Generator: Adobe Illustrator 21.1.0, SVG Export Plug-In . SVG Version: 6.00 Build 0)  -->
<svg version="1.1" id="Calque_1" xmlns="http://www.w3.org/2000/svg" xmlns:xlink="http://www.w3.org/1999/xlink" x="0px" y="0px"
	 viewBox="0 0 1024 1024" style="enable-background:new 0 0 1024 1024;" xml:space="preserve">
<path d="M860.1,6.7H163.9C73.5,6.7,0,80.3,0,170.6v480.6c0,90.4,73.5,163.9,163.9,163.9h135.9v94.3c0,2.5-2,4.5-4.5,4.5H189.7
	c-28.5,0-51.6,23.1-51.6,51.6s23.1,51.6,51.6,51.6h105.5c59.4,0,107.8-48.3,107.8-107.8v-94.3h217.9v94.3
	c0,59.4,48.3,107.8,107.8,107.8h105.5c28.5,0,51.6-23.1,51.6-51.6S862.8,914,834.3,914H728.7c-2.5,0-4.5-2-4.5-4.5v-94.3h135.9
	c90.4,0,163.9-73.5,163.9-163.9V170.6C1024,80.3,950.5,6.7,860.1,6.7z M920.8,651.2c0,33.5-27.2,60.7-60.7,60.7H163.9
	c-33.4,0-60.7-27.2-60.7-60.7V613H512c28.5,0,51.6-23.1,51.6-51.6s-23.1-51.6-51.6-51.6H103.2V170.6c0-33.4,27.2-60.7,60.7-60.7
	h696.2c33.5,0,60.7,27.2,60.7,60.7V651.2z"/>
</svg>
