<?xml version="1.0" encoding="utf-8"?>
<!-- Generator: Adobe Illustrator 21.1.0, SVG Export Plug-In . SVG Version: 6.00 Build 0)  -->
<svg version="1.1" id="Calque_1" xmlns="http://www.w3.org/2000/svg" xmlns:xlink="http://www.w3.org/1999/xlink" x="0px" y="0px"
	 viewBox="0 0 1024 1024" style="enable-background:new 0 0 1024 1024;" xml:space="preserve">
<g>
	<path d="M877.4,107.7H146.6C65.8,107.7,0,173.5,0,254.4v197.2c0,80.9,65.8,146.6,146.6,146.6H211v139.4c0,47,17,91.4,48,124.9
		c31.9,34.6,74.6,53.7,120.3,53.7h265.5c45.7,0,88.4-19.1,120.3-53.7c30.9-33.6,48-77.9,48-124.9V598.2h64.3
		c80.9,0,146.6-65.8,146.6-146.6V254.4C1024,173.5,958.2,107.7,877.4,107.7z M146.6,505.1c-29.5,0-53.6-24-53.6-53.6v-52.1H211
		v105.6H146.6z M644.8,823.2H379.2c-41.5,0-75.2-38.4-75.2-85.5V399.5H720v338.1C720,784.8,686.2,823.2,644.8,823.2z M930.9,451.6
		c0,29.5-24,53.6-53.6,53.6H813V399.5h23.5c25.7,0,46.5-20.8,46.5-46.5c0-25.7-20.8-46.5-46.5-46.5H93.1v-52.1
		c0-29.5,24-53.6,53.6-53.6h730.7c29.5,0,53.6,24,53.6,53.6V451.6z"/>
	<path d="M618.6,443c-10.1,7.6-13.4,21-9.7,33.2c3,9.5,4.5,19.6,4.5,29.7c0,25.9-9.7,49.6-25.9,67.5c-0.9,1-2.7,0.3-2.7-1v-54.5
		c0-15.7-11.5-29.9-27.2-31.3c-17.9-1.8-33.1,12.3-33.1,30v88.4c0,0.8-0.6,1.4-1.6,1.6c-3.5,0.4-7,0.7-10.7,0.7
		c-3.7,0-7.4-0.3-11-0.7c-0.7-0.1-1.2-0.7-1.2-1.6v-87.1c0-15.7-11.7-29.9-27.4-31.3c-18.1-1.8-33.2,12.3-33.2,30v55.8
		c0,1.4-1.6,2-2.5,1c-16.1-18-25.9-41.7-25.9-67.5c0-10.1,1.4-20.2,4.4-29.6c3.7-12.2,0.3-25.6-9.7-33.3
		c-18.1-13.6-41.9-4.6-47.9,14.7c-4.9,15.6-7.4,31.9-7.4,48.2c0,62.7,36,117,88.3,143.9c0.4,0.3,0.7,0.8,0.7,1.2v18.7
		c0,15.8,11.6,29.9,27.4,31.5c18,1.7,33.2-12.4,33.2-30.2v-4c3.9,0.3,8,0.7,12.2,0.7c4.1,0,8.1-0.4,12.3-0.7v2.7
		c0,15.8,11.6,29.9,27.2,31.5c18.1,1.7,33.2-12.3,33.2-30.2v-20c0-0.5,0.4-1,0.8-1.2c52.4-26.8,88.3-81.2,88.3-143.9
		c0-16.3-2.5-32.6-7.4-48.2C660.4,438.3,636.6,429.3,618.6,443z"/>
</g>
</svg>
