<?xml version="1.0" encoding="utf-8"?>
<!-- Generator: Adobe Illustrator 21.1.0, SVG Export Plug-In . SVG Version: 6.00 Build 0)  -->
<svg version="1.1" id="Calque_1" xmlns="http://www.w3.org/2000/svg" xmlns:xlink="http://www.w3.org/1999/xlink" x="0px" y="0px"
	 viewBox="0 0 1024 1024" style="enable-background:new 0 0 1024 1024;" xml:space="preserve">
<path d="M822.6,101.3c27.7,0,53.8,10.7,73.4,30.1c19.6,19.4,30.4,45.3,30.4,72.7v615.7c0,27.5-10.8,53.3-30.4,72.7
	c-19.6,19.4-45.7,30.1-73.4,30.1H201.4c-27.7,0-53.8-10.7-73.4-30.1c-19.6-19.4-30.4-45.3-30.4-72.7V204.2
	c0-27.5,10.8-53.3,30.4-72.7c19.6-19.4,45.7-30.1,73.4-30.1H822.6 M822.6,4.5H201.4C90.2,4.5,0,93.9,0,204.2v615.7
	c0,110.3,90.2,199.7,201.4,199.7h621.1c111.2,0,201.4-89.4,201.4-199.7V204.2C1024,93.9,933.8,4.5,822.6,4.5L822.6,4.5z"/>
<g>
	<ellipse cx="512" cy="512" rx="78.2" ry="77.6"/>
</g>
<g>
	<ellipse cx="262" cy="512" rx="78.2" ry="77.6"/>
</g>
<g>
	<ellipse cx="762" cy="512" rx="78.2" ry="77.6"/>
</g>
</svg>
