<svg id="Calque_8" data-name="Calque 8" xmlns="http://www.w3.org/2000/svg" viewBox="0 0 1024 1024"><title>Plan de travail 1</title><path d="M850.5,1024h-677a46.21,46.21,0,1,1,0-92.42h677a46.21,46.21,0,1,1,0,92.42Z"/><path d="M876.64,479.67c-9.18-22.16-31.29-35.39-59.16-35.39H731.62V79.73h0V46.21A46.21,46.21,0,0,0,685.41,0a45.73,45.73,0,0,0-14.9,2.67h0a45.59,45.59,0,0,0-6.4,2.76l-.37.2a46.11,46.11,0,0,0-14.64,12.31c-.38.49-.82.93-1.18,1.43-.82,1.15-1.51,2.36-2.23,3.58s-1.39,2.41-2,3.67c-.51,1.08-1,2.16-1.39,3.28A45.65,45.65,0,0,0,640.74,35c-.23.93-.51,1.83-.69,2.79a45.69,45.69,0,0,0-.85,8.46v58.26h0V525.14a11.55,11.55,0,0,0,11.55,11.55h82.62a2.31,2.31,0,0,1,1.63,3.94L520.17,755.47a11.55,11.55,0,0,1-16.34,0L289,540.64a2.31,2.31,0,0,1,1.63-3.94h82.64a11.55,11.55,0,0,0,11.55-11.55V104.47a11.55,11.55,0,0,1,11.55-11.55h123.9l0-.5a46.09,46.09,0,0,0,5-91.92H371.64a79.32,79.32,0,0,0-79.23,79.23V444.28H206.53c-27.88,0-50,13.23-59.17,35.4s-2.89,47.15,16.82,66.85L456,838.31a79.36,79.36,0,0,0,112.06,0L859.82,546.53C879.53,526.82,885.81,501.83,876.64,479.67Z"/></svg>