<svg id="Calque_20" data-name="Calque 20" xmlns="http://www.w3.org/2000/svg" viewBox="0 0 1024 1024"><title>Plan de travail 1</title><path d="M366.77,831.51c.72-1.13-1-1.45-1.71-1.39a4.59,4.59,0,0,0-3.34,2c-1.17,1.82-3.71,4.13-5.91,4.54-1.18.22-2.88.78-3.35,2s.75,1.58,1.71,1.4A20,20,0,0,0,366.77,831.51Z"/><path d="M613.15,975.68V825.36C599.8,826.43,503,827.51,503,827.51c-4.21,54.68-1.68,148.17-1.68,148.17Z"/><path d="M613.15,792.21V687.78C548.61,689.31,503,689.91,503,689.91c-4.18,49-1.68,102.29-1.68,102.29Z"/><path d="M500.9,808.81a31,31,0,0,1,1.46,5,2.54,2.54,0,0,0,2.33,2.17c10.82.36,21.59.43,32.4-.1a2.92,2.92,0,0,0,2.48-3c-.09-2.62-.16-5.24,0-7.85,0-1.07-.43-2.44-1.66-2.7-11.1-2.39-22.75-.25-34-.11-2.54,0-3.8,3-2.7,4.46A2.69,2.69,0,0,0,500.9,808.81ZM534,806.9c0,1.3,0,2.59,0,3.89-8.84.35-17.68.28-26.51,0-.33-1.18-.76-2.32-1.13-3.51C515.45,806.87,525,805.38,534,806.9Z"/><path d="M989,392.47l-.82.28-158.36,1V374.64a7.15,7.15,0,0,0,1.69-1.49c4.24-5.13,5.32-14.66,6.82-20.86,2.94-12.22,5.34-24.56,7.62-36.91,4.45-24.09,8.71-48.36,11.44-72.73,1.69-15-2.89-29.77-6.18-44.32-6.28-28-12.54-56.51-22.15-83.58-2-5.62-3.24-12.21-9.74-13-11-1.32-22.94.27-34,.76a3,3,0,0,0-2.23.69c-8.93,7.18-10.12,14.65-12.71,25.28,0,.16-.08.31-.12.46q-11,33.52-20.58,67.47c-4,14.16-10.43,29.7-7.55,44.55a1017,1017,0,0,0,31,120.84c1,3.18,2.14,9.09,4.56,12.39V394l-20.34.12-202,1.23c-.69-9.57-5.7-19.13-10.23-27.21-16.14-28.82-38.68-54.39-61.19-78.35-12.27-13.07-25-25.77-38.36-37.74-7.85-7-16.06-14.71-25.34-20q7.08-13.87,14.15-27.75a2.14,2.14,0,0,0-1.32-3.07l-38.28-7c-4.44-.82-6.5-1.66-10.46.83a54.34,54.34,0,0,0-10,8.34c-3.08-8.92-3.7-18.79-1.21-27.16,0-.09,0-.15,0-.22A85.64,85.64,0,0,0,395,159.75c12.89,3.53,27-1.66,33.11-13.95,5.92-11.86,3.53-25.09-10.37-25.28.3-.7.6-1.4.88-2.11,13.89-7.77,17.2-28.28,19.17-42.53,2.3-16.34,3.16-33.5-14.8-40.55C404.1,27.91,383.09,27,363.38,23c-10.85-2.21-19-5-28.25-11.06C329.51,8.27,324,4.4,318.66.38c-1.44-1.09-4.09.41-4.88,1.72-9.39,15.91-9.23,38.59-2.12,56-4.89,7.7-7.89,16.48-9.87,25.51-6.79-1.38-14.13-1.71-17.56,2.77a2.21,2.21,0,0,0-.44.9c-6.56,13.19-2.51,30,13.55,32.93-1.13,27.75,3.4,63.51,35.37,65.49,11.26.7,23.16-1.85,34.16-6.6a53.46,53.46,0,0,0,3.24,29l-1,1.18c-1.59,1.85-3.14,3.74-4.65,5.64l-.19,0c-22.88,6.82-47.05,1.57-65.94-12.51a114.63,114.63,0,0,1,16.22-18.54c1.3-1.18,1.81-3.4-.36-4l-37.2-10.5a3.25,3.25,0,0,0-3.9,2.18L265,197.14c-28.58,3.28-49.61,25.3-70.11,43.68q-8.18,7.35-16.34,14.71c-2.57,2.32-11.92,12-13.26,13.14-.1-.3-1.73-1.22-2.69-2.1-14-12.83-23.25-33.56-32.19-49.82a2.63,2.63,0,0,0-3.5-1c-.44.24-.9.48-1.33.73Q121.27,208.25,117,200c-5-11.81-13.11-24.6-15-37.22-1.29-8.53-2.69-17.5-5.88-25.57a19.71,19.71,0,0,0-6.71-8.87Q96,102.27,102.55,76.19a1.81,1.81,0,0,0,.22-1.44,1.41,1.41,0,0,0-.4-.86Q84.3,38.93,66.23,3.95C65,1.63,61.64,3.05,61,5Q47.64,43.41,34.32,81.81c-2.6,7.48-4.57,9.74-1,16.56Q44.12,118.82,54.9,139.3l1.9,3.6A59.41,59.41,0,0,0,42.94,157c-2.78,3.87-8.23,10.21-7.75,15.55.3,3.36,3.33,6.32,5.49,8.72,6.17,6.91,13.51,11.2,22.67,12.53,10.25,1.5,18.15,5.58,21.8,15.35a36.73,36.73,0,0,0-6.72,5,2.21,2.21,0,0,0-.51,2.35c3.79,6.59,7.57,13.23,10.8,20.11-.32.18-.66.37-1,.55-1.12.62-2.27,1.8-1.68,3.22a563.18,563.18,0,0,0,30.57,62.67c7.18,12.62,15.75,31,28.49,39,9.46,6,21.68.49,31.14-5.66-21.09,29-37.78,61.92-42.7,97.72a1.45,1.45,0,0,0,0,.49c-.2.85.19,1.64,1.51,1.88,13.76,2.55,26.35,7.81,39.17,13.27-3,4.64-6,9.25-8.6,14.1a1,1,0,0,0-.11.92c-22.06,38.53-42.21,78.92-56.94,120.65-7,19.7-18.68,47.34-6.92,67.07,14.78,24.78,40.22,44.47,62.52,62.05,16.82,13.26,34.28,26.06,52.4,37.79C217.72,790,220.69,827.64,225,865q2.65,22.87,6,45.67,1.62,10.91,3.37,21.79a36.82,36.82,0,0,0,1.13,5.88,1.7,1.7,0,0,0-.05.23,16,16,0,0,1-1.3,5,20.37,20.37,0,0,0-6.34-6.4c-4.59-2.78-9.83-.76-12.78,3.44-5.19,7.41,5.7,11.26,12.26,11.93-8.61,7.71-21.94,13.13-29.7,16.9-14.27,6.91-31.68,12.18-43.94,22.52-8.12,6.84-4.11,13.85,5.3,16.09,20.39,4.86,44.24,4.27,65,3.07,13.86-.81,27.21-5.5,41.1-5.76,10.86-.23,21.29-.79,32-2.79a3,3,0,0,0,2.51-2.94c.35-11.86-.23-23.44-3.73-34.83-2.21-7.19-4.33-13.92-5.49-21.12.89-.42,1.75-.85,2.58-1.33.52-.3,1.43-1,1.42-1.69-.81-48.69-.66-97.45,2.78-146q19.33,10.09,38.58,20.38c.17.26.31.53.48.79a13.09,13.09,0,0,0-6.61-.94c-5.69.77-9.55,6.67-8.76,12.27.94,6.78,7.2,7.24,12.94,5-1.61,5.27-1.51,10.48,5.05,10.77,2.85.12,5.38-1.69,7.24-3.94a101.68,101.68,0,0,1,3.11,19.89c.79,13.73-2,26.65-3,40.2-.48,6.16-.51,16,6.2,19.16,5.88,2.76,12.64-1.78,16.9-5.5,6.69-5.82,11.44-13.57,15-21.93q-.47,38.36-1,76.72-.23,17.28-.53,34.56a1.65,1.65,0,0,0,1.5,1.79l.19,0h0a3.75,3.75,0,0,0,.51,0h72.55v.15a1.94,1.94,0,0,0,.66,1.49l.21.16.08,0a2.62,2.62,0,0,0,1.34.32l120.09-.89L753.4,1004h8.79q-2,8.69-4,17.37c-.31,1.31.73,2,2,2h91.2a2.87,2.87,0,0,0,2.2.63l50.82-9.2a3.24,3.24,0,0,0,1.07-.43h12.7c1.85,0,3.64-1.47,3.17-3.41q-2.28-9.12-4.56-18.24c9-3.07,18-6.25,26.92-9.64,10.68-4.06,22.63-8,32-14.77,3.31-2.4,4.81-4.47,5.24-8.34,1.18-10.38.46-21.32.55-31.74q.23-30.07.27-60.12c.24-112.26-.09-224.52-.42-336.77q-.12-40.46-.28-80.93l9.71-3.29a2.82,2.82,0,0,0,1.85-2.58V394C992.61,392.1,990.22,392.06,989,392.47ZM288.91,87.14c0,.26,2.51-.05,3.48,0a44.22,44.22,0,0,1,5.32.58A100.43,100.43,0,0,1,310,90.39c1.82.52,5.8,1,7.1,2.53,1.54,1.76,1,5.63.77,7.74-1.29,9.82-8.35,18-19,15.42C285.23,112.75,283.65,97.9,288.91,87.14Zm31.72,90.34c-15-9.94-17.65-31.52-18.06-47.95-.07-3,0-6,0-9,9.62-.56,17.26-7.57,19.86-17.12,5.67,1.49,11.57,1.88,17.21,3.56-2.93,11.55,2.28,23.09,15.75,26.36,12.41,3,26.28-3,30.37-15.51,3.48-10.63-1.47-15.85-11.37-19-7.33-2.31-25.09-7.11-31.26.06a2.61,2.61,0,0,0-.37.51v0a31.36,31.36,0,0,0-1.49,2.91c-5.84-1.6-11.93-1.95-17.75-3.69h-.07c.33-2.84.29-5.92-1.12-8-1.79-2.62-6.51-3.3-9.33-4.08-1.67-.46-3.87-1.15-6.31-1.8.21-1,.4-1.94.61-2.89a87.16,87.16,0,0,1,6.45-19.15c.67,1.29,1.37,2.53,2.1,3.73a1.3,1.3,0,0,0,.19.22s0,.06.06.09c7.31,9.34,22.15,13.15,33.29,15.1a111.72,111.72,0,0,0,38.67-.12c6.42-1.19,9.84-.65,11.6,6.74.84,3.57.43,7.86,1,11.56.49,3.36.9,7.2,2.62,10.18,2.35,4,7.11,5.19,10.46,8.25-.54,1.4-1.11,2.78-1.72,4.15-.54,1.19.83,1.57,1.74,1.49,10.68-.92,14.26,7.92,11.33,17.18-4.11,12.95-15.68,19-28.36,14.46-1.43-.5-3.29.43-4.2,1.47a79.15,79.15,0,0,1-20.47,16c-1.38-1-3.51-.84-4.1,1.18-.11.36-.18.73-.28,1.1C352.06,183.06,333.83,186.19,320.63,177.48Zm26.81-76.43c3.58-3.49,17.46.32,21.47,1.34,6.78,1.73,13.45,3.62,12.41,11.64-1.48,11.33-12.64,17.48-23.47,14.91C344.23,125.69,341.14,112.28,347.45,101.06ZM987.14,443.61Q944.67,458,902.2,472.36V426.57l84.94-28.77Zm-11,227.78c.16,81.89,1.23,163.91.12,245.82l-73,21.27-13.8-55.28a.93.93,0,0,0-.07-.25h0c-.32-1.32-1.7-1.49-3-1l-.27.07-4.7.14q-.91-115-.26-230.1.4-86.84,1.7-173.67c5.38,0,10.75-.06,16.13-.11a2.91,2.91,0,0,0,2-.8l74.42-25.2Q975.9,561.81,976.11,671.39ZM487.2,744.76c.39-26.87.93-53.75,2.2-80.59H627.87V999.39H487.33C486.3,914.53,486,829.62,487.2,744.76Zm146.1,255.1V661.4c0-1.08-1.19-1.62-2.11-1.62H487.41a3.23,3.23,0,0,0-3.32,2.77c-5.06,102.72-3.39,206-2.5,308.76q.15,14.84.3,29.66l-18.84.14c-2.13-99.09-2.47-198.24-2.34-297.35q.05-33.46.25-66.93c11.82-.43,23.57-3.57,30.47-11.12,8.64,10.22,27.64,11.7,39.53,10.59,10.62-1,23.18-5.15,30.46-13.65,8,10.51,24.14,14.08,36.48,13.86,10.82-.2,25.45-2.37,33.48-10.84C640,635.94,659,637.41,670.93,636.3c10.61-1,23.19-5.15,30.46-13.65,8,10.51,24.13,14.08,36.48,13.86,10.82-.2,25.43-2.37,33.47-10.82,8.29,10,25.84,11.61,38.88,10.77q.28,26.1.6,52.21,1,97.74,1.83,195.5l-18.85.55c-.52-42.76-2.24-182.62-2-224.92H656.73s-2.18,220,0,239.63c0,0,97.55,0,129.77-1.64q-11.56,50.55-23.17,101.12l-67.65.49Zm20.37-405.72q-22.24.07-44.44.13l3.85-42.53q20.29.15,40.59.28Zm49.6-.18-7.53-41.58,38,.32,15.74,41Q726.34,593.85,703.27,594ZM544.58,551.27c9,0,17.91.13,26.86.18l-7.77,42.92-43.35,0,11.76-43.21Zm252,42-22.75-40.2,38.1.35,26,39C824.35,593.84,810.19,593.21,796.56,593.25Zm12.58-51.71c0,2.24,0,4.47.05,6.71q-73.93-.7-147.88-1.29c-64.25-.52-128.54-1.58-192.78-1-2,0-4.74-.39-6.9-.06,0-1.31,0-2.62,0-3.91l113.08-.13,189.4-.24C779.14,541.6,794.14,541.63,809.14,541.54ZM460.9,552a7.65,7.65,0,0,0,.57-.79.52.52,0,0,0,.17,0,65.82,65.82,0,0,1,8-.1q9.61-.07,19.21-.06l-23.94,43.4H424.33c1.14-5.65,8.63-12.73,11.65-16.27,6-7,12.36-13.66,18.85-20.17C456.77,556,459.19,554.13,460.9,552Zm240,298H670.94c.26-8.35.08-16.59,0-19.3,4-.23,20-1,29.91,0C700.47,838.09,700.74,847,700.86,850Zm-29.92,12.91c4-.23,20-1,29.91-.05-.38,7.48-.1,16.42,0,19.35H670.94C671.2,873.8,671,865.56,670.94,862.86ZM771.27,754.15c-13.7-.15-28.7-.2-42.66-.2-25,0-46.62.16-51.34.2V728.34c43.77.28,87.81,0,93.84,0C772.08,731.51,775.9,745.69,771.27,754.15Zm0-40.1c-13.69-.13-28.71-.18-42.69-.18-25,0-46.62.14-51.34.18V692.16c43.85.24,88,0,93.87,0C772.13,695,775.85,706.92,771.3,714.05ZM719,851c5.47-.27,34-1.55,51.08,0-.67,10.87-.16,24.07,0,27.75H719C719.44,866.45,719.1,854.35,719,851Zm177.7-377.89q-102.12.68-204.23.57-128.79-.17-257.59-.46L374.67,473V427.89c70.59.63,141.17,1.32,211.76,1.39q66.73.07,133.44-.35,88.39-.5,176.81-1ZM185,619.22c14.05-27.61,30.95-54,48-79.94-6.23,24.48-9.29,50.15-11.9,75Q219.1,634.1,217.9,654q-8-7.11-16.17-14.12c-5.06-4.35-10.1-8.68-15.22-12.95C182,623.15,182.33,624.5,185,619.22ZM354.42,392.07c1.64,16.34,3.42,38.6,3.38,38.26s-14.87,1.12-14.87,1.12c-1.46-4.91-3.28-38.13-3.28-38.13Zm62.74-72.24c4.51,3.5,9.05,6.93,13.5,10.39C444.83,341.27,462.2,353.5,470,370.4c-19.62,2.81-39.17,6-58.77,8.9.73-9.27,1.47-18.56,2.28-27.83C414.37,342,413.94,329.48,417.16,319.83ZM276.34,381a114.41,114.41,0,0,1-52.19-15q7.21-19.18,14.77-38.22c15.59,11.28,36.81,13.69,56.27,14C289,354.92,282.89,368.07,276.34,381ZM211,401.76q5.67-15.59,11.48-31.1a119.26,119.26,0,0,0,51.89,14.23c-7.89,15-17.05,29.3-23.08,45.18a136.09,136.09,0,0,1-25.83-5.21,116.93,116.93,0,0,1-20.08-7.63Q208.12,409.5,211,401.76Zm93-78.5q-3.3,6.92-6.54,13.86c-19.31-.2-41.24-2.23-56.44-14.37q7.75-19.26,16-38.3c16.51,12,35.66,17.64,56.46,18.87C310.23,310,307.08,316.7,303.94,323.26ZM190.58,453.2c4.78-2.66,6.39-13.12,8.16-17.93q2.5-6.8,5-13.64a128.91,128.91,0,0,0,20.11,7.13,137.85,137.85,0,0,0,26.12,4.78c-3.58,10.34-4.86,19.08,4,26.73a158.33,158.33,0,0,0,18.66,13.6c-28.17-4.33-57.26-9.56-83.62-20A6,6,0,0,0,190.58,453.2ZM315.49,298.91c-20.94-1.13-40-6.94-56.37-19.49,3-6.9,6.1-13.78,9.25-20.63,2-4.41,4.1-8.92,6.22-13.5,16.27,13.08,39.52,14.5,60.55,14.63C328.14,272.71,321.71,285.85,315.49,298.91Zm47.59,460.17c-19.84-11.52-38.94-24.27-58-37,7.41-49.61,19-99,32-147.3,5-18.6,10.57-37.05,16.28-55.45,9.34,4.93,18.83,9.89,28.67,13.44a3.22,3.22,0,0,0,3.67-1.58c.19-.35.34-.71.52-1.07q.27,120.73-.7,241.45c-7-3.74-14.12-7.23-21.46-10.37A2.17,2.17,0,0,0,363.08,759.08Zm28.57-110.52q.27-85.12-.09-170.25,74.33.17,148.67.3c80.65.15,161.33.5,242,.29q47.62-.12,95.23-.49-3.08,201.92-1.37,403.89L818.15,884q-.18-24.16-.37-48.34-.86-99.86-2-199.72c10.2-1.28,27.49-5.33,29.44-17.57a1.35,1.35,0,0,0,.13-.59V594.57a2,2,0,0,0,0-.62v-.18a.73.73,0,0,0-.11-.34v0a.74.74,0,0,0-.15-.3,3.73,3.73,0,0,0-.18-.35l-28.72-43.07a1.77,1.77,0,0,0-1-1.16,1.53,1.53,0,0,0-.43-.22c0-3.25-.07-6.49-.11-9.74a2.32,2.32,0,0,0-2.28-2c-40.83.28-81.68.14-122.51.18l-187.67.23-42.76,0a3,3,0,0,0-3.22,3c0,3-.07,6-.09,9.06-2.29,2.11-4.35,4.8-6.17,6.62a305.63,305.63,0,0,0-21.83,23.87c-3.61,4.5-10.26,11.56-9.42,17.91a2,2,0,0,0,.1.32c0,6.33.17,12.66.06,19-.19,9,6.22,13.32,14.37,16.25a75.65,75.65,0,0,0,22.18,3.86q-.85,154.17,1.21,308.34H389.18Q391.33,796.88,391.65,648.56ZM793.77,888.86l89.9-2.65q-16.26,66.47-32.55,132.94H763.9Q778.83,954,793.77,888.86ZM912,1009.76a53.42,53.42,0,0,0-5.69-.1,53.59,53.59,0,0,0-1.35-5.76q-4.83-19.88-9.55-39.8c-3.4-14.34-6.81-28.68-10-43.06-.69-3.09-1.63-6.85-2.36-10.79l3.7-15.12Q901,952.46,915.3,1009.76ZM785.16,106.55c9-.39,17.94-.75,26.93-.79,2.69,0,5.53-.64,7.41,1s2.74,5.81,3.54,7.93c7.94,21.16,13,43.62,18.25,65.54,4.17,17.36,10.64,36.34,11.37,54.28.68,16.37-4,34.18-6.62,50.22-3.92,24.06-8,48.29-14,71.92-.92,3.59-1.84,7.22-3.09,10.7a15,15,0,0,1-1.32,3.43,5.2,5.2,0,0,0-.67,1.09c-.07-.14-.37-.27-1.4,0-4.08,1.19-9.09,1.19-13.73,1.19a38.19,38.19,0,0,0,2-5.75c2.55-8.21,4.22-16.74,5.94-25.16,4.62-22.67,8.41-45.5,11.85-68.36,2-13,6.09-28.1,4.72-41.34-1.84-18-9-36.61-14-53.93-5.71-19.82-10.16-42-19.39-60.59a2.21,2.21,0,0,0-2-1.21l-22.53-.13A25.82,25.82,0,0,1,785.16,106.55ZM818,377.36a39.71,39.71,0,0,0,6.38-.65v30.39H818Zm-4.77-123.19c3.9,5.6-4.23,10.74-8.73,12.31-11.7,4.14-25.19,1.26-37.29,1.08a1.34,1.34,0,0,1-1.09-.35c-1.39,1.82-5,2.05-5-.61V231.25c0-2.54,3.67-3.76,5-2.35,10.33-.3,56.72-2.21,47.69,12.16-3,4.82-11.28,6.22-17.6,7C802.48,248.66,810.29,249.94,813.22,254.17Zm-44.85,51.08a112.72,112.72,0,0,0,7.22-8.77,3.05,3.05,0,0,1,1.41-1.87c4.39-6,8.43-12.34,12.57-18.36.78-1.14,3.48-1.73,4.35-.35,6.1,9.43,13.55,19.2,17.6,29.71,1.11,2.9-4.09,5.11-5.19,2.24a64.58,64.58,0,0,0-3.5-7.55c-7.74-.06-15.48-.49-23.21-1a110.23,110.23,0,0,1-7,8.53C770.45,310.16,765.87,308,768.37,305.26Zm12.57,27c1.57-11.11,12.53-16.47,22.72-13.17,3.34,1.1.08,5.14-2.5,4.31-7.67-2.5-14.6,1.29-15,9.78-.39,9.42,8,13.27,16.28,12.8,3.7-.22,1.67,4.28-1.18,4.45C790.24,351,779.2,344.66,780.94,332.23ZM803.1,151.29c3.1,0-1.13,3.4-2.88,3.4H772.64c-3.09,0,1.15-3.4,2.88-3.4Zm-14.76,5.32V174c0,1.85-5.29,3.59-5.29,1.47V158.09C783.05,156.24,788.34,154.5,788.34,156.61ZM772,197.22c2.79-4.14,8-13.17,14-13.37,5.65-.19,10.74,7.61,13.67,11.44a122.4,122.4,0,0,1,14.21,22.66c1.36,3-3.82,5.22-5.19,2.24a90.62,90.62,0,0,0-6.86-12.08A3.12,3.12,0,0,1,799,210H770.24c-2.19,3.74-4.3,7.52-6.26,11.37-1.47,2.88-6.72,1.51-5.07-1.69A221.9,221.9,0,0,1,772,197.22Zm15.47,179.84c.65.1,1.31.19,2,.26v29.34H783.2V376.9C784.65,377,786.19,377,787.49,377.05Zm7.51.55h0a47.57,47.57,0,0,0,11.25-.34c1.75,0,3.91,0,6.26.11v16.45l-17.56.11Zm-17.35,20v12.1a2.51,2.51,0,0,0,2.34,2.17H791.8a3,3,0,0,0,3.2-3.06V397.5l17.56-.11v12.46c0,1.09,1.19,1.57,2.1,1.57h11.81c1.44,0,3.33-1.11,3.33-2.74V397.29l72.22-.44,75.39-.46-77.5,26.24h0c-80.89.49-161.76,1.12-242.65,1.36q-73.55.21-147.09-.31a163.72,163.72,0,0,0,30.36-8.31c8-3.14,14.32-7.53,14.86-16.41l9.4-.06ZM359.13,221.76a319.82,319.82,0,0,0-21.63,33.87c-21.16-.05-44.71-1.25-60.54-15.4a272.4,272.4,0,0,1,18.14-33.16A80.56,80.56,0,0,0,359.13,221.76ZM90.2,206.51a26,26,0,0,0-2.64-5.12c-5.21-7.7-13.78-10-23.84-11.9a31.46,31.46,0,0,1-15.82-8.57c-4.62-4.45-8.36-7.83-5.49-14.67,3-7,9.36-14.89,16.25-19.82q6,11.42,12,22.82a19.64,19.64,0,0,1-5.38,3.4c-4,1.7-6.7,1-9.9-2-1.43-1.36-6.35,1.3-4.68,2.9,6.25,5.95,15,3.86,21.57-1.18l.7,1.31c.91,1.75,3.36,1.35,4.6,0a6.17,6.17,0,0,0,1.85,1.72c1.75,1.06,6.5-1.82,4.67-2.91-7.52-4.52-1.25-26.14.38-33,.11-.47-.39-.84-.72-1-4.58-2.15-10-4.94-12.3-9.8-.57-1.2-1.69-4.16-1.13-5.35a.23.23,0,0,0,0-.08c.2,0,.51.1,1,.18,4.3.68,9.69,5.24,13.2,7.75,7.9,5.65,9.21,17.18,10.9,26.16C96.91,165,97.93,170,101,177q4.38,10,8.66,20.13c.37.86.73,1.73,1.11,2.59C104.1,201.54,96.77,203.53,90.2,206.51ZM80.52,42.36l-25.2,85.21-9.68-18.82L72.74,25ZM86.92,221c-.74-1.35-3.32-4.49-3.42-6.09s.13.92.47.5c.93-1.18,2.91-1.84,4.19-2.51,7.66-4,16.21-6.7,24.56-9q3.88,7.51,7.77,15l-15.31,8.65L93.7,233.92C91.6,229.54,89.28,225.29,86.92,221ZM219.31,942.43c1.37-3.84,4.63-2,6.68,0a21.48,21.48,0,0,1,4.47,6C227.27,948.34,217.77,946.65,219.31,942.43ZM184,981c4.86,3.78,9.42,7.1,11.5,13-10.34.19-20.78-.61-29.51-4.08C171.83,986.73,177.88,983.83,184,981Zm52.9,23.77c-21.82,3.89-45.81,2-67.71-.41-2.76-.3-13.84-.51-14.72-4.72-.52-2.52,3.15-5.06,6.25-6.85,10.74,4.75,24.24,5.21,37,4.71a3.32,3.32,0,0,0,2.8-.13c5.07-.24,10-.6,14.46-.85,26.37-1.49,52.87-5.06,79.11-8,.15,3.17.2,6.35.14,9.6a132.65,132.65,0,0,1-25.34,2.47C258,1000.37,247.58,1002.88,236.88,1004.79Zm52.88-40.69a88.48,88.48,0,0,1,4.06,20.81c-24.25,2.78-48.69,5.91-73,7.57-5.94.41-12.63,1-19.48,1.36a23.38,23.38,0,0,0-5.22-10,48.26,48.26,0,0,0-6.35-5.47c3.32-1.52,6.64-3,9.94-4.61l7.74,7.27c1.79,1.68,6.63-1.19,4.6-3.1l-7.13-6.69c1.6-.8,3.18-1.6,4.76-2.43.81-.44,1.7-.9,2.59-1.36a59,59,0,0,0,6.38,5.37c1.58,1.14,6.39-1.64,4.7-2.87a59.16,59.16,0,0,1-6.16-5.15c1.76-1,3.56-2,5.34-3.14l6.54,4.66c2.27,1.65,6.31-2,3.58-4q-2.68-1.93-5.38-3.85a55.31,55.31,0,0,0,4.73-3.84,20.25,20.25,0,0,0,11.32,7.51c4.08,1,10.91.09,11.42-5.24.49-5.15-4.43-9.35-8.86-10.65a15.29,15.29,0,0,0-7-.34,19.55,19.55,0,0,0,1.4-3.61l.58.23c12.34,4.87,30.25,7.21,44.2,3.11A119.43,119.43,0,0,0,289.76,964.1Zm-53.27-12.77a8.07,8.07,0,0,1,6.54-.79c2.34.64,6.53,3.24,6.13,6.25-.34,2.66-4.66.69-6.35-.14A15.25,15.25,0,0,1,236.49,951.34Zm90-125.07c-1.31-3.22,2.28-6.39,5.17-6.1a10.9,10.9,0,0,1,6.18,3.06C335.53,826.37,328.23,830.64,326.44,826.27Zm17,7c-.73,1.69-4.19,6.53-5,2.45-.5-2.53,1.68-6.18,3.48-9,.7,1.65,1.38,3.32,2,5A9.83,9.83,0,0,1,343.43,833.23Zm6.15-2a11.79,11.79,0,0,0,.07-1.76c3-1,5.52-2.86,8.38-4.46.94-.54,1.77-1.95.9-2.89s-2.74-.37-3.71.17c-1.87,1.05-4,3-6.14,3.56a21.19,21.19,0,0,0-2.19-5.11c2.83-2.84,5.48-5.75,6.94-9.6.5-1.32-1-2.23-2.08-2.26a3.41,3.41,0,0,0-3.24,2.22,19.33,19.33,0,0,1-4.75,6.54c-.88-1.63-1.81-3.25-2.79-4.84,7.85-15.38,16.42-30.18,21.66-46.64,6.54,2.79,13,5.82,19.2,9.21,1.1.59,2.36,1.19,3.7,1.81q-.1,11-.2,22c-1.48,15.29-3.29,30.61-6.51,45.52a201.89,201.89,0,0,1-7.05,25.2,27,27,0,0,0-17,2.8C355.41,858.6,354,844.5,349.58,831.23Zm3.73,56.43c.49-3.49.87-7,1.13-10.51a6.7,6.7,0,0,0,.87-.57c3.91-3.11,10-3.52,14.89-2.51-4.43,11.24-10.34,21.84-18.43,30.21a3.42,3.42,0,0,0-.35.44C350.95,899.09,352.56,893,353.31,887.66Zm29.58-8.32c-3.38,10.19-7.83,21.1-15.61,28.76-4.14,4.1-12,9.59-14.93,1.27a18,18,0,0,1-.85-3.82c.85.57,3.84,0,4.76-.93,14.39-14.88,21.75-36.29,26.6-56,.76-3.07,1.44-6.17,2.08-9.28q-.18,17.25-.39,34.49C384,875.69,383.48,877.53,382.89,879.35Z"/><path d="M791.68,950.34c-3.78,2.39-4.4,7.23-8.41,9.35-3,1.6-1.62,5.09,1.48,3.45a15.82,15.82,0,0,0,5.79-4.5c2.84-3.66,4.08-5.09,8.36-7.11s6.16-4.36,6-9.23c-.1-3.11-1.2-6.23-1.09-9.34.15-3.46-.26-2,1.37-2.38,1.81-.38,6.26.88,8.12,1.19,8.53,1.43,18.42,3.2,14.26,14-1.07,2.8,4.4,2,5.23-.2,2.38-6.15,1.93-11.23-4.31-14.45-3.81-2-8.4-2.62-12.57-3.32-3.75-.63-10.09-2.92-13.81-1.35-6,2.53-3.24,10.5-2.78,15.37C799.94,948.26,796.24,947.47,791.68,950.34Z"/><path d="M784.29,992c1.71-5.95,3.62-12.54,7.94-17.19,3.62-3.9,8.66-5.52,13.66-6.8a3.27,3.27,0,0,0,.73-.28c3.17,5.76,10.44,7.73,15.23,1.9l.41-.53c5.52,6,10.61,13.5,12.23,21.41.59,2.8,5.91,1.17,5.41-1.21-1.93-9.44-8.05-18.23-14.73-25.07,2.2-4.63,3.72-10.33,3.11-14.47-1.23-8.26-10.64-6.77-16.69-5a2.62,2.62,0,0,0-1.48.47,2.31,2.31,0,0,0-1.33,1.2c-4.2,4.52-5,11.78-3.52,17.73-5.94,1.55-11.84,3.66-16.29,8-5.4,5.31-7.9,12.9-9.93,20C778.17,995.13,783.6,994.37,784.29,992Zm29.4-24.16c-1.8-1.06-2.61-3.6-3.07-5.48-.93-3.82-1-10.2,2.09-13.2,3.83-1.17,10-2.75,10.17,2.83.15,3.85-1.84,8.31-3.38,11.72C818.42,966.12,816.79,969.7,813.69,967.85Z"/><path d="M818.84,911.78c12.89-.08,25.75-1,38.58.7,2,.25,6-3.22,2.78-3.65-13.23-1.7-26.51-.78-39.81-.7C818.08,908.15,815.16,911.8,818.84,911.78Z"/><path d="M859.34,925.08H848.84a3.2,3.2,0,0,0-3.21,2.28,2.11,2.11,0,0,0,2.17,2.49h10.49a3.22,3.22,0,0,0,3.23-2.29A2.11,2.11,0,0,0,859.34,925.08Z"/><path d="M799.65,204.89c-.46-.63-.89-1.28-1.34-1.91-2.18-3.1-8.37-13.7-12.61-13.48s-9.72,10.4-12.51,15.4Z"/><path d="M783.13,294.52c5.61.35,11.2.64,16.8.76-2.7-4.44-5.65-8.76-8.47-13C788.72,286.35,786,290.48,783.13,294.52Z"/><path d="M766.67,265.65v.06a5.53,5.53,0,0,1,3.32-1.8c9.72.15,19.94,2.1,29.58.38,10.92-1.95,11.49-7.95,2.09-10.76-11-3.3-23.39-3.55-35-3.59Z"/><path d="M792.9,232.67c-8.74-.62-17.49-.25-26.23-.11v13.67c5.51,0,11-.16,16.51-.5,6.91-.43,17.94,0,23.95-3.82C816.4,236,796.2,232.9,792.9,232.67Z"/></svg>