<svg id="Calque_18" data-name="Calque 18" xmlns="http://www.w3.org/2000/svg" viewBox="0 0 1024 1024"><title>Plan de travail 1</title><path d="M1023.79,399.9q-.07-44.84-.14-89.71c-.06-33-30.13-39.19-56-39.14l-381.75.61c-26.2,0-43.35,21.39-43.31,46.33,0,1.53,0,3.07,0,4.61q-55.3-1.7-110.6-4.11c-30-1.28-66.32-9.37-96.11-4C297.84,321.37,260.4,350.57,228.3,370c-29.09,17.58-62,39.39-96.22,51.14-.74-3.15-1.48-6.28-2.22-9.43-.31-1.34-1.45-1.86-2.83-1.93a1.93,1.93,0,0,0-.29,0,7,7,0,0,0-2,.32h-.12L5.41,445.62c-2.53.76-6.14,2.86-5.28,6.13,34,129.8,46.06,200.38,76.4,299.38.59,1.94,3.74,2,5.26,1.59,38.63-11.43,83.29-23.32,122.58-32.23,2.58-.6,6.27-3,5.27-6.13-.55-1.71-1.05-3.44-1.59-5.15,109.42,10.35,225-4.39,326.24-47.39a4.9,4.9,0,0,0,2.8-2.8c20.56-.82,44.37-4,51-16.4,9.12-17.09,12-38.09,13.88-58.1l379.11-.61c32.94-.07,43-28.75,42.95-56.17Q1023.89,463.83,1023.79,399.9ZM398.39,608.16c-.24,7.19-1.5,9-8.85,9.13-11.11.17-24.15-3.35-33.32-9.7a4.5,4.5,0,0,0-1.44-.6c-.52-5.59.2-12,2.11-19.15,12,6,26.6,9.65,41.41,11.88C398.39,602.54,398.5,605.35,398.39,608.16ZM536.55,373.89c14,.11,27.92.09,41.9-.38s24.76.58,30.63,5.65c0,.52.09,1.28,0,1.8-1.57,20.56-32,19.82-46.86,19.46C542.53,399.93,540.5,388.43,536.55,373.89ZM977.28,506.1a31.28,31.28,0,0,1-56.75,18.27,31.37,31.37,0,1,1-.29-36.06,31.31,31.31,0,0,1,57,17.79ZM385.86,519.8c1.73-1.45,3.45-2.87,5.14-4.34,11.57,2.06,28.63,4.6,37.34-3.23,9.37-8.44,8.16-27.21,7.79-38.68,0-.2-.12-.29-.17-.46a29.1,29.1,0,0,1,6.83-3,312.47,312.47,0,0,0,41.89-.34c18.27.34,38.66.28,58.16-2.08q0,25.47.09,50.94C491,524.58,437.34,522.44,385.86,519.8Zm37.22-13.35c-2.11,6.07-15.93,4.1-24.76,2.48q6.77-6.17,13.36-12.47c4.81-4.62,9.44-10.32,14.46-15.35C426.26,489.64,425.82,498.54,423.08,506.45Zm198-136.81c-14.89-5.78-31.81-4.07-47.43-3.55-8.39.28-16.77.34-25.16.31.11-16.58.49-34.39.61-39.79,40,.78,94,1.19,160.37,1.19,138.94,0,290.26-1.77,307.7-2l.11,66.79H997.84c-130.66,0-281,1.67-370.66,2.83C628.48,383.43,627.56,372.16,621.07,369.64ZM342.51,550.17A306.15,306.15,0,0,0,370.45,532h.11a104,104,0,0,1,16.63,3.14c5.21,1.59,4.83,7.92,4.89,12.49a96.59,96.59,0,0,1-2.16,19c-.2,1-.43,2-.64,3l-.53,0a109.42,109.42,0,0,1-46.27-6.18c-.81-.3-1.6-2.93-1.6-2.93l-.43-2.51c-.53-1.82-.81-4.06-1.25-6C340.3,551.39,341.43,550.81,342.51,550.17ZM407.32,592c-1.28-.14-2.87-.43-4.72-.75-13.19-2.25-29.47-6.17-42.39-13.67a3.19,3.19,0,0,0,.2-1.34,123.28,123.28,0,0,0,27.42.59c12.79-1.22,12.32-11.55,13.71-22.25.93-7.12,1.53-15.16-1.47-21.89-1.41-3.12-4.92-4.36-8.27-5.18,25.92,2,51.62,3.18,77.65,1.82,24.23-1.26,49-2.42,73.49-5.06,0,1.12,0,2.22,0,3.33,0,28,5.74,53.32,38.95,56.82-21.4,10.67-66.66,11.72-77.75,12.39A461.21,461.21,0,0,1,407.32,592ZM204.75,698.65c-27.65-89-49.81-179.84-71-270.53,70.31-23.25,126.22-85,197-105.45,9.54-2.75,20.88-.38,30.61.12q34,1.72,68,3.18,56.61,2.45,113.25,4.2,0,18.07,0,36.16c-2.94,0-5.88,0-8.82-.08-2.17-.08-3.65-.17-6-.14-12.47-.26-24.94-.67-37.39-1.06q-26.91-.82-53.82-2.06c-23-1-53.05,13.51-75.2,20-33.2,9.69-66.32,19.93-99,31.26-5.67,2-3.76,7.32,1.19,6.73a6.83,6.83,0,0,0,1.56-.31c23.2-8,46.67-15.35,70.14-22.53,40-12.24,80-28.14,121.94-26.47,22.74.9,45.52,1.74,68.29,2.12,2.81,9.43,4.46,18.69,9.83,27.21,6.94,11,24.62,9,35.41,8.9,14.86-.17,35.86-3.5,44.6-16.55a49.71,49.71,0,0,1,0,7.75c-.72,10.53-2.83,21-8.09,30.19-12.81,22.51-48.15,24.7-70.65,27-21.42,2.17-43,2.55-64.52,2.9-10.44.2-27.5-4.11-36.79,2.38-18,12.58-32.45,31.37-48.82,46-36.74,32.77-80.47,57.61-130.12,62.44a5.92,5.92,0,0,0-1.09.31c-4.36,1.37-7.89,8-1.47,7.35C281,577,306.06,569,329.55,557.2a48.65,48.65,0,0,0,1.76,5.24,39.1,39.1,0,0,0,2.63,5.26,12.47,12.47,0,0,1,1.44,2.47s.08,0,.1,0a48.67,48.67,0,0,0,13,12.67c-29,86.52,107.88,77.42,161.58,76.48,1,0,2.2,0,3.45,0C416.64,696.87,307.66,709.07,204.75,698.65ZM586,619.72c-7.06,33.95-45.23,30.49-73.58,31.43-33.63,1.08-67.56-1.25-100.89-5.57-24-3.1-43.65-10.09-52.21-24.65,11.66,5.23,25.88,7.69,37.49,5.23,12-2.53,12.7-14.49,12.27-25,19.73,2.17,38.82,2.31,51.54,2.74,18.65.66,99.83,3.93,130.7-16.36C589.9,598.3,588.17,609.06,586,619.72Z"/></svg>