<svg id="Calque_19" data-name="Calque 19" xmlns="http://www.w3.org/2000/svg" viewBox="0 0 1024 1024"><title>Plan de travail 1</title><path d="M1022.33,500.11c-15.15-3.63-29.15-11-44.29-14.8a4.36,4.36,0,0,0-3.51,1.12,3.09,3.09,0,0,0-1.29,1.42l-1.36,3.8c-4.44-2.19-8.66-4.54-12.3-6.28a306,306,0,0,0-38.42-15.66c-24.64-8-48.21-18.82-71.39-30.3-16.64-8.22-39.25-22.66-58.85-19.94q-50.94,7-101.89,14c-5.74.77-6.15,1.71-12.59,5.24-13.63,7.46-27.89,13.87-42.09,20.14q-27.22,12-55.13,22.45c-1.34.49-2.19,1.91-1.34,3.16,19.26,28.3,74.74,3.61,99.51-8.33A27.83,27.83,0,0,0,692,489.93c-2.71,11.1-5.41,22.21-7.48,33.43-.77,4.13.14,6.88,1.13,11a238.68,238.68,0,0,1,5.67,32.42,2.4,2.4,0,0,0,2.84,2,31.09,31.09,0,0,0,21-16.06A171,171,0,0,1,721,569.05c2.33,7.38,2.64,21.1,8,26.9a2.32,2.32,0,0,0,2.12.34,25.7,25.7,0,0,0,6.57-2.55,2.49,2.49,0,0,0,3.41-1.31c.12-.33.15-.71.26-1.05a28.88,28.88,0,0,0,7.54-8.75l24.41,10.68a3.34,3.34,0,0,0,3.48-.84c10.27-11-1.87-28.46-11.62-36.13a89.53,89.53,0,0,0,14.11-8.27c8.32,8.9,32.91,14.08,42.2,16.84a153.45,153.45,0,0,0,49.07,5.94c15.46-.54,29.68-8.4,45-5.09a149.62,149.62,0,0,1,28.54,9.72c-1,3.68-1.92,7.35-2.78,11.05a1.68,1.68,0,0,0,1.54,2.23c17,1.44,34.15,9.39,49.82,15.88,1.67.69,5.09-.3,5.47-2.37,6.13-34.22,21.18-66.19,25.87-100.59C1024.12,500.76,1023.05,500.27,1022.33,500.11ZM680.45,471.45c-1-3.3,1.69-3.68,8-5.41,6-1.66,12.21-3,18.38-4.35C703.6,471.62,689.53,475.08,680.45,471.45Zm72.14,23.18c-10.46,4.85-20.84,9.89-31.17,14.95,2.81-5.58,5.55-11.16,8.26-16.8,7.41-1.27,13.89-3.83,20.42-2.76C751,491.55,751.76,493.09,752.59,494.63Zm-57.22,62.76a105,105,0,0,0-2.83-12.84c3.24.59,4.94,5.17,5.76,7.85.56,1.86,2.12,8.41.32,10a2.82,2.82,0,0,0-.36.43C696.64,563.27,695.95,561.77,695.37,557.39Zm8.87,1.16a30.1,30.1,0,0,0-1.19-8.17c-1.5-5.66-5.31-10.09-11.39-9.4-1.63-6.53-2.85-13.1-1.7-19.35,1.88-10.11,4.34-20.1,6.79-30.09,9,2.39,17.86,2.58,27.08,1.88-.9,1.85-1.78,3.7-2.68,5.53-3.41,7-11,16.62-12.2,24.22-.26,1.75,2.34,6.77,2.16,6.36a27.9,27.9,0,0,1,.29,20.22C710.08,553.37,707.07,556.16,704.23,558.55Zm25.2,22c-.51-2-1.05-4-1.58-5.92,3,.08,5,3.43,6.29,6.2,1.08,2.36,3.1,7.78,2.29,10a2.17,2.17,0,0,0,0,1.54C731.53,594.86,730.51,584.83,729.43,580.59Zm13,4.89c-.35.56-.67,1-1,1.49a33.49,33.49,0,0,0-3.16-9.38c-2.38-4.88-6.61-8.45-11.75-7.61-.7-2.46-1.43-4.93-2.19-7.36A108.13,108.13,0,0,0,717.69,546c.1-.34.23-.67.31-1,.88-3.94,0-8.3-.62-12.17-1.41-8.12-1.38-11.88,1.79-18.64,11.59-5.65,23.19-11.33,34.89-16.76,4.17,7.92,8.12,15.95,11.94,24.07a227.44,227.44,0,0,0-27.3,14.25c-.65.43-1.5,1.36-1.11,2.24C744.53,553.29,752.32,569.7,742.46,585.49ZM774.39,589c-4.77-2.09-9.57-4.2-14.38-6.28,3.49-5.67,11.67.72,15,4.12A8.58,8.58,0,0,1,774.39,589Zm-13.87-34.15c-1.26.59-2.62,2.17-1,3.2a35,35,0,0,1,14.11,17.33,26.71,26.71,0,0,1,1.31,4.8,16.86,16.86,0,0,0-10.47-3.54,10.78,10.78,0,0,0-8.19,4.4l-4-1.74a2.5,2.5,0,0,0-1.69,0,27.45,27.45,0,0,0,1.29-17.12c-1.06-4.18-9.38-24.83-8.3-25.51,7.49-4.77,15.8-8.52,23.88-12.21,3.26,6.94,6.49,13.9,9.77,20.79,0,0,.06.07.06.1A85.38,85.38,0,0,1,760.53,554.83Zm168,10.21c-18.41-6.53-27.28-3-45.92.57-28.94,5.63-60.11-3-86.44-14.74-12.06-5.35-14-7.09-19.47-18.64-6.24-13-12.29-26.31-19.09-39.12l.1,0c37,25.55,81.38,46.52,125.08,24.42,2.82-1.43,1.53-4.58-1.33-3.12-.24.11-.47.2-.72.33-37.65,18.58-76.5,3.26-109.33-18-4.31-2.78-12.89-11.48-18.56-12-7.32-.69-18.67,3.83-25.87,4.77-10.56,1.4-21.45.83-31.46-2.94a25.59,25.59,0,0,1-11.77-9.43c11.74,1.67,26-4.63,28.42-16.64,10.08-2.06,20.19-4,30.15-6.3,16-3.7,35.41,2.49,51.67,4.78,8.39,1.19,16.79,2.37,25.16,3.61a3.62,3.62,0,0,0,2.37-.79c1.32-1,2.06-2.56.06-2.86-23.66-3.48-47.35-6.7-71-10-7.28-1-18.24,4-25.25,5.57-4.83,1.1-9.7,2.08-14.57,3a3.15,3.15,0,0,0-2.43.48c-10.39,2.09-20.78,4.26-30.8,7.56-.92.3-2.61,1.07-2.46,2.33a28.66,28.66,0,0,0,1,4.58c-18.64,8.87-38.65,15.85-59.07,19a58.3,58.3,0,0,1-22.46-.73c-4.41-1-7.88-3.66-10.87-6.9-.09-.11-.42-.08-.81,0,13.08-4.94,26-10.18,38.91-15.57,17.56-7.36,34.93-15.21,51.86-23.9,8-4.13,12.47-6.68,21.13-7.87l76.09-10.5,22.12-3.06c18.75-2.59,43.39,14.86,59.35,22.76A561.34,561.34,0,0,0,929.6,477c13.79,4.44,26.91,13.26,40.64,19.16-9,25-18.11,49.77-25.11,75.4C939.64,569.27,934.13,567,928.54,565Z"/><path d="M437.35,470.39c2.46-.51,3.68-4,.84-5l-73.64-26-8.35-16.73a2.52,2.52,0,0,0-2.18-1.48q-49-.41-98.09-.7c-24.89-.13-49.25,4.78-73.73,9C122.14,439.93,62.26,451.61,2.46,463.53a3,3,0,0,0-2.4,2.9A1.33,1.33,0,0,0,.78,468a2.45,2.45,0,0,0,1.52.67c.78.1,1.57.16,2.34.26l334.62,65.41a3.34,3.34,0,0,0,3.94-2.16q6.28-22.61,12.58-45.19Q396.55,478.69,437.35,470.39Zm-75.59-26.3q32.71,11.53,65.42,23.09l-83.74,17.08L53,468.79q-15.05-1.6-30.12-3.2C149.21,460.84,269.32,453.23,361.76,444.1ZM189.65,433.44c28.56-5,55.05-7.87,84-7.7q32.23.21,64.47.47c16.4.14,13.89-.16,20.08,13.07C273,447.62,164.82,454.68,50,459.39,96.5,450.3,143,441.49,189.65,433.44Z"/><path d="M555.88,536.94c-28.07,8.64-65.64,11.27-94,4l-1.14-.32a36.68,36.68,0,0,0,9.07-4.89c7.09-5.33,7.77-17.53-1.39-20.95-8.92-3.35-18.37-2.25-25.95,3.54-6.64,5.06-4.17,15,.57,20.16.24.25.54.44.81.69-16.6.09-35.32-5.46-49.35-9.18-2.3-.64-8.58,3.51-5.34,4.36,16.55,4.44,40.55,11.42,60.49,8.87,8,3.89,18.65,4.53,26.45,5.18,25.36,2.06,54.93.22,79.37-7.29C558.89,540.08,560.86,535.42,555.88,536.94Zm-95.37-18.7c9.72,2.14,10.54,14.72-.39,18.52a43.55,43.55,0,0,1-5.6,1.44,17.85,17.85,0,0,1-8.11-8.07C442.39,521.7,453.23,516.62,460.51,518.24Z"/></svg>