<?xml version="1.0" encoding="utf-8"?>
<!-- Generator: Adobe Illustrator 22.0.1, SVG Export Plug-In . SVG Version: 6.00 Build 0)  -->
<svg version="1.1" id="Calque_20" xmlns="http://www.w3.org/2000/svg" xmlns:xlink="http://www.w3.org/1999/xlink" x="0px" y="0px"
	 viewBox="0 0 1024 1024" style="enable-background:new 0 0 1024 1024;" xml:space="preserve">
<title>Plan de travail 1</title>
<path d="M366.8,831.5c0.7-1.1-1-1.5-1.7-1.4c-1.4,0.1-2.6,0.9-3.3,2c-1.2,1.8-3.7,4.1-5.9,4.5c-1.2,0.2-2.9,0.8-3.4,2
	s0.8,1.6,1.7,1.4C359.3,839,363.9,835.9,366.8,831.5z"/>
<path d="M613.2,975.7V825.4c-13.4,1.1-110.2,2.2-110.2,2.2c-4.2,54.7-1.7,148.2-1.7,148.2h111.9V975.7z"/>
<path d="M613.2,792.2V687.8c-64.5,1.5-110.2,2.1-110.2,2.1c-4.2,49-1.7,102.3-1.7,102.3L613.2,792.2z"/>
<path d="M500.9,808.8c0.6,1.6,1.1,3.3,1.5,5c0.2,1.2,1.1,2.1,2.3,2.2c10.8,0.4,21.6,0.4,32.4-0.1c1.5-0.2,2.5-1.5,2.5-3
	c-0.1-2.6-0.2-5.2,0-7.8c0-1.1-0.4-2.4-1.7-2.7c-11.1-2.4-22.8-0.2-34-0.1c-2.5,0-3.8,3-2.7,4.5
	C500.8,807.3,500.7,808.1,500.9,808.8z M534,806.9c0,1.3,0,2.6,0,3.9c-8.8,0.3-17.7,0.3-26.5,0c-0.3-1.2-0.8-2.3-1.1-3.5
	C515.5,806.9,525,805.4,534,806.9z"/>
<path d="M989,392.5l-0.8,0.3l-158.4,1v-19.1c0.6-0.4,1.2-0.9,1.7-1.5c4.2-5.1,5.3-14.7,6.8-20.9c2.9-12.2,5.3-24.6,7.6-36.9
	c4.5-24.1,8.7-48.4,11.4-72.7c1.7-15-2.9-29.8-6.2-44.3c-6.3-28-12.5-56.5-22.2-83.6c-2-5.6-3.2-12.2-9.7-13
	c-11-1.3-22.9,0.3-34,0.8c-0.8-0.1-1.6,0.2-2.2,0.7c-8.9,7.2-10.1,14.7-12.7,25.3c0,0.2-0.1,0.3-0.1,0.5
	c-7.3,22.3-14.2,44.8-20.6,67.5c-4,14.2-10.4,29.7-7.5,44.6c7.9,40.9,18.2,81.2,31,120.8c1,3.2,2.1,9.1,4.6,12.4V394l-20.3,0.1
	l-202,1.2c-0.7-9.6-5.7-19.1-10.2-27.2c-16.1-28.8-38.7-54.4-61.2-78.4c-12.3-13.1-25-25.8-38.4-37.7c-7.9-7-16.1-14.7-25.3-20
	c4.7-9.2,9.4-18.5,14.1-27.8c0.6-1,0.2-2.3-0.9-2.9c-0.1-0.1-0.3-0.1-0.4-0.2l-38.3-7c-4.4-0.8-6.5-1.7-10.5,0.8
	c-3.7,2.4-7,5.2-10,8.3c-3.1-8.9-3.7-18.8-1.2-27.2c0-0.1,0-0.1,0-0.2c8.1-4.2,15.5-9.7,21.9-16.3c12.9,3.5,27-1.7,33.1-13.9
	c5.9-11.9,3.5-25.1-10.4-25.3c0.3-0.7,0.6-1.4,0.9-2.1c13.9-7.8,17.2-28.3,19.2-42.5c2.3-16.3,3.2-33.5-14.8-40.5
	c-18.9-7.4-39.9-8.3-59.6-12.3c-10.9-2.2-19-5-28.2-11.1c-5.6-3.7-11.1-7.5-16.5-11.6c-1.4-1.1-4.1,0.4-4.9,1.7
	c-9.4,15.9-9.2,38.6-2.1,56c-4.9,7.7-7.9,16.5-9.9,25.5c-6.8-1.4-14.1-1.7-17.6,2.8c-0.2,0.3-0.4,0.6-0.4,0.9
	c-6.6,13.2-2.5,30,13.5,32.9c-1.1,27.7,3.4,63.5,35.4,65.5c11.3,0.7,23.2-1.9,34.2-6.6c-1.6,9.8-0.5,19.8,3.2,29l-1,1.2
	c-1.6,1.9-3.1,3.7-4.6,5.6h-0.2c-22.9,6.8-47,1.6-65.9-12.5c4.7-6.7,10.2-13,16.2-18.5c1.3-1.2,1.8-3.4-0.4-4L277,169.4
	c-1.7-0.4-3.4,0.5-3.9,2.2l-8.1,25.6c-28.6,3.3-49.6,25.3-70.1,43.7c-5.5,4.9-10.9,9.8-16.3,14.7c-2.6,2.3-11.9,12-13.3,13.1
	c-0.1-0.3-1.7-1.2-2.7-2.1c-14-12.8-23.2-33.6-32.2-49.8c-0.7-1.2-2.3-1.7-3.5-1c-0.4,0.2-0.9,0.5-1.3,0.7c-2.9-5.5-5.7-11-8.6-16.5
	c-5-11.8-13.1-24.6-15-37.2c-1.3-8.5-2.7-17.5-5.9-25.6c-1.3-3.5-3.7-6.6-6.7-8.9c4.4-17.4,8.8-34.8,13.1-52.1
	c0.3-0.4,0.4-1,0.2-1.4c0-0.3-0.2-0.6-0.4-0.9c-12-23.3-24-46.6-36.1-69.9C65,1.6,61.6,3,61,5c-8.9,25.6-17.8,51.2-26.7,76.8
	c-2.6,7.5-4.6,9.7-1,16.6c7.2,13.6,14.4,27.3,21.6,40.9l1.9,3.6c-5.4,3.9-10.1,8.7-13.9,14.1c-2.8,3.9-8.2,10.2-7.8,15.6
	c0.3,3.4,3.3,6.3,5.5,8.7c6.2,6.9,13.5,11.2,22.7,12.5c10.2,1.5,18.2,5.6,21.8,15.4c-2.4,1.4-4.7,3.1-6.7,5
	c-0.6,0.6-0.8,1.5-0.5,2.4c3.8,6.6,7.6,13.2,10.8,20.1c-0.3,0.2-0.7,0.4-1,0.6c-1.1,0.6-2.3,1.8-1.7,3.2
	c8.9,21.5,19.1,42.4,30.6,62.7c7.2,12.6,15.7,31,28.5,39c9.5,6,21.7,0.5,31.1-5.7c-21.1,29-37.8,61.9-42.7,97.7c0,0.2,0,0.3,0,0.5
	c-0.2,0.9,0.2,1.6,1.5,1.9c13.8,2.5,26.4,7.8,39.2,13.3c-3,4.6-6,9.2-8.6,14.1c-0.2,0.3-0.2,0.6-0.1,0.9
	c-22.1,38.5-42.2,78.9-56.9,120.7c-7,19.7-18.7,47.3-6.9,67.1c14.8,24.8,40.2,44.5,62.5,62c16.8,13.3,34.3,26.1,52.4,37.8
	c1.2,37.7,4.1,75.3,8.4,112.7c1.8,15.2,3.8,30.5,6,45.7c1.1,7.3,2.2,14.5,3.4,21.8c0.2,2,0.6,4,1.1,5.9c0,0.1,0,0.2-0.1,0.2
	c-0.2,1.7-0.6,3.4-1.3,5c-1.6-2.6-3.8-4.8-6.3-6.4c-4.6-2.8-9.8-0.8-12.8,3.4c-5.2,7.4,5.7,11.3,12.3,11.9
	c-8.6,7.7-21.9,13.1-29.7,16.9c-14.3,6.9-31.7,12.2-43.9,22.5c-8.1,6.8-4.1,13.8,5.3,16.1c20.4,4.9,44.2,4.3,65,3.1
	c13.9-0.8,27.2-5.5,41.1-5.8c10.9-0.2,21.3-0.8,32-2.8c1.4-0.2,2.5-1.5,2.5-2.9c0.4-11.9-0.2-23.4-3.7-34.8
	c-2.2-7.2-4.3-13.9-5.5-21.1c0.9-0.4,1.8-0.8,2.6-1.3c0.5-0.3,1.4-1,1.4-1.7c-0.8-48.7-0.7-97.5,2.8-146
	c12.9,6.7,25.7,13.5,38.6,20.4c0.2,0.3,0.3,0.5,0.5,0.8c-2.1-0.9-4.4-1.2-6.6-0.9c-5.7,0.8-9.5,6.7-8.8,12.3c0.9,6.8,7.2,7.2,12.9,5
	c-1.6,5.3-1.5,10.5,5,10.8c2.9,0.1,5.4-1.7,7.2-3.9c1.7,6.5,2.7,13.2,3.1,19.9c0.8,13.7-2,26.7-3,40.2c-0.5,6.2-0.5,16,6.2,19.2
	c5.9,2.8,12.6-1.8,16.9-5.5c6.7-5.8,11.4-13.6,15-21.9c-0.3,25.6-0.6,51.1-1,76.7c-0.2,11.5-0.3,23-0.5,34.6
	c-0.1,0.9,0.6,1.7,1.5,1.8l0,0h0.2l0,0c0.2,0,0.3,0,0.5,0h72.6v0.2c0,0.6,0.2,1.1,0.7,1.5l0.2,0.2h0.1c0.4,0.2,0.9,0.3,1.3,0.3
	l120.1-0.9l173.6-1.1h8.8c-1.3,5.8-2.7,11.6-4,17.4c-0.3,1.3,0.7,2,2,2h91.2c0.6,0.5,1.4,0.7,2.2,0.6l50.8-9.2
	c0.4-0.1,0.7-0.2,1.1-0.4h12.7c1.8,0,3.6-1.5,3.2-3.4c-1.5-6.1-3-12.2-4.6-18.2c9-3.1,18-6.2,26.9-9.6c10.7-4.1,22.6-8,32-14.8
	c3.3-2.4,4.8-4.5,5.2-8.3c1.2-10.4,0.5-21.3,0.5-31.7c0.2-20,0.2-40.1,0.3-60.1c0.2-112.3-0.1-224.5-0.4-336.8
	c-0.1-27-0.2-53.9-0.3-80.9l9.7-3.3c1.1-0.4,1.8-1.4,1.8-2.6V394C992.6,392.1,990.2,392.1,989,392.5z M288.9,87.1
	c0,0.3,2.5-0.1,3.5,0c1.8,0.1,3.6,0.3,5.3,0.6c4.1,0.6,8.3,1.5,12.3,2.7c1.8,0.5,5.8,1,7.1,2.5c1.5,1.8,1,5.6,0.8,7.7
	c-1.3,9.8-8.4,18-19,15.4C285.2,112.8,283.6,97.9,288.9,87.1z M320.6,177.5c-15-9.9-17.6-31.5-18.1-47.9c-0.1-3,0-6,0-9
	c9.6-0.6,17.3-7.6,19.9-17.1c5.7,1.5,11.6,1.9,17.2,3.6c-2.9,11.6,2.3,23.1,15.8,26.4c12.4,3,26.3-3,30.4-15.5
	c3.5-10.6-1.5-15.8-11.4-19c-7.3-2.3-25.1-7.1-31.3,0.1c-0.1,0.2-0.3,0.3-0.4,0.5l0,0c-0.5,0.9-1,1.9-1.5,2.9
	c-5.8-1.6-11.9-1.9-17.8-3.7h-0.1c0.3-2.8,0.3-5.9-1.1-8c-1.8-2.6-6.5-3.3-9.3-4.1c-1.7-0.5-3.9-1.2-6.3-1.8c0.2-1,0.4-1.9,0.6-2.9
	c1.4-6.6,3.6-13,6.5-19.2c0.7,1.3,1.4,2.5,2.1,3.7c0.1,0.1,0.1,0.2,0.2,0.2c0,0,0,0.1,0.1,0.1c7.3,9.3,22.1,13.2,33.3,15.1
	c12.8,2.2,25.9,2.2,38.7-0.1c6.4-1.2,9.8-0.7,11.6,6.7c0.8,3.6,0.4,7.9,1,11.6c0.5,3.4,0.9,7.2,2.6,10.2c2.4,4,7.1,5.2,10.5,8.2
	c-0.5,1.4-1.1,2.8-1.7,4.2c-0.5,1.2,0.8,1.6,1.7,1.5c10.7-0.9,14.3,7.9,11.3,17.2c-4.1,12.9-15.7,19-28.4,14.5
	c-1.4-0.5-3.3,0.4-4.2,1.5c-5.9,6.4-12.8,11.8-20.5,16c-1.4-1-3.5-0.8-4.1,1.2c-0.1,0.4-0.2,0.7-0.3,1.1
	C352.1,183.1,333.8,186.2,320.6,177.5z M347.4,101c3.6-3.5,17.5,0.3,21.5,1.3c6.8,1.7,13.5,3.6,12.4,11.6
	c-1.5,11.3-12.6,17.5-23.5,14.9C344.2,125.7,341.1,112.3,347.4,101L347.4,101z M987.1,443.6c-28.3,9.6-56.6,19.2-84.9,28.8v-45.8
	l84.9-28.8V443.6z M976.1,671.4c0.2,81.9,1.2,163.9,0.1,245.8l-73,21.3l-13.8-55.3c0-0.1,0-0.2-0.1-0.2l0,0c-0.3-1.3-1.7-1.5-3-1
	l-0.3,0.1l-4.7,0.1c-0.6-76.7-0.7-153.4-0.3-230.1c0.3-57.9,0.8-115.8,1.7-173.7c5.4,0,10.8-0.1,16.1-0.1c0.7,0,1.5-0.3,2-0.8
	l74.4-25.2C975.7,525.3,976,598.3,976.1,671.4L976.1,671.4z M487.2,744.8c0.4-26.9,0.9-53.8,2.2-80.6h138.5v335.2H487.3
	C486.3,914.5,486,829.6,487.2,744.8z M633.3,999.9V661.4c0-1.1-1.2-1.6-2.1-1.6H487.4c-1.7-0.1-3.1,1.1-3.3,2.8
	c-5.1,102.7-3.4,206-2.5,308.8c0.1,9.9,0.2,19.8,0.3,29.7l-18.8,0.1c-2.1-99.1-2.5-198.2-2.3-297.4c0-22.3,0.1-44.6,0.2-66.9
	c11.8-0.4,23.6-3.6,30.5-11.1c8.6,10.2,27.6,11.7,39.5,10.6c10.6-1,23.2-5.2,30.5-13.7c8,10.5,24.1,14.1,36.5,13.9
	c10.8-0.2,25.5-2.4,33.5-10.8c8.6,10.3,27.6,11.7,39.6,10.6c10.6-1,23.2-5.2,30.5-13.7c8,10.5,24.1,14.1,36.5,13.9
	c10.8-0.2,25.4-2.4,33.5-10.8c8.3,10,25.8,11.6,38.9,10.8c0.2,17.4,0.4,34.8,0.6,52.2c0.7,65.2,1.3,130.3,1.8,195.5l-18.8,0.5
	c-0.5-42.8-2.2-182.6-2-224.9H656.7c0,0-2.2,220,0,239.6c0,0,97.5,0,129.8-1.6c-7.7,33.7-15.4,67.4-23.2,101.1l-67.7,0.5
	L633.3,999.9z M653.7,594.1c-14.8,0-29.6,0.1-44.4,0.1l3.8-42.5c13.5,0.1,27.1,0.2,40.6,0.3L653.7,594.1L653.7,594.1z M703.3,594
	l-7.5-41.6l38,0.3l15.7,41C734.1,593.8,718.7,593.9,703.3,594L703.3,594z M544.6,551.3c9,0,17.9,0.1,26.9,0.2l-7.8,42.9h-43.3
	l11.8-43.2L544.6,551.3z M796.6,593.3l-22.8-40.2l38.1,0.3l26,39C824.3,593.8,810.2,593.2,796.6,593.3L796.6,593.3z M809.2,541.6
	c0,2.2,0,4.5,0,6.7c-49.3-0.5-98.6-0.9-147.9-1.3c-64.2-0.5-128.5-1.6-192.8-1c-2,0-4.7-0.4-6.9-0.1c0-1.3,0-2.6,0-3.9l113.1-0.1
	l189.4-0.2C779.1,541.6,794.1,541.6,809.2,541.6L809.2,541.6z M460.9,552c0.2-0.3,0.4-0.5,0.6-0.8c0.1,0,0.1,0,0.2,0
	c2.7-0.2,5.3-0.2,8-0.1c6.4,0,12.8-0.1,19.2-0.1L465,594.4h-40.6c1.1-5.7,8.6-12.7,11.6-16.3c6-7,12.4-13.7,18.9-20.2
	C456.8,556,459.2,554.1,460.9,552z M700.9,850h-30c0.3-8.3,0.1-16.6,0-19.3c4-0.2,20-1,29.9,0C700.5,838.1,700.7,847,700.9,850
	L700.9,850z M671,862.9c4-0.2,20-1,29.9,0c-0.4,7.5-0.1,16.4,0,19.3h-30C671.2,873.8,671,865.6,671,862.9L671,862.9z M771.3,754.2
	c-13.7-0.2-28.7-0.2-42.7-0.2c-25,0-46.6,0.2-51.3,0.2v-25.8c43.8,0.3,87.8,0,93.8,0C772.1,731.5,775.9,745.7,771.3,754.2z
	 M771.3,714.1c-13.7-0.1-28.7-0.2-42.7-0.2c-25,0-46.6,0.1-51.3,0.2v-21.9c43.8,0.2,88,0,93.9,0C772.1,695,775.8,706.9,771.3,714.1
	L771.3,714.1z M719,851c5.5-0.3,34-1.5,51.1,0c-0.7,10.9-0.2,24.1,0,27.8H719C719.4,866.5,719.1,854.3,719,851z M896.7,473.1
	c-68.1,0.5-136.2,0.6-204.2,0.6c-85.9-0.1-171.7-0.3-257.6-0.5l-60.2-0.2v-45.1c70.6,0.6,141.2,1.3,211.8,1.4
	c44.5,0,89-0.1,133.4-0.4c58.9-0.3,117.9-0.7,176.8-1V473.1z M185,619.2c14.1-27.6,30.9-54,48-79.9c-6.2,24.5-9.3,50.2-11.9,75
	c-1.3,13.2-2.4,26.5-3.2,39.7c-5.3-4.7-10.7-9.4-16.2-14.1c-5.1-4.3-10.1-8.7-15.2-13C182,623.2,182.3,624.5,185,619.2z
	 M354.4,392.1c1.6,16.3,3.4,38.6,3.4,38.3s-14.9,1.1-14.9,1.1c-1.5-4.9-3.3-38.1-3.3-38.1L354.4,392.1z M417.2,319.8
	c4.5,3.5,9,6.9,13.5,10.4c14.2,11,31.5,23.3,39.3,40.2c-19.6,2.8-39.2,6-58.8,8.9c0.7-9.3,1.5-18.6,2.3-27.8
	C414.4,342,413.9,329.5,417.2,319.8L417.2,319.8z M276.3,381c-18.3-0.7-36.2-5.9-52.2-15c4.8-12.8,9.7-25.5,14.8-38.2
	c15.6,11.3,36.8,13.7,56.3,14C289,354.9,282.9,368.1,276.3,381z M211,401.8c3.8-10.4,7.6-20.8,11.5-31.1c16,8.6,33.7,13.5,51.9,14.2
	c-7.9,15-17,29.3-23.1,45.2c-8.8-0.9-17.4-2.6-25.8-5.2c-6.9-1.9-13.6-4.5-20.1-7.6C207.2,412.1,209.1,406.9,211,401.8z M304,323.3
	c-2.2,4.6-4.4,9.2-6.5,13.9c-19.3-0.2-41.2-2.2-56.4-14.4c5.2-12.8,10.5-25.6,16-38.3c16.5,12,35.7,17.6,56.5,18.9
	C310.2,310,307.1,316.7,304,323.3L304,323.3z M190.6,453.2c4.8-2.7,6.4-13.1,8.2-17.9c1.7-4.5,3.3-9.1,5-13.6
	c6.5,2.9,13.2,5.3,20.1,7.1c8.5,2.4,17.3,4,26.1,4.8c-3.6,10.3-4.9,19.1,4,26.7c5.9,5,12.1,9.5,18.7,13.6
	c-28.2-4.3-57.3-9.6-83.6-20C189.6,453.7,190.1,453.5,190.6,453.2z M315.5,298.9c-20.9-1.1-40-6.9-56.4-19.5
	c3-6.9,6.1-13.8,9.2-20.6c2-4.4,4.1-8.9,6.2-13.5c16.3,13.1,39.5,14.5,60.5,14.6C328.1,272.7,321.7,285.9,315.5,298.9z M363.1,759.1
	c-19.8-11.5-38.9-24.3-58-37c7.4-49.6,19-99,32-147.3c5-18.6,10.6-37,16.3-55.5c9.3,4.9,18.8,9.9,28.7,13.4c1.4,0.4,3-0.3,3.7-1.6
	c0.2-0.3,0.3-0.7,0.5-1.1c0.2,80.5-0.1,161-0.7,241.5c-7-3.7-14.1-7.2-21.5-10.4C364.2,760.4,363.8,759.5,363.1,759.1z M391.6,648.6
	c0.2-56.7,0.1-113.5-0.1-170.2c49.6,0.1,99.1,0.2,148.7,0.3c80.7,0.1,161.3,0.5,242,0.3c31.7-0.1,63.5-0.2,95.2-0.5
	c-2.1,134.6-2.5,269.2-1.4,403.9l-57.9,1.7c-0.1-16.1-0.2-32.2-0.4-48.3c-0.6-66.6-1.2-133.1-2-199.7c10.2-1.3,27.5-5.3,29.4-17.6
	c0.1-0.2,0.1-0.4,0.1-0.6v-23.2c0-0.2,0-0.4,0-0.6v-0.2c0-0.1,0-0.2-0.1-0.3l0,0c0-0.1-0.1-0.2-0.2-0.3c-0.1-0.1-0.1-0.2-0.2-0.3
	L816,549.9c-0.1-0.5-0.5-0.9-1-1.2c-0.1-0.1-0.3-0.2-0.4-0.2c0-3.2-0.1-6.5-0.1-9.7c-0.2-1.1-1.1-2-2.3-2
	c-40.8,0.3-81.7,0.1-122.5,0.2H502.2h-42.8c-1.7-0.1-3.1,1.1-3.2,2.8c0,0.1,0,0.2,0,0.2c0,3-0.1,6-0.1,9.1c-2.3,2.1-4.4,4.8-6.2,6.6
	c-7.7,7.6-15,15.5-21.8,23.9c-3.6,4.5-10.3,11.6-9.4,17.9c0,0.1,0.1,0.2,0.1,0.3c0,6.3,0.2,12.7,0.1,19c-0.2,9,6.2,13.3,14.4,16.2
	c7.2,2.4,14.6,3.7,22.2,3.9c-0.6,102.8-0.2,205.6,1.2,308.3h-67.4C390.6,846.3,391.4,747.4,391.6,648.6z M793.8,888.9l89.9-2.7
	c-10.8,44.3-21.7,88.6-32.5,132.9H764C773.9,975.7,783.8,932.3,793.8,888.9z M912,1009.8c-1.9-0.1-3.8-0.2-5.7-0.1
	c-0.3-1.9-0.8-3.9-1.3-5.8c-3.2-13.3-6.4-26.5-9.5-39.8c-3.4-14.3-6.8-28.7-10-43.1c-0.7-3.1-1.6-6.8-2.4-10.8l3.7-15.1
	c9.5,38.2,19,76.4,28.5,114.6L912,1009.8L912,1009.8z M785.2,106.6c9-0.4,17.9-0.8,26.9-0.8c2.7,0,5.5-0.6,7.4,1s2.7,5.8,3.5,7.9
	c7.9,21.2,13,43.6,18.2,65.5c4.2,17.4,10.6,36.3,11.4,54.3c0.7,16.4-4,34.2-6.6,50.2c-3.9,24.1-8,48.3-14,71.9
	c-0.9,3.6-1.8,7.2-3.1,10.7c-0.3,1.2-0.7,2.3-1.3,3.4c-0.3,0.3-0.5,0.7-0.7,1.1c-0.1-0.1-0.4-0.3-1.4,0c-4.1,1.2-9.1,1.2-13.7,1.2
	c0.8-1.9,1.5-3.8,2-5.8c2.5-8.2,4.2-16.7,5.9-25.2c4.6-22.7,8.4-45.5,11.8-68.4c2-13,6.1-28.1,4.7-41.3c-1.8-18-9-36.6-14-53.9
	c-5.7-19.8-10.2-42-19.4-60.6c-0.4-0.8-1.2-1.2-2-1.2l-22.5-0.1C779.8,112.8,782.2,109.3,785.2,106.6z M818,377.4
	c2.1,0,4.3-0.3,6.4-0.6v30.4H818V377.4z M787.5,377.1c0.7,0.1,1.3,0.2,2,0.3v29.3h-6.3v-29.8C784.7,377,786.2,377,787.5,377.1
	L787.5,377.1z M795,377.6L795,377.6c3.8,0.3,7.5,0.2,11.2-0.3c1.8,0,3.9,0,6.3,0.1v16.5l-17.6,0.1L795,377.6z M777.6,397.6v12.1
	c0.2,1.2,1.1,2.1,2.3,2.2h11.8c1.7,0.1,3.1-1.1,3.2-2.8c0-0.1,0-0.2,0-0.3v-11.3l17.6-0.1v12.5c0,1.1,1.2,1.6,2.1,1.6h11.8
	c1.4,0,3.3-1.1,3.3-2.7v-11.4l72.2-0.4l75.4-0.5l-77.5,26.2l0,0c-80.9,0.5-161.8,1.1-242.7,1.4c-49,0.1-98.1,0-147.1-0.3
	c10.4-1.8,20.5-4.6,30.4-8.3c8-3.1,14.3-7.5,14.9-16.4l9.4-0.1L777.6,397.6z M359.1,221.8c-7.9,10.8-15.1,22.1-21.6,33.9
	c-21.2-0.1-44.7-1.2-60.5-15.4c5.3-11.5,11.3-22.5,18.1-33.2C313.4,220.8,336.7,226.2,359.1,221.8z M90.2,206.5
	c-0.7-1.8-1.6-3.5-2.6-5.1c-5.2-7.7-13.8-10-23.8-11.9c-6-1.3-11.5-4.2-15.8-8.6c-4.6-4.4-8.4-7.8-5.5-14.7c3-7,9.4-14.9,16.2-19.8
	c4,7.6,8,15.2,12,22.8c-1.6,1.4-3.4,2.6-5.4,3.4c-4,1.7-6.7,1-9.9-2c-1.4-1.4-6.3,1.3-4.7,2.9c6.2,5.9,15,3.9,21.6-1.2l0.7,1.3
	c0.9,1.8,3.4,1.4,4.6,0c0.5,0.7,1.1,1.3,1.8,1.7c1.8,1.1,6.5-1.8,4.7-2.9c-7.5-4.5-1.2-26.1,0.4-33c0.1-0.5-0.4-0.8-0.7-1
	c-4.6-2.1-10-4.9-12.3-9.8c-0.6-1.2-1.7-4.2-1.1-5.3v-0.1c0.2,0,0.5,0.1,1,0.2c4.3,0.7,9.7,5.2,13.2,7.8c7.9,5.6,9.2,17.2,10.9,26.2
	C97,165,98,170,101.1,177c2.9,6.7,5.8,13.4,8.7,20.1c0.4,0.9,0.7,1.7,1.1,2.6C104.1,201.5,96.8,203.5,90.2,206.5z M80.5,42.4
	l-25.2,85.2l-9.7-18.8L72.7,25L80.5,42.4z M86.9,221c-0.7-1.4-3.3-4.5-3.4-6.1s0.1,0.9,0.5,0.5c0.9-1.2,2.9-1.8,4.2-2.5
	c7.7-4,16.2-6.7,24.6-9c2.6,5,5.2,10,7.8,15l-15.3,8.6l-11.5,6.4C91.6,229.5,89.3,225.3,86.9,221z M219.3,942.4c1.4-3.8,4.6-2,6.7,0
	c1.8,1.7,3.3,3.8,4.5,6C227.3,948.3,217.8,946.7,219.3,942.4z M184,981c4.9,3.8,9.4,7.1,11.5,13c-10.3,0.2-20.8-0.6-29.5-4.1
	C171.8,986.7,177.9,983.8,184,981z M236.9,1004.8c-21.8,3.9-45.8,2-67.7-0.4c-2.8-0.3-13.8-0.5-14.7-4.7c-0.5-2.5,3.1-5.1,6.2-6.8
	c10.7,4.8,24.2,5.2,37,4.7c0.9,0.4,1.9,0.3,2.8-0.1c5.1-0.2,10-0.6,14.5-0.8c26.4-1.5,52.9-5.1,79.1-8c0.1,3.2,0.2,6.3,0.1,9.6
	c-8.3,1.6-16.8,2.5-25.3,2.5C258,1000.4,247.6,1002.9,236.9,1004.8L236.9,1004.8z M289.8,964.1c2.2,6.7,3.5,13.7,4.1,20.8
	c-24.2,2.8-48.7,5.9-73,7.6c-5.9,0.4-12.6,1-19.5,1.4c-0.9-3.7-2.7-7.1-5.2-10c-2-2-4.1-3.8-6.4-5.5c3.3-1.5,6.6-3,9.9-4.6l7.7,7.3
	c1.8,1.7,6.6-1.2,4.6-3.1l-7.1-6.7c1.6-0.8,3.2-1.6,4.8-2.4c0.8-0.4,1.7-0.9,2.6-1.4c2,1.9,4.1,3.7,6.4,5.4c1.6,1.1,6.4-1.6,4.7-2.9
	c-2.2-1.6-4.2-3.3-6.2-5.2c1.8-1,3.6-2,5.3-3.1l6.5,4.7c2.3,1.7,6.3-2,3.6-4c-1.8-1.3-3.6-2.6-5.4-3.8c1.6-1.2,3.2-2.5,4.7-3.8
	c2.8,3.7,6.8,6.4,11.3,7.5c4.1,1,10.9,0.1,11.4-5.2c0.5-5.2-4.4-9.3-8.9-10.7c-2.3-0.7-4.7-0.8-7-0.3c0.6-1.2,1.1-2.4,1.4-3.6
	l0.6,0.2c12.3,4.9,30.2,7.2,44.2,3.1C286.1,951.9,287.7,958.1,289.8,964.1L289.8,964.1z M236.5,951.3c2-1.2,4.3-1.5,6.5-0.8
	c2.3,0.6,6.5,3.2,6.1,6.2c-0.3,2.7-4.7,0.7-6.4-0.1C240.3,955.5,238.1,953.7,236.5,951.3L236.5,951.3z M326.5,826.2
	c-1.3-3.2,2.3-6.4,5.2-6.1c2.3,0.3,4.5,1.4,6.2,3.1C335.5,826.4,328.2,830.6,326.5,826.2L326.5,826.2z M343.5,833.2
	c-0.7,1.7-4.2,6.5-5,2.5c-0.5-2.5,1.7-6.2,3.5-9c0.7,1.7,1.4,3.3,2,5C343.8,832.2,343.7,832.7,343.5,833.2L343.5,833.2z
	 M349.7,831.2c0.1-0.6,0.1-1.2,0.1-1.8c3-1,5.5-2.9,8.4-4.5c0.9-0.5,1.8-2,0.9-2.9s-2.7-0.4-3.7,0.2c-1.9,1-4,3-6.1,3.6
	c-0.5-1.8-1.2-3.5-2.2-5.1c2.8-2.8,5.5-5.8,6.9-9.6c0.5-1.3-1-2.2-2.1-2.3c-1.4,0-2.7,0.9-3.2,2.2c-1.1,2.5-2.7,4.7-4.8,6.5
	c-0.9-1.6-1.8-3.2-2.8-4.8c7.9-15.4,16.4-30.2,21.7-46.6c6.5,2.8,13,5.8,19.2,9.2c1.1,0.6,2.4,1.2,3.7,1.8c-0.1,7.3-0.1,14.7-0.2,22
	c-1.5,15.3-3.3,30.6-6.5,45.5c-1.8,8.5-4.2,17-7,25.2c-5.8-0.9-11.8,0-17,2.8C355.4,858.6,354,844.5,349.7,831.2L349.7,831.2z
	 M353.4,887.7c0.5-3.5,0.9-7,1.1-10.5c0.3-0.2,0.6-0.4,0.9-0.6c3.9-3.1,10-3.5,14.9-2.5c-4.4,11.2-10.3,21.8-18.4,30.2
	c-0.1,0.1-0.2,0.3-0.4,0.4C351,899.1,352.6,893,353.4,887.7L353.4,887.7z M383,879.3c-3.4,10.2-7.8,21.1-15.6,28.8
	c-4.1,4.1-12,9.6-14.9,1.3c-0.4-1.2-0.7-2.5-0.9-3.8c0.9,0.6,3.8,0,4.8-0.9c14.4-14.9,21.8-36.3,26.6-56c0.8-3.1,1.4-6.2,2.1-9.3
	c-0.1,11.5-0.2,23-0.4,34.5C384,875.7,383.5,877.5,383,879.3L383,879.3z"/>
<path d="M791.7,950.3c-3.8,2.4-4.4,7.2-8.4,9.3c-3,1.6-1.6,5.1,1.5,3.5c2.3-1,4.2-2.6,5.8-4.5c2.8-3.7,4.1-5.1,8.4-7.1
	s6.2-4.4,6-9.2c-0.1-3.1-1.2-6.2-1.1-9.3c0.2-3.5-0.3-2,1.4-2.4c1.8-0.4,6.3,0.9,8.1,1.2c8.5,1.4,18.4,3.2,14.3,14
	c-1.1,2.8,4.4,2,5.2-0.2c2.4-6.2,1.9-11.2-4.3-14.5c-3.8-2-8.4-2.6-12.6-3.3c-3.8-0.6-10.1-2.9-13.8-1.3c-6,2.5-3.2,10.5-2.8,15.4
	C799.9,948.3,796.2,947.5,791.7,950.3z"/>
<path d="M784.3,992c1.7-6,3.6-12.5,7.9-17.2c3.6-3.9,8.7-5.5,13.7-6.8c0.3-0.1,0.5-0.2,0.7-0.3c3.2,5.8,10.4,7.7,15.2,1.9l0.4-0.5
	c5.5,6,10.6,13.5,12.2,21.4c0.6,2.8,5.9,1.2,5.4-1.2c-1.9-9.4-8-18.2-14.7-25.1c2.2-4.6,3.7-10.3,3.1-14.5c-1.2-8.3-10.6-6.8-16.7-5
	c-0.5,0-1,0.2-1.5,0.5c-0.6,0.2-1.1,0.6-1.3,1.2c-4.2,4.5-5,11.8-3.5,17.7c-5.9,1.5-11.8,3.7-16.3,8c-5.4,5.3-7.9,12.9-9.9,20
	C778.2,995.1,783.6,994.4,784.3,992z M813.7,967.8c-1.8-1.1-2.6-3.6-3.1-5.5c-0.9-3.8-1-10.2,2.1-13.2c3.8-1.2,10-2.8,10.2,2.8
	c0.2,3.8-1.8,8.3-3.4,11.7C818.4,966.1,816.8,969.7,813.7,967.8L813.7,967.8z"/>
<path d="M818.8,911.8c12.9-0.1,25.8-1,38.6,0.7c2,0.2,6-3.2,2.8-3.7c-13.2-1.7-26.5-0.8-39.8-0.7
	C818.1,908.2,815.2,911.8,818.8,911.8z"/>
<path d="M859.3,925.1h-10.5c-1.5-0.1-2.8,0.9-3.2,2.3c-0.2,1.1,0.5,2.2,1.7,2.5c0.2,0,0.3,0,0.5,0h10.5c1.5,0.1,2.8-0.9,3.2-2.3
	c0.2-1.1-0.6-2.2-1.7-2.4C859.7,925.1,859.5,925.1,859.3,925.1z"/>
</svg>
