<?xml version="1.0" encoding="utf-8"?>
<!-- Generator: Adobe Illustrator 21.1.0, SVG Export Plug-In . SVG Version: 6.00 Build 0)  -->
<svg version="1.1" id="Calque_1" xmlns="http://www.w3.org/2000/svg" xmlns:xlink="http://www.w3.org/1999/xlink" x="0px" y="0px"
	 viewBox="0 0 1024 1024" style="enable-background:new 0 0 1024 1024;" xml:space="preserve">
<path d="M121.9,391C54.6,391,0,445.6,0,512.9s54.6,121.9,121.9,121.9c67.3,0,121.9-54.6,121.9-121.9
	C243.8,445.6,189.2,391,121.9,391z"/>
<path d="M512,391c-67.3,0-121.9,54.6-121.9,121.9S444.7,634.8,512,634.8s121.9-54.6,121.9-121.9C633.8,445.6,579.3,391.1,512,391z"
	/>
<path d="M902.1,391c-67.3,0-121.9,54.6-121.9,121.9s54.6,121.9,121.9,121.9S1024,580.2,1024,512.9
	C1023.9,445.6,969.4,391.1,902.1,391z"/>
</svg>
