<?xml version="1.0" encoding="utf-8"?>
<!-- Generator: Adobe Illustrator 21.1.0, SVG Export Plug-In . SVG Version: 6.00 Build 0)  -->
<svg version="1.1" id="Calque_1" xmlns="http://www.w3.org/2000/svg" xmlns:xlink="http://www.w3.org/1999/xlink" x="0px" y="0px"
	 viewBox="0 0 1024 1024" style="enable-background:new 0 0 1024 1024;" xml:space="preserve">
<g>
	<path d="M115.6,397C51.8,397,0,448.8,0.1,512.7c0,63.8,51.8,115.6,115.6,115.5c63.8,0,115.5-51.8,115.5-115.6
		C231.2,448.8,179.4,397,115.6,397z M115.6,573.1c-33.4,0-60.5-27.2-60.5-60.6c0-33.4,27.2-60.5,60.6-60.5
		c33.4,0,60.5,27.1,60.5,60.5C176.2,546,149,573.1,115.6,573.1L115.6,573.1z"/>
	<path d="M512,397c-63.8,0-115.6,51.8-115.6,115.6c0,63.8,51.8,115.6,115.6,115.6c63.8,0,115.6-51.8,115.6-115.6
		C627.5,448.8,575.8,397.1,512,397z M512,573.1c-33.4,0-60.5-27.1-60.5-60.5c0-33.4,27.1-60.5,60.5-60.5c33.4,0,60.5,27.1,60.5,60.5
		C572.5,546,545.4,573.1,512,573.1L512,573.1z"/>
	<path d="M908.4,397c-63.8,0-115.6,51.8-115.6,115.6c0,63.8,51.8,115.6,115.6,115.6c63.8,0,115.6-51.8,115.6-115.6
		C1023.9,448.8,972.2,397.1,908.4,397z M908.4,573.1c-33.4,0-60.5-27.1-60.5-60.5c0-33.4,27.1-60.5,60.5-60.5
		c33.4,0,60.5,27.1,60.5,60.5C968.9,546,941.8,573.1,908.4,573.1L908.4,573.1z"/>
</g>
</svg>
