<?xml version="1.0" encoding="utf-8"?>
<!-- Generator: Adobe Illustrator 21.1.0, SVG Export Plug-In . SVG Version: 6.00 Build 0)  -->
<svg version="1.1" id="Calque_1" xmlns="http://www.w3.org/2000/svg" xmlns:xlink="http://www.w3.org/1999/xlink" x="0px" y="0px"
	 viewBox="0 0 1024 1024" style="enable-background:new 0 0 1024 1024;" xml:space="preserve">
<g>
	<path d="M534.2,602.4c-11.7-15.5-32.2-20.5-50.8-14.9c-14.6,4.6-30,6.9-45.5,6.9c-39.6,0-75.9-14.9-103.4-39.6
		c-1.5-1.4-0.4-4.2,1.6-4.2h83.4c24.1,0,45.8-17.6,48-41.7c2.8-27.4-18.9-50.6-46-50.6H286.3c-1.2,0-2.2-0.9-2.4-2.4
		c-0.6-5.3-1-10.7-1-16.4c0-5.7,0.4-11.3,1-16.8c0.1-1.1,1.1-1.9,2.4-1.9h133.4c24.1,0,45.8-17.9,48-41.9
		c2.8-27.6-18.9-50.9-46-50.9h-85.4c-2.1,0-3.1-2.5-1.6-3.9c27.5-24.7,63.8-39.6,103.4-39.6c15.5,0,30.9,2.1,45.4,6.7
		c18.7,5.7,39.2,0.5,50.9-14.9c20.9-27.6,7.1-64.1-22.5-73.3c-23.9-7.5-48.8-11.3-73.8-11.3c-95.9,0-179.2,55.2-220.3,135.2
		c-0.4,0.6-1.2,1.1-1.9,1.1h-28.6c-24.1,0-45.8,17.7-48.2,41.9c-2.6,27.6,18.9,50.9,46.1,50.9h6.1c-0.4,6-1,12.3-1,18.7
		c0,6.3,0.6,12.4,1,18.8h-4.1c-24.1,0-45.8,17.6-48.2,41.6c-2.6,27.6,18.9,50.8,46.1,50.8h30.6c0.7,0,1.5,0.6,1.9,1.3
		c41.1,80.2,124.4,135.2,220.3,135.2c25,0,49.9-3.8,73.8-11.4C541.4,666.4,555.2,630,534.2,602.4z"/>
	<path d="M878.3,439.3c0-242.1-197.1-439.1-439.1-439.1C197,0.1,0,197.2,0,439.3c0,242,197,438.9,439.2,438.9
		C681.2,878.2,878.3,681.3,878.3,439.3z M92.6,439.3C92.6,248.1,248,92.6,439.2,92.6c191.2,0,346.3,155.5,346.3,346.6
		c0,190.8-155.2,346.4-346.3,346.4C248,785.7,92.6,630.1,92.6,439.3z"/>
	<path d="M977.8,405.2c-25.6,0-46.4,20.8-46.4,46.1c0,264.7-215.2,479.7-479.6,479.7c-25.6,0-46.3,20.8-46.3,46.4
		c0,25.5,20.6,46.4,46.3,46.4c315.5,0,572.2-256.9,572.2-572.5C1024,426,1003.2,405.2,977.8,405.2z"/>
</g>
</svg>
