<?xml version="1.0" encoding="utf-8"?>
<!-- Generator: Adobe Illustrator 21.1.0, SVG Export Plug-In . SVG Version: 6.00 Build 0)  -->
<svg version="1.1" id="Calque_1" xmlns="http://www.w3.org/2000/svg" xmlns:xlink="http://www.w3.org/1999/xlink" x="0px" y="0px"
	 viewBox="0 0 1024 1024" style="enable-background:new 0 0 1024 1024;" xml:space="preserve">
<path d="M512,372.4c-77.1,0-139.6,62.5-139.6,139.6S434.9,651.7,512,651.7s139.6-62.5,139.6-139.6c0.1-77-62.2-139.5-139.3-139.6
	C512.3,372.4,512.1,372.4,512,372.4z"/>
<path d="M512,163C279.3,163,80.5,307.8,0,512.1c80.5,204.3,279.3,349.1,512,349.1s431.5-144.8,512-349.1
	C943.5,307.8,744.7,163,512,163z M512,744.8c-128.5,0-232.7-104.3-232.7-232.7S383.5,279.4,512,279.4s232.7,104.3,232.7,232.7
	S640.5,744.8,512,744.8z"/>
</svg>
