<?xml version="1.0" encoding="utf-8"?>
<!-- Generator: Adobe Illustrator 21.1.0, SVG Export Plug-In . SVG Version: 6.00 Build 0)  -->
<svg version="1.1" id="Calque_1" xmlns="http://www.w3.org/2000/svg" xmlns:xlink="http://www.w3.org/1999/xlink" x="0px" y="0px"
	 viewBox="0 0 1024 1024" style="enable-background:new 0 0 1024 1024;" xml:space="preserve">
<path d="M983,433.6L818.9,319.2c-90.5-63-196.6-96.3-306.9-96.3s-216.4,33.3-306.9,96.3L41,433.6C15.3,451.4,0,480.7,0,512
	c0,31.3,15.3,60.6,41,78.4l164.2,114.3c90.5,63,196.6,96.3,306.9,96.3s216.4-33.3,306.9-96.3L983,590.4c25.7-17.9,41-47.2,41-78.4
	C1024,480.7,1008.7,451.4,983,433.6z M324.3,666.4c-22.9-10.7-44.9-23.4-65.9-38L94.2,514.1c-0.4-0.3-1.1-0.7-1.1-2.1
	c0-1.3,0.7-1.8,1.1-2.1l164.2-114.3c21.4-14.9,43.9-27.8,67.3-38.7c-36.5,43.6-56.3,98-56.3,155.5
	C269.3,569.3,288.6,623.1,324.3,666.4z M929.8,514.1L765.7,628.4c-27.3,19-56.3,34.7-86.5,47c2.5-12.8-0.4-26.6-9.2-37.6
	c-15.9-20.2-45.2-23.6-65.4-7.7c-6.4,5-13.2,9.6-20.3,13.5c-22,12.2-47,18.6-72.3,18.6c-82.5,0-149.6-67.1-149.6-149.6
	S429.5,362.8,512,362.8c35,0,67.7,11.7,94.7,33.8c26.3,21.5,44.6,51.5,51.6,84.4c2.2,10.3,3.3,20.8,3.3,31.5
	c0,25.7,20.8,46.5,46.5,46.5s46.5-20.8,46.5-46.5c0-17.1-1.8-34.3-5.4-50.9c-8.2-38.5-25.9-74.5-51.1-104.6
	c23.4,10.8,45.9,23.7,67.3,38.7l164.2,114.3c0.4,0.3,1.1,0.7,1.1,2.1C930.9,513.3,930.2,513.8,929.8,514.1z"/>
</svg>
