<?xml version="1.0" encoding="utf-8"?>
<!-- Generator: Adobe Illustrator 21.1.0, SVG Export Plug-In . SVG Version: 6.00 Build 0)  -->
<svg version="1.1" id="Calque_1" xmlns="http://www.w3.org/2000/svg" xmlns:xlink="http://www.w3.org/1999/xlink" x="0px" y="0px"
	 viewBox="0 0 1024 1024" style="enable-background:new 0 0 1024 1024;" xml:space="preserve">
<g id="Page-1">
	<g id="icon-1-copy-13">
		<path d="M512,815.3c-51.4,0-102.5-6.5-151.9-19.3c-47.9-12.4-94.2-30.8-137.6-54.6C137.1,694.7,63.7,627,10.1,546
			c-13.6-20.5-13.6-47.1,0-67.6c53.5-81,127-148.7,212.4-195.5c43.4-23.8,89.7-42.2,137.6-54.6C409.5,215.5,460.6,209,512,209
			s102.5,6.5,151.9,19.3c47.9,12.4,94.2,30.8,137.6,54.6c85.4,46.8,158.8,114.4,212.4,195.5c13.6,20.5,13.6,47.1,0,67.6
			c-53.5,81-127,148.7-212.4,195.5c-43.4,23.8-89.7,42.2-137.6,54.6C614.5,808.9,563.4,815.3,512,815.3z M512,269
			c-91.2,0-181.3,23-260.6,66.5c-76.9,42.1-143,103-191.2,176c-0.3,0.4-0.3,1,0,1.4c48.2,73,114.3,133.9,191.2,176
			c79.3,43.5,169.4,66.5,260.6,66.5c91.2,0,181.3-23,260.6-66.5c76.9-42.1,143-103,191.2-176c0.3-0.4,0.3-1,0-1.4
			c-48.2-73-114.3-133.9-191.2-176C693.3,292,603.2,269,512,269z M512,708c-54.9,0-106.6-21.4-145.4-60.2
			c-38.8-38.8-60.2-90.5-60.2-145.4s21.4-106.6,60.2-145.4c38.8-38.8,90.5-60.2,145.4-60.2s106.6,21.4,145.4,60.2
			c38.8,38.8,60.2,90.5,60.2,145.4S696.2,609,657.4,647.8C618.6,686.6,566.9,708,512,708z M512,356.8
			c-80.3,0-145.6,65.3-145.6,145.6c0,80.3,65.3,145.6,145.6,145.6c80.3,0,145.6-65.3,145.6-145.6C657.6,422.1,592.3,356.8,512,356.8
			z"/>
	</g>
</g>
</svg>
