<?xml version="1.0" encoding="utf-8"?>
<!-- Generator: Adobe Illustrator 17.0.0, SVG Export Plug-In . SVG Version: 6.00 Build 0)  -->
<!DOCTYPE svg PUBLIC "-//W3C//DTD SVG 1.1//EN" "http://www.w3.org/Graphics/SVG/1.1/DTD/svg11.dtd">
<svg version="1.1" id="Calque_1" xmlns="http://www.w3.org/2000/svg" xmlns:xlink="http://www.w3.org/1999/xlink" x="0px" y="0px"
	 width="1024px" height="1024px" viewBox="0 0 1024 1024" enable-background="new 0 0 1024 1024" xml:space="preserve">
<title>CN-1280-BORNE-BURALISTES-ICONS</title>
<g>
	<g>
		<path fill="#333333" d="M908.4,972.8h-793c-63.5,0-115.2-50.7-115.2-113.1V164.1C0.2,101.7,51.9,51,115.4,51h624.5
			c5.6,0,10.9,2.3,14.7,6.5l263.8,286.9c3.4,3.7,5.3,8.5,5.3,13.5v62c0,0,0,0,0,0l-0.2,439.8C1023.6,922.1,971.9,972.8,908.4,972.8z
			 M115.4,91c-41.4,0-75.2,32.8-75.2,73.1v695.7c0,40.3,33.7,73.1,75.2,73.1h793c41.4,0,75.2-32.8,75.2-73.1l0.2-439.8l0-54.2
			L731.1,91H115.4z M801.7,780.9H200.2c-11,0-20-9-20-20s9-20,20-20h601.4c11,0,20,9,20,20S812.7,780.9,801.7,780.9z M801.7,594.9
			H200.2c-11,0-20-9-20-20s9-20,20-20h601.4c11,0,20,9,20,20S812.7,594.9,801.7,594.9z M491.1,259.5H200.2c-11,0-20-9-20-20
			c0-11,9-20,20-20h290.8c11,0,20,9,20,20C511.1,250.5,502.1,259.5,491.1,259.5z"/>
		<path fill="#333333" d="M991,402.4H780.7c-49.8,0-90.3-39.8-90.3-88.8V76h40v237.7c0,26.9,22.6,48.8,50.3,48.8H991V402.4z"/>
	</g>
</g>
</svg>
