<?xml version="1.0" encoding="utf-8"?>
<!-- Generator: Adobe Illustrator 23.0.3, SVG Export Plug-In . SVG Version: 6.00 Build 0)  -->
<svg version="1.1" id="Calque_1" xmlns="http://www.w3.org/2000/svg" xmlns:xlink="http://www.w3.org/1999/xlink" x="0px" y="0px"
	 viewBox="0 0 1024 1024" style="enable-background:new 0 0 1024 1024;" xml:space="preserve">
<g>
	<path d="M842.84,119.27l-81.79-70.67C724.77,17.25,678.41,0,630.45,0H228.4C164.12,0,112,52.12,112,116.4V907.6
		c0,64.29,52.12,116.4,116.4,116.4H795.6c64.29,0,116.4-52.12,116.4-116.4V270.43C912,212.39,886.76,157.22,842.84,119.27z
		 M781.38,190.4c10.37,8.96,18.77,19.73,24.89,31.63H696.99c-14.44,0-26.19-11.75-26.19-26.19v-93.82
		c10.41,4.3,20.15,10.24,28.8,17.72L781.38,190.4z M795.6,930H228.4c-12.35,0-22.4-10.05-22.4-22.4V116.4
		c0-12.35,10.05-22.4,22.4-22.4H576.8v101.84c0,66.27,53.92,120.19,120.19,120.19H818V907.6C818,919.95,807.95,930,795.6,930z"/>
	<path d="M666.52,401.81L445.84,622.49l-88.35-88.35c-18.36-18.35-48.11-18.35-66.47,0c-18.35,18.35-18.35,48.11,0,66.47
		l154.82,154.82l287.15-287.15c18.35-18.35,18.35-48.11,0-66.47C714.63,383.45,684.87,383.45,666.52,401.81z"/>
</g>
</svg>
