<?xml version="1.0" encoding="utf-8"?>
<!-- Generator: Adobe Illustrator 21.1.0, SVG Export Plug-In . SVG Version: 6.00 Build 0)  -->
<svg version="1.1" id="Calque_1" xmlns="http://www.w3.org/2000/svg" xmlns:xlink="http://www.w3.org/1999/xlink" x="0px" y="0px"
	 viewBox="0 0 1024 1024" style="enable-background:new 0 0 1024 1024;" xml:space="preserve">
<g>
	<path d="M776.5,0h-529C166.7,0,101,65.7,101,146.5v731c0,80.8,65.7,146.5,146.5,146.5h529c80.8,0,146.5-65.7,146.5-146.5v-731
		C923,65.7,857.3,0,776.5,0z M830,877.5c0,29.5-24,53.5-53.5,53.5h-529c-29.5,0-53.5-24-53.5-53.5V384c0-11,9-20,20-20h467.7
		c25.5,0,46.8-20.2,47.3-45.7c0.4-26-20.5-47.3-46.5-47.3H214c-11,0-20-9-20-20V146.5C194,117,218,93,247.5,93h529
		c29.5,0,53.5,24,53.5,53.5V877.5z"/>
	<path d="M683,472H343c-25.7,0-46.5,20.8-46.5,46.5c0,25.7,20.8,46.5,46.5,46.5h340c25.7,0,46.5-20.8,46.5-46.5
		C729.5,492.8,708.7,472,683,472z"/>
	<path d="M683,672H343c-25.7,0-46.5,20.8-46.5,46.5S317.3,765,343,765h340c25.7,0,46.5-20.8,46.5-46.5S708.7,672,683,672z"/>
</g>
</svg>
