<svg id="f3a38eae-b024-4a6f-9d8f-4867e615de52" data-name="Calque 18" xmlns="http://www.w3.org/2000/svg" viewBox="0 0 762.26 1024"><title>document</title><path d="M886,280.45v-45a26.6,26.6,0,0,0-6.6-17.54L696.43,9.07a26.53,26.53,0,0,0-20-9.07H226.08c-52.49,0-95.21,42.33-95.21,94.35V929.68c0,52,42.72,94.32,95.21,94.32H797.92c52.49,0,95.21-42.3,95.21-94.64ZM822.5,233.71H703.65c-15.33,0-27.8-12.16-27.8-27.1V66.33ZM797.92,970.78H226.08c-23.15,0-42-18.45-42-41.11V94.35c0-22.68,18.84-41.13,42-41.13H622.63V206.6c0,44.28,36.33,80.32,81,80.32H832.86l7.05,642.75C839.91,952.33,821.1,970.78,797.92,970.78Z" transform="translate(-130.87)"/><path d="M287.56,380.6h340a26.61,26.61,0,0,0,0-53.22h-340a26.61,26.61,0,1,0,0,53.22Z" transform="translate(-130.87)"/><path d="M722.15,524.94H287.56a26.61,26.61,0,1,0,0,53.22H722.15a26.61,26.61,0,1,0,0-53.22Z" transform="translate(-130.87)"/><path d="M722.15,654.76H287.56a26.61,26.61,0,0,0,0,53.22H722.15a26.61,26.61,0,1,0,0-53.22Z" transform="translate(-130.87)"/><path d="M535.89,778.91H287.56a26.61,26.61,0,0,0,0,53.22H535.89a26.61,26.61,0,1,0,0-53.22Z" transform="translate(-130.87)"/></svg>