<?xml version="1.0" encoding="utf-8"?>
<!-- Generator: Adobe Illustrator 21.1.0, SVG Export Plug-In . SVG Version: 6.00 Build 0)  -->
<svg version="1.1" id="Calque_1" xmlns="http://www.w3.org/2000/svg" xmlns:xlink="http://www.w3.org/1999/xlink" x="0px" y="0px"
	 viewBox="0 0 1024 1024" style="enable-background:new 0 0 1024 1024;" xml:space="preserve">
<path d="M822.2,69.7C777.3,24.7,717.6,0,654,0H444.9c-67.6,0-123.4,51.4-130.3,117.2h-40.3c-78.4,0-142.2,63.8-142.2,142.2v670.1
	c0,39.4,23.8,74,60.6,88.1c11.2,4.3,22.7,6.4,34.1,6.4c26.1,0,51.5-11,69.9-31.4l156.5-174l156.5,174c26.4,29.3,67.2,39.1,104,25
	c36.8-14.1,60.6-48.7,60.6-88.1V259.4c0-78.4-63.8-142.2-142.2-142.2H409.6c5.5-14.1,19.3-24.1,35.3-24.1H654
	c79.8,0,144.7,64.9,144.7,144.7v485.1c0,25.7,20.8,46.5,46.5,46.5s46.5-20.8,46.5-46.5V237.8C891.9,174.3,867.1,114.6,822.2,69.7z
	 M454.1,384.9l71.5,79.5c11,12.2,31.2,4.4,31.2-12V210.3H632c27.1,0,49.1,22,49.1,49.1v670.1c0,0.4,0,0.6-0.1,0.8
	c-0.3,0.3-1.2,0.7-1.6,0.6c-0.1-0.1-0.3-0.2-0.5-0.5L487.8,718c-8.8-9.8-21.4-15.4-34.6-15.4s-25.8,5.6-34.6,15.4L227.5,930.4
	c-0.3,0.3-0.5,0.5-0.5,0.5c-0.4,0.1-1.3-0.3-1.6-0.6c0-0.1-0.1-0.4-0.1-0.8V259.4c0-27.1,22-49.1,49.1-49.1h77.1v242.1
	c0,16.4,20.2,24.2,31.2,12L454.1,384.9z"/>
</svg>
