<?xml version="1.0" encoding="utf-8"?>
<!-- Generator: Adobe Illustrator 21.1.0, SVG Export Plug-In . SVG Version: 6.00 Build 0)  -->
<svg version="1.1" id="Calque_1" xmlns="http://www.w3.org/2000/svg" xmlns:xlink="http://www.w3.org/1999/xlink" x="0px" y="0px"
	 viewBox="0 0 1024 1024" style="enable-background:new 0 0 1024 1024;" xml:space="preserve">
<g id="Page-1_1_">
	<g id="icon-1-copy">
		<g id="Page-1" transform="translate(231.000000, 5.000000)">
			<g>
				<path id="Fill-1_1_" d="M281.2,131.4c-91.4,0-165.6,74.2-165.6,165.6c0,50.7,22.8,96.1,58.7,126.5
					c28.8,24.4,66.1,39.1,106.9,39.1c91.4,0,165.6-74.2,165.6-165.6S372.6,131.4,281.2,131.4 M281.2,166.3
					c72.1,0,130.7,58.6,130.7,130.7s-58.6,130.7-130.7,130.7c-30.9,0-60.8-10.9-84.4-30.9c-29.5-24.9-46.4-61.3-46.4-99.9
					C150.4,224.9,209.1,166.3,281.2,166.3"/>
				<path d="M281.2,467.6c-40.3,0-79.4-14.3-110.1-40.3c-38.5-32.5-60.5-80-60.5-130.3c0-94.1,76.5-170.6,170.6-170.6
					c94.1,0,170.6,76.5,170.6,170.6S375.2,467.6,281.2,467.6z M281.2,136.4c-88.6,0-160.6,72-160.6,160.6c0,47.4,20.8,92.1,57,122.7
					c28.9,24.4,65.7,37.9,103.6,37.9c88.6,0,160.6-72,160.6-160.6S369.7,136.4,281.2,136.4z M281.2,432.8c-32.1,0-63.2-11.4-87.6-32
					c-30.6-25.9-48.1-63.7-48.1-103.7c0-74.8,60.9-135.7,135.7-135.7S416.9,222.2,416.9,297S356,432.8,281.2,432.8z M281.2,171.3
					c-69.3,0-125.7,56.4-125.7,125.7c0,37.1,16.3,72.1,44.6,96.1c22.6,19.1,51.4,29.7,81.1,29.7c69.3,0,125.7-56.4,125.7-125.7
					C406.9,227.7,350.5,171.3,281.2,171.3z"/>
			</g>
			<g>
				<path id="Fill-3_1_" d="M280.6,0c-14.2,0-28.3,4.5-40.2,13.4l-40.4,30.3h-50.6c-29.3,0-55.1,19-63.9,46.9l-16,50.9l-42.6,31.9
					C4,190.5-5.5,220.1,3.1,247.3l16.5,52.1L3.3,350.5c-8.7,27.4,1.1,57.4,24.3,74.4l41.8,30.6l15.8,48.6
					c9,27.6,34.7,46.3,63.8,46.3h51l40.4,30.3c11.9,8.9,26,13.4,40.2,13.4s28.3-4.5,40.2-13.4l40.4-30.3h51
					c29,0,54.8-18.7,63.8-46.3l15.8-48.6l41.1-29.3c23.6-16.9,33.7-47,25-74.7L541.6,300l16.6-52.6c8.5-27.1-1-56.7-23.7-73.7
					l-42.7-32l-16-51.1c-8.8-27.9-34.7-46.9-63.9-46.9h-50.5l-40.4-30.3C308.9,4.5,294.7,0,280.6,0 M280.6,34.9
					c7,0,13.7,2.2,19.3,6.4l40.5,30.3c6,4.5,13.4,7,20.9,7h50.5c14.1,0,26.4,9,30.7,22.5l16,51.1c2.2,6.9,6.5,13,12.3,17.4l42.7,32
					c10.9,8.2,15.4,22.4,11.4,35.4l-16.6,52.6c-2.1,6.8-2.1,14.1,0,21l16.2,51.4c4.2,13.3-0.6,27.7-12,35.8l-41.1,29.3
					c-6.1,4.3-10.6,10.5-12.9,17.6l-15.8,48.6c-4.3,13.3-16.6,22.2-30.6,22.2h-51c-7.5,0-14.9,2.4-20.9,6.9l-40.5,30.3
					c-5.6,4.2-12.3,6.4-19.3,6.4s-13.7-2.2-19.3-6.4l-40.5-30.3c-6-4.5-13.4-6.9-20.9-6.9h-51c-14,0-26.3-9-30.6-22.2l-15.8-48.6
					c-2.3-7-6.7-13-12.6-17.4l-41.8-30.6c-11.2-8.2-15.8-22.5-11.6-35.7l16.2-51.2c2.2-6.8,2.2-14.2,0-21.1l-16.5-52.1
					c-4.1-13,0.5-27.3,11.4-35.4l42.6-31.9c5.9-4.4,10.2-10.5,12.4-17.4l16-50.9c4.2-13.5,16.6-22.5,30.6-22.5h50.6
					c7.5,0,14.9-2.4,20.9-7l40.5-30.3C266.9,37.1,273.6,34.9,280.6,34.9"/>
				<path d="M280.6,599.1c-15.7,0-30.6-5-43.2-14.4l-39.1-29.3H149c-31.3,0-58.9-20-68.5-49.8l-15.3-47.1l-40.5-29.6
					c-25-18.2-35.5-50.4-26.1-79.9l15.8-49.6l-16-50.6c-9.2-29.1,1-61,25.5-79.3l41.3-31l15.6-49.4c9.5-30.1,37.1-50.4,68.7-50.4
					h48.9l39.1-29.3C250,0,264.9-5,280.6-5c15.7,0,30.6,5,43.2,14.4l39.1,29.3h48.9c31.6,0,59.2,20.2,68.7,50.4l15.6,49.5l41.4,31.1
					c24.4,18.3,34.6,50.2,25.5,79.2L546.8,300l15.7,49.9c9.4,29.8-1.4,62.1-26.8,80.2L496,458.5l-15.2,47.1
					c-9.7,29.8-37.2,49.8-68.5,49.8h-49.3l-39.1,29.3C311.2,594.1,296.3,599.1,280.6,599.1z M149.4,48.7c-27.2,0-51,17.4-59.1,43.4
					l-16.5,52.5l-43.9,32.9C8.8,193.2-0.1,220.7,7.9,245.7l16.9,53.6L8.1,352c-8,25.4,1,53.1,22.5,68.8l43.1,31.5L90,502.5
					c8.3,25.6,32,42.9,59,42.9h52.6l41.8,31.3c10.8,8.1,23.7,12.4,37.2,12.4c13.5,0,26.4-4.3,37.2-12.4l41.8-31.3h52.6
					c27,0,50.7-17.2,59-42.9l16.3-50.2l42.4-30.2c21.9-15.7,31.2-43.4,23.1-69.1L536.3,300l17-54.1c7.9-25-0.9-52.4-21.9-68.2
					l-44-33l-16.5-52.6c-8.2-26-32-43.4-59.2-43.4h-52.2l-41.8-31.3C307,9.3,294.1,5,280.6,5s-26.4,4.3-37.2,12.4l-41.8,31.3H149.4z
					 M280.6,564.2c-8.1,0-15.8-2.6-22.3-7.4l-40.5-30.3c-5.1-3.8-11.5-5.9-17.9-5.9h-51c-16.2,0-30.4-10.3-35.4-25.7l-15.8-48.6
					c-2-6-5.7-11.1-10.8-14.9l-41.8-30.6c-12.9-9.4-18.3-26-13.5-41.2l16.2-51.2c1.9-5.9,1.9-12.1,0-18l-16.5-52.1
					c-4.8-15.1,0.5-31.5,13.1-40.9l42.6-31.9c5.1-3.8,8.7-9,10.6-14.9l16-50.9c4.9-15.5,19.1-26,35.4-26h50.6c6.4,0,12.8-2.1,17.9-6
					l40.5-30.3c6.5-4.9,14.2-7.4,22.3-7.4c8.1,0,15.8,2.6,22.3,7.4l40.5,30.3c5.2,3.9,11.4,6,17.9,6h50.5c16.3,0,30.5,10.4,35.4,26
					l16,51.1c1.9,6,5.6,11.1,10.6,14.9l42.7,32c12.6,9.4,17.8,25.9,13.1,40.9l-16.6,52.6c-1.8,5.9-1.8,12.1,0,18l16.2,51.4
					c4.8,15.4-0.7,32-13.9,41.4l-41.1,29.3c-5.2,3.7-9.1,9-11,15.1l-15.8,48.6c-5,15.4-19.2,25.7-35.4,25.7h-51
					c-6.4,0-12.8,2.1-17.9,5.9l-40.5,30.3C296.4,561.6,288.7,564.2,280.6,564.2z M149.4,83.6c-11.9,0-22.3,7.6-25.9,19l-16,50.9
					c-2.5,8-7.4,14.9-14.1,19.9l-42.6,31.9c-9.2,6.9-13.1,18.9-9.6,29.9l16.5,52.1c2.5,7.9,2.5,16.3,0,24.1l-16.2,51.2
					c-3.5,11.1,0.4,23.2,9.8,30.1L93,423.3c6.8,5,11.8,11.8,14.4,19.9l15.8,48.6c3.7,11.2,14,18.8,25.9,18.8h51
					c8.5,0,17,2.8,23.9,7.9l40.5,30.3c4.7,3.5,10.3,5.4,16.3,5.4c5.9,0,11.6-1.9,16.3-5.4l40.5-30.3c6.9-5.1,15.3-7.9,23.9-7.9h51
					c11.8,0,22.2-7.6,25.9-18.8l15.8-48.6c2.6-8.1,7.8-15.2,14.8-20.1l41.1-29.3c9.6-6.9,13.7-19,10.1-30.3L503.5,312
					c-2.4-7.9-2.4-16.1,0-24l16.6-52.6c3.4-11-0.4-23-9.6-29.9l-42.7-32c-6.7-5.1-11.6-11.9-14.1-19.9l-16-51.1
					c-3.6-11.4-14-19-25.9-19h-50.5c-8.6,0-17-2.8-23.9-8l-40.5-30.3c-4.8-3.5-10.4-5.4-16.3-5.4c-5.9,0-11.5,1.9-16.3,5.4
					l-40.5,30.3c-6.8,5.1-15.3,8-23.9,8H149.4z"/>
			</g>
			<path d="M396.1,1018.9c-13.6,0-26.8-6-36-17l-0.2-0.3l-78.2-96.8l-72.2,95.3c-12.5,16.4-33.1,22.8-52.7,16.2
				c-19.5-6.6-32.1-24.1-32.1-44.7V527.3h40v444.2c0,4.3,2.7,6.1,4.9,6.8c1.8,0.6,5.3,1.1,8-2.5l103.1-136l110.2,136.4
				c2.8,3.3,6.2,2.7,7.9,2.1c1.8-0.6,4.7-2.4,4.7-6.8V527.3h40v444.3c0,20.1-12.2,37.5-31.1,44.4
				C407.1,1017.9,401.6,1018.9,396.1,1018.9z"/>
		</g>
	</g>
</g>
</svg>
