<?xml version="1.0" encoding="utf-8"?>
<!-- Generator: Adobe Illustrator 21.1.0, SVG Export Plug-In . SVG Version: 6.00 Build 0)  -->
<svg version="1.1" id="e1b71c27-83ae-4974-ba4d-1f26cac736db"
	 xmlns="http://www.w3.org/2000/svg" xmlns:xlink="http://www.w3.org/1999/xlink" x="0px" y="0px" viewBox="0 0 570 1024.1"
	 style="enable-background:new 0 0 570 1024.1;" xml:space="preserve">
<style type="text/css">
	.st0{fill:#333333;}
</style>
<title>icon-medaille</title>
<g>
	<path class="st0" d="M285.5,129.3c-94.8,0-171.9,77.1-171.9,171.9c0,94.9,77,171.9,171.9,171.9c94.8,0,171.8-77.1,171.8-171.9
		S380.3,129.3,285.5,129.3z M285.5,426c-68.9,0-124.8-55.9-124.8-124.8c0-68.8,56-124.8,124.8-124.8v0c68.8,0,124.8,56,124.8,124.8
		C410.4,370.1,354.5,426,285.5,426z"/>
	<path class="st0" d="M550.5,304.2l16.2-51.4c9-28.8-1-60.1-25.2-78.3l-41.7-31.3l-15.7-49.9c-9.3-29.7-36.8-49.9-67.9-49.8H367
		L327.6,14c-24.9-18.6-60.5-18.6-85.4,0l-39.4,29.6h-49.3C122.5,43.4,95,63.6,85.8,93.3L70.1,143l-41.6,31.1
		C4.3,192.3-5.8,223.7,3.3,252.5l16.1,51l-15.9,50c-9.3,29.1,1.1,60.9,25.8,78.9l40.8,29.8l15.4,47.4c6.8,21.2,23,37.5,43.1,44.8
		v421.9c-0.2,20.4,12.9,38.7,32.3,45c5,1.7,10.2,2.6,15.5,2.6c14.8,0,28.7-7,37.5-18.9l72.4-94.5l78.1,96.4
		c9,10.8,22.4,17.1,36.4,17.1c26.2,0,47.5-21.3,47.5-47.5v-425c16.8-8.3,30.1-23.2,36.1-41.8l15.4-47.4l40-28.5
		c25.1-17.9,35.8-49.9,26.5-79.3L550.5,304.2z M416.7,515.9h-51c-8.4,0-16.6,2.7-23.3,7.8L301.8,554c-10,7.4-23.7,7.4-33.7,0
		l-40.6-30.4c-6.7-5-14.9-7.8-23.3-7.8h-51c-12.2,0-23-7.9-26.8-19.5l-15.8-48.6c-2.5-7.8-7.4-14.6-14.1-19.4l-41.8-30.6
		c-9.7-7.1-13.8-19.7-10.2-31.2l16.2-51.2c2.4-7.7,2.4-15.9,0-23.6l-16.5-52.1c-3.6-11.4,0.4-23.8,10-31l42.6-32
		c6.5-4.9,11.4-11.7,13.8-19.5l16-51c3.7-11.7,14.5-19.7,26.8-19.7l50.6,0c8.4,0,16.6-2.7,23.4-7.8l40.5-30.4
		c10.1-7.3,23.7-7.3,33.8,0l40.5,30.4c6.7,5,14.9,7.8,23.3,7.8h50.6c12.3,0,23.2,7.9,26.8,19.7l16.1,51.2
		c2.4,7.8,7.3,14.6,13.8,19.4l42.7,32c9.6,7.2,13.6,19.6,10,31l-16.6,52.6c-2.4,7.6-2.4,15.8,0,23.4l16.2,51.4
		c3.7,11.6-0.6,24.3-10.5,31.4L473.7,428c-6.8,4.9-11.9,11.8-14.4,19.8l-15.8,48.6C439.7,508.1,428.9,515.9,416.7,515.9z
		 M405.4,981.8c-2.9,2.5-7.4,2.1-9.9-0.8L284.8,845.6l-103.1,135c-1.7,2.5-5,3.5-7.8,2.4c-2.9-0.8-4.9-3.6-4.7-6.6V558.9h33.8
		l39.4,29.5c12.3,9.3,27.3,14.2,42.7,14.2c15.4,0,30.4-4.9,42.7-14.2l39.4-29.5h40.8v417.7C407.8,978.6,406.9,980.5,405.4,981.8z"/>
</g>
</svg>
