<?xml version="1.0" encoding="utf-8"?>
<!-- Generator: Adobe Illustrator 21.1.0, SVG Export Plug-In . SVG Version: 6.00 Build 0)  -->
<svg version="1.1" id="Calque_1" xmlns="http://www.w3.org/2000/svg" xmlns:xlink="http://www.w3.org/1999/xlink" x="0px" y="0px"
	 viewBox="0 0 1024 1024" style="enable-background:new 0 0 1024 1024;" xml:space="preserve">
<g>
	<path d="M878.3,439.3c0-242.1-197.1-439.1-439.1-439.1C197,0.1,0,197.2,0,439.3c0,242,197,438.9,439.2,438.9
		C681.2,878.2,878.3,681.3,878.3,439.3z M92.6,439.3C92.6,248.1,248,92.6,439.2,92.6s346.3,155.5,346.3,346.6
		c0,190.8-155.2,346.4-346.3,346.4C248,785.7,92.6,630.1,92.6,439.3z"/>
	<path d="M977.8,405.2c-25.6,0-46.4,20.8-46.4,46.1C931.4,716,716.2,931,451.8,931c-25.6,0-46.3,20.8-46.3,46.4
		c0,25.5,20.6,46.4,46.3,46.4c315.5,0,572.2-256.9,572.2-572.5C1024,426,1003.2,405.2,977.8,405.2z"/>
</g>
<g>
	<path d="M555.2,403.1H322.9c-22.5,0-40.6,17.9-40.6,40.4c0,22.3,18.2,40.3,40.6,40.3h232.4c22.4,0,40.6-18,40.6-40.3
		C595.9,421,577.6,403.1,555.2,403.1z"/>
	<path d="M439,235.2c22.4,0,40.6-18.1,40.6-40.5c-0.1-22.3-18.3-40.6-40.6-40.6c-22.4,0-40.6,18.3-40.6,40.6
		C398.5,217.1,416.7,235.2,439,235.2z"/>
	<path d="M491.8,524.2H386.4c-22.3,0-40.5,17.9-40.5,40.2S364,605,386.2,605h105.5l0.1,0.2c22.3,0,40.4-18.2,40.4-40.5
		C532.3,542.5,514.2,524.2,491.8,524.2z"/>
	<path d="M491.8,279.6H386.4c-22.3,0-40.5,17.9-40.5,40.2c0,22.4,18.2,40.5,40.4,40.5h105.5l0.1,0.1c22.3,0,40.4-18,40.4-40.4
		C532.3,297.7,514.2,279.6,491.8,279.6z"/>
	<path d="M439,646.8c-22.4,0-40.6,18.3-40.6,40.6c0,22.4,18.3,40.6,40.6,40.6c22.4,0,40.6-18.2,40.6-40.6
		C479.6,665.1,461.4,646.8,439,646.8z"/>
</g>
</svg>
