<?xml version="1.0" encoding="utf-8"?>
<!-- Generator: Adobe Illustrator 23.0.3, SVG Export Plug-In . SVG Version: 6.00 Build 0)  -->
<svg version="1.1" id="Calque_1" xmlns="http://www.w3.org/2000/svg" xmlns:xlink="http://www.w3.org/1999/xlink" x="0px" y="0px"
	 viewBox="0 0 1024 1024" style="enable-background:new 0 0 1024 1024;" xml:space="preserve">
<g>
	<path d="M977,581.56c25.96,0,47-21.04,47-47V147c0-81.06-65.94-147-147-147H147C65.94,0,0,65.94,0,147v730
		c0,81.06,65.94,147,147,147h730c81.06,0,147-65.94,147-147V760.05c0-25.96-21.04-47-47-47s-47,21.04-47,47V877
		c0,29.22-23.78,53-53,53H147c-29.22,0-53-23.78-53-53V147c0-29.22,23.78-53,53-53h730c29.22,0,53,23.78,53,53v387.56
		C930,560.52,951.04,581.56,977,581.56z"/>
	<path d="M201,870h228c25.96,0,47-21.04,47-47s-21.04-47-47-47H310.9l126.86-126.86c18.35-18.36,18.35-48.11,0-66.47
		c-18.35-18.35-48.11-18.35-66.47,0L248,705.96V595c0-25.96-21.04-47-47-47s-47,21.04-47,47v224.42c0,0,0,0.01,0,0.01V823
		C154,848.96,175.04,870,201,870z"/>
	<path d="M429,154H201c-25.96,0-47,21.04-47,47v228c0,25.96,21.04,47,47,47s47-21.04,47-47V310.9l126.86,126.86
		c9.18,9.18,21.21,13.77,33.23,13.77s24.06-4.59,33.23-13.77c18.35-18.35,18.35-48.11,0-66.47L318.04,248H429
		c25.96,0,47-21.04,47-47S454.96,154,429,154z"/>
	<path d="M870,204.58c0-0.01,0-0.01,0-0.02V201c0-25.96-21.04-47-47-47H595c-25.96,0-47,21.04-47,47s21.04,47,47,47h118.1
		L586.24,374.86c-18.35,18.35-18.35,48.11,0,66.47c9.18,9.18,21.21,13.77,33.23,13.77s24.06-4.59,33.23-13.77L776,318.04V429
		c0,25.96,21.04,47,47,47s47-21.04,47-47V204.58z"/>
	<path d="M548,823c0,25.96,21.04,47,47,47h228c25.96,0,47-21.04,47-47V595c0-25.96-21.04-47-47-47s-47,21.04-47,47v118.1
		L649.14,586.24c-18.36-18.35-48.11-18.35-66.47,0c-18.35,18.35-18.35,48.11,0,66.47L705.96,776H595C569.04,776,548,797.04,548,823z
		"/>
</g>
</svg>
