<?xml version="1.0" encoding="utf-8"?>
<!-- Generator: Adobe Illustrator 21.1.0, SVG Export Plug-In . SVG Version: 6.00 Build 0)  -->
<svg version="1.1" id="Calque_1" xmlns="http://www.w3.org/2000/svg" xmlns:xlink="http://www.w3.org/1999/xlink" x="0px" y="0px"
	 viewBox="0 0 1024 1024" style="enable-background:new 0 0 1024 1024;" xml:space="preserve">
<path d="M1020.4,89.2c-6.9-15.9-22.6-26.1-39.9-26.1H43.5C26.3,63,10.7,73.2,3.7,88.9s-4,34.1,7.6,46.9l149.8,164.9c0,0,0,0,0,0
	l227,249.9v366.8c0,17.6,10.6,33.4,26.8,40.2c5.4,2.2,11.1,3.3,16.7,3.3c11.3,0,22.4-4.4,30.7-12.7l150.5-149.5
	c8.2-8.1,12.8-19.2,12.8-30.7l1-217.1l385.7-414.8C1024.1,123.5,1027.3,105.1,1020.4,89.2z M551.3,504.2c-7.4,8-11.6,18.5-11.7,29.5
	l-1,216.1l-63.5,63.1V533.9c0-10.8-4-21.3-11.3-29.3L291.7,315h266.9c24,0,43.5-19.5,43.5-43.5c0-24-19.5-43.5-43.5-43.5h-346
	l-70.7-77.8h738.6L551.3,504.2z"/>
</svg>
