<svg id="f0e93cef-fd57-4b1f-b2a6-f452c1c911ec" data-name="Calque 19" xmlns="http://www.w3.org/2000/svg" viewBox="0 0 1024 862.7"><title>filtres</title><path d="M1019.65,115.65a56.63,56.63,0,0,0-52.43-35H56.78A56.73,56.73,0,0,0,16.65,177.5L170.4,331.28l.24.24L401.13,562l6.76,325.67A56.64,56.64,0,0,0,490,937.31l93.72-46.89a56.35,56.35,0,0,0,31.54-50.77v-270L1007.35,177.5A56.6,56.6,0,0,0,1019.65,115.65ZM575,529.56a56.37,56.37,0,0,0-16.57,40.18l-.06,269.86-93.78,46.94L457.88,561a56.37,56.37,0,0,0-16.52-39L259.12,339.73H764.87ZM820.49,284.11c-1.88-.39-3.63-1.13-5.63-1.13H202.36L56.78,137.41l910.44,0Z" transform="translate(0 -80.65)"/></svg>