<?xml version="1.0" encoding="utf-8"?>
<!-- Generator: Adobe Illustrator 21.1.0, SVG Export Plug-In . SVG Version: 6.00 Build 0)  -->
<svg version="1.1" id="Calque_1" xmlns="http://www.w3.org/2000/svg" xmlns:xlink="http://www.w3.org/1999/xlink" x="0px" y="0px"
	 viewBox="0 0 1024 1024" style="enable-background:new 0 0 1024 1024;" xml:space="preserve">
<g>
	<path d="M967.4,395.4h-49.3c-8.8-30.7-21-60.1-36.5-88.1l34.9-34.9c10.7-10.7,16.6-24.9,16.6-40c0-15.1-5.9-29.3-16.6-40
		l-84.9-84.9c-10.7-10.7-24.9-16.6-40-16.6c-15.1,0-29.3,5.9-40,16.6l-34.9,34.9c-27.9-15.5-57.4-27.7-88.1-36.5V56.6
		c0-31.2-25.4-56.6-56.6-56.6H451.9c-31.2,0-56.6,25.4-56.6,56.6v49.3c-30.7,8.8-60.1,21-88.1,36.5l-34.9-34.9
		c-22.1-22.1-57.9-22.1-80,0l-84.9,84.9c-22.1,22.1-22.1,57.9,0,80l34.9,34.9c-15.5,27.9-27.7,57.4-36.5,88.1H56.6
		C25.4,395.4,0,420.8,0,451.9v120.1c0,31.2,25.4,56.6,56.6,56.6h49.3c8.8,30.7,21,60.1,36.5,88.1l-34.9,34.9
		c-10.7,10.7-16.6,24.9-16.6,40c0,15.1,5.9,29.3,16.6,40l84.9,84.9c10.7,10.7,24.9,16.6,40,16.6c15.1,0,29.3-5.9,40-16.6l34.9-34.9
		c27.9,15.5,57.4,27.7,88.1,36.5v49.3c0,31.2,25.4,56.6,56.6,56.6h120.1c31.2,0,56.6-25.4,56.6-56.6v-49.3
		c30.7-8.8,60.1-21,88.1-36.5l34.9,34.9c22.1,22.1,57.9,22,80,0l84.9-84.9c22.1-22.1,22.1-57.9,0-80l-34.9-34.9
		c15.5-27.9,27.7-57.4,36.5-88.1h49.3c31.2,0,56.6-25.4,56.6-56.6V451.9C1024,420.8,998.6,395.4,967.4,395.4z M930.9,535.5h-41.4
		c-26.6,0-49.8,18.9-55.3,44.9c-8.4,39.6-23.8,77-46,111c-14.5,22.3-11.4,52.1,7.4,70.9l29.3,29.3l-33.3,33.3l-29.3-29.3
		c-18.8-18.8-48.6-21.9-70.9-7.4c-34,22.2-71.4,37.7-111,46c-26,5.5-44.9,28.8-44.9,55.3v41.4h-47v-41.4c0-26.6-18.9-49.8-44.9-55.3
		c-39.6-8.4-77-23.8-111-46c-22.3-14.5-52.1-11.4-70.9,7.4l-29.3,29.3l-33.3-33.3l29.3-29.3c18.8-18.8,21.9-48.6,7.4-70.9
		c-22.2-34-37.7-71.4-46-111c-5.5-26-28.8-44.9-55.3-44.9H93.1v-47h41.4c26.6,0,49.8-18.9,55.3-44.9c8.4-39.6,23.8-77,46-111
		c14.5-22.3,11.4-52.1-7.4-70.9l-29.3-29.3l33.3-33.3l29.3,29.3c18.8,18.8,48.6,21.9,70.9,7.4c34-22.2,71.4-37.7,111-46
		c26-5.5,44.9-28.8,44.9-55.3V93.1h47v41.4c0,26.6,18.9,49.8,44.9,55.3c39.6,8.4,77,23.8,111,46c22.3,14.5,52.1,11.4,70.9-7.4
		l29.3-29.3l33.3,33.3l-29.3,29.3c-18.8,18.8-21.9,48.6-7.4,70.9c22.2,34,37.7,71.4,46,111c5.5,26,28.8,44.9,55.3,44.9h41.4V535.5z"
		/>
	<path d="M512.5,278.8c-62.2,0-120.6,24.2-164.6,68.2s-68.2,102.4-68.2,164.6c0,62.2,24.2,120.6,68.2,164.6
		c44,44,102.4,68.2,164.6,68.2c21.7,0,43.1-3,63.8-8.9c24.7-7,39.1-32.8,32-57.5c-7-24.7-32.8-39.1-57.5-32
		c-12.4,3.5-25.3,5.3-38.3,5.3c-77,0-139.6-62.6-139.6-139.6c0-77,62.6-139.6,139.6-139.6c77,0,139.6,62.6,139.6,139.6
		c0,16.8-2.9,33.1-8.7,48.7c-9,24.1,3.3,50.9,27.4,59.9c24.1,9,50.9-3.3,59.9-27.4c9.7-25.9,14.5-53.2,14.5-81.1
		c0-62.2-24.2-120.6-68.2-164.6C633.1,303,574.7,278.8,512.5,278.8z"/>
</g>
</svg>
