<?xml version="1.0" encoding="utf-8"?>
<!-- Generator: Adobe Illustrator 21.1.0, SVG Export Plug-In . SVG Version: 6.00 Build 0)  -->
<svg version="1.1" id="Calque_1" xmlns="http://www.w3.org/2000/svg" xmlns:xlink="http://www.w3.org/1999/xlink" x="0px" y="0px"
	 viewBox="0 0 1024 1024" style="enable-background:new 0 0 1024 1024;" xml:space="preserve">
<g id="Page-1_1_">
	<g id="icon-1-copy-14">
		<g id="Page-1" transform="translate(66.000000, 20.000000)">
			<path d="M114,987.7c-73.7,0-133.7-60.5-133.7-134.8V433.6c0-74.3,60-134.8,133.7-134.8s133.7,60.5,133.7,134.8v419.3
				C247.7,927.2,187.7,987.7,114,987.7z M114,358.7c-40.6,0-73.7,33.6-73.7,74.8v419.3c0,41.3,33,74.8,73.7,74.8
				s73.7-33.6,73.7-74.8V433.6C187.7,392.3,154.7,358.7,114,358.7z"/>
			<path d="M787.9,704.7h-41.5c-16.6,0-30-13.4-30-30s13.4-30,30-30h41.5c23.5,0,42.6-19.5,42.6-43.4c0-23.9-19.1-43.4-42.6-43.4
				H656.6c-16.6,0-30-13.4-30-30s13.4-30,30-30h131.3c56.6,0,102.6,46.4,102.6,103.4S844.4,704.7,787.9,704.7z"/>
			<path d="M746.4,851.5h-41.5c-16.6,0-30-13.4-30-30s13.4-30,30-30h41.5c23.5,0,42.6-19.5,42.6-43.4s-19.1-43.4-42.6-43.4H639.3
				c-16.6,0-30-13.4-30-30s13.4-30,30-30h107.1c56.6,0,102.6,46.4,102.6,103.4S803,851.5,746.4,851.5z"/>
			<path d="M581,1003.8c-23.7,0-50.1-0.8-78-3c-59.6-4.8-113.6-15-160.6-30.6c-60.4-20-109.6-48.8-146-85.7
				c-11.7-11.8-11.5-30.8,0.2-42.4c11.8-11.6,30.8-11.5,42.4,0.2c29.6,30,70.6,53.8,121.6,70.7c42.3,14,91.4,23.4,146,27.8
				c94.4,7.7,172.9-2.3,173.7-2.4c1.3-0.2,2.6-0.2,3.9-0.2c23.5,0,42.6-19.5,42.6-43.4c0-23.9-19.1-43.4-42.6-43.4h-48.4
				c-16.6,0-30-13.4-30-30s13.4-30,30-30h48.4c56.6,0,102.6,46.4,102.6,103.4c0,56.3-44.9,102.3-100.6,103.4
				C677,999.3,636.5,1003.8,581,1003.8z"/>
			<path d="M808.6,557.9h-41.5c-16.6,0-30-13.4-30-30s13.4-30,30-30h41.5c23.5,0,42.6-19.5,42.6-43.4s-19.1-43.4-42.6-43.4H473.4
				c-9.4,0-18.2-4.4-23.9-11.8c-5.7-7.4-7.5-17.1-5.1-26.1c0.3-1.2,33.5-123.6,33.5-243.6c0-56.9-28.7-88.2-44-89.1
				c-7.3-0.4-13.9,6.9-18.2,13.1c-7.8,11.4-18.2,34.5-23.1,79.2c-5.1,46.1-16.7,90.1-34.7,130.6c-14.4,32.6-32.9,63-54.9,90.5
				c-37.9,47.3-73.7,70-75.2,70.9L196.1,374l-0.1,0.1c0.3-0.2,30.1-19.4,61.8-59.5c42.1-53.4,67.4-116.7,75.2-188.2
				c5-45.9,16.2-81.7,33.3-106.6c18.3-26.7,43.5-40.6,70.9-39.1c27.8,1.5,54.6,19.3,73.5,48.6c17.6,27.4,27.3,63,27.3,100.3
				c0,87.5-15.9,173.8-26.4,221.6h297.1c56.6,0,102.6,46.4,102.6,103.4S865.2,557.9,808.6,557.9z"/>
		</g>
	</g>
</g>
</svg>
