<svg id="Calque_5" data-name="Calque 5" xmlns="http://www.w3.org/2000/svg" viewBox="0 0 1024 1024"><title>Plan de travail 1</title><path d="M873.58,895.82h-651a46.28,46.28,0,0,1,0-92.56h651a57.92,57.92,0,0,0,57.85-57.85V278.6a57.92,57.92,0,0,0-57.85-57.85H150.42A57.92,57.92,0,0,0,92.56,278.6V755.66a46.28,46.28,0,1,1-92.56,0V278.6c0-82.94,67.48-150.42,150.42-150.42H873.58c82.94,0,150.42,67.47,150.42,150.42V745.4C1024,828.35,956.52,895.82,873.58,895.82Z"/><path d="M214,693.3A46.22,46.22,0,0,1,177.91,676c-16-19.83-11.46-49.26,7.93-65.76L382.68,442.74a46.28,46.28,0,0,1,60,0L594,571.52a11.57,11.57,0,0,0,16.82-2l161.86-220a46.28,46.28,0,1,1,74.55,54.85l-198.66,270a46.27,46.27,0,0,1-67.27,7.82L420.16,545.13a11.57,11.57,0,0,0-15,0L244,682.27A46.07,46.07,0,0,1,214,693.3Z"/></svg>