<?xml version="1.0" encoding="utf-8"?>
<!-- Generator: Adobe Illustrator 21.1.0, SVG Export Plug-In . SVG Version: 6.00 Build 0)  -->
<svg version="1.1" id="Calque_1" xmlns="http://www.w3.org/2000/svg" xmlns:xlink="http://www.w3.org/1999/xlink" x="0px" y="0px"
	 viewBox="0 0 1024 1024" style="enable-background:new 0 0 1024 1024;" xml:space="preserve">
<g>
	<path d="M959.1,447.1H66.3c-35.8,0-64.9,29-64.9,64.9c0,35.8,29,64.9,64.9,64.9h892.9c35.8,0,64.9-29,64.9-64.9
		C1024,476.2,995,447.1,959.1,447.1z"/>
	<path d="M959.1,709.4H66.3c-35.8,0-64.9,29-64.9,64.9c0,35.8,29,64.9,64.9,64.9h892.9c35.8,0,64.9-29,64.9-64.9
		C1024,738.4,995,709.4,959.1,709.4z"/>
	<path d="M64.9,314.6h892.9c35.8,0,64.9-29,64.9-64.9s-29-64.9-64.9-64.9H64.9C29,184.9,0,213.9,0,249.7S29,314.6,64.9,314.6z"/>
</g>
</svg>
