<svg id="Calque_11" data-name="Calque 11" xmlns="http://www.w3.org/2000/svg" viewBox="0 0 1024 1024"><title>Plan de travail 1</title><path d="M871.34,603H778.93V383.28c0-147.19-119.74-266.94-266.92-266.94S245.07,236.09,245.07,383.28V603H152.66V383.28C152.66,185.13,313.87,23.93,512,23.93s359.33,161.2,359.33,359.35Z"/><path d="M122.54,774.66C55,774.66,0,726.72,0,667.8v-153C0,455.9,55,408,122.54,408S245.07,455.9,245.07,514.82v153C245.07,726.72,190.1,774.66,122.54,774.66Zm0-274.29c-18.74,0-30.12,10-30.12,14.44v153c0,4.41,11.38,14.44,30.12,14.44s30.12-10,30.12-14.44v-153C152.66,510.41,141.28,500.37,122.54,500.37Z"/><path d="M901.46,774.66c-67.56,0-122.54-47.93-122.54-106.86v-153c0-58.92,55-106.86,122.54-106.86S1024,455.9,1024,514.82v153C1024,726.72,969,774.66,901.46,774.66Zm0-274.29c-18.74,0-30.12,10-30.12,14.44v153c0,4.41,11.38,14.44,30.12,14.44s30.12-10,30.12-14.44v-153C931.58,510.41,920.2,500.37,901.46,500.37Z"/><path d="M760.72,820.94c-16.31-10.42-37.39-8.09-52.69,3.75a180,180,0,0,1-77.79,34.9,5.85,5.85,0,0,1-6-2.74c-14.82-23.65-39.38-39.19-67.19-39.19H466.92c-45.18,0-81.95,40.91-81.95,91.2s36.77,91.21,81.95,91.21h90.16c29.85,0,56-17.87,70.32-44.48a5.54,5.54,0,0,1,4.2-2.91,271.24,271.24,0,0,0,133.72-55.47C789.74,878.19,789.84,839.54,760.72,820.94Z"/></svg>