<?xml version="1.0" encoding="utf-8"?>
<!-- Generator: Adobe Illustrator 21.1.0, SVG Export Plug-In . SVG Version: 6.00 Build 0)  -->
<svg version="1.1" id="Calque_1" xmlns="http://www.w3.org/2000/svg" xmlns:xlink="http://www.w3.org/1999/xlink" x="0px" y="0px"
	 viewBox="0 0 1024 1024" style="enable-background:new 0 0 1024 1024;" xml:space="preserve">
<path d="M575.3,93.1c27,0,52.3,10.5,71.4,29.6l254,254c18.2,18.2,47.7,18.2,65.8,0c18.2-18.2,18.2-47.7,0-65.8l-254-254
	C675.9,20.2,627.2,0,575.3,0c-51.8,0-100.6,20.2-137.2,56.8L65,429.9c-20.8,20.8-27,51.8-15.7,79c11.2,27.1,37.4,44.7,66.8,44.7
	l53.9,0.3v323.4c0,80.9,65.8,146.7,146.7,146.7h471.8c80.9,0,146.7-65.8,146.7-146.7V525.7c0-33.9-27.5-61.5-61.4-61.7l-708-3.3
	l338.1-338.1C523,103.6,548.4,93.1,575.3,93.1z M263.2,554.3l578.9,2.7v320.3c0,29.5-24,53.6-53.6,53.6H316.7
	c-29.5,0-53.6-24-53.6-53.6V554.3z"/>
</svg>
