<svg id="2b996434-0f06-4eb8-8411-5f2437cb3ee2" data-name="Calque 24" xmlns="http://www.w3.org/2000/svg" viewBox="0 0 957.97 1024"><title>logement</title><path d="M971.79,419.89l-67.45-65.17a23.29,23.29,0,0,0,.8-4V123.56a24.68,24.68,0,0,0-24.69-24.69H758.92a24.68,24.68,0,0,0-24.69,24.69v66.81L555.55,17.75a62.32,62.32,0,0,0-87.1,0L52.21,419.89A62.88,62.88,0,0,0,95.81,528h13.7V949.8a74.38,74.38,0,0,0,74.41,74.2H825a74.38,74.38,0,0,0,74.41-74.2V528h28.79a62.88,62.88,0,0,0,43.6-108.08ZM783.61,148.25h72.15V307.79l-72.15-69.7ZM413.23,963.09v-247a49.33,49.33,0,0,1,49.29-49.29h99a49.33,49.33,0,0,1,49.29,49.29v247ZM850,949.8a25,25,0,0,1-25,24.81H660.15V716.07a98.79,98.79,0,0,0-98.67-98.67h-99a98.79,98.79,0,0,0-98.67,98.67V974.62H183.91a25,25,0,0,1-25-24.81V528H850Zm90.57-479.61a12.94,12.94,0,0,1-12.39,8.39H881.41a23.89,23.89,0,0,0-6.7-1.35H134.19a23.89,23.89,0,0,0-6.7,1.35H95.81a12.94,12.94,0,0,1-12.39-8.39,13.07,13.07,0,0,1,3.13-14.81L502.79,53.2a13.22,13.22,0,0,1,18.42,0v0L937.45,455.39A13.07,13.07,0,0,1,940.59,470.19Z" transform="translate(-33.01 0)"/></svg>