<?xml version="1.0" encoding="utf-8"?>
<!-- Generator: Adobe Illustrator 21.1.0, SVG Export Plug-In . SVG Version: 6.00 Build 0)  -->
<svg version="1.1" id="Calque_1" xmlns="http://www.w3.org/2000/svg" xmlns:xlink="http://www.w3.org/1999/xlink" x="0px" y="0px"
	 viewBox="0 0 1024 1024" style="enable-background:new 0 0 1024 1024;" xml:space="preserve">
<g>
	<path d="M46.7,491.5c22.9,0,42.9-16.9,46.1-40.2c2.8-20.5,7.2-40.9,13-60.7c7.3-24.7-6.9-50.6-31.6-57.9
		c-24.7-7.3-50.6,6.9-57.9,31.6c-7.1,24.2-12.5,49.2-16,74.2c-3.5,25.5,14.3,49,39.8,52.6C42.4,491.4,44.5,491.5,46.7,491.5z"/>
	<path d="M283.4,864.7c-17.4-11.1-34.1-23.6-49.7-37.2c-19.4-16.9-48.9-14.8-65.8,4.6c-16.9,19.4-14.8,48.9,4.6,65.8
		c19,16.6,39.5,31.8,60.7,45.4c7.8,5,16.5,7.3,25.1,7.3c15.4,0,30.4-7.6,39.3-21.5C311.4,907.4,305.1,878.6,283.4,864.7z"/>
	<path d="M190.5,235.3c13.5-15.7,28.2-30.5,43.9-44c19.5-16.9,21.6-46.3,4.7-65.7c-16.9-19.5-46.3-21.6-65.7-4.7
		c-19.1,16.5-37.1,34.6-53.5,53.7c-16.8,19.5-14.6,48.9,4.9,65.7c8.8,7.6,19.6,11.3,30.4,11.3C168.2,251.5,181.3,246,190.5,235.3z"
		/>
	<path d="M105.6,627.8c-7.2-24.7-33.1-38.9-57.8-31.7c-24.7,7.2-38.9,33.1-31.7,57.8c7.1,24.2,16,48.2,26.6,71.1
		c7.9,17,24.7,27.1,42.3,27.1c6.5,0,13.2-1.4,19.5-4.3c23.4-10.8,33.6-38.5,22.8-61.9C118.7,667.2,111.4,647.7,105.6,627.8z"/>
	<path d="M489.7,40.2C486,14.7,462.5-3,437,0.6c-25,3.5-50,9-74.1,16.2c-24.7,7.3-38.7,33.3-31.4,58c6,20.2,24.6,33.3,44.7,33.3
		c4.4,0,8.9-0.6,13.3-2c19.8-5.9,40.2-10.3,60.6-13.2C475.5,89.3,493.3,65.7,489.7,40.2z"/>
	<path d="M955.1,660.3c-23.4-10.6-51.1-0.3-61.7,23.2c-8.5,18.8-18.5,37.1-29.8,54.5c-14,21.6-7.8,50.5,13.8,64.5
		c7.8,5.1,16.6,7.5,25.3,7.5c15.3,0,30.3-7.5,39.2-21.3c13.7-21.2,25.9-43.6,36.4-66.5C988.9,698.6,978.5,670.9,955.1,660.3z"/>
	<path d="M511.3,930.7C511.3,930.7,511.2,930.7,511.3,930.7l-1.5,0c-20.3,0-40.7-1.5-60.6-4.3c-25.5-3.7-49.1,14-52.8,39.5
		c-3.7,25.5,14,49.1,39.5,52.8c24.3,3.5,49.2,5.3,73.9,5.3l1.6,0c25.7,0,46.6-21,46.5-46.7C557.9,951.5,537,930.7,511.3,930.7z"/>
	<path d="M1018.5,434.1c-3.8-25.5-27.4-43.1-52.9-39.3c-25.5,3.8-43.1,27.4-39.3,52.9c3,20.4,4.5,41.2,4.5,62l0,0.9
		c-0.1,25.7,20.7,46.7,46.5,46.7c0,0,0.1,0,0.1,0c25.7,0,46.5-20.8,46.6-46.5l0-1.2C1024,484.4,1022.1,458.9,1018.5,434.1z"/>
	<path d="M903.3,303.5c8.6,0,17.4-2.4,25.2-7.4c21.6-13.9,27.9-42.8,14-64.4c-13.6-21.2-29-41.6-45.6-60.6
		c-17-19.4-46.4-21.3-65.8-4.4c-19.4,17-21.3,46.4-4.4,65.8c13.6,15.6,26.2,32.3,37.4,49.6C873,296,888,303.5,903.3,303.5z"/>
	<path d="M738.5,863.2c-17.4,11.3-35.7,21.3-54.5,29.9c-23.4,10.7-33.8,38.3-23.1,61.7c7.8,17.2,24.7,27.3,42.4,27.3
		c6.5,0,13-1.4,19.3-4.2c23-10.5,45.4-22.7,66.6-36.5c21.6-14,27.8-42.9,13.7-64.5C789,855.3,760.1,849.2,738.5,863.2z"/>
	<path d="M704.2,130.9c17.7,0,34.6-10.1,42.4-27.2c10.7-23.4,0.4-51.1-23-61.8c-23-10.5-46.9-19.4-71.2-26.4
		c-24.7-7.1-50.6,7.1-57.7,31.9c-7.1,24.7,7.1,50.6,31.9,57.7c19.8,5.7,39.4,13,58.2,21.6C691.1,129.5,697.7,130.9,704.2,130.9z"/>
</g>
</svg>
