<?xml version="1.0" encoding="utf-8"?>
<!-- Generator: Adobe Illustrator 23.0.3, SVG Export Plug-In . SVG Version: 6.00 Build 0)  -->
<svg version="1.1" id="Calque_1" xmlns="http://www.w3.org/2000/svg" xmlns:xlink="http://www.w3.org/1999/xlink" x="0px" y="0px"
	 viewBox="0 0 1024 1024" style="enable-background:new 0 0 1024 1024;" xml:space="preserve">
<g>
	<path d="M896.58,35.02c-265.97-46.7-503.19-46.7-769.17,0C94.15,40.86,70,69.62,70,103.4v153.4c0,86.95,7.08,160.66,21.66,225.34
		c14.2,63.04,36.03,119.62,66.72,172.97c58.1,100.98,145.04,185.14,255.11,291.69c21.02,20.35,42.76,41.4,65.6,63.79
		c9.14,8.96,21.02,13.44,32.91,13.44s23.77-4.48,32.91-13.44c22.84-22.4,44.58-43.44,65.6-63.8c35.16-34.03,68.36-66.18,98.44-96.72
		c17.97-18.25,33.61-34.69,47.82-50.27c17.5-19.18,16.13-48.9-3.04-66.4c-19.18-17.49-48.9-16.13-66.4,3.04
		c-13.4,14.69-28.24,30.28-45.36,47.67c-29.29,29.75-62.11,61.52-96.86,95.15c-10.83,10.48-21.84,21.15-33.12,32.1
		c-11.27-10.95-22.3-21.62-33.13-32.11C370.02,773.88,291.36,697.74,239.86,608.22C186.69,515.81,164,410.71,164,256.79V124.12
		c239.79-40.08,456.21-40.08,696,0v132.67c0,158.1-24.27,265.88-81.14,360.41c-13.38,22.24-6.2,51.12,16.04,64.5
		c22.24,13.38,51.12,6.2,64.5-16.04c32.9-54.67,56.25-112.52,71.4-176.86C946.41,422.53,954,346.64,954,256.79V103.4
		C954,69.62,929.85,40.86,896.58,35.02z"/>
	<path d="M512,628.97L512,628.97c26.43,0,47.86-21.43,47.86-47.86V459.45h121.66c26.43,0,47.86-21.43,47.86-47.86v0
		c0-26.43-21.43-47.86-47.86-47.86H559.86V242.09c0-26.43-21.43-47.86-47.86-47.86h0c-26.43,0-47.86,21.43-47.86,47.86v121.66
		H342.49c-26.43,0-47.86,21.43-47.86,47.86v0c0,26.43,21.43,47.86,47.86,47.86h121.66v121.66
		C464.14,607.54,485.57,628.97,512,628.97z"/>
</g>
</svg>
