<?xml version="1.0" encoding="utf-8"?>
<!-- Generator: Adobe Illustrator 22.0.1, SVG Export Plug-In . SVG Version: 6.00 Build 0)  -->
<svg version="1.1" id="d4e56892-819f-4d47-9caa-73779e65ba53"
	 xmlns="http://www.w3.org/2000/svg" xmlns:xlink="http://www.w3.org/1999/xlink" x="0px" y="0px" viewBox="0 0 1024 990.6"
	 style="enable-background:new 0 0 1024 990.6;" xml:space="preserve">
<title>loisirs</title>
<path d="M993.2,714.7c-27.8,27.7-47.8,15.8-49.2,15.1L823.1,608.9c-36.9-36.8-78-55-120.3-54c-71.3,1.6-122.1,56.4-123.5,58
	L286.7,905.4c-55.5,55.4-145.8,55.5-201.4,0c-55.6-55.6-55.6-145.7,0-201.3c0,0,0,0,0,0l109.5-109.5c7.8,3.2,16.2,4.4,24.6,3.4
	l365.8-44c19.9-2.4,36.5-16.5,42.2-35.8L759.5,64.3c7.8-26.6-7.5-54.4-34.1-62.2c-9.2-2.7-18.9-2.7-28.1,0L243.4,134.2
	c-19.3,5.6-33.3,22.2-35.8,42.1l-44,365.8c-0.7,6.7-0.1,13.5,1.9,20L54.5,673.2c-71.3,73.9-69.2,191.7,4.8,263
	c72.1,69.5,186.2,69.5,258.2,0L610.7,643c0.4-0.4,40.1-43.3,93.1-44.6c30.7,0.7,60.5,13.2,88.5,41.2l122.9,122.7
	c18,13.9,63.6,28.4,108.9-16.9L993.2,714.7z M226.7,562.7l193-193l151.5,151.5L226.7,562.7z M723.5,65.9L600.4,488.8L450.5,338.9
	L723.5,65.9z M687.2,40.6L419.7,308L272.8,161.2L687.2,40.6z M240.3,190.3l148.5,148.6L199.7,528L240.3,190.3z"/>
</svg>
