<svg id="d4e56892-819f-4d47-9caa-73779e65ba53" data-name="Calque 25" xmlns="http://www.w3.org/2000/svg" viewBox="0 0 1024 990.62"><defs><style>.\35 181eb72-6a7b-42b8-8ac8-b71104f842f3,.\39 4ef8e54-f83f-4a57-a4a8-56e0e0ff0786{fill:none;}.\35 181eb72-6a7b-42b8-8ac8-b71104f842f3{stroke:#fff;stroke-linecap:round;stroke-linejoin:round;stroke-width:0;}</style></defs><title>loisirs</title><polygon class="94ef8e54-f83f-4a57-a4a8-56e0e0ff0786" points="419.68 369.69 226.67 562.69 571.21 521.23 419.68 369.69"/><polygon class="94ef8e54-f83f-4a57-a4a8-56e0e0ff0786" points="419.68 308.04 687.16 40.57 272.81 161.16 419.68 308.04"/><polygon class="94ef8e54-f83f-4a57-a4a8-56e0e0ff0786" points="450.5 338.87 600.4 488.77 723.48 65.89 450.5 338.87"/><polygon class="94ef8e54-f83f-4a57-a4a8-56e0e0ff0786" points="240.34 190.34 199.7 528.03 388.86 338.87 240.34 190.34"/><line class="5181eb72-6a7b-42b8-8ac8-b71104f842f3" x1="600.61" y1="519.78" x2="600.6" y2="519.78"/><line class="5181eb72-6a7b-42b8-8ac8-b71104f842f3" x1="238.76" y1="157.93" x2="238.75" y2="157.93"/><path d="M993.18,731.37c-27.76,27.71-47.81,15.75-49.25,15.11L823.07,625.58c-36.87-36.82-77.95-55-120.35-54-71.35,1.64-122.09,56.43-123.54,58l-292.5,292.5c-55.51,55.43-145.83,55.47-201.38,0a142.34,142.34,0,0,1,0-201.32L194.83,611.23a49.6,49.6,0,0,0,24.58,3.39l365.81-44.05a50.15,50.15,0,0,0,42.17-35.75L759.49,81A50.16,50.16,0,0,0,697.3,18.76L243.44,150.86A50.14,50.14,0,0,0,207.69,193L163.64,558.84a49.61,49.61,0,0,0,1.89,20L54.47,689.94a186,186,0,0,0,263,263L610.68,659.72c.43-.43,40.1-43.34,93.06-44.57,30.74.72,60.45,13.24,88.5,41.25L915.1,779.09c18,13.92,63.64,28.39,108.9-16.9ZM419.68,324.73,272.81,177.85,687.16,57.26M226.67,579.38l193-193L571.21,537.92m29.39-1.45h0Zm-.2-31L450.5,355.56l273-273m-484.72,92h0ZM199.7,544.72,240.34,207,388.86,355.56" transform="translate(0 -16.69)"/></svg>