<?xml version="1.0" encoding="utf-8"?>
<!-- Generator: Adobe Illustrator 21.1.0, SVG Export Plug-In . SVG Version: 6.00 Build 0)  -->
<svg version="1.1" id="Calque_1" xmlns="http://www.w3.org/2000/svg" xmlns:xlink="http://www.w3.org/1999/xlink" x="0px" y="0px"
	 viewBox="0 0 1024 1024" style="enable-background:new 0 0 1024 1024;" xml:space="preserve">
<g>
	<path d="M877.4,239H146.6C65.8,239,0,304.8,0,385.5v252.9C0,719.2,65.8,785,146.6,785h730.7c80.9,0,146.6-65.7,146.6-146.5V385.5
		C1024,304.8,958.2,239,877.4,239z M930.9,638.5c0,29.5-24,53.5-53.6,53.5H146.6c-29.5,0-53.6-24-53.6-53.5V385.5
		c0-29.5,24-53.5,53.6-53.5h730.7c29.5,0,53.6,24,53.6,53.5V638.5z"/>
	<path d="M390.9,471.6h-59.1v-59.1c0-22.1-17.9-39.9-40-39.9c-22.1,0-40,17.9-40,39.9v59.1h-59.1c-22.1,0-40,17.9-40,39.9
		c0,22.1,17.9,39.9,40,39.9h59.1v59.1c0,22.1,17.9,39.9,40,39.9c22.1,0,40-17.9,40-39.9v-59.1h59.1c22.1,0,40-17.9,40-39.9
		C430.9,489.4,413,471.6,390.9,471.6z"/>
	<ellipse cx="795.2" cy="510.5" rx="59.6" ry="59.5"/>
	<ellipse cx="609.9" cy="510.5" rx="59.6" ry="59.5"/>
</g>
</svg>
