<svg id="a460197e-6fe3-41d5-bad7-cab290c7caf6" data-name="Calque 1" xmlns="http://www.w3.org/2000/svg" viewBox="0 0 1024 1024"><title>icon-laptop@2x</title><path d="M1024,661.38V262.67A173.88,173.88,0,0,0,850.12,88.79H173.88A173.88,173.88,0,0,0,0,262.67V661.38H-.5V793c0,78.4,65.34,142.19,145.65,142.19h733.7c80.31,0,145.65-63.79,145.65-142.19V661.38ZM94,262.67a80,80,0,0,1,79.88-79.88H850.12A80,80,0,0,1,930,262.67V658.79H94ZM930.5,793c0,26.57-23.17,48.19-51.65,48.19H145.15c-28.48,0-51.65-21.62-51.65-48.19V755.38h259c7.79,43.31,46.39,76.32,92.68,76.32H574c46.29,0,84.89-33,92.68-76.32H930.5Z"/></svg>