<?xml version="1.0" encoding="utf-8"?>
<!-- Generator: Adobe Illustrator 23.0.3, SVG Export Plug-In . SVG Version: 6.00 Build 0)  -->
<svg version="1.1" id="Calque_1" xmlns="http://www.w3.org/2000/svg" xmlns:xlink="http://www.w3.org/1999/xlink" x="0px" y="0px"
	 viewBox="0 0 1024 1024" style="enable-background:new 0 0 1024 1024;" xml:space="preserve">
<path d="M903.97,152.5h-784.4c-66.06,0-119.8,53.74-119.8,119.8v479.4c0,66.06,53.74,119.8,119.8,119.8h784.4
	c66.06,0,119.8-53.74,119.8-119.8V272.3C1023.77,206.24,970.03,152.5,903.97,152.5z M903.97,777.5h-784.4
	c-14.23,0-25.8-11.57-25.8-25.8V294.77l149.8,93.16c7.73,4.8,16.3,7.09,24.78,7.09c15.7,0,31.05-7.87,39.96-22.19
	c13.71-22.04,6.95-51.02-15.09-64.73l-99.07-61.61H833.6L527.08,445.2l-0.68,0.45c-8.75,5.89-20.06,5.89-28.81,0l-85.83-57.77
	c-21.53-14.49-50.74-8.79-65.23,12.74c-14.49,21.53-8.79,50.74,12.74,65.23l85.83,57.78c20.32,13.68,43.6,20.51,66.9,20.51
	c23.14,0,46.29-6.76,66.52-20.26l351.25-227.7V751.7C929.77,765.93,918.2,777.5,903.97,777.5z"/>
</svg>
