<?xml version="1.0" encoding="utf-8"?>
<!-- Generator: Adobe Illustrator 21.1.0, SVG Export Plug-In . SVG Version: 6.00 Build 0)  -->
<svg version="1.1" id="Calque_1" xmlns="http://www.w3.org/2000/svg" xmlns:xlink="http://www.w3.org/1999/xlink" x="0px" y="0px"
	 viewBox="0 0 1024 1024" style="enable-background:new 0 0 1024 1024;" xml:space="preserve">
<g>
	<path d="M726.3,728V150.9C726.3,67.5,658.7,0,575.4,0h-272C220,0,152.5,67.5,152.5,150.9V728c0,83.3,67.4,150.9,150.9,150.9h272
		C658.7,879,726.3,811.3,726.3,728z M245.4,728V150.9c0-32.1,25.9-58,58-58h272c32,0,58.1,25.9,58.1,58V728
		c0,32.1-26,58.1-58.1,58.1h-272C271.4,786.2,245.4,760.2,245.4,728z"/>
	<path d="M439.9,424c49.8,0,90.5-40.6,90.5-90.5c0-49.7-40.6-90.2-90.5-90.2c-49.7,0-90.2,40.6-90.2,90.2
		C349.7,383.5,390.2,424,439.9,424z"/>
	<path d="M582,598.7c0-74.8-63.9-142.6-142.6-142.6c-78.7,0-142.6,63.6-142.6,142.6C296.8,648.4,582,648.4,582,598.7z"/>
	<path d="M820.5,225.1c-24.2,2.4-42,23.9-42,48.2v472.2c0,102.5-83,185.6-185.8,185.6H423.8c-27.2,0-48.9,23.4-46.2,51
		c2.2,24.2,23.9,41.9,48.3,41.9h166.9c154,0,278.7-124.7,278.7-278.4V271.4C871.5,244.1,848.1,222.6,820.5,225.1z"/>
</g>
</svg>
