<?xml version="1.0" encoding="utf-8"?>
<!-- Generator: Adobe Illustrator 21.1.0, SVG Export Plug-In . SVG Version: 6.00 Build 0)  -->
<svg version="1.1" id="Calque_1" xmlns="http://www.w3.org/2000/svg" xmlns:xlink="http://www.w3.org/1999/xlink" x="0px" y="0px"
	 viewBox="0 0 1024 1024" style="enable-background:new 0 0 1024 1024;" xml:space="preserve">
<g>
	<path d="M785,300.9h-28.5v-99.4C756.5,90.4,666.2,0,555.1,0h-86.1C357.8,0,267.5,90.4,267.5,201.5v99.4H239
		c-83.5,0-151.5,68-151.5,151.5v420.2c0,83.5,68,151.5,151.5,151.5h546c83.5,0,151.5-68,151.5-151.5V452.3
		C936.5,368.8,868.5,300.9,785,300.9z M370.1,201.5c0-54.5,44.3-98.8,98.8-98.8h86.1c54.5,0,98.8,44.3,98.8,98.8v99.4H370.1V201.5z
		 M833.8,872.5c0,26.9-21.9,48.8-48.8,48.8H239c-26.9,0-48.8-21.9-48.8-48.8V452.3c0-26.9,21.9-48.8,48.8-48.8h546
		c26.9,0,48.8,21.9,48.8,48.8V872.5z"/>
	<path d="M512,464.8c-28.4,0-51.3,23-51.3,51.3v145.7c0,28.4,23,51.3,51.3,51.3c28.4,0,51.3-23,51.3-51.3V516.1
		C563.3,487.8,540.4,464.8,512,464.8z"/>
</g>
</svg>
