<?xml version="1.0" encoding="utf-8"?>
<!-- Generator: Adobe Illustrator 21.1.0, SVG Export Plug-In . SVG Version: 6.00 Build 0)  -->
<svg version="1.1" id="Calque_1" xmlns="http://www.w3.org/2000/svg" xmlns:xlink="http://www.w3.org/1999/xlink" x="0px" y="0px"
	 viewBox="0 0 1024 1024" style="enable-background:new 0 0 1024 1024;" xml:space="preserve">
<g id="Page-1">
	<g id="icon-1">
		<g id="Group" transform="translate(136.000000, 25.000000)">
			<path d="M688.4,999H64.4C15.1,999-25,961.4-25,915.3V480.2c0-46.2,40.1-83.7,89.4-83.7h624.1c49.3,0,89.4,37.6,89.4,83.7v435.1
				C777.8,961.4,737.7,999,688.4,999z M64.4,446.4c-21.7,0-39.4,15.1-39.4,33.7v435.1c0,18.6,17.7,33.7,39.4,33.7h624.1
				c21.7,0,39.4-15.1,39.4-33.7V480.2c0-18.6-17.7-33.7-39.4-33.7H64.4z"/>
			<path d="M636.7,445.4c-13.8,0-25-11.2-25-25v-184C611.7,119.8,506.1,25,376.4,25c-129.8,0-235.3,94.8-235.3,211.4v184
				c0,13.8-11.2,25-25,25s-25-11.2-25-25v-184c0-70.3,30-136.2,84.4-185.7C229.3,1.9,300.7-25,376.4-25c75.7,0,147,26.9,200.8,75.7
				c54.4,49.5,84.4,115.4,84.4,185.7v184C661.7,434.2,650.5,445.4,636.7,445.4z"/>
		</g>
	</g>
</g>
</svg>
