<?xml version="1.0" encoding="utf-8"?>
<!-- Generator: Adobe Illustrator 21.1.0, SVG Export Plug-In . SVG Version: 6.00 Build 0)  -->
<svg version="1.1" id="Calque_1" xmlns="http://www.w3.org/2000/svg" xmlns:xlink="http://www.w3.org/1999/xlink" x="0px" y="0px"
	 viewBox="0 0 1024 1024" style="enable-background:new 0 0 1024 1024;" xml:space="preserve">
<g>
	<path d="M512,541.5c25.7,0,46.5-20.8,46.5-46.5V46c0-25.7-20.8-46.5-46.5-46.5c-25.7,0-46.5,20.8-46.5,46.5v449
		C465.5,520.7,486.3,541.5,512,541.5z"/>
	<path d="M869.7,369.3c-42.5-66.4-102.5-119.6-173.3-153.8c-23.1-11.2-50.9-1.5-62.1,21.7c-11.2,23.1-1.5,50.9,21.7,62.1
		c55.4,26.7,102.2,68.3,135.4,120.2c34.1,53.2,52.1,115,52.1,178.5c0,88.5-34.5,171.8-97.1,234.4C683.8,895,600.5,929.5,512,929.5
		S340.2,895,277.6,832.4C215,769.8,180.5,686.5,180.5,598c0-64.9,18.7-127.7,54.2-181.7C269.3,363.6,317.8,322,375,296
		c23.4-10.6,33.7-38.2,23.1-61.6c-10.6-23.4-38.2-33.7-61.6-23.1c-73.2,33.3-135.3,86.5-179.6,153.9
		C111.5,434.4,87.5,514.9,87.5,598c0,57.3,11.2,112.9,33.4,165.2c21.4,50.6,52,95.9,91,134.9c39,39,84.4,69.6,134.9,91
		c52.4,22.1,108,33.4,165.2,33.4c57.3,0,112.9-11.2,165.2-33.4c50.6-21.4,95.9-52,134.9-91c39-39,69.6-84.4,91-134.9
		c22.1-52.4,33.4-108,33.4-165.2C936.5,516.6,913.4,437.5,869.7,369.3z"/>
</g>
</svg>
