<?xml version="1.0" encoding="utf-8"?>
<!-- Generator: Adobe Illustrator 21.1.0, SVG Export Plug-In . SVG Version: 6.00 Build 0)  -->
<svg version="1.1" id="Calque_1" xmlns="http://www.w3.org/2000/svg" xmlns:xlink="http://www.w3.org/1999/xlink" x="0px" y="0px"
	 viewBox="0 0 1024 1024" style="enable-background:new 0 0 1024 1024;" xml:space="preserve">
<g>
	<path d="M719.3,444.3H304.8c-40.1,0-72.5,32-72.5,72.1c0,39.8,32.5,71.9,72.5,71.9h414.6c39.9,0,72.5-32.1,72.5-71.9
		C791.8,476.3,759.2,444.3,719.3,444.3z"/>
	<path d="M512,144.8c40,0,72.5-32.3,72.5-72.3C584.4,32.7,551.9,0,512,0c-39.9,0-72.4,32.7-72.4,72.5
		C439.6,112.5,472.1,144.8,512,144.8z"/>
	<path d="M606.2,660.4H418c-39.7,0-72.3,32-72.3,71.8c0,39.8,32.4,72.3,72.1,72.3H606l0.2,0.4c39.8,0,72.1-32.4,72.1-72.2
		C678.4,693,646.1,660.4,606.2,660.4z"/>
	<path d="M606.2,224H418c-39.7,0-72.3,32-72.3,71.7c0,40,32.4,72.3,72.1,72.3H606l0.2,0.1c39.8,0,72.1-32.2,72.1-72
		C678.4,256.4,646.1,224,606.2,224z"/>
	<path d="M512,879.1c-39.9,0-72.4,32.6-72.4,72.5c0,40,32.6,72.4,72.4,72.4c40,0,72.5-32.4,72.5-72.4
		C584.4,911.7,551.9,879.1,512,879.1z"/>
</g>
</svg>
