<?xml version="1.0" encoding="utf-8"?>
<!-- Generator: Adobe Illustrator 21.1.0, SVG Export Plug-In . SVG Version: 6.00 Build 0)  -->
<svg version="1.1" id="Calque_1" xmlns="http://www.w3.org/2000/svg" xmlns:xlink="http://www.w3.org/1999/xlink" x="0px" y="0px"
	 viewBox="0 0 1024 1024" style="enable-background:new 0 0 1024 1024;" xml:space="preserve">
<g id="Page-1_1_">
	<g id="icon-1-copy-13">
		<g id="Page-1" transform="translate(51.000000, 30.000000)">
			<path d="M790.7,994.4H415.6c-89,0-161.5-72.4-161.5-161.5V655.5c0-16.6,13.4-30,30-30s30,13.4,30,30v177.4
				c0,56,45.5,101.5,101.5,101.5h375.1c56,0,101.5-45.5,101.5-101.5V131.6c0-56-45.5-101.5-101.5-101.5H415.6
				c-56,0-101.5,45.6-101.5,101.5v168.8c0,16.6-13.4,30-30,30s-30-13.4-30-30V131.6c0-89.1,72.4-161.5,161.5-161.5h375.1
				c89,0,161.5,72.5,161.5,161.5v701.3C952.2,922,879.7,994.4,790.7,994.4z"/>
			<path d="M603.3,504.3H40.2c-16.6,0-30-13.4-30-30s13.4-30,30-30h563.1c16.6,0,30,13.4,30,30S619.8,504.3,603.3,504.3z"/>
			<path d="M133.9,629.2c-7,0-13.9-2.4-19.6-7.3L-19.6,506.1c-6.3-5.5-10-13.3-10.3-21.6c-0.3-8.3,2.9-16.4,8.8-22.3l133.9-133.9
				c11.7-11.7,30.7-11.7,42.4,0c11.7,11.7,11.7,30.7,0,42.4L44,481.8l109.5,94.8c12.5,10.8,13.9,29.8,3.1,42.3
				C150.6,625.7,142.3,629.2,133.9,629.2z"/>
		</g>
	</g>
</g>
</svg>
