<?xml version="1.0" encoding="utf-8"?>
<!-- Generator: Adobe Illustrator 23.0.3, SVG Export Plug-In . SVG Version: 6.00 Build 0)  -->
<svg version="1.1" id="Calque_3" xmlns="http://www.w3.org/2000/svg" xmlns:xlink="http://www.w3.org/1999/xlink" x="0px" y="0px"
	 viewBox="0 0 1024 1024" style="enable-background:new 0 0 1024 1024;" xml:space="preserve">
<g id="BSbSzP.tif_1_">
</g>
<g>
	<path d="M243.4,732.3l-66.5,66.5c-13.3,13.3-13.3,34.9,0,48.2c13.3,13.3,34.9,13.3,48.2,0l66.5-66.5c13.3-13.3,13.3-34.9,0-48.2
		S256.7,719,243.4,732.3z"/>
	<path d="M1011.2,723.9c-3.2-6.9-7.1-13.4-11.7-19.5L883,547.4l73.5-73.5c36-36,58.6-77.6,65.3-120.5c4.3-27.4,2.2-54.5-6.5-80.3
		c-8.7-26.1-23.6-49.7-44.2-70.4l-8.8-8.8c-18.2-18.2-42.9-28.5-68.7-28.5c-16.8,0-33.2,4.4-47.6,12.4c8.1-14.4,12.4-30.8,12.4-47.6
		c0-25.8-10.2-50.5-28.5-68.7l-8.8-8.8c-20.7-20.7-44.4-35.6-70.4-44.2C725,0,698-2.2,670.6,2.2c-42.8,6.7-84.5,29.3-120.5,65.3
		L429.5,188.1c-4.2,4.2-8.3,8.7-12.1,13.2l-45.5-45.5l-26.5-45.5c-11.1-19.1-27.6-34.6-47.4-44.6l-98.2-49.4
		c-44-22.2-97.3-13.6-132.1,21.3L50.5,54.6L33.5,71.7C-1.4,106.5-10,159.8,12.2,203.8L61.6,302c10,19.8,25.4,36.2,44.6,47.4
		l45.5,26.5l113.8,113.8L63.3,678.5c-20.1,18.8-35.9,41.1-46.8,66.2C6,768.9,0.5,794.6,0,821c-0.4,26.4,4.2,52.3,13.9,76.8
		c10.1,25.5,25,48.3,44.5,67.7c19.5,19.5,42.3,34.4,67.7,44.5c24.5,9.7,50.4,14.4,76.8,13.9c26.4-0.4,52.1-6,76.3-16.5
		c25.1-10.9,47.4-26.7,66.2-46.8L465.7,832c18.3,16.3,38.6,30.3,60.1,41.3l188,125c4.7,3.1,9.6,5.9,14.7,8.3
		c26.9,12.6,56.9,16.3,89.2,10.8c17-2.9,34.9-8.4,53-16.5c29.3-13,57.8-31.7,76.1-50.1c20.8-20.8,40.5-52.5,51.9-75.3
		c9.3-18.5,16.1-36.4,20.2-53.2C1027.7,786.7,1025.1,753.5,1011.2,723.9z M222,284.6l-58.4-34l-49.4-98.2l17.1-17.1l17.1-17.1
		l98.2,49.4l34,58.4l90.2,90.2c-0.3,4.9-0.5,9.8-0.5,14.7c0,18.4,2.4,36.4,7.3,53.9L349,411.6L222,284.6z M274.5,894.3
		c-39.6,42.3-106.3,43.5-147.3,2.5s-39.8-107.7,2.5-147.3l368.5-344.3c-41-41-41-107.4,0-148.4l120.6-120.6
		c41-41,92.8-55.6,133.8-14.6l8.8,8.8l-55.6,55.6c-36.5,36.5-36.5,95.8,0,132.3s95.8,36.5,132.3,0l55.6-55.6l8.8,8.8
		c41,41,26.4,92.8-14.6,133.8L767.2,525.8c-41,41-107.4,41-148.4,0L274.5,894.3z M866,870.1c-15.3,15.3-65.9,44-89,33.1L582.9,774.2
		c-14.2-6.7-27.4-15.4-39.3-25.6l95.4-102.1c17.5,4.8,35.5,7.3,53.9,7.3c26.2,0,51.8-5,76-14.8c10.1-4.1,19.7-8.9,28.9-14.5
		l109.9,148.1C918.6,795.6,881.3,854.8,866,870.1z"/>
</g>
</svg>
