<?xml version="1.0" encoding="utf-8"?>
<!-- Generator: Adobe Illustrator 23.0.3, SVG Export Plug-In . SVG Version: 6.00 Build 0)  -->
<svg version="1.1" id="Calque_1" xmlns="http://www.w3.org/2000/svg" xmlns:xlink="http://www.w3.org/1999/xlink" x="0px" y="0px"
	 viewBox="0 0 1024 1024" style="enable-background:new 0 0 1024 1024;" xml:space="preserve">
<g>
	<path d="M763,500.37c0-25.96-21.04-47-47-47s-47,21.04-47,47V669H355V355h314v23.68c0,25.96,21.04,47,47,47s47-21.04,47-47v-26.81
		c0-50.11-40.76-90.87-90.87-90.87H351.87c-50.11,0-90.87,40.76-90.87,90.87v320.26c0,50.11,40.76,90.87,90.87,90.87h320.26
		c50.11,0,90.87-40.76,90.87-90.87V500.37z"/>
	<path d="M0,223c0,25.96,21.04,47,47,47h176c25.96,0,47-21.04,47-47V47c0-25.96-21.04-47-47-47s-47,21.04-47,47v64.12l-95.27-97.1
		C62.55-4.51,32.8-4.79,14.27,13.39C-4.26,31.57-4.55,61.33,13.63,79.85L107.96,176H47C21.04,176,0,197.04,0,223z"/>
	<path d="M800.94,269.97h176c25.96,0,47-21.04,47-47s-21.04-47-47-47h-64.12l97.1-95.27c18.53-18.18,18.81-47.94,0.63-66.46
		c-18.18-18.53-47.94-18.81-66.46-0.63l-96.14,94.33V46.97c0-25.96-21.04-47-47-47s-47,21.04-47,47v176
		C753.94,248.93,774.98,269.97,800.94,269.97z"/>
	<path d="M916.04,847.94H977c25.96,0,47-21.04,47-47s-21.04-47-47-47H801c-25.96,0-47,21.04-47,47v176c0,25.96,21.04,47,47,47
		s47-21.04,47-47v-64.12l95.27,97.1c9.2,9.38,21.37,14.08,33.55,14.08c11.88,0,23.77-4.48,32.91-13.45
		c18.53-18.18,18.81-47.94,0.63-66.46L916.04,847.94z"/>
	<path d="M223.06,754h-176c-25.96,0-47,21.04-47,47s21.04,47,47,47h64.12l-97.1,95.27c-18.53,18.18-18.81,47.94-0.63,66.46
		c9.2,9.38,21.37,14.08,33.55,14.08c11.88,0,23.77-4.48,32.91-13.45l96.15-94.33V977c0,25.96,21.04,47,47,47s47-21.04,47-47V801
		C270.06,775.04,249.02,754,223.06,754z"/>
</g>
</svg>
