<?xml version="1.0" encoding="utf-8"?>
<!-- Generator: Adobe Illustrator 21.1.0, SVG Export Plug-In . SVG Version: 6.00 Build 0)  -->
<svg version="1.1" id="Calque_1" xmlns="http://www.w3.org/2000/svg" xmlns:xlink="http://www.w3.org/1999/xlink" x="0px" y="0px"
	 viewBox="0 0 1024 1024" style="enable-background:new 0 0 1024 1024;" xml:space="preserve">
<path d="M968.6,930.9h-69.3c0.5-2.8,0.8-5.7,0.8-8.7V525.6c0-33.9-27.5-61.5-61.4-61.7l-707.8-3.3l338-338
	c19.1-19.1,44.4-29.6,71.4-29.6s52.3,10.5,71.4,29.6l254,254c18.2,18.2,47.6,18.2,65.8,0c18.2-18.2,18.2-47.6,0-65.8l-254-254
	C640.9,20.2,592.2,0,540.3,0c-51.8,0-100.6,20.2-137.2,56.8l-373,373c-20.8,20.8-27,51.8-15.7,79c11.2,27.1,37.4,44.7,66.8,44.7
	l53.9,0.3v368.4c0,3,0.3,5.9,0.8,8.7H56c-25.7,0-46.5,20.8-46.5,46.5c0,25.7,20.8,46.5,46.5,46.5h912.6c25.7,0,46.5-20.8,46.5-46.5
	C1015.2,951.7,994.3,930.9,968.6,930.9z M807.9,930.9H563.3c0.5-2.8,0.8-5.7,0.8-8.7V555.8l242.9,1.1v365.3
	C807,925.2,807.3,928.1,807.9,930.9z M228.2,922.2v-368l242.9,1.1v366.9c0,3,0.3,5.9,0.8,8.7H227.4
	C227.9,928.1,228.2,925.2,228.2,922.2z"/>
</svg>
