<?xml version="1.0" encoding="utf-8"?>
<!-- Generator: Adobe Illustrator 21.1.0, SVG Export Plug-In . SVG Version: 6.00 Build 0)  -->
<svg version="1.1" id="Calque_1" xmlns="http://www.w3.org/2000/svg" xmlns:xlink="http://www.w3.org/1999/xlink" x="0px" y="0px"
	 viewBox="0 0 1024 1024" style="enable-background:new 0 0 1024 1024;" xml:space="preserve">
<g>
	<path d="M943.8,579.5c-27.4,0-49.6,22.2-49.6,49.6v238.7c0,31.5-25.6,57-57,57l-554.4,0c-31.5,0-57-25.6-57-57v-3.7l329.6,0
		c82.8,0,150.1-67.3,150.1-150.1l0-112.2c73.6-4.3,142.2-35.1,194.8-87.7c56.9-56.9,88.2-132.5,88.2-213s-31.3-156.1-88.2-213
		C843.5,31.3,767.8,0,687.4,0C653,0,619.3,5.8,587.1,17.1c-31.1,11-60,26.9-86,47.4c-41.5,32.7-73.8,76.1-93.4,124.8l-227,0
		c-82.8,0-150.1,67.3-150.1,150.1l0,374.6c0,63.7,39.9,118.2,96,140v13.8c0,86.1,70.1,156.2,156.2,156.2l554.4,0
		c86.1,0,156.2-70.1,156.2-156.2V629.1C993.3,601.7,971.2,579.5,943.8,579.5z M562.5,142.3c35.9-28.3,79.1-43.2,124.9-43.2
		c54,0,104.7,21,142.9,59.2c38.2,38.2,59.2,88.9,59.2,142.9c0,105.3-81,192-183.9,201.2l0-163c0-82.8-67.3-150.1-150.1-150.1
		l-36.2,0C531.1,171.5,545.6,155.6,562.5,142.3z M180.8,288.4l262.5,0c0.1,0,0.2,0,0.4,0c0.2,0,0.3,0,0.5,0l111.3,0
		c28.1,0,51,22.9,51,51l0,374.6c0,28.1-22.9,51-51,51l-374.6,0c-28.1,0-51-22.9-51-51l0-374.6C129.8,311.2,152.7,288.4,180.8,288.4z
		"/>
	<path d="M324,650.2L476.6,562c26.8-15.5,26.8-54.2,0-69.6L324,404.2c-26.8-15.5-60.3,3.9-60.3,34.8l0,176.3
		C263.7,646.3,297.2,665.6,324,650.2z"/>
</g>
</svg>
