<?xml version="1.0" encoding="utf-8"?>
<!-- Generator: Adobe Illustrator 21.1.0, SVG Export Plug-In . SVG Version: 6.00 Build 0)  -->
<svg version="1.1" id="Calque_1" xmlns="http://www.w3.org/2000/svg" xmlns:xlink="http://www.w3.org/1999/xlink" x="0px" y="0px"
	 viewBox="0 0 1024 1024" style="enable-background:new 0 0 1024 1024;" xml:space="preserve">
<g>
	<path d="M944,774.8v-112c0-20.9-5.8-41.4-16.8-59.2c-11-17.8-26.7-32.2-45.5-41.5l-78.8-39.3c-23-11.5-50.9-2.1-62.4,20.9
		c-11.5,23-2.1,50.9,20.9,62.4l78.8,39.3c6.7,3.3,10.8,10,10.8,17.5v109.7c-50.1,17.9-86,65.8-86,122c0,71.4,58.1,129.5,129.5,129.5
		S1024,965.9,1024,894.5C1024,840.6,990.9,794.3,944,774.8z M894.5,931c-20.1,0-36.5-16.4-36.5-36.5s16.4-36.5,36.5-36.5
		s36.5,16.4,36.5,36.5S914.6,931,894.5,931z"/>
	<path d="M666,454.6l-108-53.9V251.1c48.8-18.6,83.5-65.8,83.5-121.1C641.5,58.6,583.4,0.5,512,0.5c-71.4,0-129.5,58.1-129.5,129.5
		c0,54.8,34.3,101.8,82.5,120.7v150.3L146.4,562.3C108.6,581.5,85,619.7,84.8,662l-0.7,111.6C35.5,792.3,1,839.4,1,894.5
		C1,965.9,59.1,1024,130.5,1024S260,965.9,260,894.5c0-55-34.5-102.1-82.9-120.8l0.7-111.1c0-7.4,4.1-14,10.7-17.3l323.2-163.7
		l112.9,56.3c6.7,3.3,13.7,4.9,20.7,4.9c17.1,0,33.5-9.4,41.6-25.8C698.3,494,689,466.1,666,454.6z M130.5,931
		c-20.1,0-36.5-16.4-36.5-36.5s16.4-36.5,36.5-36.5s36.5,16.4,36.5,36.5S150.6,931,130.5,931z M512,93.5c20.1,0,36.5,16.4,36.5,36.5
		c0,18.7-14.1,34.1-32.2,36.2c-1.6-0.2-3.2-0.2-4.8-0.2c-1.4,0-2.8,0.1-4.1,0.2c-17.9-2.3-31.9-17.6-31.9-36.2
		C475.5,109.9,491.9,93.5,512,93.5z"/>
</g>
</svg>
