<?xml version="1.0" encoding="utf-8"?>
<!-- Generator: Adobe Illustrator 17.0.0, SVG Export Plug-In . SVG Version: 6.00 Build 0)  -->
<!DOCTYPE svg PUBLIC "-//W3C//DTD SVG 1.1//EN" "http://www.w3.org/Graphics/SVG/1.1/DTD/svg11.dtd">
<svg version="1.1" id="Calque_1" xmlns="http://www.w3.org/2000/svg" xmlns:xlink="http://www.w3.org/1999/xlink" x="0px" y="0px"
	 width="1024px" height="1024px" viewBox="0 0 1024 1024" enable-background="new 0 0 1024 1024" xml:space="preserve">
<g>
	<title>CN-1280-BORNE-BURALISTES-ICONS</title>
	<g>
		<path d="M198.1,192.5c0,14,11.3,25.3,25.3,25.3c14,0,25.3-11.3,25.3-25.3c0-14-11.4-25.3-25.3-25.3
			C209.5,167.1,198.1,178.5,198.1,192.5 M198.1,320.5c0,14,11.3,25.3,25.3,25.3c14,0,25.3-11.3,25.3-25.3c0-14-11.4-25.3-25.3-25.3
			C209.5,295.1,198.1,306.5,198.1,320.5 M328.2,320.5c0,14,11.3,25.3,25.3,25.3c14,0,25.3-11.3,25.3-25.3c0-14-11.4-25.3-25.3-25.3
			C339.5,295.1,328.2,306.5,328.2,320.5 M472.6,320.5c0,14,11.3,25.3,25.3,25.3c14,0,25.3-11.3,25.3-25.3c0-14-11.4-25.3-25.3-25.3
			C484,295.1,472.6,306.5,472.6,320.5 M631.6,320.5c0,14,11.3,25.3,25.3,25.3c14,0,25.3-11.3,25.3-25.3c0-14-11.4-25.3-25.3-25.3
			C642.9,295.1,631.6,306.5,631.6,320.5 M776,320.5c0,14,11.3,25.3,25.3,25.3c14,0,25.3-11.3,25.3-25.3c0-14-11.4-25.3-25.3-25.3
			C787.4,295.1,776,306.5,776,320.5 M776,465c0,14,11.3,25.3,25.3,25.3c14,0,25.3-11.3,25.3-25.3s-11.4-25.3-25.3-25.3
			C787.4,439.6,776,451,776,465 M198.1,448.5c0,14,11.3,25.3,25.3,25.3c14,0,25.3-11.3,25.3-25.3c0-14-11.4-25.3-25.3-25.3
			C209.5,423.2,198.1,434.5,198.1,448.5 M198.1,704.6c0,14,11.3,25.3,25.3,25.3c14,0,25.3-11.3,25.3-25.3c0-14-11.4-25.3-25.3-25.3
			C209.5,679.2,198.1,690.5,198.1,704.6 M198.1,832.6c0,14,11.3,25.3,25.3,25.3c14,0,25.3-11.3,25.3-25.3c0-14-11.4-25.3-25.3-25.3
			C209.5,807.2,198.1,818.6,198.1,832.6 M776,704.6c0,14,11.3,25.3,25.3,25.3c14,0,25.3-11.3,25.3-25.3c0-14-11.4-25.3-25.3-25.3
			C787.4,679.2,776,690.5,776,704.6 M776,832.6c0,14,11.3,25.3,25.3,25.3c14,0,25.3-11.3,25.3-25.3c0-14-11.4-25.3-25.3-25.3
			C787.4,807.2,776,818.6,776,832.6"/>
		<path d="M989,1023.8H612.9c-11,0-20-9-20-20v-88c0-11,9-20,20-20H989c11,0,20,9,20,20v88C1009,1014.8,1000,1023.8,989,1023.8z
			 M632.9,983.8H969v-48H632.9V983.8z M411.1,1023.8H35c-11,0-20-9-20-20v-88c0-11,9-20,20-20h376.1c11,0,20,9,20,20v88
			C431.1,1014.8,422.1,1023.8,411.1,1023.8z M55,983.8h336.1v-48H55V983.8z M989,648.1H612.9c-11,0-20-9-20-20v-88c0-11,9-20,20-20
			H989c11,0,20,9,20,20v88C1009,639.2,1000,648.1,989,648.1z M632.9,608.1H969v-48H632.9V608.1z M411.1,648.1H35c-11,0-20-9-20-20
			v-88c0-11,9-20,20-20h376.1c11,0,20,9,20,20v88C431.1,639.2,422.1,648.1,411.1,648.1z M55,608.1h336.1v-48H55V608.1z M411.1,128
			H35c-11,0-20-9-20-20V20C15,9,24,0,35,0h376.1c11,0,20,9,20,20v88C431.1,119.1,422.1,128,411.1,128z M55,88h336.1V40H55V88z"/>
	</g>
</g>
</svg>
