<?xml version="1.0" encoding="utf-8"?>
<!-- Generator: Adobe Illustrator 21.1.0, SVG Export Plug-In . SVG Version: 6.00 Build 0)  -->
<svg version="1.1" id="Calque_1" xmlns="http://www.w3.org/2000/svg" xmlns:xlink="http://www.w3.org/1999/xlink" x="0px" y="0px"
	 viewBox="0 0 1024 1024" style="enable-background:new 0 0 1024 1024;" xml:space="preserve">
<g>
	<path d="M775.4,334.9L586.3,145.8c-27.7-27.7-64.5-43-103.7-43c-39.2,0-76,15.3-103.7,43l-336,336C15.3,509.5,0,546.3,0,585.5
		c0,39.2,15.3,76,43,103.7l189.1,189.1c28.6,28.6,66.1,42.9,103.7,42.9c37.6,0,75.1-14.3,103.7-42.9l336-336
		C832.6,485.1,832.6,392.1,775.4,334.9z M709.6,476.5l-336,336c-20.9,20.9-54.9,20.9-75.7,0L108.8,623.4
		c-10.1-10.1-15.7-23.6-15.7-37.9c0-14.3,5.6-27.8,15.7-37.9l336-336c10.1-10.1,23.6-15.7,37.9-15.7c14.3,0,27.8,5.6,37.9,15.7
		l189.1,189.1C730.5,421.6,730.5,455.6,709.6,476.5z"/>
	<path d="M984.6,344L800.6,160c-34.8-34.8-85.9-47.8-133.2-33.9c-24.7,7.3-38.7,33.2-31.5,57.8c6,20.3,24.5,33.4,44.6,33.4
		c4.4,0,8.8-0.6,13.2-1.9c14.6-4.3,30.3-0.3,41,10.4l184.1,184.1c7.8,7.8,12.1,18.2,12.1,29.2s-4.3,21.4-12.1,29.2L599.9,787.2
		c-10.8,10.8-26.5,14.7-41.1,10.4c-24.6-7.4-50.6,6.6-57.9,31.2c-7.4,24.6,6.6,50.6,31.2,57.9c12.7,3.8,25.8,5.7,38.7,5.7
		c35.1,0,69.4-13.8,95-39.4l318.9-318.9c25.4-25.4,39.4-59.1,39.4-95S1010,369.4,984.6,344z"/>
	<path d="M642.8,394.6c-21-14.1-49.5-13.3-69.8,1.7c-16.6,12.2-26,31.8-25,52.4c0.1,2.5-1.9,4.7-4.4,4.8c-0.1,0-0.2,0-0.3,0
		c-20.5-1-40.3,8.4-52.4,24.9c-15,20.3-15.8,48.9-1.7,69.8c18.5,28.2,56.5,36.1,84.7,17.5c18.1-11.9,28.5-32.3,27.5-53.9
		c-0.2-2.6,1.8-4.8,4.4-5c0.2,0,0.3,0,0.6,0c33.8,1.5,62.4-24.6,63.9-58.4C671.3,426.9,660.8,406.4,642.8,394.6z"/>
	<path d="M408.3,580.2L286.7,701.8c-18.2,18.2-18.2,47.7,0,65.8c9.1,9.1,21,13.6,32.9,13.6c11.9,0,23.8-4.5,32.9-13.6L474.1,646
		c18.2-18.2,18.2-47.7,0-65.8C455.9,562,426.4,562,408.3,580.2z"/>
</g>
</svg>
