<svg id="925d1cba-5108-49aa-a4fb-8d49f3629548" data-name="Calque 14" xmlns="http://www.w3.org/2000/svg" viewBox="0 0 890.1 1024"><title>cloturer</title><path d="M881.74,630.63c16.06-16.38,23.76-38.64,21-62.64-6.76-58-65.87-118.75-111.44-154.5l-33.57,33.57c43.61,33.15,93.58,87.66,98,126.33,1.48,12.92-3.55,22.93-15,29.76-15.18,9.09-41.48,10.75-62.25-3.71-14.86-10.27-25.33-18.64-33.92-25.49-19.38-15.46-33.36-26.62-64.32-32.95-4-.82-8.78-1.67-14.1-2.4l-47.07,47.07c20-3.38,40.22-.72,51.7,1.61,19.84,4.06,26.49,9.37,44.3,23.58,7.57,6,16.47,13.15,28.19,21.57a166.68,166.68,0,0,0-50.76,55.14c-22,39.18-28.33,40-41.21,41.62-37.38,5.12-60.77-6.78-81.07-40.14-9.36-15.45-8.87-33.79-6-48.56L519,685.84c2.29,9.32,5.45,18.64,10.94,27.7,30,49.42,71.87,69.81,127.56,62.52,30.13-3.88,47.44-13.8,76.32-65.39,20.95-37.28,57.36-51.13,56.66-51.36,18.46-2.58,60.54-2.35,67.28,15.41,10.06,26.35-12.41,92.79-38.48,132.39-45.4,69.17-121.5,122-220,152.87-118.71,37.32-254,7.89-320.7-33.74l-34.15,34.15C298.68,997.86,389.28,1024,482.83,1024c44,0,88.71-5.77,130.54-18.87,109-34.15,193.89-93.67,245.39-172.07,22.7-34.52,63.12-122.74,43.1-175.16A61.87,61.87,0,0,0,881.74,630.63Z" transform="translate(-66.95 0)"/><path d="M177.7,699.34c0-.06,0-.13,0-.19,0-26.07,3.44-76,7.08-129,3.78-55.07,7.71-112,8.12-147.94.14-13.13-.16-29.76-.48-48.31-1.08-59.43-3.11-170,16.61-197.08,7.11-9.71,18-21.62,29.95-23.16q13.22-1.66,30.62,12.6c12.81,10.42,18.65,63.42,16.05,105.23-12.56,59.14-23.31,111.07-24.27,115.68a23.65,23.65,0,0,0,18.37,27.92,24.36,24.36,0,0,0,4.8.48,23.65,23.65,0,0,0,23.12-18.85c.51-2.45,51.08-246.8,62.64-287.24,9.25-32.35,38.18-65.25,71.34-62.09a22.64,22.64,0,0,1,17.53,9.3c10.84,13.89,12.55,38,10.34,50.73-4.21,23.75-16.78,82.67-20.2,98.65-62,90.27-125.65,197.05-129.63,203.78A23.62,23.62,0,1,0,360.28,434c1.45-2.45,145.88-245.11,208-304.25,53.76-51.15,89.33-28.63,98.93-20.46,8.77,7.41,13,28.79-1.43,66.63-7.23,19-28.14,52.57-53.44,88.74L719.68,157.34c8.91-50-11.18-75-22-84.17-33.87-28.61-96.62-39.87-162,22.36-6,5.74-12.85,13.33-20,21.65.08-.45.21-1.1.29-1.53,4.48-25.54.16-62.69-19.66-88A69.75,69.75,0,0,0,445,.29C386-4.3,339.12,46.75,324.89,96.5c-2.56,8.92-6.83,26.93-11.93,49.43-3.84-6.27-8.19-11.92-13.52-16.25-22.06-18-44.41-25.72-66.49-22.84C210,109.79,189.11,124,170.86,149c-26.9,36.85-27.57,124.06-25.7,225.8.32,18,.62,34.15.48,46.88-.39,34.56-4.27,90.83-8,145.26-3.71,53.73-7.2,104.51-7.2,132.2,0,14,.89,29.25,2.45,45Z" transform="translate(-66.95 0)"/><path d="M943.89,97.06a45.21,45.21,0,0,0-63.81,0l-800,800a45.09,45.09,0,0,0,63.77,63.76l800-800A45.21,45.21,0,0,0,943.89,97.06Z" transform="translate(-66.95 0)"/></svg>