<?xml version="1.0" encoding="utf-8"?>
<!-- Generator: Adobe Illustrator 21.1.0, SVG Export Plug-In . SVG Version: 6.00 Build 0)  -->
<svg version="1.1" id="Calque_1" xmlns="http://www.w3.org/2000/svg" xmlns:xlink="http://www.w3.org/1999/xlink" x="0px" y="0px"
	 viewBox="0 0 1024 1024" style="enable-background:new 0 0 1024 1024;" xml:space="preserve">
<g id="Page-1_1_">
	<g id="icon-1">
		<g id="Page-1" transform="translate(135.000000, 14.000000)">
			<path d="M326.7,1010c-31.4,0-63.4-3-94.9-9.1c-68.8-13.2-130-40.2-163.9-72.2C-8.7,856.5-24.7,756-24.7,684.4
				c0-27.7,3.5-78.4,7.2-132.1c3.7-54.2,7.6-110.2,8-144.5c0.1-12.5-0.1-28.3-0.5-46.7c-1.9-101.7-1.2-188.9,25.9-226
				c18.5-25.3,39.6-39.6,62.9-42.6c22.4-2.9,45.1,4.9,67.4,23.1c18.8,15.3,29.7,44.8,33.2,90.2c2.3,29.8,0.6,56.1,0.5,57.2
				c-0.9,13.8-12.9,24.2-26.7,23.2c-13.8-0.9-24.2-12.9-23.2-26.7c0-0.2,1.6-24.1-0.5-50.4c-3.5-44.3-13.7-53.8-14.9-54.7
				c-11.3-9.2-21.2-13.3-29.4-12.2c-11.4,1.5-22,13-28.9,22.5c-3.5,4.8-12,22-15.4,77.2c-2.3,38.4-1.5,82.8-0.9,118.4
				c0.3,18.7,0.6,34.9,0.5,48.2c-0.4,35.8-4.3,92.5-8.1,147.4c-3.6,52.8-7.1,102.7-7.1,128.6c0,61.7,13.3,147.9,76.9,208
				c52.3,49.4,207.5,92.6,341.4,50.7c97.9-30.7,173.4-83.2,218.5-151.8c9.6-14.6,23.1-40.5,32.2-69.6c8.3-26.5,10.5-49.4,6.1-61.1
				c-5.8-15.3-42.7-17.1-63.2-14.7c-7.8,3.2-39,17.5-57.7,50.7c-29.1,52-46.6,62-77.2,65.9c-56.3,7.4-98.4-13.2-128.6-63
				c-33.7-55.6,0.7-122.1,2.2-124.9c0.3-0.6,0.7-1.3,1.1-1.9c17-26.3,43.8-43.3,77.6-49.3c27.3-4.8,53.4-1.6,70.6,1.9
				c31.2,6.4,45.2,17.6,64.7,33.1c8.9,7.1,19.1,15.2,33.7,25.4c20.3,14.1,45.8,12.5,60.5,3.6c10.8-6.5,15.6-16,14.2-28.2
				c-5.2-44.9-73-112.1-119.4-140.5c-18.4-11.3-47-18.9-80.4-21.3c-28.7-2.1-59.3-0.2-79.9,5c-22.4,5.7-63.1,26.6-94.3,54.4
				c-10.3,9.2-26.1,8.3-35.3-2c-9.2-10.3-8.3-26.1,2-35.3c33.7-30,81.1-57,115.3-65.6c46.4-11.7,141.6-12.8,198.7,22.1
				c28.7,17.6,61.2,45.3,87,74.1c23,25.8,51.5,64.6,55.9,103.3c2.7,23.8-4.7,46-20.3,62.5c10.2,8.4,16,18.1,19.3,26.7
				c8.8,23.2,7.1,54.8-5.1,93.8c-9,28.9-23.3,59.6-38.1,82.1c-51.4,78.4-136.3,137.9-245.3,172.1
				C417.8,1003.5,372.8,1010,326.7,1010z M419.7,598.8c-3.1,6.5-20.7,46-3.3,74.8c19.9,32.7,42.9,44.1,79.4,39.4
				c8.7-1.1,11-1.8,14.3-4.5c6.5-5.2,14.9-17.1,25.7-36.3c14.1-25.1,32.8-42.6,49.4-54.2c-11-8-19.5-14.7-26.6-20.4
				c-17.5-14-24.1-19.2-43.5-23.2C494.2,570,443.3,563.9,419.7,598.8z"/>
			<path d="M185.6,433.1c-4.3,0-8.7-1.1-12.7-3.5c-11.9-7.1-15.8-22.4-8.7-34.3c6-10.2,148.9-250.1,215.6-313.6
				c33-31.5,67.3-46.8,101.8-45.6c32.1,1.1,53.8,16.6,61.6,23.2c9.4,7.9,21.2,22.7,24.4,48c2.6,21-1.3,45.5-11.7,72.8
				c-20,52.7-109.7,172.8-160.4,228.1c-9.3,10.2-25.1,10.9-35.3,1.5c-10.2-9.3-10.9-25.1-1.5-35.3C420,307.3,495.4,198.1,509,162.4
				c8.8-23.2,14.6-54,1.8-64.8c-3-2.6-14.1-10.9-31.1-11.5c-20.6-0.7-42.6,10-65.6,31.8c-61.8,58.8-205.6,300.5-207.1,303
				C202.4,428.7,194.1,433.1,185.6,433.1z"/>
			<path d="M130.3,403.2c-1.7,0-3.4-0.2-5.1-0.5c-13.5-2.8-22.2-16-19.4-29.5c2.1-10.1,51.3-247.8,63.3-289.8
				c7.4-26,22.5-50.2,42.4-68c23-20.6,51-30.9,78.8-28.9c21.1,1.5,39.2,11.1,52.3,27.8c20,25.6,24.4,63.1,19.8,88.9
				c-4.9,27.9-20.7,101.3-21.4,104.4c-2.9,13.5-16.2,22.1-29.7,19.2c-13.5-2.9-22.1-16.2-19.2-29.7c0.2-0.8,16.3-75.6,21-102.5
				c2.5-14.4-0.6-37.4-10-49.4c-4.3-5.6-9.4-8.3-16.4-8.7c-25.1-1.8-58,20.5-69.6,60.9c-11.5,40.3-61.9,283.8-62.4,286.2
				C152.3,395.1,141.9,403.2,130.3,403.2z"/>
		</g>
	</g>
</g>
</svg>
