<?xml version="1.0" encoding="utf-8"?>
<!-- Generator: Adobe Illustrator 23.0.3, SVG Export Plug-In . SVG Version: 6.00 Build 0)  -->
<svg version="1.1" id="Calque_1" xmlns="http://www.w3.org/2000/svg" xmlns:xlink="http://www.w3.org/1999/xlink" x="0px" y="0px"
	 viewBox="0 0 1024 1024" style="enable-background:new 0 0 1024 1024;" xml:space="preserve">
<g>
	<path d="M1006.93,348.76c-1-0.83-2.03-1.62-3.09-2.35L818,204.64V0H206v205.16L0.13,361.63l-0.37,63.4l0,479.68
		c0,66.06,53.74,119.8,119.8,119.8h784.4c66.06,0,119.8-53.74,119.8-119.8V425.45l0.37-63.56L1006.93,348.76z M894.57,381.28
		L818,429.39V322.87L894.57,381.28z M206,425.02l-72.5-46.69l72.5-55.1V425.02z M903.97,930.5h-784.4c-14.23,0-25.8-11.57-25.8-25.8
		V464.55l347.99,224.12c21.44,13.81,46.08,20.72,70.74,20.72c24.21,0,48.44-6.67,69.63-20.02l94.45-59.51
		c21.96-13.84,28.55-42.86,14.71-64.82c-13.84-21.96-42.86-28.55-64.82-14.71l-94.45,59.51c-11.99,7.56-27.44,7.48-39.36-0.2
		L300,485.56V94h424v413c0,2.73,0.25,5.41,0.7,8.02c0.17,8.23,2.5,16.51,7.19,23.99c8.93,14.21,24.21,22,39.84,22
		c8.54,0,17.19-2.33,24.96-7.21l133.08-83.61l0,434.52C929.77,918.93,918.2,930.5,903.97,930.5z"/>
	<path d="M616,286H408c-25.96,0-47,21.04-47,47s21.04,47,47,47h208c25.96,0,47-21.04,47-47S641.96,286,616,286z"/>
	<path d="M616,426H408c-25.96,0-47,21.04-47,47s21.04,47,47,47h208c25.96,0,47-21.04,47-47S641.96,426,616,426z"/>
	<path d="M616,154H408c-25.96,0-47,21.04-47,47s21.04,47,47,47h208c25.96,0,47-21.04,47-47S641.96,154,616,154z"/>
</g>
</svg>
