<?xml version="1.0" encoding="utf-8"?>
<!-- Generator: Adobe Illustrator 21.1.0, SVG Export Plug-In . SVG Version: 6.00 Build 0)  -->
<svg version="1.1" id="Calque_1" xmlns="http://www.w3.org/2000/svg" xmlns:xlink="http://www.w3.org/1999/xlink" x="0px" y="0px"
	 viewBox="0 0 1024 1024" style="enable-background:new 0 0 1024 1024;" xml:space="preserve">
<path d="M982.7,148.2L875.8,41.3c-55.1-55.1-144.8-55.1-199.9,0L122.3,595L31,902.7c-0.9,3-1.6,6-2.1,9.1l-11.7,11.7
	c-23,23-23,60.3,0,83.3c23,23,60.3,23,83.3,0l11.7-11.7c3-0.5,6.1-1.2,9.1-2.1L429,901.7L982.7,348
	C1037.8,293,1037.8,203.3,982.7,148.2z M366.9,797.3l-199.3,59.1l59.1-199.3l400.9-400.9l31.2,31.2c23,23,60.3,23,83.3,0
	c23-23,23-60.3,0-83.3l-31.2-31.2l48.3-48.3c9.2-9.2,24.1-9.2,33.3,0l106.9,106.9c9.2,9.2,9.2,24.1,0,33.3L366.9,797.3z"/>
</svg>
