<?xml version="1.0" encoding="utf-8"?>
<!-- Generator: Adobe Illustrator 17.0.0, SVG Export Plug-In . SVG Version: 6.00 Build 0)  -->
<!DOCTYPE svg PUBLIC "-//W3C//DTD SVG 1.1//EN" "http://www.w3.org/Graphics/SVG/1.1/DTD/svg11.dtd">
<svg version="1.1" id="Calque_1" xmlns="http://www.w3.org/2000/svg" xmlns:xlink="http://www.w3.org/1999/xlink" x="0px" y="0px"
	 width="1024px" height="1024px" viewBox="0 0 1024 1024" enable-background="new 0 0 1024 1024" xml:space="preserve">
<title>CN-1280-BORNE-BURALISTES-ICONS</title>
<g>
	<g>
		<path d="M1001.1,1014.3H22c-11,0-20-9-20-20c0-6.5,3.1-12.2,7.8-15.9c-6.7-9.5-9.3-21.4-7-33c0.3-1.6,0.8-3.1,1.4-4.5l114.3-250.1
			c1-2.2,2.4-4.1,4-5.8l563.9-563.8c7.8-7.8,20.5-7.8,28.3,0l162.9,162.9c1.9,1.9,3.4,4.2,4.4,6.7c3,7.4,1.2,15.9-4.4,21.6
			L313.8,876.2c-1.7,1.7-3.7,3.1-5.8,4l-205.8,94.1h899c11,0,20,9,20,20S1012.1,1014.3,1001.1,1014.3z M42.1,954.4
			c0.1,0.5,0.4,1,0.9,1.5c0.4,0.4,0.9,0.7,1.5,0.8L288,845.4l547.1-547.1L700.6,163.7L153.4,710.8L42.1,954.4z M909.6,269.8
			c-5.3,0-10.4-2.1-14.1-5.9L732.6,101c-7.8-7.8-7.8-20.5,0-28.3l42.9-42.9C789.5,15.8,808.2,8,828.1,8c0,0,0,0,0.1,0
			c19.9,0,38.6,7.8,52.7,21.8l85.8,85.8c14.1,14,21.8,32.7,21.8,52.6c0,19.9-7.7,38.6-21.8,52.7l0,0l-42.9,42.9
			C920,267.7,914.9,269.8,909.6,269.8z M775,86.9l134.6,134.6l28.8-28.8c0,0,0,0,0,0c6.5-6.5,10.1-15.2,10.1-24.4
			c0-9.2-3.6-17.8-10.1-24.3l-85.8-85.8C846,51.6,837.4,48,828.2,48c0,0,0,0,0,0c-9.2,0-17.8,3.6-24.3,10.1L775,86.9z"/>
	</g>
</g>
</svg>
