<?xml version="1.0" encoding="utf-8"?>
<!-- Generator: Adobe Illustrator 21.1.0, SVG Export Plug-In . SVG Version: 6.00 Build 0)  -->
<svg version="1.1" id="Calque_1" xmlns="http://www.w3.org/2000/svg" xmlns:xlink="http://www.w3.org/1999/xlink" x="0px" y="0px"
	 viewBox="0 0 1024 1024" style="enable-background:new 0 0 1024 1024;" xml:space="preserve">
<g>
	<path d="M307.6,1024h420.7c26.9,0,48.6-23.2,46-50.8c-2.4-23.9-23.8-41.8-48-41.8H307.6c-32.1,0-57.8-25.7-57.8-57.6V150
		c0-32,25.7-57.7,57.8-57.7h408.9c31.9,0,57.9,25.7,57.9,57.7v654.2c0,27,23.2,48.6,50.5,45.8c24.1-2.3,41.6-23.8,41.6-47.9V150
		c0-83-67.1-150-150-150H307.6c-82.8,0-150.1,67.1-150.1,150v723.8C157.5,956.8,224.8,1024,307.6,1024z"/>
	<path d="M437,802.4c0,41.3,33.7,74.8,75,74.8c41.3,0,75-33.5,75-74.8c0-41.3-33.7-74.9-75-74.9C470.7,727.5,437,761.1,437,802.4z"
		/>
	<path d="M720.7,637.2V180.6c0-19-15.5-34.6-34.7-34.6H338c-19.2,0-34.5,15.6-34.5,34.6v456.6c0,19.2,15.3,34.6,34.5,34.6h348
		C705.2,671.9,720.7,656.4,720.7,637.2z M628.4,568c0,6.3-5.3,11.5-11.5,11.5H407.5c-6.6,0-11.7-5.3-11.7-11.5V250
		c0-6.4,5.1-11.5,11.7-11.5h209.4c6.2,0,11.5,5.1,11.5,11.5V568z"/>
</g>
</svg>
