<svg id="34cef166-e418-4563-a0ae-ef85cff2b0e1" data-name="Calque 20" xmlns="http://www.w3.org/2000/svg" viewBox="0 0 856.02 1024"><title>frais</title><path d="M940,428C940,191.61,748.4,0,512,0S84,191.61,84,428a430,430,0,0,0,3.66,53.27V599.65C87.65,833.62,278,1024,512,1024S936.35,833.62,936.35,599.65V481.28A430,430,0,0,0,940,428ZM512,57.21c204.48,0,370.8,166.32,370.8,370.8S716.48,798.81,512,798.81,141.2,632.43,141.2,428,307.52,57.21,512,57.21ZM137.09,634.39A430.11,430.11,0,0,0,272.21,782.56V889.91A376.26,376.26,0,0,1,137.09,634.39Zm182.8,288.68v-113a425,425,0,0,0,168.27,44.72V973.95h47.68V854.82a424.87,424.87,0,0,0,194.06-58.9V904.81h2c-62,44.79-137.82,71.52-220,71.52A373.84,373.84,0,0,1,319.89,923.07Zm457.69-56.6V763.27A429.73,429.73,0,0,0,886.91,634.39,375.64,375.64,0,0,1,777.58,866.46Z" transform="translate(-83.99)"/><path d="M540.61,677.42a247.47,247.47,0,0,0,166.26-63.74l-49.32-49a177.59,177.59,0,0,1-116.94,43.48,179.58,179.58,0,0,1-159.62-97H540.61V455.72H362.67a177.82,177.82,0,0,1,0-55.44H540.61V344.84H381A179.76,179.76,0,0,1,657.84,291.4l49-49.09a248.29,248.29,0,0,0-166.26-63.74c-108.65,0-200.65,69.57-235,166.26H208.08v55.44h84.79a232.44,232.44,0,0,0,0,55.44H208.08v55.44h97.55C340,607.85,432,677.42,540.61,677.42Z" transform="translate(-83.99)"/></svg>