<?xml version="1.0" encoding="utf-8"?>
<!-- Generator: Adobe Illustrator 21.1.0, SVG Export Plug-In . SVG Version: 6.00 Build 0)  -->
<svg version="1.1" id="Calque_1" xmlns="http://www.w3.org/2000/svg" xmlns:xlink="http://www.w3.org/1999/xlink" x="0px" y="0px"
	 viewBox="0 0 1024 1024" style="enable-background:new 0 0 1024 1024;" xml:space="preserve">
<g>
	<path d="M185,420.5h6.1c-0.4,6-1,12.3-1,18.7c0,6.3,0.6,12.4,1,18.8H187c-24.2,0-45.8,17.7-48.2,41.6
		c-2.6,27.7,18.9,50.8,46.2,50.8h30.6c0.7,0,1.5,0.6,1.9,1.3C258.6,632,341.9,687,437.9,687c25,0,49.9-3.8,73.8-11.4
		c29.7-9.2,43.4-45.6,22.5-73.2c-11.7-15.5-32.2-20.5-50.8-14.9c-14.6,4.6-30,6.9-45.5,6.9c-39.6,0-75.9-14.9-103.4-39.7
		c-1.5-1.4-0.4-4.2,1.6-4.2h83.5c24.1,0,45.8-17.6,48-41.7c2.8-27.4-18.9-50.7-46-50.7H286.2c-1.2,0-2.2-0.9-2.4-2.4
		c-0.6-5.3-1-10.7-1-16.4s0.4-11.3,1-16.8c0.1-1.1,1.1-1.9,2.4-1.9h133.4c24.1,0,45.8-17.9,48-41.9c2.8-27.7-18.9-50.9-46-50.9
		h-85.5c-2.1,0-3.1-2.5-1.6-3.9c27.5-24.7,63.8-39.7,103.4-39.7c15.5,0,30.9,2.1,45.4,6.7c18.7,5.7,39.2,0.5,51-14.9
		c20.9-27.7,7.1-64.1-22.5-73.3c-23.9-7.5-48.8-11.3-73.8-11.3c-96,0-179.2,55.2-220.4,135.3c-0.4,0.6-1.2,1.1-1.9,1.1H187
		c-24.2,0-45.8,17.7-48.2,41.9C136.2,397.2,157.8,420.5,185,420.5z"/>
	<path d="M439.2,878.3c242,0,439.2-196.9,439.2-439C878.4,197.1,681.2,0,439.2,0C196.9,0-0.1,197.1-0.1,439.3
		C-0.1,681.4,196.9,878.3,439.2,878.3z M439.2,92.5c191.2,0,346.4,155.5,346.4,346.7c0,190.9-155.2,346.5-346.4,346.5
		C248,785.8,92.5,630.1,92.5,439.3C92.5,248,248,92.5,439.2,92.5z"/>
	<path d="M451.8,931.2c-25.6,0-46.3,20.8-46.3,46.4c0,25.5,20.7,46.4,46.3,46.4c315.6,0,572.4-257,572.4-572.7
		c0-25.4-20.8-46.2-46.2-46.2c-25.7,0-46.4,20.8-46.4,46.2C931.4,716.1,716.2,931.2,451.8,931.2z"/>
</g>
</svg>
