<?xml version="1.0" encoding="utf-8"?>
<!-- Generator: Adobe Illustrator 21.1.0, SVG Export Plug-In . SVG Version: 6.00 Build 0)  -->
<svg version="1.1" id="Calque_1" xmlns="http://www.w3.org/2000/svg" xmlns:xlink="http://www.w3.org/1999/xlink" x="0px" y="0px"
	 viewBox="0 0 1024 1024" style="enable-background:new 0 0 1024 1024;" xml:space="preserve">
<path d="M1024,216.8c-1-50.7-21.2-98.3-57.1-134.2c-2.2-2.2-4.5-4.1-7-5.8C882,5.9,761,8,685.8,83.2l-46.1,46.1
	c-0.5,0-0.9,0.1-1.4,0.2l-516,71.4C85.8,206,57.6,233.9,52,270.4c-5.5,36.4,13.2,71.5,46.5,87.2l235.8,110.8L170.5,651.7l-79.2-8.2
	c-35.3-3.6-67.9,14.7-83.1,46.7c-15.2,32-8.9,68.9,16.2,94l21.5,21.5c9.4,9.4,21.8,14.1,34.1,14.1s24.7-4.7,34.1-14.1
	c16.9-16.9,18.7-43.3,5.2-62.2l66.4,6.8c18.5,1.9,35.7-6.9,45.3-21.5l456.8-511.1l66.2-66.2c39.8-39.8,104.5-39.8,144.2,0
	c1.5,1.5,3.1,2.9,4.7,4.1c15.3,17.4,23.9,39.5,24.3,62.9c0.5,25.6-8.8,50-26.2,68.7l-69.8,75.3L315.5,823l-1,0.9l-1,1
	c-19,19-38.9,29.3-57.5,30c-19.5,0.6-34-9.6-42.7-18.3c-18.9-18.9-49.4-18.9-68.3,0c-18.9,18.9-18.9,49.4,0,68.3
	c30.2,30.2,68.8,46.6,109.2,46.6c1.7,0,3.4,0,5.1-0.1c43.2-1.5,85.1-21.2,121.5-57.2l200.6-179l111,236.1
	c13.8,29.5,42.8,47.5,74.4,47.5c4.2,0,8.4-0.3,12.7-1c36.4-5.5,64.3-33.8,69.4-70.3l71.4-516c0.1-1.1,0.2-2.1,0.3-3.1L972,353
	C1006.5,315.8,1024.9,267.4,1024,216.8z M182.3,290.2L537.6,241l-136,152.2L182.3,290.2z M759.7,867.6L656.6,648.1l152.3-135.9
	L759.7,867.6z"/>
</svg>
