<svg id="0cec0121-328c-4e29-b0ca-398f9f51ff92" data-name="Calque 40" xmlns="http://www.w3.org/2000/svg" viewBox="0 0 1024 1022.48"><title>voyages</title><path d="M905.54,408.91c-12,.18-22.56,3.88-32.34,9.18l2.38-114.74,95.14-94.28c37.65-37.28,79.47-139,32.26-186.72S853.59,15.61,816,52.93l-95.13,94.28-114,1.34A67.75,67.75,0,0,0,547.85,48h-.31A67.63,67.63,0,0,0,499.65,67.7L415.8,150.79l-249,2.92A220.72,220.72,0,0,0,13.3,218a44.83,44.83,0,0,0,17.78,74.5,20.46,20.46,0,0,0,4.59.95c2.37.21,237.6,21.57,332.44,52.18,28.51,9.22,63.53,44.83,83.68,68.29L339,525.7c-.45,0-.83-.27-1.29-.28l-149.92-2c-45.11-.27-90.12,17.39-122.38,49.39-7.42,7.35-10,17.34-6.86,26.72,7.21,21.77,36.52,30.67,156.77,47.58,11.12,1.57,20.62,2.88,27.23,4l58,53.28,37,72.41c-.74,6.63-2,16.15-3.48,27.27C318.16,924.41,318.9,955,338,967.83a24.91,24.91,0,0,0,13.95,4.28,27.79,27.79,0,0,0,13.64-3.75A171.93,171.93,0,0,0,446,863l37.43-162.69a21,21,0,0,0,.16-8.56L602.9,573.57c23.39,32.08,58.73,84,67.49,112,31,99,52.69,300.08,53.72,306.13a44.43,44.43,0,0,0,32,30.16,45.36,45.36,0,0,0,11,1.36,44.46,44.46,0,0,0,31.39-13A220.69,220.69,0,0,0,864.1,857.3l5.16-249,83.83-83.09a68,68,0,0,0-47.54-116.32ZM529.35,97.65a25.65,25.65,0,0,1,18.19-7.5c8.77.27,13.43,2.74,18.37,7.66a25.86,25.86,0,0,1-.16,36.5l-15,14.89-74.27.87ZM381.08,305.45c-94.77-30.57-310.75-51.21-338.91-53.8l.82-3.73a178.77,178.77,0,0,1,124.33-52l510.47-6L481.86,384.08C460.52,359.41,420.48,318.19,381.08,305.45ZM845.72,82.88C877.12,51.7,950.94,29.76,973,52s-.54,95.93-32,127.07L840,279.25l-.11.11L454.72,661,346.93,672.49l12.48-107.67ZM256.4,610.67c-6.49-1.3-19.3-3.13-35.22-5.38-23.52-3.3-76.58-10.77-106.7-18.33,21.38-14.11,48.14-20.85,72.69-21.4l129.49,1.76-9.89,85.44-40.25-36.94A20.92,20.92,0,0,0,256.4,610.67ZM365,917.24c.78-31.06,7.79-84.21,10.9-107.73,2.1-15.94,3.77-28.76,4.24-35.39A21.1,21.1,0,0,0,377.87,763L353,714.26l86.06-9.18-34,147.85A129.16,129.16,0,0,1,365,917.24Zm403.79,63-3.54,3c-.91-8.45-22.33-207.3-54.54-310.25-12-38.36-56.17-100.69-77.48-129.44L832.49,346,821.91,856.39A178.63,178.63,0,0,1,768.77,980.23ZM923.42,495.28l-52.91,52.44,1.54-74.28,15-14.85c4.94-4.88,9.48-7.17,18.33-7.5a25.82,25.82,0,0,1,18,44.18Z" transform="translate(0 -0.76)"/></svg>