<?xml version="1.0" encoding="utf-8"?>
<!-- Generator: Adobe Illustrator 21.1.0, SVG Export Plug-In . SVG Version: 6.00 Build 0)  -->
<svg version="1.1" id="Calque_1" xmlns="http://www.w3.org/2000/svg" xmlns:xlink="http://www.w3.org/1999/xlink" x="0px" y="0px"
	 viewBox="0 0 1024 1024" style="enable-background:new 0 0 1024 1024;" xml:space="preserve">
<g>
	<path d="M221.9,829.6h-74.6c-29.5,0-53.5-24-53.5-53.5V467.4c0-29.5,24-53.5,53.5-53.5c25.7,0,46.5-20.8,46.5-46.5
		s-20.8-46.5-46.5-46.5c-80.8,0-146.6,65.8-146.6,146.6v308.7c0,80.8,65.8,146.6,146.6,146.6h74.6c25.7,0,46.5-20.8,46.5-46.5
		C268.5,850.5,247.6,829.6,221.9,829.6z"/>
	<path d="M876.6,320.8H740.7c-25.7,0-46.5,20.8-46.5,46.5s20.8,46.5,46.5,46.5h135.9c29.5,0,53.5,24,53.5,53.5v308.7
		c0,29.5-24,53.5-53.5,53.5H696.2c-25.7,0-46.5,20.8-46.5,46.5c0,25.7,20.8,46.5,46.5,46.5h180.4c80.8,0,146.6-65.8,146.6-146.6
		V467.4C1023.2,386.6,957.5,320.8,876.6,320.8z"/>
	<path d="M841.5,558.3c-2.9-25.1-16.9-47.2-38.4-60.6l-183-113.5l95.7-274.6c12.7-36.5-1.3-76.4-34-97C648.9-7.8,607-3.1,579.5,24.3
		L205.9,397.9c-17.9,17.9-26.5,42.6-23.6,67.7c2.9,25.1,16.9,47.2,38.4,60.6l182.9,113.5L308,914.3c-12.7,36.5,1.3,76.4,34,97
		c13.6,8.5,28.8,12.7,43.9,12.7c21.2,0,42.2-8.3,58.2-24.2l373.7-373.7C835.8,608.1,844.4,583.4,841.5,558.3z M464.2,816.8
		L543,590.5L316.7,450.2l242.9-242.9l-78.8,226.2L707,573.7L464.2,816.8z"/>
</g>
</svg>
