<?xml version="1.0" encoding="utf-8"?>
<!-- Generator: Adobe Illustrator 23.0.3, SVG Export Plug-In . SVG Version: 6.00 Build 0)  -->
<svg version="1.1" id="Calque_1" xmlns="http://www.w3.org/2000/svg" xmlns:xlink="http://www.w3.org/1999/xlink" x="0px" y="0px"
	 viewBox="0 0 1024 1024" style="enable-background:new 0 0 1024 1024;" xml:space="preserve">
<g>
	<path d="M977,478.87c25.96,0,47-21.04,47-47v-65.73C1024,272.88,948.12,197,854.86,197H809V0H215v197h-45.86
		C75.88,197,0,272.88,0,366.14v348.72C0,808.12,75.88,884,169.14,884H215v140h594V884h45.86c93.26,0,169.14-75.88,169.14-169.14
		v-84.29c0-25.96-21.04-47-47-47s-47,21.04-47,47v84.29c0,41.43-33.71,75.14-75.14,75.14H809V507H215v283h-45.86
		C127.71,790,94,756.29,94,714.86V366.14c0-41.43,33.71-75.14,75.14-75.14H215h594h45.86c41.43,0,75.14,33.71,75.14,75.14v65.73
		C930,457.82,951.04,478.87,977,478.87z M309,601h406v329H309V601z M309,197V94h406v103H309z"/>
	<path d="M626,790H398c-25.96,0-47,21.04-47,47s21.04,47,47,47h228c25.96,0,47-21.04,47-47S651.96,790,626,790z"/>
	<path d="M626,658H398c-25.96,0-47,21.04-47,47s21.04,47,47,47h228c25.96,0,47-21.04,47-47S651.96,658,626,658z"/>
	<circle cx="762" cy="406" r="47"/>
</g>
</svg>
