<?xml version="1.0" encoding="utf-8"?>
<!-- Generator: Adobe Illustrator 17.0.0, SVG Export Plug-In . SVG Version: 6.00 Build 0)  -->
<!DOCTYPE svg PUBLIC "-//W3C//DTD SVG 1.1//EN" "http://www.w3.org/Graphics/SVG/1.1/DTD/svg11.dtd">
<svg version="1.1" id="Calque_1" xmlns="http://www.w3.org/2000/svg" xmlns:xlink="http://www.w3.org/1999/xlink" x="0px" y="0px"
	 width="1024px" height="1024px" viewBox="0 0 1024 1024" enable-background="new 0 0 1024 1024" xml:space="preserve">
<title>CN-1280-BORNE-BURALISTES-ICONS</title>
<g>
	<path fill="#333333" d="M491.5,1024c-59.8,0-108.5-48.7-108.5-108.5S431.7,807,491.5,807c59.8,0,108.5,48.7,108.5,108.5
		S551.4,1024,491.5,1024z M491.5,827c-48.8,0-88.5,39.7-88.5,88.5s39.7,88.5,88.5,88.5s88.5-39.7,88.5-88.5S540.3,827,491.5,827z
		 M491.5,724.9c-29.7,0-54.9-9.1-72.8-26.4c-17.9-17.2-27.3-41.3-27.3-69.6V489.7c0-19.8,8.4-34.1,26.4-45.2
		c13.2-8.1,28.2-13.5,62.1-22.2l12-3.1c4.7-1.2,8.5-2.2,12.2-3.2c37.8-10.4,59.3-20.1,76.5-34.6c23.4-19.7,34.8-47.1,34.8-83.7
		c0-28.8-12.7-55.7-35.8-75.8c-21.8-19-50.9-29.9-79.7-29.9c-26.4,0-49.9,7-71.8,21.5c-15.9,10.5-29.2,22.9-50.7,47.3l-2.6,3
		c-3.6,4.2-9.9,11.3-12.1,13.8c-16.3,18.4-27.1,28.6-38.8,36.5c-15.3,10.5-31.1,15.5-48.1,15.5c-25.2,0-46.6-9.7-61.9-27.9
		c-15-17.9-23-42.9-23-72.2c0-33.4,9.6-65.2,28.6-94.5c18.3-28.2,44.8-53.4,78.9-75.1C356.7,23,433.9,0,499.9,0
		C590,0,673,28,733.4,79c31.9,26.9,56.5,59.1,73.3,96c17,37.3,25.6,78.6,25.6,122.8c0,72.1-21.3,133-63.2,181.1
		c-40.9,46.9-100.6,80.5-177.5,99.9l0,50.1c0,27-10.1,51.6-28.4,69C545.2,715.3,519.6,724.9,491.5,724.9z M499.9,172
		c33.6,0,67.4,12.7,92.8,34.8c27.5,24,42.7,56.3,42.7,90.9c0,42.9-13.7,75.2-41.9,99c-19.6,16.5-43.2,27.4-84.2,38.6
		c-3.8,1-7.6,2-12.4,3.3l-12,3.1c-31.6,8.2-45.4,13-56.6,19.9c-12,7.4-16.9,15.6-16.9,28.2v139.1c0,46.9,30.7,76,80.2,76
		c47.2,0,80.2-31.3,80.2-76v-65.7l15.1-3.8c147.6-37.3,225.6-127.7,225.6-261.7c0-82.5-31.8-152.9-91.8-203.5
		C663.7,46.4,585.3,20,499.9,20c-62.4,0-135.5,21.8-190.7,56.9C245,117.7,211,170.5,211,229.6c0,24.6,6.3,45.1,18.3,59.4
		c11.4,13.6,27.5,20.8,46.6,20.8c13,0,24.7-3.8,36.8-12.1c10.2-6.9,20-16.3,35.1-33.3c2.2-2.5,8.4-9.6,12-13.7l2.6-3
		c22.8-25.9,37.1-39.2,54.6-50.8C442.3,180.1,469.4,172,499.9,172z"/>
</g>
</svg>
