<?xml version="1.0" encoding="utf-8"?>
<!-- Generator: Adobe Illustrator 17.0.0, SVG Export Plug-In . SVG Version: 6.00 Build 0)  -->
<!DOCTYPE svg PUBLIC "-//W3C//DTD SVG 1.1//EN" "http://www.w3.org/Graphics/SVG/1.1/DTD/svg11.dtd">
<svg version="1.1" id="Calque_1" xmlns="http://www.w3.org/2000/svg" xmlns:xlink="http://www.w3.org/1999/xlink" x="0px" y="0px"
	 width="1024px" height="1024px" viewBox="0 0 1024 1024" enable-background="new 0 0 1024 1024" xml:space="preserve">
<title>CN-1280-BORNE-BURALISTES-ICONS</title>
<path d="M512,0C229.4,0,0,229.4,0,512s229.4,512,512,512s512-229.4,512-512S794.6,0,512,0z M503.1,724.6c-26,0-47.2-21.2-47.2-47.2
	c0-26,21.2-47.2,47.2-47.2c26,0,47.2,21.2,47.2,47.2C550.3,703.4,529.1,724.6,503.1,724.6z M546.6,531v21.8
	c0,24.2-18.2,41.8-43.6,41.8c-27.2,0-43.6-17.5-43.6-41.8v0v-60.5c0-21.8,24.2-25.4,49-32.1c24.2-6.7,48.4-16.3,48.4-51.4
	c0-26.6-24.8-46-50.2-46c-50.8,0-58.7,59.9-97.4,59.9c-21.8,0-36.9-16.9-36.9-43.6c0-63.5,79.9-99.8,134.3-99.8
	c78.1,0,144.6,48.4,144.6,129.5C651.3,475.9,609,515.3,546.6,531z"/>
</svg>
