<?xml version="1.0" encoding="utf-8"?>
<!-- Generator: Adobe Illustrator 17.0.0, SVG Export Plug-In . SVG Version: 6.00 Build 0)  -->
<!DOCTYPE svg PUBLIC "-//W3C//DTD SVG 1.1//EN" "http://www.w3.org/Graphics/SVG/1.1/DTD/svg11.dtd">
<svg version="1.1" id="Calque_1" xmlns="http://www.w3.org/2000/svg" xmlns:xlink="http://www.w3.org/1999/xlink" x="0px" y="0px"
	 width="1024px" height="1024px" viewBox="0 0 1024 1024" enable-background="new 0 0 1024 1024" xml:space="preserve">
<g>
	<title>CN-1280-BORNE-BURALISTES-ICONS</title>
	<g>
		<path fill="#F57528" d="M512,1024c-69.1,0-136.1-13.5-199.2-40.3C251.8,957.9,197,921,150,874c-47-47-84-101.8-109.8-162.7
			C13.5,648.1,0,581.1,0,512s13.5-136.1,40.3-199.2C66.1,251.8,103,197,150,150s101.8-84,162.7-109.8C375.9,13.5,442.9,0,512,0
			s136.1,13.5,199.2,40.3C772.2,66.1,827,103,874,150c47,47,84,101.8,109.8,162.7c26.7,63.1,40.3,130.2,40.3,199.2
			s-13.5,136.1-40.3,199.2C957.9,772.2,921,827,874,874c-47,47-101.8,84-162.7,109.8C648.1,1010.5,581.1,1024,512,1024z M512,40
			c-63.7,0-125.5,12.5-183.7,37.1c-56.2,23.8-106.7,57.8-150,101.2c-43.4,43.4-77.4,93.8-101.2,150C52.5,386.5,40,448.3,40,512
			s12.5,125.5,37.1,183.7c23.8,56.2,57.8,106.7,101.2,150c43.4,43.4,93.8,77.4,150,101.2c58.2,24.6,120,37.1,183.7,37.1
			s125.5-12.5,183.7-37.1c56.2-23.8,106.7-57.8,150-101.2c43.4-43.4,77.4-93.9,101.2-150c24.6-58.2,37.1-120,37.1-183.7
			s-12.5-125.5-37.1-183.7c-23.8-56.2-57.8-106.7-101.2-150c-43.4-43.4-93.9-77.4-150-101.2C637.5,52.5,575.7,40,512,40z"/>
		<path fill="#F57528" d="M459.5,552.8c0,24.2,16.3,41.8,43.6,41.8c25.4,0,43.6-17.5,43.6-41.8V531
			c62.3-15.7,104.7-55.1,104.7-122.2c0-81.1-66.6-129.5-144.6-129.5c-54.5,0-134.3,36.3-134.3,99.8c0,26.6,15.1,43.6,36.9,43.6
			c38.7,0,46.6-59.9,97.4-59.9c25.4,0,50.2,19.4,50.2,46c0,35.1-24.2,44.8-48.4,51.4c-24.8,6.7-49,10.3-49,32.1V552.8L459.5,552.8z
			 M503.1,724.6c26,0,47.2-21.2,47.2-47.2c0-26-21.2-47.2-47.2-47.2c-26,0-47.2,21.2-47.2,47.2C455.9,703.4,477,724.6,503.1,724.6z"
			/>
	</g>
</g>
</svg>
