<?xml version="1.0" encoding="utf-8"?>
<!-- Generator: Adobe Illustrator 21.1.0, SVG Export Plug-In . SVG Version: 6.00 Build 0)  -->
<svg version="1.1" id="Calque_1" xmlns="http://www.w3.org/2000/svg" xmlns:xlink="http://www.w3.org/1999/xlink" x="0px" y="0px"
	 viewBox="0 0 1024 1024" style="enable-background:new 0 0 1024 1024;" xml:space="preserve">
<path d="M641,1024c-8.4,0-16.8-1.7-24.8-5.1c-23.3-9.9-38.3-32.7-38.3-58V838.3H47c-25.6,0-46.3-20.7-46.3-46.3s20.7-46.3,46.3-46.3
	h623.5v146.2L917,656.4L670.5,430.3v143.6H226.4c-25.6,0-46.3-20.7-46.3-46.3s20.7-46.3,46.3-46.3h351.5V363.2
	c0-24.8,14.6-47.4,37.2-57.5c22.6-10.2,49.2-6.1,67.7,10.3l0.6,0.5l319.4,293c12.8,11.8,20.3,28.5,20.4,45.9
	c0.2,17.4-6.9,34.3-19.5,46.3l-319.2,304.9C672.6,1017.9,657,1024,641,1024z M620.6,939.5C620.6,939.5,620.6,939.5,620.6,939.5
	L620.6,939.5z"/>
<path d="M394.5,14.5c-18-18-47.2-18-65.3,0L204,139.8L78.8,14.6c-18-18-47.2-18-65.3,0c-18,18-18,47.2,0,65.3l125.2,125.2
	L13.6,330.2c-18,18-18,47.2,0,65.3c18,18,47.2,18,65.3,0L204,270.3l125.2,125.2c18,18,47.2,18,65.3,0c18-18,18-47.2,0-65.3
	L269.3,205L394.5,79.8C412.5,61.8,412.5,32.6,394.5,14.5z"/>
</svg>
