<?xml version="1.0" encoding="utf-8"?>
<!-- Generator: Adobe Illustrator 21.1.0, SVG Export Plug-In . SVG Version: 6.00 Build 0)  -->
<svg version="1.1" id="Calque_1" xmlns="http://www.w3.org/2000/svg" xmlns:xlink="http://www.w3.org/1999/xlink" x="0px" y="0px"
	 viewBox="0 0 1024 1024" style="enable-background:new 0 0 1024 1024;" xml:space="preserve">
<g>
	<path d="M621.9,498L439,384.6l95.6-274.4c12.7-36.5-1.3-76.4-34-96.9C467.8-7.2,425.9-2.5,398.5,24.9L25.1,398.3
		C7.2,416.2-1.4,440.9,1.5,466c2.9,25.1,16.9,47.2,38.4,60.6L222.7,640l-95.6,274.4c-12.7,36.5,1.3,76.4,34,96.9
		c13.6,8.5,28.8,12.7,43.9,12.7c21.2,0,42.2-8.3,58.2-24.2l373.5-373.5c17.9-17.9,26.5-42.6,23.6-67.7
		C657.4,533.5,643.4,511.4,621.9,498z M283.2,816.9L362,590.8L135.8,450.5l242.8-242.8l-78.8,226.1L525.9,574L283.2,816.9z"/>
	<path d="M885.3,205l125.2-125.2c18-18,18-47.2,0-65.3c-18-18-47.2-18-65.3,0L820,139.8L694.8,14.6c-18-18-47.2-18-65.3,0
		c-18,18-18,47.2,0,65.3l125.2,125.2L629.6,330.2c-18,18-18,47.2,0,65.3c18,18,47.2,18,65.3,0L820,270.3l125.2,125.2
		c18,18,47.2,18,65.3,0c18-18,18-47.2,0-65.3L885.3,205z"/>
</g>
</svg>
