<?xml version="1.0" encoding="utf-8"?>
<!-- Generator: Adobe Illustrator 21.1.0, SVG Export Plug-In . SVG Version: 6.00 Build 0)  -->
<svg version="1.1" id="Calque_1" xmlns="http://www.w3.org/2000/svg" xmlns:xlink="http://www.w3.org/1999/xlink" x="0px" y="0px"
	 viewBox="0 0 1024 1024" style="enable-background:new 0 0 1024 1024;" xml:space="preserve">
<path d="M412.5,500.1h3.9c-0.3,3.8-0.6,7.8-0.6,11.9c0,4,0.4,7.9,0.6,12h-2.6c-15.4,0-29.1,11.3-30.6,26.5
	c-1.7,17.6,12,32.3,29.4,32.3H432c0.4,0,1,0.4,1.2,0.8c26.1,51.1,79.1,86,140.1,86c15.9,0,31.7-2.4,46.9-7.2
	c18.9-5.8,27.6-29,14.3-46.5c-7.4-9.9-20.5-13-32.3-9.5c-9.3,2.9-19.1,4.4-28.9,4.4c-25.2,0-48.3-9.5-65.7-25.2
	c-1-0.9-0.3-2.7,1-2.7h53.1c15.3,0,29.1-11.2,30.5-26.5c1.8-17.4-12-32.2-29.2-32.2h-86.1c-0.8,0-1.4-0.6-1.5-1.5
	c-0.4-3.4-0.6-6.8-0.6-10.4c0-3.6,0.3-7.2,0.6-10.7c0.1-0.7,0.7-1.2,1.5-1.2h84.8c15.3,0,29.1-11.4,30.5-26.6
	c1.8-17.6-12-32.4-29.2-32.4h-54.4c-1.3,0-2-1.6-1-2.5c17.5-15.7,40.6-25.2,65.7-25.2c9.9,0,19.6,1.3,28.9,4.3
	c11.9,3.6,24.9,0.3,32.4-9.5c13.3-17.6,4.5-40.8-14.3-46.6c-15.2-4.8-31-7.2-46.9-7.2c-61,0-113.9,35.1-140.1,86
	c-0.3,0.4-0.8,0.7-1.2,0.7h-18.2c-15.4,0-29.1,11.3-30.6,26.6C381.5,485.3,395.2,500.1,412.5,500.1z"/>
<g>
	<path d="M1005.1,465.6c-21.1-17.5-52.4-14.7-69.9,6.4l-34.4,41.4V412.5c0-50.5-9-99.9-26.9-146.7c-17.2-45.2-42.1-86.8-73.9-123.5
		C721.6,51.9,607.9,0,488.3,0c-71.9,0-142.6,18.8-204.7,54.3c-60.1,34.4-111,83.8-147.3,142.9c-14.3,23.4-7,53.9,16.4,68.2
		s53.9,7,68.2-16.4c27.5-44.9,66.2-82.5,111.9-108.7c47.1-26.9,100.8-41.2,155.4-41.2c90.8,0,177.1,39.4,236.7,108.1
		c24.2,27.9,43.1,59.4,56.1,93.8c13.5,35.5,20.4,73,20.4,111.4v97l-36-39.3c-18.5-20.2-49.9-21.6-70.1-3.1
		c-20.2,18.5-21.6,49.9-3.1,70.1L820.5,677c9.4,10.3,22.7,16.1,36.6,16.1c0.4,0,0.8,0,1.2,0c14.3-0.3,27.8-6.9,37-17.9l116.3-139.8
		C1029.1,514.4,1026.2,483.1,1005.1,465.6z"/>
	<path d="M871.2,758.5c-23.4-14.3-53.9-7-68.2,16.4c-27.5,44.9-66.2,82.5-111.9,108.7c-47.1,26.9-100.8,41.2-155.4,41.2
		c-90.8,0-177.1-39.4-236.7-108.1c-24.2-27.9-43.1-59.4-56.1-93.8c-13.5-35.5-20.4-73-20.4-111.4v-97l36,39.3
		c18.5,20.2,49.9,21.6,70.1,3.1s21.6-49.9,3.1-70.1L203.5,347c-9.7-10.6-23.5-16.4-37.8-16.1s-27.8,6.9-37,17.9L12.5,488.5
		c-17.5,21.1-14.7,52.4,6.4,69.9c9.3,7.7,20.5,11.5,31.7,11.5c14.2,0,28.4-6.1,38.2-17.9l34.4-41.4v100.9c0,50.5,9,99.9,26.9,146.7
		c17.2,45.2,42.1,86.8,73.9,123.5c78.5,90.4,192.1,142.3,311.7,142.3c71.9,0,142.6-18.8,204.7-54.3c60.1-34.4,111-83.8,147.3-142.9
		C901.9,803.4,894.6,772.8,871.2,758.5z"/>
</g>
</svg>
