<?xml version="1.0" encoding="utf-8"?>
<!-- Generator: Adobe Illustrator 23.0.3, SVG Export Plug-In . SVG Version: 6.00 Build 0)  -->
<svg version="1.1" id="Calque_1" xmlns="http://www.w3.org/2000/svg" xmlns:xlink="http://www.w3.org/1999/xlink" x="0px" y="0px"
	 viewBox="0 0 1024 1024" style="enable-background:new 0 0 1024 1024;" xml:space="preserve">
<g>
	<path d="M913.8,929.8h-47.1v-267c0-16.4-8.6-31.7-22.6-40.2L668.3,515.4l173.3-91.5c15.4-8.2,25.1-24.2,25.1-41.6V94.2h47.1
		c26,0,47.1-21.1,47.1-47.1S939.8,0,913.8,0H110.2c-26,0-47.1,21.1-47.1,47.1s21.1,47.1,47.1,47.1h48.1v288.1
		c0,17.5,9.7,33.5,25.1,41.6l173.3,91.5L180.9,622.6c-14,8.5-22.6,23.8-22.6,40.2v267h-48.1c-26,0-47.1,21.1-47.1,47.1
		s21.1,47.1,47.1,47.1h803.6c26,0,47.1-21.1,47.1-47.1S939.8,929.8,913.8,929.8z M772.5,929.8h-520V689.2l223.9-136.5
		c14.5-8.8,23.1-24.7,22.6-41.7c-0.5-16.9-10.1-32.3-25.1-40.2l-221.4-117V94.2h520v259.7l-221.4,117c-15,7.9-24.5,23.3-25.1,40.2
		c-0.5,16.9,8.1,32.8,22.6,41.7l223.9,136.5V929.8z"/>
	<circle cx="512" cy="599.2" r="35.1"/>
	<circle cx="512" cy="699.4" r="35.1"/>
	<path d="M515,409.8L515,409.8c13.2,0.3,26.5-2.4,38.7-8.3l133.4-64c15.7-7.5,25.6-23.4,25.6-40.7v-0.3c0-24.9-20.2-45.2-45.2-45.2
		H515v0.1H362.5c-24.9,0-45.2,20.2-45.2,45.2v0.3c0,17.4,10,33.2,25.6,40.7l133.4,64C488.5,407.4,501.8,410.1,515,409.8z"/>
	<path d="M515,758.9L515,758.9c-10.2-0.2-20.5,1.9-30,6.4l-103.5,49.6c-12.2,5.8-19.9,18.1-19.9,31.6v0.2
		c0,19.4,15.7,35.1,35.1,35.1H515v0h118.4c19.4,0,35.1-15.7,35.1-35.1v-0.2c0-13.5-7.7-25.8-19.9-31.6L545,765.3
		C535.5,760.7,525.3,758.6,515,758.9z"/>
</g>
</svg>
