<?xml version="1.0" encoding="utf-8"?>
<!-- Generator: Adobe Illustrator 23.0.3, SVG Export Plug-In . SVG Version: 6.00 Build 0)  -->
<svg version="1.1" id="Calque_1" xmlns="http://www.w3.org/2000/svg" xmlns:xlink="http://www.w3.org/1999/xlink" x="0px" y="0px"
	 viewBox="0 0 1024 1024" style="enable-background:new 0 0 1024 1024;" xml:space="preserve">
<g>
	<path d="M986.7,220.8l-83.2-102.5C871.7,79,824.4,56.5,773.8,56.5H167c-92.1,0-167,74.9-167,167v577c0,92.1,74.9,167,167,167h690
		c92.1,0,167-74.9,167-167V326C1024,287.9,1010.8,250.5,986.7,220.8z M264.1,150.5h235.5V208c0,26,21,47,47,47s47-21,47-47v-57.5
		h56.3v99.4c0,27.1-22,49.1-49.1,49.1H313.2c-27.1,0-49.1-22-49.1-49.1V150.5z M759.9,873.5H264.1V669.6c0-27.1,22-49.1,49.1-49.1
		h397.5c27.1,0,49.1,22,49.1,49.1V873.5z M930,800.5c0,40.3-32.7,73-73,73h-3.1V669.6c0-78.9-64.2-143.1-143.1-143.1H313.2
		c-78.9,0-143.1,64.2-143.1,143.1v203.9H167c-40.3,0-73-32.7-73-73v-577c0-40.3,32.7-73,73-73h3.1v99.4
		c0,78.9,64.2,143.1,143.1,143.1h287.5c78.9,0,143.1-64.2,143.1-143.1v-99.4h29.9c22.1,0,42.8,9.8,56.7,27l83.2,102.5
		c10.5,13,16.3,29.3,16.3,46V800.5z"/>
	<path d="M662,697H362c-26,0-47,21-47,47s21,47,47,47h300c26,0,47-21,47-47S688,697,662,697z"/>
</g>
</svg>
