<?xml version="1.0" encoding="utf-8"?>
<!-- Generator: Adobe Illustrator 22.0.1, SVG Export Plug-In . SVG Version: 6.00 Build 0)  -->
<svg version="1.1" id="Calque_1" xmlns="http://www.w3.org/2000/svg" xmlns:xlink="http://www.w3.org/1999/xlink" x="0px" y="0px"
	 viewBox="0 0 1024 1024" style="enable-background:new 0 0 1024 1024;" xml:space="preserve">
<path d="M1024,961.6c0.2-16.4-6-32.9-18.5-45.4L778.8,689.5c-14.9-14.9-35.2-20.8-54.5-17.7c59.2-71,94.9-162.4,94.9-262.2
	C819.2,183.4,635.8,0,409.6,0S0,183.4,0,409.6s183.4,409.6,409.6,409.6c99.7,0,191.1-35.6,262.2-94.9c-3,19.2,2.9,39.6,17.7,54.5
	l226.7,226.7c12.6,12.6,29.2,18.8,45.7,18.5c16,0.3,32-5.7,44.2-17.9C1018.4,993.9,1024.3,977.7,1024,961.6z M409.6,688.6
	c-154.1,0-279-124.9-279-279s124.9-279,279-279s279,124.9,279,279S563.7,688.6,409.6,688.6z"/>
</svg>
