<?xml version="1.0" encoding="utf-8"?>
<!-- Generator: Adobe Illustrator 21.1.0, SVG Export Plug-In . SVG Version: 6.00 Build 0)  -->
<svg version="1.1" id="Calque_1" xmlns="http://www.w3.org/2000/svg" xmlns:xlink="http://www.w3.org/1999/xlink" x="0px" y="0px"
	 viewBox="0 0 1024 1024" style="enable-background:new 0 0 1024 1024;" xml:space="preserve">
<style type="text/css">
	.st0{fill:#F57528;}
</style>
<g id="Page-1_1_">
	<g id="icon-1-copy-9">
		<g id="Page-1">
			<path id="Combined-Shape" d="M409.6,819.2C183.4,819.2,0,635.8,0,409.6S183.4,0,409.6,0c226.2,0,409.6,183.4,409.6,409.6
				S635.8,819.2,409.6,819.2z M688.6,409.6c0-154.1-124.9-279-279-279c-154.1,0-279,124.9-279,279s124.9,279,279,279
				C563.7,688.6,688.6,563.7,688.6,409.6z"/>
			<path id="Fill-1" class="st0" d="M1006.1,1006.1L1006.1,1006.1c-23.9,23.9-62.5,23.9-86.4,0L700.6,786.9
				c-23.9-23.9-23.9-62.5,0-86.4l0,0c23.8-23.9,62.5-23.9,86.4,0l219.2,219.2C1030,943.6,1030,982.3,1006.1,1006.1"/>
			<path id="Stroke-3" d="M1005.5,1005.5L1005.5,1005.5c-24.7,24.7-64.6,24.7-89.3,0L689.5,778.8c-24.7-24.7-24.7-64.7,0-89.3l0,0
				c24.6-24.7,64.6-24.7,89.3,0l226.7,226.7C1030.2,940.9,1030.2,980.8,1005.5,1005.5L1005.5,1005.5z"/>
		</g>
	</g>
</g>
</svg>
