<?xml version="1.0" encoding="utf-8"?>
<!-- Generator: Adobe Illustrator 21.1.0, SVG Export Plug-In . SVG Version: 6.00 Build 0)  -->
<svg version="1.1" id="Calque_1" xmlns="http://www.w3.org/2000/svg" xmlns:xlink="http://www.w3.org/1999/xlink" x="0px" y="0px"
	 viewBox="0 0 1024 1024" style="enable-background:new 0 0 1024 1024;" xml:space="preserve">
<path d="M1010.4,944.4l-362-362c38.4-49.6,62.9-107.9,71.6-170.9c5.2-37.8,4.5-75.9-2.2-113.4c-6.8-38.1-19.5-74.6-37.9-108.5
	c-12.2-22.6-40.5-31-63.1-18.8c-22.6,12.2-31,40.5-18.8,63.1c27,49.8,37.6,108.4,29.8,164.9c-8.1,58.3-34.4,111.2-76.1,153
	c-50.7,50.7-118.2,78.7-190,78.7s-139.2-27.9-190-78.7c-50.7-50.7-78.7-118.2-78.7-190c0-71.8,27.9-139.2,78.7-190
	c41.3-41.3,93.7-67.6,151.3-75.9c55.8-8.1,113.9,1.8,163.5,27.9c22.8,11.9,50.9,3.2,62.8-19.6c11.9-22.8,3.2-50.9-19.6-62.8
	c-33.8-17.7-70-29.9-107.7-36.3c-37.2-6.3-75-6.7-112.3-1.3c-77.7,11.2-148.2,46.6-203.8,102.2c-34.5,34.5-61.2,74.8-79.5,119.7
	C8.9,269.1,0,314.9,0,361.9c0,47,8.9,92.7,26.5,136.1c18.2,44.9,44.9,85.2,79.5,119.7c34.5,34.5,74.8,61.2,119.7,79.5
	c43.3,17.6,89.1,26.5,136.1,26.5c47,0,92.7-8.9,136.1-26.5c30.5-12.4,58.9-28.7,84.9-48.8l361.9,361.9c9.1,9.1,21,13.6,32.9,13.6
	s23.8-4.5,32.9-13.6C1028.5,992.1,1028.5,962.6,1010.4,944.4z"/>
</svg>
