<?xml version="1.0" encoding="utf-8"?>
<!-- Generator: Adobe Illustrator 23.0.3, SVG Export Plug-In . SVG Version: 6.00 Build 0)  -->
<svg version="1.1" id="Calque_1" xmlns="http://www.w3.org/2000/svg" xmlns:xlink="http://www.w3.org/1999/xlink" x="0px" y="0px"
	 viewBox="0 0 1024 1024" style="enable-background:new 0 0 1024 1024;" xml:space="preserve">
<g>
	<path d="M445.87,447.89c20.14,13.34,43.13,20,66.13,20c23.14,0,46.3-6.76,66.52-20.26l351.25-227.7v168.82c0,25.96,21.04,47,47,47
		s47-21.04,47-47v-192.7c0-66.06-53.74-119.8-119.8-119.8h-784.4c-38.1,0-72.09,17.88-94.05,45.68c-1.53,1.77-2.95,3.67-4.24,5.71
		C7.73,147.05-0.23,170.63-0.23,196.05v479.4c0,66.06,53.74,119.8,119.8,119.8h373.91c25.96,0,47-21.04,47-47s-21.04-47-47-47
		H119.57c-14.23,0-25.8-11.57-25.8-25.8V228.54L445.87,447.89z M527.08,368.95l-0.68,0.45c-8.75,5.89-20.06,5.89-28.81,0l-0.69-0.46
		L177.98,170.25H833.6L527.08,368.95z"/>
	<path d="M1006.1,548.12c-11.27-23.75-27.29-44.97-47.62-63.09c-40.73-36.29-94.52-56.28-151.48-56.28s-110.75,19.99-151.48,56.28
		c-20.33,18.12-36.35,39.34-47.62,63.09c-11.88,25.02-17.9,51.64-17.9,79.12v210.17c0,60.84,49.5,110.34,110.34,110.34h213.14
		c60.77,0,110.27-49.44,110.34-110.22l0.18-158.65v-51.64C1024,599.76,1017.98,573.14,1006.1,548.12z M807,522.75
		c67.82,0,123,46.87,123,104.49v4.63H684v-4.63C684,569.62,739.18,522.75,807,522.75z M913.48,853.75H700.34
		c-9.01,0-16.34-7.33-16.34-16.34V725.87h245.95l-0.13,111.56C929.81,846.43,922.48,853.75,913.48,853.75z"/>
	<path d="M807,745.75c-14.55,0-26.34,11.79-26.34,26.34v20.3c0,3.33,2.7,6.04,6.04,6.04s6.04,2.7,6.04,6.04v17.01
		c0,7.88,6.39,14.27,14.27,14.27s14.27-6.39,14.27-14.27v-17.01c0-3.33,2.7-6.04,6.04-6.04s6.04-2.7,6.04-6.04v-20.3
		C833.34,757.54,821.55,745.75,807,745.75z"/>
</g>
</svg>
