<?xml version="1.0" encoding="utf-8"?>
<!-- Generator: Adobe Illustrator 23.0.3, SVG Export Plug-In . SVG Version: 6.00 Build 0)  -->
<svg version="1.1" id="Calque_1" xmlns="http://www.w3.org/2000/svg" xmlns:xlink="http://www.w3.org/1999/xlink" x="0px" y="0px"
	 viewBox="0 0 1024 1024" style="enable-background:new 0 0 1024 1024;" xml:space="preserve">
<path d="M1024,745.17V355.06c0-25.21-6.97-49.59-20.16-70.5c-12.34-19.58-29.81-35.7-50.52-46.6
	c-20.71-10.91-43.88-16.19-67.01-15.3c-24.71,0.96-48.76,9-69.54,23.26L512,455L203.44,243.32c-1.69-1.16-3.4-2.25-5.13-3.32H634
	c25.96,0,47-21.04,47-47s-21.04-47-47-47H177.08C79.71,146,0.5,225.21,0.5,322.58v16.65c-0.32,3.72-0.5,7.46-0.5,11.24v339.7
	C0,793.74,84.26,878,187.83,878h19.87h407.8v46.31c0,54.97,44.72,99.69,99.69,99.69h209.62c54.97,0,99.69-44.72,99.69-99.69V752
	C1024.5,749.68,1024.32,747.4,1024,745.17z M727.63,705c10.82-43.04,49.84-75,96.19-75s85.37,31.96,96.19,75H727.63z M207.7,784
	c-62.42,0-113.2-50.78-113.2-113.2V344.18c2.47-15.29,13.58-22.81,18.69-25.5c5.77-3.04,20.93-8.91,37.07,2.16l335.15,229.92
	c16.02,10.99,37.16,10.99,53.18,0l331.36-227.32c17.23-11.82,33.41-5.55,39.57-2.31c6.16,3.24,20.48,13.04,20.48,33.93v212.82
	C899.51,547.74,863.02,536,823.82,536c-102.46,0-186.53,80.18-192.79,181.09c-9.54,8.6-15.53,21.05-15.53,34.91v32H207.7z
	 M924.81,930H715.19c-3.14,0-5.69-2.55-5.69-5.69V814h221v110.31C930.5,927.45,927.95,930,924.81,930z"/>
</svg>
