<svg id="b48f5ef5-cbd1-43b7-9dc4-a3ea49f8741f" data-name="Calque 1" xmlns="http://www.w3.org/2000/svg" viewBox="0 0 1024 1023.71"><title>icon-share</title><path d="M404.54,218.1,465,157.64v467a47,47,0,0,0,94,0V156.05c19.89,20.73,40.25,41.84,60.46,62a47,47,0,0,0,66.47-66.47c-22.77-22.77-46.11-47.11-68.68-70.64-20.17-21-41-42.79-61.69-63.64A58.14,58.14,0,0,0,514.1,0H514a58.2,58.2,0,0,0-41.43,17.16L338.07,151.63a47,47,0,1,0,66.47,66.47Z" transform="translate(0 -0.01)"/><path d="M965.93,283.81c-52.4-52.41-115.49-58.06-140.18-58.06a47,47,0,0,0,0,94c10.13,0,45.38,2.2,73.72,30.53A103.57,103.57,0,0,1,930,424V825.47A104.37,104.37,0,0,1,825.75,929.72H198.25A104.37,104.37,0,0,1,94,825.47V424A104.37,104.37,0,0,1,198.25,319.75a47,47,0,0,0,0-94C88.93,225.75,0,314.68,0,424V825.47c0,109.31,88.93,198.25,198.25,198.25h627.5c109.32,0,198.25-88.94,198.25-198.25V424A197,197,0,0,0,965.93,283.81Z" transform="translate(0 -0.01)"/></svg>