<?xml version="1.0" encoding="utf-8"?>
<!-- Generator: Adobe Illustrator 21.1.0, SVG Export Plug-In . SVG Version: 6.00 Build 0)  -->
<svg version="1.1" id="Calque_1" xmlns="http://www.w3.org/2000/svg" xmlns:xlink="http://www.w3.org/1999/xlink" x="0px" y="0px"
	 viewBox="0 0 1024 1024" style="enable-background:new 0 0 1024 1024;" xml:space="preserve">
<g>
	<path d="M923,204.5c-23.6-10-50.9,1.1-60.9,24.7c-10,23.7,1.1,50.9,24.7,60.9c19.9,8.4,32.7,27.8,32.7,49.3v538
		c0,21.6-12.8,40.9-32.7,49.3c-23.7,10-34.7,37.3-24.7,60.9c7.5,17.7,24.7,28.4,42.8,28.4c6,0,12.2-1.2,18.1-3.7
		c54.3-23,89.5-76,89.5-135v-538C1012.5,280.5,977.4,227.5,923,204.5z"/>
	<path d="M740.4,49.5c-20.6-15.3-49.8-10.9-65,9.7c-15.3,20.6-10.9,49.8,9.7,65c19.7,14.6,36.1,33.8,47.3,55.5
		c3.4,6.6,6.3,13.4,8.7,20.3c-14.2-4.6-29.3-7.1-45.1-7.1h-23.1c-10.8-44.6-33.7-85.6-67-118.9C558.1,26.3,494.6,0,427,0
		S295.9,26.3,248.1,74.1c-33.3,33.3-56.2,74.3-67,118.9H158c-32.3,0-62.9,10.3-88.6,29.8c-17.6,13.4-32.2,30.8-42.1,50.5
		c-10.3,20.4-15.8,43.3-15.8,66.2v538c0,80.8,65.7,146.5,146.5,146.5h538c80.8,0,146.5-65.7,146.5-146.5V359.3
		c0.3-2.2,0.5-4.5,0.5-6.8V253c0-40.2-9.7-80.2-28-115.8C797.3,102.9,771.5,72.5,740.4,49.5z M427,93c67,0,124.5,41.4,148.3,100
		H278.7C302.5,134.4,360,93,427,93z M749.5,877.5c0,29.5-24,53.5-53.5,53.5H158c-29.5,0-53.5-24-53.5-53.5v-538
		c0-16.9,7.7-32.4,21.2-42.7c9.3-7.1,20.5-10.8,32.3-10.8h16v66.5c0,25.7,20.8,46.5,46.5,46.5s46.5-20.8,46.5-46.5V286h320v66.5
		c0,25.7,20.8,46.5,46.5,46.5s46.5-20.8,46.5-46.5V286h16c29.5,0,53.5,24,53.5,53.5V877.5z"/>
</g>
</svg>
