<svg id="6d35e724-9979-4fb0-a0e4-768f803a69e6" data-name="Calque 4" xmlns="http://www.w3.org/2000/svg" viewBox="0 0 865.25 1024"><title>achat</title><path d="M877.72,338a32.43,32.43,0,0,0-32.32-29.18H800.13V228.93C800.13,102.7,695.18,0,566.22,0A236.75,236.75,0,0,0,498.5,10.32C477.52,4.26,455.77,0,432.82,0c-129,0-233.94,102.7-233.94,228.93v79.91H178.59A32.53,32.53,0,0,0,146.24,338L79.54,988.19A32.54,32.54,0,0,0,111.89,1024H912.13a32.49,32.49,0,0,0,32.32-35.81ZM735.11,228.93v79.91H666.79V228.93c0-62.59-25.91-119.31-67.66-160.68C676.56,83.16,735.11,149.48,735.11,228.93ZM500,78.69c59.8,25.27,101.78,83,101.78,150.23v79.91H397.26V228.93C397.26,163,438.19,104.28,500,78.69ZM263.89,228.93c0-79.32,58.39-145.6,135.64-160.64-42.14,41.89-67.28,99.08-67.28,160.64v79.91H263.89ZM147.89,959l60-585.13H682.73l60,585.13Zm660.17,0-60-585.13h68L876.13,959Z" transform="translate(-79.37)"/></svg>