<?xml version="1.0" encoding="utf-8"?>
<!-- Generator: Adobe Illustrator 21.1.0, SVG Export Plug-In . SVG Version: 6.00 Build 0)  -->
<svg version="1.1" id="Calque_1" xmlns="http://www.w3.org/2000/svg" xmlns:xlink="http://www.w3.org/1999/xlink" x="0px" y="0px"
	 viewBox="0 0 1024 1024" style="enable-background:new 0 0 1024 1024;" xml:space="preserve">
<g>
	<path d="M607.9,182H46.5C20.8,182,0,161.2,0,135.5s20.8-46.5,46.5-46.5h561.3c25.7,0,46.5,20.8,46.5,46.5S633.6,182,607.9,182z"/>
	<path d="M492.4,370.3H46.5C20.8,370.3,0,349.4,0,323.7s20.8-46.5,46.5-46.5h445.8c25.7,0,46.5,20.8,46.5,46.5
		S518.1,370.3,492.4,370.3z"/>
	<path d="M376.9,558.5H46.5C20.8,558.5,0,537.7,0,512c0-25.7,20.8-46.5,46.5-46.5h330.3c25.7,0,46.5,20.8,46.5,46.5
		C423.4,537.7,402.6,558.5,376.9,558.5z"/>
	<path d="M977.5,935.1H416.1c-25.7,0-46.5-20.8-46.5-46.5c0-25.7,20.8-46.5,46.5-46.5h561.3c25.7,0,46.5,20.8,46.5,46.5
		C1024,914.2,1003.2,935.1,977.5,935.1z"/>
	<path d="M977.5,746.8H531.6c-25.7,0-46.5-20.8-46.5-46.5c0-25.7,20.8-46.5,46.5-46.5h445.8c25.7,0,46.5,20.8,46.5,46.5
		C1024,726,1003.2,746.8,977.5,746.8z"/>
	<path d="M977.5,558.5H647.1c-25.7,0-46.5-20.8-46.5-46.5c0-25.7,20.8-46.5,46.5-46.5h330.3c25.7,0,46.5,20.8,46.5,46.5
		C1024,537.7,1003.2,558.5,977.5,558.5z"/>
</g>
</svg>
