<?xml version="1.0" encoding="utf-8"?>
<!-- Generator: Adobe Illustrator 21.1.0, SVG Export Plug-In . SVG Version: 6.00 Build 0)  -->
<svg version="1.1" id="Calque_1" xmlns="http://www.w3.org/2000/svg" xmlns:xlink="http://www.w3.org/1999/xlink" x="0px" y="0px"
	 viewBox="0 0 1024 1024" style="enable-background:new 0 0 1024 1024;" xml:space="preserve">
<g id="Page-1_1_">
	<g id="icon-1-copy-12">
		<g id="Page-1" transform="translate(0.000000, 37.000000)">
			<path id="Rectangle-4" d="M51.2,232.7h511.9c28.3,0,51.2,22.9,51.2,51.2l0,0c0,28.3-22.9,51.2-51.2,51.2H51.2
				C22.9,335.1,0,312.1,0,283.9l0,0C0,255.6,22.9,232.7,51.2,232.7z"/>
			<path id="Rectangle-4_1_" d="M51.2,437.4h307.1c28.3,0,51.2,22.9,51.2,51.2v0c0,28.3-22.9,51.2-51.2,51.2H51.2
				C22.9,539.8,0,516.9,0,488.6v0C0,460.3,22.9,437.4,51.2,437.4z"/>
			<path id="Rectangle-4_2_" d="M51.2,27.9h716.6c28.3,0,51.2,22.9,51.2,51.2l0,0c0,28.3-22.9,51.2-51.2,51.2H51.2
				C22.9,130.3,0,107.4,0,79.1l0,0C0,50.8,22.9,27.9,51.2,27.9z"/>
			<path id="Rectangle-4_3_" d="M460.7,642.2h511.9c28.3,0,51.2,22.9,51.2,51.2l0,0c0,28.3-22.9,51.2-51.2,51.2H460.7
				c-28.3,0-51.2-22.9-51.2-51.2l0,0C409.5,665.1,432.4,642.2,460.7,642.2z"/>
			<path id="Rectangle-4_4_" d="M665.5,437.4h307.1c28.3,0,51.2,22.9,51.2,51.2v0c0,28.3-22.9,51.2-51.2,51.2H665.5
				c-28.3,0-51.2-22.9-51.2-51.2v0C614.3,460.3,637.2,437.4,665.5,437.4z"/>
			<path id="Rectangle-4_5_" d="M255.9,846.9h716.6c28.3,0,51.2,22.9,51.2,51.2l0,0c0,28.3-22.9,51.2-51.2,51.2H255.9
				c-28.3,0-51.2-22.9-51.2-51.2l0,0C204.8,869.9,227.7,846.9,255.9,846.9z"/>
		</g>
	</g>
</g>
</svg>
