<?xml version="1.0" encoding="utf-8"?>
<!-- Generator: Adobe Illustrator 23.0.0, SVG Export Plug-In . SVG Version: 6.00 Build 0)  -->
<svg version="1.1" id="Calque_1" xmlns="http://www.w3.org/2000/svg" xmlns:xlink="http://www.w3.org/1999/xlink" x="0px" y="0px"
	 viewBox="0 0 1024 1024" style="enable-background:new 0 0 1024 1024;" xml:space="preserve">
<g>
	<path d="M41.8,543.1c7.4,0,14.5-2.7,19.9-7.3v11.7c-6,3.3-12.8,5.1-19.9,5.1C19.1,552.5,0,534.4,0,512c0-22.3,19.1-40.5,41.8-40.5
		c7.1,0,13.9,1.8,19.9,5v11.7c-5.4-4.5-12.5-7.3-19.9-7.3c-17.2,0-31,13.9-31,31C10.8,529.2,24.6,543.1,41.8,543.1"/>
	<path d="M112.4,552.5c-22.6,0-41.7-18.1-41.7-40.5c0-22.3,19.1-40.5,41.7-40.5c22.6,0,41.8,18.2,41.8,40.5
		C154.2,534.4,135,552.5,112.4,552.5 M112.4,543.1c17.2,0,31-13.9,31-31.1c0-17.2-13.8-31-31-31c-17.1,0-31,13.9-31,31
		C81.5,529.2,95.3,543.1,112.4,543.1"/>
	<polygon points="216.3,473.3 228.4,473.3 244.7,550.8 233.6,550.8 222.3,488.4 221.7,488.4 207.5,550.8 194.5,550.8 180.4,488.4 
		179.8,488.4 168.3,550.8 157.4,550.8 173.1,473.3 186.2,473.3 200.7,534.4 201.3,534.4 	"/>
	<path d="M278.4,522.6h-15.5v28.2h-10.3v-77.5h25.9c13.9,0,24.7,10.7,24.7,24.7C303.1,511.8,292.3,522.6,278.4,522.6 M277.8,482.8
		h-15v30.4h15c8.1,0,14.6-6.8,14.6-15.2C292.4,489.5,285.9,482.8,277.8,482.8"/>
	<polygon points="336.1,482.8 336.1,550.8 325.7,550.8 325.7,482.8 305,482.8 305,473.3 356.9,473.3 356.9,482.8 	"/>
	<polygon points="412.4,541.2 412.4,550.8 364.7,550.8 364.7,473.3 412.4,473.3 412.4,482.8 374.9,482.8 374.9,507.3 407.3,507.3 
		407.3,516.8 374.9,516.8 374.9,541.2 	"/>
	<path d="M476,522.6h-15.6v28.2h-10.4v-77.5h26c13.9,0,24.7,10.7,24.7,24.7C500.8,511.8,489.9,522.6,476,522.6 M475.4,482.8h-14.9
		v30.4h14.9c8.2,0,14.6-6.8,14.6-15.2C490,489.5,483.5,482.8,475.4,482.8"/>
	<path d="M549.7,552.5c-22.7,0-41.8-18.1-41.8-40.5c0-22.3,19.2-40.5,41.8-40.5c22.5,0,41.7,18.2,41.7,40.5
		C591.4,534.4,572.2,552.5,549.7,552.5 M549.7,543.1c17.2,0,31-13.9,31-31.1c0-17.2-13.8-31-31-31c-17.2,0-31,13.9-31,31
		C518.7,529.2,532.6,543.1,549.7,543.1"/>
	<path d="M630.6,543.1c10.5,0,19.2-8.5,19.2-19.2v-50.6h10.3v50.3c0,16.9-12.7,29-29.4,29c-16.9,0-29.5-12.1-29.5-29v-50.3h10.4
		v50.6C611.6,534.4,620.1,543.1,630.6,543.1"/>
	<path d="M707.3,521.4l13.8,29.4h-11.5l-13.2-28.2h-13.6v28.2h-10.3v-77.5h26.9c13.9,0,24.7,10.7,24.7,24.7
		C724.2,509.1,717.2,518.2,707.3,521.4 M698.9,482.8h-16v30.4h16c8.1,0,14.5-6.8,14.5-15.2C713.4,489.5,707,482.8,698.9,482.8"/>
	<polygon points="788.4,482.8 788.4,550.8 778,550.8 778,482.8 757.2,482.8 757.2,473.3 809.1,473.3 809.1,482.8 	"/>
	<path d="M848.8,552.5c-22.7,0-41.8-18.1-41.8-40.5c0-22.3,19.1-40.5,41.8-40.5c22.5,0,41.8,18.2,41.8,40.5
		C890.6,534.4,871.3,552.5,848.8,552.5 M848.8,543.1c17.1,0,31-13.9,31-31.1c0-17.2-13.9-31-31-31c-17.1,0-31,13.9-31,31
		C817.8,529.2,831.7,543.1,848.8,543.1"/>
	<path d="M929.7,543.1c10.5,0,19.1-8.5,19.1-19.2v-50.6h10.3v50.3c0,16.9-12.7,29-29.3,29c-16.9,0-29.5-12.1-29.5-29v-50.3h10.3
		v50.6C910.7,534.4,919.2,543.1,929.7,543.1"/>
	<path d="M1024,528.7c0,14.9-13.3,23.8-27.3,23.8c-15.3,0-27.2-8.7-27.2-25.3h10.6c0,10.7,7.5,15.9,16.6,15.9
		c8.9,0,16.5-5.4,16.5-14.3c0-21.9-41.5-5.6-41.5-35.5c0-13.7,11.2-21.7,24.9-21.7c13.9,0,24.8,7.7,24.8,23.2h-10.7
		c0-9.5-6.4-13.8-14.1-13.8c-7.5,0-14.1,4.5-14.1,12.2C982.6,512.3,1024,497.6,1024,528.7"/>
</g>
</svg>
