<?xml version="1.0" encoding="utf-8"?>
<!-- Generator: Adobe Illustrator 17.0.0, SVG Export Plug-In . SVG Version: 6.00 Build 0)  -->
<!DOCTYPE svg PUBLIC "-//W3C//DTD SVG 1.1//EN" "http://www.w3.org/Graphics/SVG/1.1/DTD/svg11.dtd">
<svg version="1.1" id="Calque_1" xmlns="http://www.w3.org/2000/svg" xmlns:xlink="http://www.w3.org/1999/xlink" x="0px" y="0px"
	 width="1024px" height="1024px" viewBox="0 0 1024 1024" enable-background="new 0 0 1024 1024" xml:space="preserve">
<g>
	<title>CN-1280-BORNE-BURALISTES-ICONS</title>
	<g>
		<g>
			<path fill="#333333" d="M512,2C230.3,2,2,230.3,2,512s228.3,510,510,510s510-228.3,510-510S793.7,2,512,2 M512,40.2
				c260.1,0,471.8,211.6,471.8,471.8S772.1,983.8,512,983.8S40.2,772.1,40.2,512S251.9,40.2,512,40.2"/>
			<path fill="#333333" d="M512,1023c-69,0-135.9-13.5-198.9-40.2c-60.8-25.7-115.5-62.6-162.4-109.5
				c-46.9-46.9-83.8-101.6-109.5-162.4C14.5,647.9,1,581,1,512c0-69,13.5-135.9,40.2-198.9c25.7-60.8,62.6-115.5,109.5-162.4
				c46.9-46.9,101.6-83.8,162.4-109.5C376.1,14.5,443,1,512,1c69,0,135.9,13.5,198.9,40.2c60.8,25.7,115.5,62.6,162.4,109.5
				c46.9,46.9,83.8,101.6,109.5,162.4c26.6,63,40.2,129.9,40.2,198.9c0,69-13.5,135.9-40.2,198.9c-25.7,60.8-62.6,115.5-109.5,162.4
				c-46.9,46.9-101.6,83.8-162.4,109.5C647.9,1009.5,581,1023,512,1023z M512,3c-68.7,0-135.4,13.5-198.1,40
				c-60.6,25.6-115,62.3-161.8,109.1S68.6,253.3,43,313.9C16.5,376.6,3,443.3,3,512s13.5,135.4,40,198.1
				c25.6,60.6,62.3,115,109.1,161.8c46.7,46.7,101.2,83.4,161.8,109.1c62.8,26.5,129.4,40,198.1,40s135.4-13.5,198.1-40
				c60.6-25.6,115-62.3,161.8-109.1c46.7-46.7,83.4-101.2,109.1-161.8c26.5-62.8,40-129.4,40-198.1s-13.5-135.4-40-198.1
				c-25.6-60.6-62.3-115-109.1-161.8C825.2,105.3,770.7,68.6,710.1,43C647.4,16.5,580.7,3,512,3z M512,984.8
				C251.3,984.8,39.2,772.7,39.2,512C39.2,251.3,251.3,39.2,512,39.2c260.7,0,472.8,212.1,472.8,472.8
				C984.7,772.7,772.7,984.8,512,984.8z M512,41.2C252.4,41.2,41.2,252.4,41.2,512S252.4,982.8,512,982.8S982.7,771.6,982.7,512
				S771.6,41.2,512,41.2z"/>
		</g>
		<path fill="#333333" d="M508.5,841c-54.1,0-108.2-20.6-149.4-61.8c-7.8-7.8-7.8-20.5,0-28.3c7.8-7.8,20.5-7.8,28.3,0
			c66.8,66.8,175.4,66.8,242.2,0c7.8-7.8,20.5-7.8,28.3,0s7.8,20.5,0,28.3C616.7,820.4,562.6,841,508.5,841z M824.4,426.8
			c-11,0-20-9-20-20c0-34.7-28.2-62.9-62.9-62.9s-62.9,28.2-62.9,62.9c0,11-9,20-20,20s-20-9-20-20c0-56.7,46.1-102.9,102.9-102.9
			s102.9,46.1,102.9,102.9C844.4,417.9,835.4,426.8,824.4,426.8z M365.4,426.8c-11,0-20-9-20-20c0-34.7-28.2-62.9-62.9-62.9
			s-62.9,28.2-62.9,62.9c0,11-9,20-20,20s-20-9-20-20c0-56.7,46.1-102.9,102.9-102.9s102.9,46.1,102.9,102.9
			C385.4,417.9,376.4,426.8,365.4,426.8z"/>
	</g>
</g>
</svg>
