<?xml version="1.0" encoding="utf-8"?>
<!-- Generator: Adobe Illustrator 21.1.0, SVG Export Plug-In . SVG Version: 6.00 Build 0)  -->
<svg version="1.1" id="Calque_1" xmlns="http://www.w3.org/2000/svg" xmlns:xlink="http://www.w3.org/1999/xlink" x="0px" y="0px"
	 viewBox="0 0 1024 1024" style="enable-background:new 0 0 1024 1024;" xml:space="preserve">
<g id="Page-1_1_">
	<g id="icon-1-copy-9">
		<g id="Page-1" transform="translate(20.000000, 20.000000)">
			<path d="M492.4,1004c-69.1,0-136.1-13.5-199.2-40.2c-60.9-25.8-115.7-62.7-162.7-109.7c-47-47-83.9-101.7-109.7-162.7
				c-26.7-63.1-40.2-130.1-40.2-199.2S-5.8,356.1,20.9,293c25.8-60.9,62.7-115.7,109.7-162.7c47-47,101.7-83.9,162.7-109.7
				C356.3-6,423.4-19.5,492.4-19.5S628.5-6,691.6,20.7c60.9,25.8,115.7,62.7,162.7,109.7c47,47,83.9,101.7,109.7,162.7
				c26.7,63.1,40.2,130.1,40.2,199.2S990.7,628.3,964,691.4c-25.8,60.9-62.7,115.7-109.7,162.7c-47,47-101.7,83.9-162.7,109.7
				C628.5,990.4,561.5,1004,492.4,1004z M492.4,20.5c-63.7,0-125.5,12.5-183.6,37.1c-56.2,23.8-106.6,57.8-150,101.1
				c-43.3,43.3-77.3,93.8-101.1,150c-24.6,58.1-37.1,119.9-37.1,183.6c0,63.7,12.5,125.5,37.1,183.6c23.8,56.2,57.8,106.6,101.1,150
				c43.3,43.3,93.8,77.3,150,101.1C367,951.5,428.7,964,492.4,964c63.7,0,125.5-12.5,183.6-37.1c56.2-23.8,106.6-57.8,150-101.1
				s77.3-93.8,101.1-150c24.6-58.1,37.1-119.9,37.1-183.6c0-63.7-12.5-125.5-37.1-183.6c-23.8-56.2-57.8-106.6-101.1-150
				c-43.3-43.3-93.8-77.3-150-101.1C617.9,32.9,556.1,20.5,492.4,20.5z"/>
			<path id="Fill-25" d="M380.4,531.3c0,33.9-27.5,61.5-61.5,61.5c-33.9,0-61.5-27.5-61.5-61.5s27.5-61.5,61.5-61.5
				C352.9,469.8,380.4,497.3,380.4,531.3"/>
			<path d="M565.1,807c-7.3,0-14.3-4-17.8-10.9c-9.5-18.6-25.7-32.4-45.6-38.9c-19.9-6.4-41.1-4.7-59.8,4.8
				c-9.8,5-21.9,1.1-26.9-8.7c-5-9.8-1.1-21.9,8.7-26.9c28.2-14.4,60.2-17,90.3-7.2c30.1,9.7,54.6,30.6,68.9,58.8
				c5,9.8,1.1,21.9-8.7,26.9C571.2,806.3,568.1,807,565.1,807z"/>
			<path d="M280.7,437.4c-9.4,0-18.8-1.1-28-3.4c-10.7-2.6-17.3-13.5-14.7-24.2c2.6-10.7,13.5-17.3,24.2-14.7
				c17.5,4.3,35.3,2.5,51.7-5.1c19-8.8,33.4-24.5,40.5-44.2c7.2-19.7,6.2-40.9-2.6-59.9c-4.7-10-0.3-21.9,9.7-26.6
				c10-4.7,21.9-0.3,26.6,9.7c13.4,28.6,14.8,60.8,4,90.5c-10.8,29.7-32.5,53.4-61.2,66.8C315.1,433.6,297.9,437.4,280.7,437.4z"/>
			<path d="M702.9,437.4c-17.2,0-34.4-3.7-50.1-11.1c-28.6-13.4-50.4-37.1-61.2-66.8c-10.8-29.7-9.4-61.8,4-90.5
				c4.7-10,16.6-14.3,26.6-9.7c10,4.7,14.3,16.6,9.7,26.6c-8.8,19-9.8,40.2-2.6,59.9c7.2,19.7,21.5,35.4,40.5,44.2
				c16.3,7.6,34.2,9.4,51.7,5.1c10.7-2.6,21.6,3.9,24.2,14.7c2.6,10.7-3.9,21.6-14.7,24.2C721.7,436.2,712.3,437.4,702.9,437.4z"/>
			<path id="Fill-37" d="M727.4,531.3c0,33.9-27.5,61.5-61.5,61.5c-33.9,0-61.5-27.5-61.5-61.5s27.5-61.5,61.5-61.5
				C699.9,469.8,727.4,497.3,727.4,531.3"/>
		</g>
	</g>
</g>
</svg>
