<?xml version="1.0" encoding="utf-8"?>
<!-- Generator: Adobe Illustrator 17.0.0, SVG Export Plug-In . SVG Version: 6.00 Build 0)  -->
<!DOCTYPE svg PUBLIC "-//W3C//DTD SVG 1.1//EN" "http://www.w3.org/Graphics/SVG/1.1/DTD/svg11.dtd">
<svg version="1.1" id="Calque_1" xmlns="http://www.w3.org/2000/svg" xmlns:xlink="http://www.w3.org/1999/xlink" x="0px" y="0px"
	 width="1024px" height="1024px" viewBox="0 0 1024 1024" enable-background="new 0 0 1024 1024" xml:space="preserve">
<title>CN-1280-BORNE-BURALISTES-ICONS</title>
<path d="M512,0C229.2,0,0,229.2,0,512s229.2,512,512,512s512-229.2,512-512S794.8,0,512,0z M204.8,384c0-42.4,34.4-76.8,76.8-76.8
	c42.4,0,76.8,34.4,76.8,76.8s-34.4,76.8-76.8,76.8C239.2,460.8,204.8,426.4,204.8,384z M724.4,819.9c-10.2,4.2-21.9-0.7-26.1-10.9
	c-14.7-36-39.6-66.8-71.8-88.8c-33-22.6-71.7-34.5-111.9-34.5c-44.5,0-85.4,11.1-118.4,32.1c-33.4,21.3-57.6,52.4-70,89.9
	c-2.8,8.4-10.6,13.7-19,13.7c-2.1,0-4.2-0.3-6.3-1c-10.5-3.5-16.2-14.8-12.7-25.3c30.5-92.2,117.3-149.5,226.4-149.5
	c48.3,0,94.8,14.4,134.5,41.5c38.7,26.5,68.6,63.4,86.3,106.7C739.5,804,734.6,815.7,724.4,819.9z M742.4,460.8
	c-42.4,0-76.8-34.4-76.8-76.8s34.4-76.8,76.8-76.8c42.4,0,76.8,34.4,76.8,76.8S784.8,460.8,742.4,460.8z"/>
</svg>
