<?xml version="1.0" encoding="utf-8"?>
<!-- Generator: Adobe Illustrator 17.0.0, SVG Export Plug-In . SVG Version: 6.00 Build 0)  -->
<!DOCTYPE svg PUBLIC "-//W3C//DTD SVG 1.1//EN" "http://www.w3.org/Graphics/SVG/1.1/DTD/svg11.dtd">
<svg version="1.1" id="Calque_1" xmlns="http://www.w3.org/2000/svg" xmlns:xlink="http://www.w3.org/1999/xlink" x="0px" y="0px"
	 width="1024px" height="1024px" viewBox="0 0 1024 1024" enable-background="new 0 0 1024 1024" xml:space="preserve">
<title>CN-1280-BORNE-BURALISTES-ICONS</title>
<path d="M512,0C229.2,0,0,229.2,0,512s229.2,512,512,512s512-229.2,512-512S794.8,0,512,0z M204.8,384c0-42.4,34.4-76.8,76.8-76.8
	c42.4,0,76.8,34.4,76.8,76.8s-34.4,76.8-76.8,76.8C239.2,460.8,204.8,426.4,204.8,384z M735.3,673.2
	c-17.7,43.3-47.5,80.2-86.3,106.7c-39.7,27.2-86.2,41.5-134.5,41.5c-109.1,0-195.8-57.3-226.4-149.5c-3.5-10.5,2.2-21.8,12.7-25.3
	c10.5-3.5,21.8,2.2,25.3,12.7c12.4,37.5,36.6,68.6,70,89.9c33,21,73.9,32.1,118.4,32.1c40.2,0,78.9-11.9,111.9-34.5
	c32.3-22.1,57.1-52.8,71.8-88.8c4.2-10.2,15.9-15.1,26.1-10.9C734.6,651.3,739.5,662.9,735.3,673.2z M742.4,460.8
	c-42.4,0-76.8-34.4-76.8-76.8s34.4-76.8,76.8-76.8c42.4,0,76.8,34.4,76.8,76.8S784.8,460.8,742.4,460.8z"/>
</svg>
