<?xml version="1.0" encoding="utf-8"?>
<!-- Generator: Adobe Illustrator 17.0.0, SVG Export Plug-In . SVG Version: 6.00 Build 0)  -->
<!DOCTYPE svg PUBLIC "-//W3C//DTD SVG 1.1//EN" "http://www.w3.org/Graphics/SVG/1.1/DTD/svg11.dtd">
<svg version="1.1" id="Calque_1" xmlns="http://www.w3.org/2000/svg" xmlns:xlink="http://www.w3.org/1999/xlink" x="0px" y="0px"
	 width="1024px" height="1024px" viewBox="0 0 1024 1024" enable-background="new 0 0 1024 1024" xml:space="preserve">
<g>
	<title>CN-1280-BORNE-BURALISTES-ICONS</title>
	<g>
		<g transform="translate(2 2)">
			<g>
				<path fill="#333333" d="M510,0C228.3,0,0,228.3,0,510s228.3,510,510,510s510-228.3,510-510S791.7,0,510,0 M510,38.2
					c260.1,0,471.8,211.6,471.8,471.8S770.1,981.8,510,981.8S38.2,770.1,38.2,510S249.9,38.2,510,38.2"/>
				<path fill="#333333" d="M510,1021c-69,0-135.9-13.5-198.9-40.2c-60.8-25.7-115.5-62.6-162.4-109.5
					c-46.9-46.9-83.8-101.6-109.5-162.4C12.5,645.9-1,579-1,510c0-69,13.5-135.9,40.2-198.9c25.7-60.8,62.6-115.5,109.5-162.4
					c46.9-46.9,101.6-83.8,162.4-109.5C374.1,12.5,441-1,510-1c69,0,135.9,13.5,198.9,40.2c60.8,25.7,115.5,62.6,162.4,109.5
					c46.9,46.9,83.8,101.6,109.5,162.4c26.6,63,40.2,129.9,40.2,198.9c0,69-13.5,135.9-40.2,198.9
					c-25.7,60.8-62.6,115.5-109.5,162.4c-46.9,46.9-101.6,83.8-162.4,109.5C645.9,1007.5,579,1021,510,1021z M510,1
					c-68.7,0-135.4,13.5-198.1,40c-60.6,25.6-115,62.3-161.8,109.1S66.6,251.3,41,311.9C14.5,374.6,1,441.3,1,510
					s13.5,135.4,40,198.1c25.6,60.6,62.3,115,109.1,161.8c46.7,46.7,101.2,83.4,161.8,109.1c62.8,26.5,129.4,40,198.1,40
					s135.4-13.5,198.1-40c60.6-25.6,115-62.3,161.8-109.1c46.7-46.7,83.4-101.2,109.1-161.8c26.5-62.8,40-129.4,40-198.1
					s-13.5-135.4-40-198.1c-25.6-60.6-62.3-115-109.1-161.8C823.2,103.3,768.7,66.6,708.1,41C645.4,14.5,578.7,1,510,1z M510,982.8
					C249.3,982.8,37.2,770.7,37.2,510C37.2,249.3,249.3,37.2,510,37.2c260.7,0,472.8,212.1,472.8,472.8
					C982.7,770.7,770.7,982.8,510,982.8z M510,39.2C250.4,39.2,39.2,250.4,39.2,510S250.4,980.8,510,980.8S980.7,769.6,980.7,510
					S769.6,39.2,510,39.2z"/>
			</g>
			<path fill="#333333" d="M453.2,818.1c-1.4,0-2.8-0.1-4.2-0.4c-10.8-2.3-17.7-12.9-15.4-23.7c7.8-36.5,29.3-67.8,60.6-88.1
				c31.3-20.3,68.7-27.3,105.2-19.5c10.8,2.3,17.7,12.9,15.4,23.7c-2.3,10.8-12.9,17.7-23.7,15.4c-26.1-5.5-52.7-0.6-75.1,13.9
				c-22.3,14.5-37.7,36.9-43.2,62.9C470.7,811.6,462.4,818.1,453.2,818.1z"/>
			<circle fill="#333333" cx="272.7" cy="372.6" r="62.4"/>
			<circle fill="#333333" cx="747.3" cy="372.6" r="62.4"/>
		</g>
	</g>
</g>
</svg>
