<?xml version="1.0" encoding="utf-8"?>
<!-- Generator: Adobe Illustrator 21.1.0, SVG Export Plug-In . SVG Version: 6.00 Build 0)  -->
<svg version="1.1" id="Calque_1" xmlns="http://www.w3.org/2000/svg" xmlns:xlink="http://www.w3.org/1999/xlink" x="0px" y="0px"
	 viewBox="0 0 1024 1024" style="enable-background:new 0 0 1024 1024;" xml:space="preserve">
<g>
	<path d="M847.8,222.6c-18.4-43.4-44.6-82.4-78.1-115.8C736.3,73.3,697.3,47,653.9,28.7C608.9,9.6,561.2,0,512,0
		s-96.9,9.6-141.9,28.7c-43.4,18.4-82.4,44.6-115.8,78.1s-59.7,72.4-78.1,115.8c-19,45-28.7,92.7-28.7,141.9v295
		c0,49.2,9.6,96.9,28.7,141.9c18.4,43.4,44.6,82.4,78.1,115.8c33.5,33.5,72.4,59.7,115.8,78.1c45,19,92.7,28.7,141.9,28.7
		s96.9-9.6,141.9-28.7c43.4-18.4,82.4-44.6,115.8-78.1c33.5-33.5,59.7-72.4,78.1-115.8c19-45,28.7-92.7,28.7-141.9v-295
		C876.5,315.3,866.9,267.6,847.8,222.6z M693.6,841.1c-48.5,48.5-113,75.2-181.6,75.2c-68.6,0-133.1-26.7-181.6-75.2
		c-48.5-48.5-75.2-113-75.2-181.6V405.4l146,59.3c6.6,2.7,13.5,4,20.3,4c21.3,0,41.4-12.7,49.9-33.6c11.2-27.6-2.1-59-29.6-70.2
		l-176.5-71.7c11.9-41.3,34-79.1,65.2-110.2c48.5-48.5,113-75.2,181.6-75.2c68.6,0,133.1,26.7,181.6,75.2
		c30.8,30.8,52.8,68,64.7,108.6l-180.5,73.3c-27.6,11.2-40.8,42.6-29.6,70.2c8.5,20.9,28.6,33.6,49.9,33.6c6.7,0,13.6-1.3,20.3-4
		l150.5-61.1v256C768.8,728.1,742.1,792.6,693.6,841.1z"/>
	<path d="M512,577.7c-79.6,0-144.4,64.8-144.4,144.4c0,29.7,24.1,53.9,53.9,53.9c29.7,0,53.9-24.1,53.9-53.9
		c0-20.2,16.4-36.7,36.7-36.7c20.2,0,36.7,16.4,36.7,36.7c0,29.7,24.1,53.9,53.9,53.9s53.9-24.1,53.9-53.9
		C656.4,642.5,591.6,577.7,512,577.7z"/>
</g>
</svg>
