<?xml version="1.0" encoding="utf-8"?>
<!-- Generator: Adobe Illustrator 17.0.0, SVG Export Plug-In . SVG Version: 6.00 Build 0)  -->
<!DOCTYPE svg PUBLIC "-//W3C//DTD SVG 1.1//EN" "http://www.w3.org/Graphics/SVG/1.1/DTD/svg11.dtd">
<svg version="1.1" id="Calque_1" xmlns="http://www.w3.org/2000/svg" xmlns:xlink="http://www.w3.org/1999/xlink" x="0px" y="0px"
	 width="1024px" height="1024px" viewBox="0 0 1024 1024" enable-background="new 0 0 1024 1024" xml:space="preserve">
<title>CN-1280-BORNE-BURALISTES-ICONS</title>
<g>
	<path d="M910.2,1024H113.8C51,1024,0,973,0,910.2V113.8C0,51,51,0,113.8,0h796.4C973,0,1024,51,1024,113.8v796.4
		C1024,973,973,1024,910.2,1024z M114.1,910h795.9c0,0,0,0,0.1-0.1V114.1c0,0,0,0-0.1-0.1H114.1c0,0,0,0-0.1,0.1L114.1,910
		C114,910,114,910,114.1,910z"/>
</g>
</svg>
