<?xml version="1.0" encoding="utf-8"?>
<!-- Generator: Adobe Illustrator 21.1.0, SVG Export Plug-In . SVG Version: 6.00 Build 0)  -->
<svg version="1.1" id="Calque_1" xmlns="http://www.w3.org/2000/svg" xmlns:xlink="http://www.w3.org/1999/xlink" x="0px" y="0px"
	 viewBox="0 0 1024 1024" style="enable-background:new 0 0 1024 1024;" xml:space="preserve">
<g>
	<path d="M812,65.5H212c-80.8,0-146.5,65.7-146.5,146.5v600c0,80.8,65.7,146.5,146.5,146.5h600c80.8,0,146.5-65.7,146.5-146.5V212
		C958.5,131.2,892.8,65.5,812,65.5z M865.5,812c0,29.5-24,53.5-53.5,53.5H212c-29.5,0-53.5-24-53.5-53.5V212
		c0-29.5,24-53.5,53.5-53.5h600c29.5,0,53.5,24,53.5,53.5V812z"/>
</g>
</svg>
