<?xml version="1.0" encoding="utf-8"?>
<!-- Generator: Adobe Illustrator 21.1.0, SVG Export Plug-In . SVG Version: 6.00 Build 0)  -->
<svg version="1.1" id="Calque_1" xmlns="http://www.w3.org/2000/svg" xmlns:xlink="http://www.w3.org/1999/xlink" x="0px" y="0px"
	 viewBox="0 0 1024 1024" style="enable-background:new 0 0 1024 1024;" xml:space="preserve">
<g id="Page-1">
	<g id="icon-1-copy-3">
		<path d="M228.2,1001.1c-10.9,0-21.7-3.4-31-10.1c-16.5-12-24.6-31.9-21.1-51.9l49.2-286.8c0.2-1-0.2-2-0.9-2.7L16,446.4
			C1.5,432.3-3.6,411.5,2.6,392.2C8.9,372.9,25.3,359,45.4,356l288.1-41.9c0.9-0.1,1.7-0.7,2.1-1.5c0,0,0-0.1,0.1-0.1l128.8-261
			c9-18.2,27.2-29.5,47.5-29.5c0,0,0,0,0,0c20.3,0,38.6,11.3,47.5,29.5l128.8,261c0,0,0,0.1,0.1,0.1c0.4,0.8,1.2,1.4,2.2,1.5
			l288,41.9c20.2,2.9,36.6,16.8,42.8,36.1c6.2,19.3,1.1,40.1-13.5,54.2L799.6,649.5c-0.7,0.7-1,1.7-0.9,2.8L847.9,939
			c3.5,20.1-4.6,40-21.1,51.9c-16.5,11.9-37.8,13.4-55.8,3.9L513.4,859.5c-0.9-0.5-1.9-0.4-2.9,0L252.9,994.9
			C245.1,999,236.7,1001.1,228.2,1001.1z M380.5,334.6c-7.7,15.7-22.5,26.5-39.8,29L52.6,405.5c-0.5,0.1-1.8,0.3-2.4,2.1
			c-0.5,1.7,0.3,2.5,0.7,2.9l208.5,203.2c0,0,0.1,0.1,0.1,0.1c12.4,12.2,18,29.6,15.1,46.7l-49.2,286.9c-0.1,0.6-0.3,1.9,1.2,3
			c1.5,1.1,2.5,0.5,3,0.2l257.7-135.4c0,0,0.1,0,0.1-0.1c15.5-8,33.9-8,49.2,0.1l257.6,135.4c0.6,0.3,1.7,0.9,3.1-0.2
			c1.5-1.1,1.3-2.4,1.2-3l-49.2-286.9c-2.9-17.2,2.8-34.6,15.1-46.8c0,0,0.1-0.1,0.1-0.1L973,410.6c0.5-0.5,1.3-1.3,0.8-3
			c-0.6-1.8-1.9-2-2.5-2l-288-41.9c-17.3-2.5-32.3-13.3-39.9-29l-128.8-261c0,0,0,0,0,0c-0.2-0.5-0.8-1.6-2.7-1.6s-2.4,1.2-2.7,1.6
			L380.5,334.6z"/>
	</g>
</g>
</svg>
