<?xml version="1.0" encoding="utf-8"?>
<!-- Generator: Adobe Illustrator 21.1.0, SVG Export Plug-In . SVG Version: 6.00 Build 0)  -->
<svg version="1.1" id="Calque_1" xmlns="http://www.w3.org/2000/svg" xmlns:xlink="http://www.w3.org/1999/xlink" x="0px" y="0px"
	 viewBox="0 0 1024 1024" style="enable-background:new 0 0 1024 1024;" xml:space="preserve">
<path d="M800.5,1001.2c-7.2,0-14.4-1.7-21-5.2L512,855.3L244.5,996c-15.2,8-33.7,6.7-47.6-3.4c-13.9-10.1-20.9-27.3-18-44.2
	L230,650.5L13.7,439.6c-12.3-12-16.8-30-11.4-46.3c5.3-16.4,19.5-28.3,36.5-30.8l299-43.5L471.5,48c7.6-15.4,23.3-25.2,40.5-25.2
	c17.2,0,32.9,9.8,40.5,25.2l133.7,271l299,43.5c17,2.5,31.2,14.4,36.5,30.8c5.3,16.4,0.9,34.3-11.4,46.3L777,667.1
	c-17.9,17.4-46.5,17.1-63.9-0.8c-17.4-17.9-17.1-46.5,0.8-63.9l167.8-163.6l-231.9-33.7c-14.7-2.1-27.5-11.4-34-24.7L512,170.2
	L408.3,380.3c-6.6,13.3-19.3,22.6-34,24.7l-231.9,33.7l167.8,163.6c10.7,10.4,15.5,25.3,13,40l-39.6,231l207.4-109
	c13.2-6.9,28.9-6.9,42.1,0l207.4,109l-13-76.1c-4.2-24.6,12.3-48,36.9-52.2c24.6-4.2,48,12.3,52.2,36.9L845,948.3
	c2.9,17-4.1,34.1-18,44.2C819.2,998.2,809.9,1001.2,800.5,1001.2z"/>
</svg>
