<?xml version="1.0" encoding="utf-8"?>
<!-- Generator: Adobe Illustrator 17.0.0, SVG Export Plug-In . SVG Version: 6.00 Build 0)  -->
<!DOCTYPE svg PUBLIC "-//W3C//DTD SVG 1.1//EN" "http://www.w3.org/Graphics/SVG/1.1/DTD/svg11.dtd">
<svg version="1.1" id="Calque_1" xmlns="http://www.w3.org/2000/svg" xmlns:xlink="http://www.w3.org/1999/xlink" x="0px" y="0px"
	 width="1024px" height="1024px" viewBox="0 0 1024 1024" enable-background="new 0 0 1024 1024" xml:space="preserve">
<g>
	<title>CN-1280-BORNE-BURALISTES-ICONS</title>
	<g>
		<g>
			<path d="M512,706.4c-25,0-49.5-6.8-70.9-19.6l-419-251.4C8.3,427,0,412.4,0,396.1c0-16.3,8.3-30.9,22.2-39.3l419-251.4
				c21.4-12.8,45.9-19.6,70.8-19.6c0,0,0,0,0,0c25,0,49.5,6.8,70.9,19.6l419,251.4c13.9,8.3,22.2,23,22.2,39.3
				c0,16.3-8.3,30.9-22.2,39.3l-419,251.4C561.5,699.6,537,706.4,512,706.4z M512,125.8c-17.7,0-35.1,4.8-50.3,13.9l-419,251.4
				c-2.4,1.4-2.8,3.7-2.8,5c0,1.2,0.4,3.5,2.8,5l419,251.4c15.2,9.1,32.6,13.9,50.3,13.9c17.7,0,35.1-4.8,50.3-13.9l419-251.4
				c2.4-1.4,2.8-3.7,2.8-5c0-1.2-0.4-3.5-2.8-5l-419-251.4C547.1,130.6,529.7,125.8,512,125.8l0-30.8L512,125.8
				C512,125.8,512,125.8,512,125.8z"/>
			<path d="M499.8,939c-17.9,0-35.8-0.8-53.6-2.3c-85-7.5-149.5-31.3-188.6-49.9c-27.6-13.1-45.4-41.7-45.4-72.6V546
				c0-11,9-20,20-20c11,0,20,9,20,20v268.2c0,15.6,8.9,30,22.6,36.5c36.1,17.2,95.8,39.2,174.9,46.2c96.8,8.5,196.6-7.8,296.5-48.6
				c15.5-6.3,25.6-21.2,25.6-37.8V546c0-11,9-20,20-20s20,9,20,20v264.4c0,33-19.8,62.4-50.5,74.9C673.7,921,586,939,499.8,939z
				 M939,811.2h-78.8c-11,0-20-9-20-20v-94.8c0-24.2,16.1-44.9,38.7-52.9V482.8c0-11,9-20,20-20s20,9,20,20v160.2
				c23.3,7.6,40.1,28.7,40.1,53.4v94.8C959,802.2,950,811.2,939,811.2z M880.2,771.2H919v-74.8c0-9.1-8.7-16.5-19.4-16.5
				s-19.4,7.4-19.4,16.5V771.2z"/>
		</g>
	</g>
</g>
</svg>
