<?xml version="1.0" encoding="utf-8"?>
<!-- Generator: Adobe Illustrator 21.1.0, SVG Export Plug-In . SVG Version: 6.00 Build 0)  -->
<svg version="1.1" id="Calque_1" xmlns="http://www.w3.org/2000/svg" xmlns:xlink="http://www.w3.org/1999/xlink" x="0px" y="0px"
	 viewBox="0 0 1024 1024" style="enable-background:new 0 0 1024 1024;" xml:space="preserve">
<path d="M1023.1,438.8c-3.2-45.8-27.3-87.2-66.2-112.8L593.2,86.7c-49.3-32.5-113.1-32.5-162.5,0L271.3,191.6
	c-21.5,14.1-27.4,42.9-13.3,64.4c14.1,21.5,43,27.4,64.4,13.3l159.4-104.9c18.3-12,41.9-12,60.2,0l363.7,239.3
	c16.2,10.6,25.1,27.8,24.7,47.1c-0.5,19.3-10.3,36.1-27,45.9L539.8,711.1c-17.2,10.1-38.5,10.1-55.7,0L120.5,496.7
	c-16.7-9.8-26.5-26.5-27-45.9c-0.5-19.3,8.5-36.5,24.7-47.1l84.3-55.4c21.5-14.1,27.4-42.9,13.3-64.4
	c-14.1-21.5-42.9-27.4-64.4-13.3L67.1,326C24.2,354.2-0.7,401.8,0.5,453.1c1.3,51.4,28.4,97.6,72.7,123.7L182,640.9v174.2
	c0,80.8,65.7,146.5,146.5,146.5h367c80.8,0,146.5-65.7,146.5-146.5V640.9l88.5-52.2v152.3c0,25.7,20.8,46.5,46.5,46.5
	s46.5-20.8,46.5-46.5V444.6C1023.5,442.6,1023.4,440.7,1023.1,438.8z M749,815.1c0,29.5-24,53.5-53.5,53.5h-367
	c-29.5,0-53.5-24-53.5-53.5V695.7l161.9,95.5c23.1,13.6,49.1,20.5,75.1,20.5c26,0,51.9-6.8,75.1-20.5L749,695.7V815.1z"/>
</svg>
