<svg id="d655636d-54fb-4a55-a0aa-7fc0d7a8c4b9" data-name="Calque 10" xmlns="http://www.w3.org/2000/svg" viewBox="0 0 590.08 1024"><title>buraliste</title><path d="M803.58,487.28,686.3,69.7v0C674.9,29.1,636.76.74,593.65.74H523.46a22.47,22.47,0,0,0-3.7-.74c-1.59,0-3,.67-4.57.74H430.28c-43.11,0-81.24,28.35-92.65,69L220.35,487.28a91.92,91.92,0,0,0,0,49.44L337.63,954.35c11.41,40.55,49.54,68.91,92.65,68.91h84.91c1.57.08,3,.74,4.57.74a22.48,22.48,0,0,0,3.7-.74h70.19c43.11,0,81.24-28.35,92.65-69L803.58,536.82A90.46,90.46,0,0,0,803.58,487.28Zm-373.3,488.3c-21.88,0-41.11-14.06-46.74-34.13L266.25,523.87a43.76,43.76,0,0,1,0-23.74L383.53,82.59c5.63-20.11,24.86-34.17,46.74-34.17h6.51C433,55,429.13,61.54,427,69L309.55,487.18a91.52,91.52,0,0,0,0,49.58L427,955c2.11,7.47,6,14,9.75,20.53Zm327.4-451.71L640.4,941.41c-5.63,20.11-24.86,34.17-46.74,34.17H515.08c-19.87-1.89-36.9-14.81-42.16-33.43L355.46,523.87a43.93,43.93,0,0,1,0-23.79L472.93,81.9c5.26-18.66,22.28-31.59,42.16-33.48h78.57c21.88,0,41.11,14.06,46.74,34.17v0L757.68,500.22A42.56,42.56,0,0,1,757.68,523.87Z" transform="translate(-216.96)"/></svg>