<svg id="e485d788-3f02-4ad3-811d-73542258f14c" data-name="Calque 2" xmlns="http://www.w3.org/2000/svg" viewBox="0 0 565.85 1024"><title>tabac-1</title><path d="M791.79,488.84,678,67.2A90.18,90.18,0,0,0,591.26.5H432.75A90.15,90.15,0,0,0,346,67.2L232.19,488.86a91.22,91.22,0,0,0,0,47.29L346,957.81a90.15,90.15,0,0,0,86.76,66.69H591.26A90.18,90.18,0,0,0,678,957.81L791.79,536.16A90.79,90.79,0,0,0,791.79,488.84Zm-38.29,37L639.71,947.47a50.41,50.41,0,0,1-48.45,37.38H432.75a50.44,50.44,0,0,1-48.49-37.38L270.48,525.84a51.33,51.33,0,0,1,0-26.66L384.25,77.54a50.44,50.44,0,0,1,48.49-37.39H591.26a50.42,50.42,0,0,1,48.45,37.39L753.5,499.19A50.92,50.92,0,0,1,753.5,525.82Z" transform="translate(-229.07 -0.5)"/><path d="M475.18,176.31c0,5,2.93,10.14,9.94,10.14H501v73.77c0,7.37,4.68,11.47,10.94,11.47s11-4.1,11-11.47V186.44h15.91c7,0,9.94-5.13,9.94-10.14,0-5.16-3.65-10.16-9.94-10.16H485.12C478.83,166.14,475.18,171.15,475.18,176.31Z" transform="translate(-229.07 -0.5)"/><path d="M527.93,325c-2.48-7.08-7.88-12.21-15.65-12.21-7.43,0-13.14,5.43-15.62,12.21l-29.34,79.94a12.22,12.22,0,0,0-1,4.87c0,5.88,5,10.27,10.81,10.27s9.07-3.22,10.49-7.77L492,398.64h40.57L537,412.44c1.45,4.42,4.52,7.64,10.65,7.64,5.42,0,10.1-4,10.1-9.71a17.43,17.43,0,0,0-1.16-5.43Zm-29.65,53.34,13.87-42.62h.29L526,378.34Z" transform="translate(-229.07 -0.5)"/><path d="M541.2,486.07c0-15.59-12.26-25.89-27.46-25.89h-28c-6.71,0-11.52,4-11.52,11v82.45c0,6.92,5,11.17,11.68,11.17h30.08c20.17,0,33.88-11.17,33.88-31.9,0-12.77-9.8-23.22-22.2-25v-.29C537,503.26,541.2,496.36,541.2,486.07Zm-45.12-6.47h11.39c6.4,0,11.81,3.51,11.81,10.43,0,7.34-4.68,11.6-11.81,11.6H496.08Zm17.23,65.85H496.08v-24.4h15.46c10.23,0,15.49,4.71,15.49,11.6C527,540.9,521.19,545.45,513.32,545.45Z" transform="translate(-229.07 -0.5)"/><path d="M527.93,619.81c-2.48-7.08-7.88-12.21-15.65-12.21-7.43,0-13.14,5.43-15.62,12.21l-29.34,79.94a12.22,12.22,0,0,0-1,4.87c0,5.88,5,10.27,10.81,10.27s9.07-3.22,10.49-7.77L492,693.45h40.57L537,707.26c1.45,4.42,4.52,7.64,10.65,7.64,5.42,0,10.1-4,10.1-9.71a17.43,17.43,0,0,0-1.16-5.43Zm-29.65,53.34,13.87-42.62h.29L526,673.15Z" transform="translate(-229.07 -0.5)"/><path d="M543.88,837.72c-6,0-10.94,6.17-23.21,6.17-17.95,0-27.43-15-27.43-32.48,0-17.93,9.33-33.36,27.43-33.36,12.26,0,16.36,5.13,22.33,5.13,5.42,0,9.07-4.55,9.07-9.84,0-13-20.72-16.47-31.4-16.47-29.79,0-50.24,23.52-50.24,54.09S491,865,520.68,865c10.81,0,32.85-3.22,32.85-17.32C553.53,844.35,550.47,837.72,543.88,837.72Z" transform="translate(-229.07 -0.5)"/><path d="M486.11,918.86c-20.39,0-38.29-12.64-43.52-30.72L337.34,523a37.57,37.57,0,0,1,0-21L442.58,136.9c5.25-18.11,23.14-30.76,43.53-30.76a19.82,19.82,0,1,0,0-39.65c-37.93,0-71.49,24.42-81.61,59.41L299.26,491a77.18,77.18,0,0,0,0,43L404.5,899.16c10.1,34.94,43.66,59.35,81.6,59.35a19.82,19.82,0,1,0,0-39.65Z" transform="translate(-229.07 -0.5)"/></svg>