<?xml version="1.0" encoding="utf-8"?>
<!-- Generator: Adobe Illustrator 23.0.3, SVG Export Plug-In . SVG Version: 6.00 Build 0)  -->
<svg version="1.1" id="Calque_1" xmlns="http://www.w3.org/2000/svg" xmlns:xlink="http://www.w3.org/1999/xlink" x="0px" y="0px"
	 viewBox="0 0 1024 1024" style="enable-background:new 0 0 1024 1024;" xml:space="preserve">
<path d="M877.5,160h-731C65.59,160,0,225.59,0,306.5v411C0,798.41,65.59,864,146.5,864h691.7c25.68,0,46.5-20.82,46.5-46.5v0
	c0-25.68-20.82-46.5-46.5-46.5H736V652h195v41.23c0,25.68,20.82,46.5,46.5,46.5h0c25.68,0,46.5-20.82,46.5-46.5V306.5
	C1024,225.59,958.41,160,877.5,160z M931,306.5V370H736V253h141.5C907.05,253,931,276.95,931,306.5z M93,462h233v98H93V462z
	 M418,462h226v98H418V462z M418,370V253h226v117H418z M93,306.5c0-29.5,24-53.5,53.5-53.5H326v117H93v-7V306.5z M93,717.5V652h233
	v119H146.5C116.95,771,93,747.05,93,717.5z M644,771H418V652h226V771z M736,560v-98h195v98H736z"/>
</svg>
