<svg id="Calque_6" data-name="Calque 6" xmlns="http://www.w3.org/2000/svg" viewBox="0 0 1024 1024"><title>Plan de travail 1</title><path d="M729.42,751.7H150.14C67.36,751.7,0,684.34,0,601.55V278c0-82.79,67.36-150.14,150.14-150.14H729.42c82.79,0,150.14,67.35,150.14,150.14V601.55C879.56,684.34,812.2,751.7,729.42,751.7ZM150.14,220.27A57.82,57.82,0,0,0,92.4,278V601.55a57.82,57.82,0,0,0,57.75,57.75H729.42a57.82,57.82,0,0,0,57.75-57.75V278a57.82,57.82,0,0,0-57.75-57.75Z"/><path d="M746.81,896.13H269.95a46.2,46.2,0,1,1,0-92.4H746.81c101.89,0,184.79-82.9,184.79-184.79V459.84a46.2,46.2,0,0,1,92.4,0V618.94C1024,771.78,899.65,896.13,746.81,896.13Z"/><path d="M439.79,612.22c-94.83,0-172-77.15-172-172s77.16-172,172-172,172,77.15,172,172S534.61,612.22,439.79,612.22Zm0-251.56a79.58,79.58,0,1,0,79.57,79.58A79.68,79.68,0,0,0,439.79,360.65Z"/></svg>