<?xml version="1.0" encoding="utf-8"?>
<!-- Generator: Adobe Illustrator 17.0.0, SVG Export Plug-In . SVG Version: 6.00 Build 0)  -->
<!DOCTYPE svg PUBLIC "-//W3C//DTD SVG 1.1//EN" "http://www.w3.org/Graphics/SVG/1.1/DTD/svg11.dtd">
<svg version="1.1" id="Calque_1" xmlns="http://www.w3.org/2000/svg" xmlns:xlink="http://www.w3.org/1999/xlink" x="0px" y="0px"
	 width="1024px" height="1024px" viewBox="0 0 1024 1024" enable-background="new 0 0 1024 1024" xml:space="preserve">
<g>
	<title>CN-1280-BORNE-BURALISTES-ICONS</title>
	<g>
		<path d="M1004.1,819H145.6c-11,0-20-9-20-20v-67.5c0-10.9,8.8-19.9,19.7-20l777.8-9.9V366.8c0-11,9-20,20-20h61c11,0,20,9,20,20
			V799C1024.1,810.1,1015.2,819,1004.1,819z M165.6,779h818.5V386.8h-21v334.6c0,10.9-8.8,19.9-19.7,20l-777.8,9.9V779z"/>
		<path d="M878.9,670.9H20.4c-11,0-20-9-20-20V226.3c0-11,9-20,20-20h858.5c11,0,20,9,20,20v424.6C898.9,662,890,670.9,878.9,670.9z
			 M40.4,630.9h818.5V246.3H40.4V630.9z"/>
		<path d="M942.6,745.1H84c-11,0-20-9-20-20v-67.5c0-10.9,8.8-19.9,19.7-20l0.3,0c-6.7-28.3-32.2-49.4-62.6-49.4v-40
			c52.3,0,95.7,38.7,103.2,88.9l648-8.3c9.8-42.1,45.2-74.5,88.9-79.9V332.3C810,326,770,282,770,228.7h40
			c0,31.1,22.2,57.2,51.6,63.1c0.6-10.6,9.3-18.9,20-18.9h61c11,0,20,9,20,20v432.2C962.6,736.2,953.6,745.1,942.6,745.1z
			 M104,705.1h818.5V312.9h-21v334.6c0,10.9-8.8,19.9-19.7,20L104,677.4V705.1z M861.6,589.5c-21.3,4.3-38.8,19.1-46.9,38.8
			l46.9-0.6V589.5z M21.5,333.1v-40c35.5,0,64.3-28.9,64.3-64.3h40C125.8,286.3,79,333.1,21.5,333.1z"/>
		<path d="M487.3,526.2c-32.3,0-60.2-18.3-74.1-45h74.1v-25.7h-82.6c-0.6-4.2-1-8.5-1-12.9c0-4.4,0.4-8.6,1-12.9h82.6V404h-74.1
			c13.9-26.8,42-45,74.1-45c20.7,0,39.7,7.5,54.4,20.2l22.8-22.8c-20.5-18.4-47.6-29.6-77.2-29.6c-50.4,0-93.1,32.3-109.1,77.2H333
			v25.8h39.4c-0.5,4.2-0.8,8.4-0.8,12.9c0,4.4,0.3,8.6,0.8,12.9H333v25.7h45.3c16,44.9,58.7,77.2,109.1,77.2
			c29.7,0,56.7-11.2,77.2-29.6L541.6,506C527.1,518.6,508.2,526.2,487.3,526.2"/>
	</g>
</g>
</svg>
