<?xml version="1.0" encoding="utf-8"?>
<!-- Generator: Adobe Illustrator 17.0.0, SVG Export Plug-In . SVG Version: 6.00 Build 0)  -->
<!DOCTYPE svg PUBLIC "-//W3C//DTD SVG 1.1//EN" "http://www.w3.org/Graphics/SVG/1.1/DTD/svg11.dtd">
<svg version="1.1" id="Calque_1" xmlns="http://www.w3.org/2000/svg" xmlns:xlink="http://www.w3.org/1999/xlink" x="0px" y="0px"
	 width="1024px" height="1024px" viewBox="0 0 1024 1024" enable-background="new 0 0 1024 1024" xml:space="preserve">
<g>
	<title>CN-1280-BORNE-BURALISTES-ICONS</title>
	<g>
		<g>
			<path fill="#333333" d="M933.3,732.8H19.7c-11,0-20-9-20-20V239c0-11,9-20,20-20h913.5c11,0,20,9,20,20v473.7
				C953.3,723.8,944.3,732.8,933.3,732.8z M39.7,692.8h873.5V259H39.7V692.8z"/>
			<path fill="#333333" d="M1003.9,804.5H90.3c-11,0-20-9-20-20v-71.7h23.5c-0.8-40.2-33.1-72.6-72.7-72.6v-40
				c62.1,0,112.7,51.2,112.7,114.1h-23.5v50.2h873.5V330.7h-50.6v-40h70.6c11,0,20,9,20,20v473.7
				C1023.9,795.5,1014.9,804.5,1003.9,804.5z M853.2,714.2h-40c0-62.9,50.5-114.1,112.7-114.1v40
				C885.8,640.2,853.2,673.4,853.2,714.2z M925.9,355.5c-62.1,0-112.7-51.2-112.7-114.1h40c0,40.8,32.6,74.1,72.7,74.1V355.5z
				 M21.2,355.5v-40c40.1,0,72.7-33.2,72.7-74.1h40C133.9,304.3,83.3,355.5,21.2,355.5z"/>
			<path fill="#333333" d="M476.5,656.1c-98,0-177.8-80.8-177.8-180.2c0-99.3,79.8-180.2,177.8-180.2c98,0,177.8,80.8,177.8,180.2
				C654.3,575.3,574.5,656.1,476.5,656.1z M476.5,335.7c-76,0-137.8,62.9-137.8,140.2s61.8,140.2,137.8,140.2
				c76,0,137.8-62.9,137.8-140.2S552.5,335.7,476.5,335.7z"/>
			<g>
				<path fill="#333333" d="M490.3,532.3c-21.5,0-40-12.3-49.3-30.4h49.3v-17.3h-54.9c-0.4-2.9-0.7-5.7-0.7-8.7c0-3,0.2-5.8,0.7-8.7
					h54.9v-17.4H441c9.2-18.1,27.9-30.4,49.3-30.4c13.8,0,26.4,5.1,36.2,13.6l15.1-15.4c-13.6-12.4-31.6-20-51.3-20
					c-33.5,0-61.9,21.8-72.5,52.1h-30.1v17.4h26.2c-0.4,2.9-0.5,5.8-0.5,8.7c0,2.9,0.2,5.8,0.5,8.7h-26.2v17.3h30.1
					c10.6,30.3,39,52.1,72.5,52.1c19.7,0,37.7-7.5,51.3-20l-15.2-15.3C516.7,527.2,504.1,532.3,490.3,532.3"/>
				<path fill="#333333" d="M490.3,554.3c-32.5,0-61.7-20.9-72.7-52.1h-30.2v-17.8h26.1c-0.3-2.8-0.5-5.6-0.5-8.4
					c0-2.8,0.2-5.6,0.5-8.4h-26.1v-17.9h30.2c11-31.2,40.2-52.1,72.7-52.1c19,0,37.3,7.1,51.5,20l0.2,0.2l-15.5,15.7l-0.2-0.2
					c-10-8.7-22.8-13.6-36-13.6c-20.6,0-39.2,11.4-48.8,29.9h49.1v17.9h-54.9c-0.4,3-0.6,5.7-0.6,8.4c0,2.7,0.2,5.5,0.6,8.4h54.9
					v17.8h-49.1c9.6,18.4,28.3,29.9,48.8,29.9v0c13.2,0,26-4.8,35.9-13.6l0.2-0.2l15.6,15.7l-0.2,0.2
					C527.6,547.1,509.4,554.3,490.3,554.3z M387.9,501.7h30l0.1,0.2c10.9,31,39.9,51.9,72.3,51.9c18.9,0,36.9-7,50.9-19.7l-14.9-15
					c-10,8.7-22.8,13.5-36.1,13.5v0c-20.9,0-39.8-11.7-49.5-30.5l-0.2-0.4H490v-16.8h-54.9l0-0.2c-0.5-3.1-0.7-5.9-0.7-8.7
					c0-2.8,0.2-5.6,0.7-8.7l0-0.2H490v-16.9h-49.4l0.2-0.4c9.6-18.8,28.6-30.5,49.5-30.5c13.3,0,26.1,4.8,36.1,13.5l14.8-15
					c-14-12.7-32.1-19.7-50.9-19.7c-32.3,0-61.4,20.9-72.3,51.9l-0.1,0.2h-30V467h26.2l0,0.3c-0.4,2.9-0.5,5.8-0.5,8.6
					c0,2.9,0.2,5.8,0.5,8.6l0,0.3h-26.2V501.7z"/>
			</g>
		</g>
	</g>
</g>
</svg>
