<?xml version="1.0" encoding="utf-8"?>
<!-- Generator: Adobe Illustrator 21.1.0, SVG Export Plug-In . SVG Version: 6.00 Build 0)  -->
<svg version="1.1" id="Calque_1" xmlns="http://www.w3.org/2000/svg" xmlns:xlink="http://www.w3.org/1999/xlink" x="0px" y="0px"
	 viewBox="0 0 1024 1024" style="enable-background:new 0 0 1024 1024;" xml:space="preserve">
<g id="Ecrans-faits">
	<g id="Espace-connexion-7" transform="translate(-74.000000, -616.000000)">
		<g id="Group-2" transform="translate(74.000000, 615.000000)">
			<g id="Glyphs_x2F_Touch-ID">
				<g id="Touch-ID" transform="translate(0.500000, 1.500000)">
					<path d="M29,645.7c-6.5,0-12.5-4.4-14.1-11.1c-1.5-6.2-3-12.6-4.3-19c-0.4-0.9-0.6-1.8-0.8-2.8C-2.7,551.4-3.8,489.1,6.4,427.7
						c9.9-59.3,29.9-115.9,59.7-168.4c60.1-106,156-187.2,270-228.6c7.5-2.7,15.9,1.2,18.6,8.7c2.7,7.5-1.2,15.9-8.7,18.6
						C238.6,97.1,148.1,173.7,91.4,273.7c-28.1,49.5-47,102.9-56.3,158.8c-9.5,56.9-8.6,114.7,2.6,171.9c0.3,0.8,0.6,1.7,0.8,2.7
						c1.4,7,3,13.9,4.6,20.6c1.9,7.8-2.8,15.7-10.6,17.6C31.3,645.6,30.1,645.7,29,645.7z M1008.9,509.9c-7.8,0-14.3-6.2-14.5-14
						c-0.9-25.7-3.8-51.5-8.8-76.9c-0.3-0.8-0.6-1.7-0.8-2.7c-12.9-63.9-37.9-123.4-74.3-176.7c-35.2-51.6-79.5-95.3-131.8-130
						C726.5,74.8,669,50.9,607.8,38.4c-63.3-12.9-127.8-12.9-191.7,0C408.2,40,400.6,34.9,399,27c-1.6-7.9,3.5-15.5,11.4-17.1
						C478.1-3.8,546.5-3.8,613.6,9.9c64.9,13.2,125.8,38.6,181.2,75.4c55.4,36.8,102.4,83.2,139.7,137.8
						c38.1,55.8,64.4,117.9,78.3,184.6c0.4,0.9,0.6,1.8,0.8,2.7c5.6,27.8,8.9,56.2,9.9,84.4c0.3,8-6,14.8-14,15
						C1009.3,509.9,1009.1,509.9,1008.9,509.9z"/>
					<path d="M383.1,1006.8c-3.4,0-6.8-1.2-9.6-3.6c-6-5.3-6.6-14.5-1.3-20.5c18.6-21.2,35.8-44.1,50.9-67.9
						c4.3-6.8,13.3-8.8,20.1-4.5c6.8,4.3,8.8,13.3,4.5,20.1c-16,25.1-34,49.2-53.6,71.5C391.2,1005.1,387.1,1006.8,383.1,1006.8z
						 M457.2,899.6c-2.3,0-4.6-0.5-6.8-1.7c-7.1-3.8-9.8-12.6-6-19.7c29-54.6,48.5-113.1,57.7-173.9c9.6-62.9,8-126.8-4.7-189.8
						c-1.6-7.9,3.5-15.5,11.4-17.1c7.9-1.6,15.5,3.5,17.1,11.4c13.4,66.3,15,133.6,4.9,199.9c-9.8,64.1-30.2,125.7-60.8,183.2
						C467.4,896.8,462.4,899.6,457.2,899.6z"/>
					<path d="M452.7,1020.2c-3.1,0-6.3-1-8.9-3.1c-6.3-4.9-7.4-14.1-2.5-20.4c51.1-65.4,87.8-139.1,109-219.1
						c2.1-7.8,10-12.4,17.8-10.3c7.8,2.1,12.4,10,10.3,17.8c-22.2,83.8-60.6,161-114.2,229.5
						C461.3,1018.3,457.1,1020.2,452.7,1020.2z M318.8,984.8c-3.7,0-7.3-1.4-10.2-4.1c-5.7-5.6-5.9-14.8-0.3-20.6
						C420.3,845.3,468,683.4,436,526.9c-8.4-41.7,18.6-82.4,60.3-90.8c20.2-4.1,40.8,0,58,11.4c17.1,11.4,28.7,28.8,32.6,49
						c15.5,76.9,16.8,154.9,3.8,231.6c-1.3,7.9-8.9,13.3-16.8,11.9c-7.9-1.3-13.3-8.8-11.9-16.8c12.4-73.2,11.1-147.6-3.7-221.1
						c-2.5-12.6-9.7-23.4-20.3-30.5c-10.7-7.1-23.5-9.6-36-7.1c-25.9,5.2-42.8,30.6-37.5,56.5c33.9,165.9-16.7,337.6-135.3,459.2
						C326.4,983.3,322.6,984.8,318.8,984.8z"/>
					<path d="M527.4,1023.4c-2.8,0-5.7-0.8-8.2-2.5c-6.6-4.5-8.3-13.6-3.8-20.2c21.3-31.2,40.2-64.4,55.9-98.6
						c3.4-7.3,12-10.5,19.3-7.1c7.3,3.4,10.5,12,7.1,19.3c-16.5,35.8-36.1,70.4-58.4,102.9C536.6,1021.1,532,1023.4,527.4,1023.4z
						 M260.1,955.3c-3.9,0-7.8-1.5-10.6-4.6c-5.5-5.9-5.2-15.1,0.7-20.6c21.1-19.7,40.2-41.7,56.8-65.3c4.6-6.6,13.7-8.1,20.3-3.5
						c6.6,4.6,8.1,13.7,3.5,20.3c-17.8,25.3-38.2,48.8-60.8,69.8C267.2,954,263.6,955.3,260.1,955.3z M600.6,884.8
						c-1.8,0-3.5-0.3-5.3-1c-7.5-2.9-11.2-11.3-8.3-18.8c46.5-119.3,57.7-249,32.2-375c-5.7-28.8-22.4-53.7-46.8-70
						c-24.5-16.3-53.9-22.1-82.7-16.3c-7.9,1.6-15.5-3.5-17.1-11.4c-1.6-7.9,3.5-15.5,11.4-17.1c36.5-7.4,73.6-0.1,104.6,20.6
						c30.9,20.6,52,52,59.2,88.4c26.5,131.5,14.9,266.8-33.7,391.3C611.9,881.3,606.4,884.8,600.6,884.8z M340.3,854.2
						c-2.5,0-5-0.6-7.2-1.9c-7-4-9.3-12.9-5.3-19.9c51.2-88.8,68-192.9,47.5-293.1c-5.7-28-2.7-56.6,8.6-82.7
						c11-25.5,29.2-46.9,52.4-61.9c6.8-4.3,15.8-2.4,20.1,4.3c4.3,6.8,2.4,15.8-4.3,20.1c-18.4,11.9-32.7,28.8-41.5,49
						c-8.9,20.6-11.3,43.2-6.8,65.4c22,107.1,4,218.5-50.7,313.5C350.2,851.6,345.3,854.2,340.3,854.2z"/>
					<path d="M606.7,1014.4c-2.5,0-5-0.6-7.3-2c-6.9-4.1-9.2-13-5.2-19.9c91.1-155.3,121.7-338.2,86.1-514.8l-1.1-5.7
						c-10.1-42.7-35.6-79.4-72.3-103.7c-38.3-25.5-84.2-34.5-129.3-25.4c-45.1,9.1-83.9,35.2-109.4,73.5
						c-23.4,35.2-32.9,76.9-27.2,118.4l2.2,10.9c13.8,68.6,8.9,139.6-14.2,205.2c-22.4,63.7-61.3,120.8-112.4,165
						c-6.1,5.3-15.3,4.6-20.5-1.5c-5.3-6.1-4.6-15.3,1.5-20.5c47.3-40.9,83.2-93.7,104-152.7c19.8-56.3,25.2-116.8,15.6-175.9
						l-0.1,0l-2.8-13.9c-10.6-52.7-0.1-106.4,29.7-151.2c29.8-44.8,75.2-75.3,127.9-85.9c52.7-10.6,106.4-0.1,151.2,29.7
						c44.8,29.8,75.3,75.2,85.9,127.9l2.4,11.7l-0.2,0.1c33.4,180,0.9,365.4-91.8,523.5C616.5,1011.8,611.7,1014.4,606.7,1014.4z"/>
					<path d="M690,990.5c-2.1,0-4.3-0.5-6.4-1.5c-7.2-3.5-10.2-12.2-6.7-19.4c37.3-76.6,62-158.1,73.2-242.2
						c11.6-87,8.6-175.2-8.9-262c-12.4-61.4-47.9-114.3-100-148.9c-52.1-34.6-114.6-46.9-176-34.5c-61.4,12.4-114.2,47.9-148.9,100
						c-34.6,52.1-46.9,114.6-34.5,176C306,676.4,262.8,797.7,169,874.6c-6.2,5.1-15.4,4.2-20.5-2c-5.1-6.2-4.2-15.4,2-20.5
						c85.4-70,124.8-180.4,102.8-288.3c-13.9-69-0.1-139.3,38.8-197.9c38.9-58.6,98.4-98.5,167.3-112.4
						c69-13.9,139.2-0.1,197.8,38.8c58.6,38.9,98.5,98.4,112.4,167.4c18.1,90,21.2,181.4,9.2,271.6
						c-11.6,87.2-37.2,171.7-75.9,251.1C700.5,987.5,695.3,990.5,690,990.5z"/>
					<path d="M776.5,947.3c-1.7,0-3.5-0.3-5.2-1c-7.5-2.9-11.3-11.3-8.4-18.8c25.7-67.2,42.8-137.3,50.9-208.5
						c0.9-8,8.1-13.7,16.1-12.8c8,0.9,13.7,8.1,12.8,16.1c-8.4,73.6-26.1,146.2-52.6,215.6C787.8,943.7,782.3,947.3,776.5,947.3z
						 M118.5,831.2c-4.3,0-8.5-1.9-11.3-5.4c-5-6.3-4-15.4,2.2-20.4c30-24.1,53.9-55.6,69.1-91.1c15.5-36.2,21.6-76,17.6-115.2
						c-0.8-8,5-15.1,13-15.9c8-0.8,15.1,5,15.9,13c4.4,44-2.4,88.8-19.8,129.5c-17,39.8-43.9,75.2-77.6,102.3
						C125,830.1,121.7,831.2,118.5,831.2z M831.9,694.3c-0.3,0-0.6,0-1,0c-8-0.5-14.1-7.4-13.6-15.5c4.9-75.2-0.2-151.1-15.2-225.7
						c-10-49.4-32.4-95.6-64.9-133.7c-5.2-6.1-4.5-15.3,1.6-20.5c6.1-5.2,15.3-4.5,20.5,1.6c35.7,41.8,60.3,92.6,71.2,146.8
						c15.5,77.1,20.9,155.6,15.8,233.3C845.9,688.3,839.5,694.3,831.9,694.3z M202.1,558.2c-7.4,0-13.7-5.6-14.4-13
						c-8.4-80.2,13.3-160.3,61.1-225.6c48.1-65.8,118.5-110.8,198.4-127c49.7-10,99.6-8.5,148.3,4.5c46.4,12.4,90.3,35.5,127,66.7
						c6.1,5.2,6.9,14.4,1.7,20.5c-5.2,6.1-14.4,6.9-20.5,1.7c-69.7-59.3-161.1-82.9-250.7-64.8c-72.8,14.7-136.9,55.7-180.7,115.6
						c-43.5,59.5-63.2,132.5-55.6,205.4c0.8,8-5,15.1-13,16C203.2,558.1,202.6,558.2,202.1,558.2z"/>
					<path d="M864.6,876.6c-1.2,0-2.5-0.2-3.8-0.5c-7.8-2.1-12.4-10-10.3-17.8c26.5-99.3,36-201.6,28.2-304.1
						c-0.6-8,5.4-15,13.4-15.6c8-0.6,15,5.4,15.6,13.4c8,105.7-1.8,211.3-29.1,313.8C876.9,872.3,871,876.6,864.6,876.6z
						 M83.4,779.6c-4.1,0-8.2-1.7-11.1-5.1c-5.2-6.1-4.4-15.3,1.7-20.5c48-40.7,70.1-104.2,57.5-165.6
						c-18.2-90.3-3.6-184.3,41-264.7c44.1-79.5,114.9-141.2,199.3-173.6c7.5-2.9,15.9,0.9,18.8,8.3c2.9,7.5-0.9,15.9-8.3,18.8
						c-78,30-143.5,87.1-184.3,160.6C156.6,412.1,143.2,499,160,582.6c14.7,71.8-11,146-67.2,193.6
						C90.1,778.5,86.8,779.6,83.4,779.6z M887.3,511.4c-7.2,0-13.4-5.3-14.4-12.6c-2.6-19.3-5.9-38.9-9.8-58.1
						C844.1,346.9,789.7,266,710,213c-79.8-53-175.4-71.8-269.3-52.8c-7.9,1.6-15.5-3.5-17.1-11.4c-1.6-7.9,3.5-15.5,11.4-17.1
						c101.5-20.5,204.9-0.2,291.2,57.1c41.9,27.9,77.5,63,105.8,104.4c29.3,42.9,49.4,90.6,59.7,141.9c4,19.8,7.4,39.9,10.1,59.9
						c1.1,8-4.5,15.3-12.4,16.4C888.6,511.4,888,511.4,887.3,511.4z"/>
					<path d="M950.5,760c-0.6,0-1.2,0-1.8-0.1c-8-1-13.6-8.3-12.6-16.2c5.8-46.8,8.3-94.5,7.2-141.7c-0.2-8,6.2-14.7,14.2-14.9
						c8-0.2,14.7,6.2,14.9,14.2c1.1,48.6-1.4,97.7-7.5,146C964,754.6,957.8,760,950.5,760z M54.1,721.8c-3.5,0-7.1-1.3-9.9-3.9
						c-5.9-5.5-6.2-14.7-0.8-20.5c24.1-26,34.3-62.2,27.2-96.7c-13.5-67.1-11.8-134.5,5-200.2c2-7.8,9.9-12.5,17.7-10.5
						c7.8,2,12.5,9.9,10.5,17.7C88,469.1,86.5,532.1,99.1,594.8c9,43.7-3.9,89.4-34.3,122.3C61.9,720.2,58,721.8,54.1,721.8z
						 M954.3,550.9c-7.5,0-13.8-5.7-14.5-13.3c-3.2-36.4-8.5-73.1-15.8-109.2c-11.1-55.1-32.6-106.4-63.9-152.6
						c-4.5-6.6-2.8-15.7,3.9-20.2c6.6-4.5,15.7-2.8,20.2,3.9c33.4,49.3,56.4,104.2,68.3,163.1c7.5,37.1,12.9,74.9,16.2,112.4
						c0.7,8-5.2,15.1-13.2,15.8C955.1,550.9,954.7,550.9,954.3,550.9z M111.9,353.6c-1.9,0-3.9-0.4-5.8-1.2
						c-7.4-3.2-10.8-11.8-7.6-19.1c28.3-65.3,72.2-123.7,126.9-168.8c56.6-46.7,124.7-79.1,197.1-93.6
						c76.9-15.5,156.7-10.7,230.7,14c71.8,23.9,136.9,65.9,188.4,121.4c5.5,5.9,5.1,15.1-0.8,20.6c-5.9,5.5-15.1,5.1-20.5-0.8
						c-48.2-51.9-109.1-91.2-176.3-113.6c-69.2-23.1-143.8-27.6-215.7-13.1c-67.7,13.6-131.4,43.9-184.3,87.6
						c-51.2,42.3-92.3,96.9-118.8,158C122.9,350.3,117.6,353.6,111.9,353.6z"/>
				</g>
			</g>
		</g>
	</g>
</g>
</svg>
