<?xml version="1.0" encoding="utf-8"?>
<!-- Generator: Adobe Illustrator 21.1.0, SVG Export Plug-In . SVG Version: 6.00 Build 0)  -->
<svg version="1.1" id="Calque_1" xmlns="http://www.w3.org/2000/svg" xmlns:xlink="http://www.w3.org/1999/xlink" x="0px" y="0px"
	 viewBox="0 0 1024 1024" style="enable-background:new 0 0 1024 1024;" xml:space="preserve">
<g>
	<path d="M969.8,940.5L846.3,800.2H875c39,0,70.6-31.6,70.6-70.6V272.6C945.6,122.1,823.5,0,673,0H331.6
		C181,0,58.9,122.1,58.9,272.6v105.8v351.1c0,39,31.6,70.6,70.6,70.6h48.2L54.2,940.5c-18.4,20.8-16.3,52.6,4.5,71
		c9.6,8.4,21.4,12.5,33.2,12.5c13.9,0,27.8-5.8,37.8-17.1l44.6-50.6h675.6l44.6,50.6c9.9,11.3,23.8,17.1,37.8,17.1
		c11.8,0,23.7-4.1,33.2-12.5C986.2,993.1,988.2,961.3,969.8,940.5z M159.5,393.6h553.1c27.8,0,50.3-22.5,50.3-50.3
		c0-27.8-22.5-50.3-50.3-50.3H159.5v-20.4c0-46,17.9-89.2,50.4-121.7c32.5-32.5,75.7-50.4,121.7-50.4H673c46,0,89.2,17.9,121.7,50.4
		c32.5,32.5,50.4,75.7,50.4,121.7v427H159.5V393.6z M262.8,855.8l49-55.6h400.5l49,55.6H262.8z"/>
	<path d="M290.1,470.7c-54.2,0-98.3,44.1-98.3,98.3c0,54.2,44.1,98.3,98.3,98.3s98.3-44.1,98.3-98.3
		C388.4,514.8,344.3,470.7,290.1,470.7z M290.1,603.2c-18.8,0-34.1-15.3-34.1-34.1c0-18.8,15.3-34.1,34.1-34.1s34.1,15.3,34.1,34.1
		C324.2,587.9,308.9,603.2,290.1,603.2z"/>
	<path d="M712.9,470.7c-54.2,0-98.3,44.1-98.3,98.3c0,54.2,44.1,98.3,98.3,98.3c54.2,0,98.3-44.1,98.3-98.3
		C811.2,514.8,767.1,470.7,712.9,470.7z M712.9,603.2c-18.8,0-34.1-15.3-34.1-34.1c0-18.8,15.3-34.1,34.1-34.1
		c18.8,0,34.1,15.3,34.1,34.1C747,587.9,731.7,603.2,712.9,603.2z"/>
</g>
</svg>
