<svg id="5ff08d2d-5f1d-45cc-9279-12651fb06693" data-name="Calque 8" xmlns="http://www.w3.org/2000/svg" viewBox="0 0 900.34 1024"><title>allocations</title><path d="M576.23,406.84c0-34.2-28-62-62.43-62s-62.39,27.85-62.39,62,28,62.08,62.39,62.08S576.23,441.07,576.23,406.84Zm-88.91,0A26.5,26.5,0,1,1,513.81,433,26.34,26.34,0,0,1,487.33,406.84Z" transform="translate(-61.83)"/><path d="M672.54,492.94a55.88,55.88,0,0,0-16.73-40.09,57.07,57.07,0,0,0-80.32,0l-61.59,61.24L448.5,449.27a57.14,57.14,0,0,0-80.32,0,56.39,56.39,0,0,0,0,80.14L473.65,634A57.11,57.11,0,0,0,554,634L655.81,533A55.8,55.8,0,0,0,672.54,492.94Zm-42,14.52-101.85,101a21,21,0,0,1-29.71,0L393.47,503.88a20.45,20.45,0,0,1,0-29.11,21.21,21.21,0,0,1,29.78,0l90.7,89.92,86.91-86.35a21.16,21.16,0,0,1,29.71,0l0,0a20.41,20.41,0,0,1,0,29.07Z" transform="translate(-61.83)"/><path d="M190.76,608c0,34.2,28,62,62.39,62s62.39-27.85,62.39-62-28-62.08-62.39-62.08S190.76,573.74,190.76,608Zm88.87,0a26.48,26.48,0,1,1-26.48-26.16A26.34,26.34,0,0,1,279.63,608Z" transform="translate(-61.83)"/><path d="M411.89,694A56.11,56.11,0,0,0,395.19,654l0,0a57.14,57.14,0,0,0-80.32,0l-61.62,61.24-65.37-64.81a57.14,57.14,0,0,0-80.32,0,56.31,56.31,0,0,0,0,80.07L213,835.14a57.11,57.11,0,0,0,80.32,0l101.85-101A56.09,56.09,0,0,0,411.89,694Zm-42,14.52L268,809.64a21.13,21.13,0,0,1-29.71,0L132.78,704.95a20.41,20.41,0,0,1,0-29.07,21.13,21.13,0,0,1,29.74,0l90.66,89.89,86.94-86.35a21.23,21.23,0,0,1,29.74,0,20.41,20.41,0,0,1,0,29.07Z" transform="translate(-61.83)"/><path d="M451.41,780.35c0,34.2,28,62,62.39,62s62.43-27.85,62.43-62-28-62.08-62.43-62.08S451.41,746.12,451.41,780.35Zm88.91,0a26.5,26.5,0,1,1-26.51-26.16A26.35,26.35,0,0,1,540.32,780.35Z" transform="translate(-61.83)"/><path d="M575.5,826.37,513.88,887.6,448.5,822.79a57.14,57.14,0,0,0-80.32,0,56.31,56.31,0,0,0,0,80.07l105.5,104.66a57.11,57.11,0,0,0,80.35,0l101.81-101a56.35,56.35,0,0,0,0-80.1A57.11,57.11,0,0,0,575.5,826.37Zm55,54.61L528.68,982A21.06,21.06,0,0,1,499,982L393.47,877.36a20.41,20.41,0,0,1,0-29.07,21.21,21.21,0,0,1,29.78,0l90.73,90,86.87-86.42a21.19,21.19,0,0,1,29.71,0l0,0a20.45,20.45,0,0,1,0,29.11Z" transform="translate(-61.83)"/><path d="M741,608c0,34.2,28,62,62.39,62s62.43-27.85,62.43-62-28-62.08-62.43-62.08S741,573.74,741,608Zm88.91,0a26.5,26.5,0,1,1-26.51-26.16A26.35,26.35,0,0,1,829.95,608Z" transform="translate(-61.83)"/><path d="M865.12,654,803.5,715.23l-65.37-64.81a57.14,57.14,0,0,0-80.32,0,56.31,56.31,0,0,0,0,80.07L763.27,835.1a57.11,57.11,0,0,0,80.35,0l101.81-101a56.31,56.31,0,0,0,0-80.1A57.14,57.14,0,0,0,865.12,654Zm55,54.57L818.3,809.64a21.06,21.06,0,0,1-29.71,0L683.1,705a20.41,20.41,0,0,1,0-29.11,21.13,21.13,0,0,1,29.74,0l90.73,89.89,86.87-86.35a21.19,21.19,0,0,1,29.71,0l0,0a20.41,20.41,0,0,1,0,29.07Z" transform="translate(-61.83)"/><path d="M803.43,325.26c34.41,0,62.43-27.85,62.43-62.08s-28-62-62.43-62S741,229,741,263.18,769,325.26,803.43,325.26Zm0-88.21A26.15,26.15,0,1,1,777,263.18,26.35,26.35,0,0,1,803.43,237.05Z" transform="translate(-61.83)"/><path d="M641.08,345.6a56.27,56.27,0,0,0,16.69,40.12l105.5,104.58a57.11,57.11,0,0,0,80.35,0l101.81-101a56.31,56.31,0,0,0,0-80.1,57.07,57.07,0,0,0-80.32,0l-61.59,61.24-65.41-64.85a57.14,57.14,0,0,0-80.32,0A56.15,56.15,0,0,0,641.08,345.6Zm42-14.48a21.21,21.21,0,0,1,29.78,0L803.54,421l86.91-86.35a21.19,21.19,0,0,1,29.71,0l0,0a20.41,20.41,0,0,1,0,29.07l-101.85,101a21,21,0,0,1-29.71,0L683.1,360.23a20.45,20.45,0,0,1,0-29.11Z" transform="translate(-61.83)"/><path d="M513.81,124.12c34.41,0,62.43-27.85,62.43-62S548.21,0,513.81,0s-62.39,27.85-62.39,62.08S479.4,124.12,513.81,124.12Zm0-88.21a26.15,26.15,0,1,1-26.48,26.16A26.38,26.38,0,0,1,513.81,35.91Z" transform="translate(-61.83)"/><path d="M473.65,289.2a57.11,57.11,0,0,0,80.35,0l101.81-101a56.35,56.35,0,0,0,0-80.1,57.11,57.11,0,0,0-80.35,0l-61.62,61.24L448.5,104.51a57.14,57.14,0,0,0-80.32,0,56.31,56.31,0,0,0,0,80.07ZM393.44,130a21.21,21.21,0,0,1,29.78,0l90.73,90,86.87-86.42a21.16,21.16,0,0,1,29.71,0l0,0a20.45,20.45,0,0,1,0,29.11l-101.85,101a21.09,21.09,0,0,1-29.71,0L393.47,159.09a20.41,20.41,0,0,1,0-29.07Z" transform="translate(-61.83)"/><path d="M224.18,325.26c34.41,0,62.43-27.85,62.43-62.08s-28-62-62.43-62-62.39,27.85-62.39,62S189.78,325.26,224.18,325.26Zm0-88.21a26.15,26.15,0,1,1-26.48,26.13A26.35,26.35,0,0,1,224.18,237.05Z" transform="translate(-61.83)"/><path d="M224.22,506.83a56.83,56.83,0,0,0,40.16-16.52l101.81-101a56.31,56.31,0,0,0,0-80.07,57.11,57.11,0,0,0-80.35,0l-61.59,61.24-65.41-64.85a57.14,57.14,0,0,0-80.32,0,56.39,56.39,0,0,0,0,80.14L184,490.31A56.85,56.85,0,0,0,224.22,506.83ZM97.75,345.64a20.24,20.24,0,0,1,6.07-14.52,21.21,21.21,0,0,1,29.78,0L224.29,421l86.91-86.35a21.19,21.19,0,0,1,29.71,0l0,0a20.41,20.41,0,0,1,0,29.07l-101.85,101a21,21,0,0,1-29.71,0L103.81,360.19A20.17,20.17,0,0,1,97.75,345.64Z" transform="translate(-61.83)"/></svg>