<?xml version="1.0" encoding="utf-8"?>
<!-- Generator: Adobe Illustrator 21.1.0, SVG Export Plug-In . SVG Version: 6.00 Build 0)  -->
<svg version="1.1" id="Calque_1" xmlns="http://www.w3.org/2000/svg" xmlns:xlink="http://www.w3.org/1999/xlink" x="0px" y="0px"
	 viewBox="0 0 1024 1024" style="enable-background:new 0 0 1024 1024;" xml:space="preserve">
<g id="Page-1_1_">
	<g id="icon-1-copy">
		<g id="Page-1" transform="translate(20.000000, 194.000000)">
			<path d="M897.2,656.8H87.1c-58.9,0-106.8-47.9-106.8-106.8V87.1c0-58.9,47.9-106.8,106.8-106.8h810.1
				c58.9,0,106.8,47.9,106.8,106.8V550C1004,608.9,956.1,656.8,897.2,656.8z M87.1,20.3c-36.8,0-66.8,30-66.8,66.8V550
				c0,36.8,30,66.8,66.8,66.8h810.1c36.8,0,66.8-30,66.8-66.8V87.1c0-36.8-30-66.8-66.8-66.8H87.1z"/>
			<path d="M831.2,588.1c-45.4,0-82.4-37-82.4-82.4c0-45.4,37-82.4,82.4-82.4c45.4,0,82.4,37,82.4,82.4
				C913.6,551.2,876.6,588.1,831.2,588.1z M831.2,463.3c-23.4,0-42.4,19-42.4,42.4s19,42.4,42.4,42.4s42.4-19,42.4-42.4
				S854.6,463.3,831.2,463.3z"/>
			<path d="M748,588.1c-45.4,0-82.4-37-82.4-82.4c0-45.4,37-82.4,82.4-82.4s82.4,37,82.4,82.4C830.4,551.2,793.5,588.1,748,588.1z
				 M748,463.3c-23.4,0-42.4,19-42.4,42.4s19,42.4,42.4,42.4s42.4-19,42.4-42.4S771.4,463.3,748,463.3z"/>
			<path d="M193.8,298.8H136c-27,0-48.9-22-48.9-48.9V192c0-27,22-48.9,48.9-48.9h57.9c27,0,48.9,22,48.9,48.9v57.9
				C242.7,276.8,220.8,298.8,193.8,298.8z M136,183.1c-4.9,0-8.9,4-8.9,8.9v57.9c0,4.9,4,8.9,8.9,8.9h57.9c4.9,0,8.9-4,8.9-8.9V192
				c0-4.9-4-8.9-8.9-8.9H136z"/>
			<path d="M193.8,404.5H107c-11,0-20-9-20-20s9-20,20-20h86.8c11,0,20,9,20,20S204.9,404.5,193.8,404.5z"/>
			<path d="M338.5,404.5h-86.8c-11,0-20-9-20-20s9-20,20-20h86.8c11,0,20,9,20,20S349.5,404.5,338.5,404.5z"/>
			<path d="M483.1,404.5h-86.8c-11,0-20-9-20-20s9-20,20-20h86.8c11,0,20,9,20,20S494.2,404.5,483.1,404.5z"/>
			<path d="M627.8,404.5H541c-11,0-20-9-20-20s9-20,20-20h86.8c11,0,20,9,20,20S638.8,404.5,627.8,404.5z"/>
			<path d="M338.5,504.4H107c-11,0-20-9-20-20s9-20,20-20h231.5c11,0,20,9,20,20S349.5,504.4,338.5,504.4z"/>
		</g>
	</g>
</g>
</svg>
