<svg id="Calque_14" data-name="Calque 14" xmlns="http://www.w3.org/2000/svg" viewBox="0 0 1024 1024"><title>Plan de travail 1</title><path d="M804.12,603.67a74.88,74.88,0,0,0-67.18,23.78,5.68,5.68,0,0,1-8.31,0,74.89,74.89,0,0,0-67.12-23.79c-30.71,4.64-56.07,28.66-62.05,59.14a75.09,75.09,0,0,0,129,65.83,5.82,5.82,0,0,1,8.71,0,75.09,75.09,0,0,0,129-65.78C860.16,632.37,834.83,608.34,804.12,603.67Z"/><path d="M873.47,128.16H150.52C67.53,128.16,0,195.63,0,278.58V745.42c0,82.94,67.53,150.42,150.52,150.42H873.47c83,0,150.53-67.47,150.53-150.42V278.58C1024,195.63,956.47,128.16,873.47,128.16Zm58,617.27a57.85,57.85,0,0,1-57.85,57.85H150.52a58.12,58.12,0,0,1-58-58V443.07a11.57,11.57,0,0,1,11.57-11.57H813.08c24.17,0,45.76-17.67,48.06-41.73a46.29,46.29,0,0,0-46.06-50.83H104.14a11.57,11.57,0,0,1-11.57-11.57V278.58a57.85,57.85,0,0,1,57.85-57.85H873.47a58.14,58.14,0,0,1,58,58Z"/></svg>