<svg id="71a4fd3f-6033-4c9c-ad0c-1b8ee7d57660" data-name="Calque 28" xmlns="http://www.w3.org/2000/svg" viewBox="0 0 595.13 1024"><title>prelevements</title><path d="M809.38,551.16a49.69,49.69,0,0,0-22.64-37.67L597.41,390.84,721.11,67.95a50,50,0,0,0-81.31-54L229.95,406.41a50,50,0,0,0,7.13,78.08L418.73,603.13,266.08,953.93a49.59,49.59,0,0,0,17.11,60.81,49.62,49.62,0,0,0,63-4.33L793.64,592.06A49.78,49.78,0,0,0,809.38,551.16Zm-480,398.11L472.18,621a49.86,49.86,0,0,0-18.37-62L274.25,441.72,658.88,73.49,543.13,375.54a50.27,50.27,0,0,0,19.57,59.71L749.62,556.36Z" transform="translate(-214.43 0)"/></svg>