<svg id="04fa3330-5d9b-4a0c-884f-aa1f29678c47" data-name="Calque 3" xmlns="http://www.w3.org/2000/svg" viewBox="0 0 1024 733.01"><title>devices</title><circle cx="546.91" cy="652.57" r="19.55" transform="translate(-301.25 432.36) rotate(-45)"/><path d="M960.48,522.47H940.33V238.68a93.28,93.28,0,0,0-93.17-93.18H244a93.29,93.29,0,0,0-93.18,93.18V390.53H78.37A78.46,78.46,0,0,0,0,468.9V800.13a78.45,78.45,0,0,0,78.37,78.35H277.65A78.45,78.45,0,0,0,356,800.13V746.55h96.36v41.89c0,31-24.77,54.47-57.61,54.47a17.79,17.79,0,1,0,0,35.58c52.26,0,93.19-39.56,93.19-90V746.55h115.2v41.89c0,53.06,54.8,90,104,90a17.79,17.79,0,0,0,0-35.58c-32.28,0-68.38-23.3-68.38-54.47V746.55H810.52v70.55c0,33.86,28.49,61.4,63.5,61.4h86.47c35,0,63.52-27.54,63.52-61.4V583.85C1024,550,995.51,522.47,960.48,522.47Zm27.94,61.38V766.68a17.41,17.41,0,0,0-5.46-1.1H846.1V583.85c0-14.23,12.53-25.8,27.92-25.8h86.47C975.89,558.05,988.42,569.62,988.42,583.85Zm-802-345.18a57.67,57.67,0,0,1,57.6-57.6H847.16a57.66,57.66,0,0,1,57.59,57.6v283.8H874c-31.51,0-57.54,22.37-62.47,51.51H356V468.9a78.46,78.46,0,0,0-78.37-78.37H186.37Zm-108,187.43H277.65a42.84,42.84,0,0,1,42.79,42.79V724.53H35.58V468.9A42.84,42.84,0,0,1,78.37,426.11Zm199.27,416.8H78.37a42.83,42.83,0,0,1-42.79-42.77v-40H320.44v40A42.83,42.83,0,0,1,277.65,842.91ZM356,711V609.56h454.5V711Zm604.47,132H874c-15.39,0-27.92-11.59-27.92-25.82V801.16H983a17.41,17.41,0,0,0,5.46-1.1v17C988.42,831.34,975.89,842.93,960.48,842.93Z" transform="translate(0 -145.49)"/><circle cx="925.68" cy="816.65" r="11.3" transform="translate(-306.33 748.29) rotate(-45)"/><path d="M179.72,788.39a15.7,15.7,0,1,0,22.2,0A15.68,15.68,0,0,0,179.72,788.39Z" transform="translate(0 -145.49)"/></svg>