<svg id="Calque_21" data-name="Calque 21" xmlns="http://www.w3.org/2000/svg" viewBox="0 0 1024 1024"><title>Plan de travail 1</title><path d="M760.9,753.56q13.72.1,27.47.22c2.55,0,4.48-3.92,1.12-3.95q-117.94-1.09-235.9-.67c-27.57.13-55.13.36-82.69.92-2.54,0-4.49,4-1.12,3.94C566.79,752,663.88,752.85,760.9,753.56Z"/><path d="M971.09,1010.42l-68.08-.15c-1.12-2.44-4.34-5-1.84-7.07.93-.78,1.8-2.31.33-3.11-1.2-.66-2-2.23-2.7-3.77,3.82-.71,8.27-1.83,8.86-5.75.38-2.6-.79-2.56-1.8-4.26s-1.76-.12-1.38-2.05c.26-1.36,4-3.37,5.25-4.26,1.11-.76,1.65-2.27.33-3.1-2.48-1.58-9.29-2.09-10.92-4-2.82-3.32,1.8-4.69,1.69-8-.09-2.61-1.61-3.64-3.74-4.79-1.31-.72-4.67-1.36-3.9-3.76.19-.58,5.45-3.15,6.23-3.68,1-.69,1.75-2.36.33-3.11-2.54-1.34-5.69-2-5.21-5.39.08-.66,1.59-1.17,1.54-2.08l62.39-59.61c4.3-1.53,6.88-5.28,6.78-11.84,0-1.07-1-1.36-2.08-1.18-27.62-4-55.87-5.16-83.67-7.08-52.56-3.61-105.17-6.65-157.78-9.45q-62.86-3.35-125.73-6.14,123.69,3.78,247.32,9.09c26.27,1.15,52.92,3.86,79.21,3.62,8.75-.08,16.45-4,22.59-10.06,17.07-17,22.73-44.89,25.14-67.87,2.51-24,2.59-53.51-10.05-75-5.22-8.92-10.29-11.11-19.86-12.86-31.17-5.67-63.8-5.77-95.35-6.82l-7-.22q27.13-.91,54.23-2.14,7.89-.36,15.79-.77a3.18,3.18,0,0,0,2.66-2.6q1.08-4.71,2.16-9.41a2.84,2.84,0,0,0-2.58-3.21l-51.81-.66c-1.53-2.28-3.9-4.51-1.49-6.79.86-.81,1.32-2,.06-2.66-1.53-.79-2.25-2.48-3-4.11,3.89-1,8.28-2.5,8.65-6.44.25-2.73-1.3-2.53-2.5-4.32-1.33-2-1.69-.91,0-3.24a20.93,20.93,0,0,1,4.21-3.78c.53-.41,1.41-1.84.5-2.39-2.85-1.74-6.44-1.68-9.19-3.28-2.94-1.72-3.12-1-2.2-6.08.26-1.43,1.39-2,1.19-3.7-.28-2.33-2.12-3.33-4-4.28-2.1-1.06-4.9-1.73-3-5,.67-1.14,3.87-2.57,5.06-3.51.93-.73,1.27-2,.06-2.65-1.44-.72-3.2-1.16-4.43-2,.22-.53,0-.93-1.06-1a3.18,3.18,0,0,1-.36-2.59c.17-.8,1.56-1.29,1.71-2.29a3,3,0,0,0-1.53-3L901.33,537c4.68-1.41,7.76-5.27,7.32-12.27a1.76,1.76,0,0,0-.44-1.11,2.75,2.75,0,0,0-2.07-1.17c-27.5-3.06-55.55-3-83.16-3.82q-18.25-.55-36.5-1c21-8.5,37.57-24.48,40.94-50.05,3.7-28.19-13.87-51.44-32.68-70.54-23.36-23.72-50.92-43.31-78.89-61.17q-9.59-6.12-19.34-12c36.62-2.81,73.41-4.43,110.11-3,11.87.45,24,.89,35.74,2.89,5,6.93,3,22.84,13,24.73,7.57,1.43,17.36-7.75,22.7-11.72,4.18-3.09,7.86-6.33,13-7.65,7-1.81,14.52-2.21,21.76-2.57,10.52-.52,23.32,2,32.89-3.27,3.44-1.9,5.66-4.48,8.37-7.2.6-.61,1-2,1.69-2.4.5-.32,4.44-.89,5.82-1.69,6-3.42,13.64-14.34,9.1-21.5-3.49-5.51-10.31.92-13.31,3.76-3.49,3.31-5.93,6.44-10.86,7.44-4.75,1-10.21.05-14.86-.9-6.38-1.31-12.29-3.94-18.47-5.88-18.37-5.77-37.53-9.45-56.46-13.06a2.55,2.55,0,0,0-1.7-1.19l-92.49-16.2c-23.62-4.14-47.4-9.26-71.23-12.85,17-34.7,33.15-69.86,46.74-105.83,3.63-9.62,9.35-21.61,8.87-32.27,7.34-2.79,16-7.08,20.06-13.7,3.07-5,1.63-8.61-1-13.34a79.27,79.27,0,0,1-9.79-27.1c-1.47-9.32-2.18-18.72-4.66-27.85-.7-2.58-3.11-6.55-3.08-9.18,0-2.27,1.63-2.05,2.57-3.94,1.52-3.1-.74-6.74-4.29-7.24a5.12,5.12,0,0,0-2,.15c.21-1.75-.48-3.29-3-4a5.55,5.55,0,0,0-4.26.65c.37-3.09-.35-5.89-3.94-5.36a6.48,6.48,0,0,0-3.61,2.15C729.78,1.07,728-1.48,722.59,1c-3.07,1.38-6.06,6.39-6.7,10.56a27.73,27.73,0,0,0-2.64-4.37c-4.88-6.23-16-4.91-16.37,4.13-.27,6.35,5.09,12.89,8.38,17.86,4.37,6.57,9.05,13,11,20.8,2.36,9.29,2.94,19.25,2.81,28.8-.07,5.66.25,15.68-2.87,22a2,2,0,0,0-1.53-.49,2.21,2.21,0,0,0-2,1Q663.85,174,615.1,246.86c-8.14.32-16.24,1-24.25,2s-17.73,2.09-24.49,6.8c-8,5.59-11.86,17.51-12.08,26.82-.35,14.35,6.62,28,14.12,39.75,10.07,15.79,22.81,29.57,34.38,44.22,17.91,22.69,34.78,46.21,51.18,70,1.38,2,2.4,4.09,3.75,5.67a480.64,480.64,0,0,0-57.41,7.54c-4.58-16-17.16-26.36-33-31.33-5.93-1.87-18.55-6.38-24.24-2.46-2.09,1.44-3.89,4.26-5.65,6.08Q530.54,429,523,435.43c-4.05,3.44-8.23,6.63-12.52,9.64-8.35-.16-16.65-1.56-23.94-5.4a18.66,18.66,0,0,1-5.46-3.75c.35-2.31,2-5.17,2.77-7.32q1.93-5.11,3.91-10.2c.74-1.9,2.7-4.86,2.52-7.07-.25-3-3.41-4.83-5.72-6.24a40.58,40.58,0,0,0-4.1-2.16,2.4,2.4,0,0,0,0-.6c-1.48-6.75-6.86-2.89-6.86-2.89-1.21-4.28-4.69-6.21-6.5-3.24-4.6-4.44-4.2-12-6.26-18.2-.29-.9-1.47-.94-2.18-.69-1.33.46-2.62.93-3.89,1.39-1.15-3.23-4.59-6.79-6.94-9.11-5-4.94-9.23-6.1-12-4.23-4.1,2.8-.86,7.75,3.72,13a28.53,28.53,0,0,0,4.11,3.92c-1.18.3-2.38.55-3.58.74-4.51-5.52-10.18-9.36-15.12-7.95a11.59,11.59,0,0,0-6.56,4.83c-6.61-1.8-13-2.83-19.68-2.07-3-4-7.71-6.88-15.09-8.59a18.71,18.71,0,0,0-6.34-.35h0a19.51,19.51,0,0,0-2.92.54,69.53,69.53,0,0,0-31.83,15.61c-18.87-27.3-38.91-56.22-53.95-77.91,21.32-14.93,42.74-28.87,62.13-40.73,46.09-49.73,120.4-110.47,133.78-121.3l1.09.35c2.56.8,5-3.14,2-4.07-22.77-7.13-45.6-14.54-69.24-18.23-23.24-3.62-46-2.22-69.14,1.06-45,6.38-89.87,16.78-131.51,35.34a335.35,335.35,0,0,0-34.37,17.7c-3.32-3.75-6.52-9-10.9-11.49-3.25-1.86-6.66.18-7.51,3.67-.75,3.11,1.31,6.48,2.85,9a62,62,0,0,0,4.1,6c-22.61,14.92-43,33.12-58.51,55.4-12.4,17.77-22.18,37.19-31,56.94s-17.79,39.72-22.76,60.9A309.62,309.62,0,0,0,53,453.86c.25,2.83,5,1.79,4.77-.86,0-.29,0-.59-.06-.88,18.71-11,84.53-59.93,149.22-80.45,19.72-18.25,43.47-37,68-54.77,17.71,24.32,37.1,52.55,55.83,80-13.08,15.31-23.36,34.67-34.58,52.9-19.61,31.87-70.26,4.09-110.68,63.28-16.37,24-5.12,48.14,1.12,54.93-2.13,14.51-1.63,29.71-.34,43.13,2.33,24.32,8.42,54.67,27.32,72C224.4,693,236.33,692,250.38,692l6.85,0c-1.2.09-2.4.21-3.59.33-1.24-.93-4.34.21-4.47,2.22-.41,6.52,2.12,10.24,7,11.26l53.09,56.53a3.24,3.24,0,0,0,0,.7c.05.9,1.36,1.74,1.36,2.32.06,2.64-1.34,2.3-4.23,3.71-1.58.77-2.31,2.74-.72,3.93,1.09.82,5.22,2.57,5.25,4,.06,1.75-1.53,1.33-3.24,2.31s-3.5,2.11-3.87,4.39,2.81,5.17,1.61,7.36c-.42.79-8.82,2.66-10.35,3.54a2.17,2.17,0,0,0-.13,3.59,28.45,28.45,0,0,1,4.11,3.67,7.44,7.44,0,0,0,.72.73,1.16,1.16,0,0,0-.22.31c-.88,1.79-2.75,1.38-3.1,4-.59,4.61,4.06,5.8,7.88,6.7a6.34,6.34,0,0,1-1.9,2.55c-1.1.6-2.46,2.34-1.17,3.55,2.74,2.56.25,3.51-1.2,6.1l-60-2.23c-1.32,0-4,.9-3.64,2.64q1,4.66,2.11,9.34c.09.4.77.58,1.08.61,12.5.9,25,1.53,37.54,2C262,838.52,247,839,232,840c-9.49.62-19.95.84-29.06,3.93C187.44,849.17,181.27,872,178.23,886a187.38,187.38,0,0,0,2.82,89.13c6.26,22,18.23,44.61,43.76,44.4q163.51-1.35,327,0,122.86.94,245.73,3c49.56.73,99.16,1.84,148.73,1.51,6.67,0,13.33-.13,20-.34,1,0,2.73-.81,3-1.86.94-3.3,1.86-6.6,2.8-9.91A1,1,0,0,0,971.09,1010.42ZM57.68,402.67a18.13,18.13,0,0,0,8-6.16c30.31-42.1,71.46-79.61,112-112.64C235.2,237,298.37,196.22,366.65,167a537.91,537.91,0,0,1,91-30.07c8.39,2.45,16.74,5.09,25.05,7.7-50,14.7-88.45,28.42-135.28,65.93C269,251.26,200.43,300.1,144.61,354.6c-49,37.19-78.82,68.75-87.29,92A308.56,308.56,0,0,1,57.68,402.67Zm14.46-69.21C96,300.41,125.19,270.18,156.28,244c27.66-23.26,58.61-43,89.4-61.81,24.69-15.08,50.15-29.09,77.13-39.67a256.89,256.89,0,0,1,74.09-17.2c3.27.14,6.52.37,9.8.7,5.36.56,10.69,1.34,16,2.3-55.24,16.66-107.91,42.11-157.08,72A899.55,899.55,0,0,0,99.05,330.62c-12.95,12.87-25.58,26.21-37.32,40.25A233.19,233.19,0,0,1,72.14,333.46ZM105.78,260a423.71,423.71,0,0,1,60.28-56.85c31-23.71,67.74-40.06,102.91-56.54l7-3.26c17.47-4.82,35.11-8.63,52.53-11.64-26,9.32-51,21.87-75.17,35.92-31.58,18.38-62.87,38.38-91.87,60.63-26.12,20.06-49.84,43.17-71.71,67.77q-2.17,2.45-4.33,4.91A422.62,422.62,0,0,1,105.78,260ZM170,172c-.26-.75-.1-1.78-.29-2.4a20.77,20.77,0,0,0,1.66,1.39c2.77,2.76,5.19,5.9,7.79,8.83-1.07.66-2.13,1.33-3.19,2C173.59,178.87,171.19,175.57,170,172ZM893.08,970.78c-60.47-.06-121-2.82-181.43-4.87q-107.91-3.67-215.8-7.92-23.2-.91-46.38-1.83c-1.72-.07-5.46,3.12-2.57,3.24q64.35,2.56,128.7,4.94c77.12,2.88,154.26,5.7,231.41,7.91,28.64.82,57.31,1.77,86,1.77a5,5,0,0,0,.39.68c1.91,2.79,7,3.37,10.77,4.55-2.64,1.86-5.66,4.42-5.48,6.81.11,1.51,1.16,1.57,1.71,2.59s2.73.94,1.23,3.06c-.59.83-5.64,1.28-6.46,1.49-1.36.34-3.22,1.87-2,3.35,2.1,2.56,1.54,4.1,3.19,5.72-1.18,1.07-2.21,2.36-2.1,3.88s1.11,2.52,2.13,3.61Q757,1005,617.67,1001.39c-61.43-1.5-122.88-2.74-184.33-3.33-36-.35-71.92-.5-107.88,0q-16.63.22-33.26.69c-14.4.08-28.81.71-43.19,1.51.28-.24.57-.46.84-.73,1.28-1.27,1.95-2.81,3-4.19,1.29-1.61,4.17-2.94,4.95-4.89a5.76,5.76,0,0,0-.37-4.56c-.26-.51-1.51-1.13-1.57-1.59-.29-2.27.2-.52.9-2.34q81.75.63,163.49,1.31,139.93,1.16,279.83,2.53c28.75.3,57.52.42,86.28,1.16,2.52.06,4.51-3.79,1.15-3.88-67.18-1.73-134.44-1.66-201.63-2.27q-134.84-1.22-269.68-2.26L257.41,978c-.28-2-1.7-3.29-3.85-4.81,4.62-2.49,10-3.51,14.16-6.86.87-.69,1.57-1.78.75-2.8-1.21-1.49-5.78-4.71-5.65-6.58.09-1.34,2.17-1.6,3.43-2.7a1.84,1.84,0,0,0,.54-2,15.94,15.94,0,0,0-2.07-2.48c.06-.88,4.27-3.17,4.91-3.67,1.72-1.33,4.25-3.05,4.51-5.46.41-3.88-3.54-4-4.63-7-1.45-3.94,4.95-4.8,7-7.08a5.3,5.3,0,0,0,1.61-5.07c-.44-2.17-3.37-3.71-3.63-5.72-.35-2.72,2.52-4.61,3.63-6.61.08-.14.12-.27.19-.4q55.4,1.14,110.8,2.54c72.51,1.79,145,3.73,217.52,6.33,33.37,1.2,66.78,2.46,100.12,4.42,1.81.11,5.46-3.15,2.53-3.32-65.6-3.85-131.33-5.61-197-7.52q-97.08-2.83-194.18-5-19.71-.44-39.43-.86c-.87-2.67-4.49-4.45-7.58-5.8,4.29-2.13,11.15-3.68,11.47-8.47.17-2.5-2.06-5.76-4.6-8.31,43.71-.07,87.41.46,131.11,1.15,101,1.62,202.07,4.64,303,10.15,59.36,3.24,118.69,7.34,177.85,13.2-1.41,1.42-3.85,3.57-4.08,3.84a1.67,1.67,0,0,0,.16,2.7A4.06,4.06,0,0,1,887,916a47,47,0,0,0-5.86.34c-1.68.25-3.37,2.43-1.59,3.64,1.29.89,3.59,3.28,3.47,5.08,0,.45-1.29.67-1.41,1.22a6.63,6.63,0,0,0-.49,2.46c.38,3.18,4.5,4.46,7.49,5.44a21.36,21.36,0,0,1-2.4,3.23c-.7.72-1,2.2.16,2.69,6.83,2.89,2.72,1.1,2.15,5.86-.33,2.78,1.25,4.13,3.23,5.08-90.67-6.34-181.57-9.62-272.39-12.65q-121.92-4.07-243.89-6.69-24.26-.54-48.53-1c-2.76,0-4.35,4.17-1,4.23q69.28,1.3,138.53,3.18c94,2.43,187.93,5.31,281.83,9.38,47.35,2,94.69,4.36,142,7.63a4.39,4.39,0,0,0-1.36,2.75c-.24,4.42,6.34,4.09,7.72,7.33C895.49,967.2,893.9,968.91,893.08,970.78ZM234.19,939.46c-.67-13.29-1.34-26.58-2.45-39.85-.66-7.82-1.91-14.79,3.4-21.24,11.49-13.94,36.06-13.68,52.27-13.34,6.74.14,25.72-2.94,28.13,6.66.69,2.77-4.28,3.8-5,.86-.7-2.77-5.76-2.24-7.9-2.38a265,265,0,0,0-26.88-.52c-13.17.51-39.63,2.49-39.73,20.52-.06,10.58,1.76,21.48,2.36,32.08.52,9.33.92,18.65,1.45,28,1,16.85,2.36,33.79,6.81,50.13l-5.19.3C236.23,980.69,235.22,960,234.19,939.46Zm616-288c-1.23.37-4,1.87-2.62,3.48,2.32,2.7,1.69,4.38,3.84,6.11-3.14,3.6-1.16,4.55.82,7.61l-53.06.24-140.38.64q-85.45.39-170.91.79-74.94.35-149.88.73c-24.89.13-50.22-1-75.12.34a1.27,1.27,0,0,0,0-.33c-.82-4,.14-4.28,2.21-7.67.36-.58,1.35-.9,1.5-1.67.52-2.5-1-3.34-1.61-5.24L263.76,655a.51.51,0,0,1,.1-.07l162.08-3.13q137-2.64,274-5.19c27.64-.51,55.29-1.09,82.95-1.45,3.25,0,5.24-5.07,1.22-5-65.52.85-131,2.34-196.57,3.58q-132.33,2.51-264.65,5.07L266,649.88c-.7-1.73-2.64-3-4.32-4,4.14-2.55,9.09-3.69,12.84-7,.72-.63,1.21-1.58.51-2.39-1.27-1.46-5.64-4.24-6.49-6.29.08.08.21.07.42,0,52.08-.3,104.17-.72,156.23-1.63,14.19-.25,28.38-.5,42.55-1,3.9-.15,3.19-6-.73-5.85-59.89,2.32-119.94,2.12-179.87,2.54l-15.29.09c-1-1.48-.48-1.06,2.74-3.75,1.6-1.33,4.3-3.17,4.53-5.53.31-3-2.08-3.29-3.34-5.38-2.89-4.82,1.89-4.73,4.52-7.73,1.44-1.64,2.17-2.87,1.56-5.2-.36-1.39-2-2.22-2.46-3.47q0-2.83.09-5.66c.29-.31.58-.64.86-1q53-.46,106.07-.73,103-.59,206.06-.49c31.36.09,62.71.21,94,.84,3.72.08,4.88-5.66.9-5.75-61.32-1.25-122.69-1-184-.83q-92.49.2-185,.92l-37.63.29c-1.26-2-3.89-3.06-6.68-4.16,3.66-2.22,9.77-3.4,10.38-7.92.32-2.38-1.82-5.33-4.28-7.65,38.13-1.85,76.28-3.06,114.42-4.07,92.81-2.48,185.68-3.29,278.51-1.57q43.57.81,87.12,2.47,22,.86,44,2,10.19.53,20.39,1.12l10.8.65a27.29,27.29,0,0,1,4,.25c.27.72-3.45,4.6-3.67,4.9-.37.48-.7,1.45-.05,1.89a4.91,4.91,0,0,1,1.57,2.53,37.15,37.15,0,0,0-5,.54c-.88.17-4.41,2.3-2.62,3.48,1.31.87,3.33,2.25,3.73,3.88,1.17,4.77-.29.81-.63,3-.14.92-.79,1.35-.67,2.51.36,3.28,4.88,4.45,8,5.37a31.74,31.74,0,0,1-2.57,4.06,1.3,1.3,0,0,0,.4,2.15c7.18,2.84,2.88,1.83,2.55,6.17-81.81-2.47-163.7-2.2-245.52-1.68q-111.16.7-222.32,2.78-22.45.4-44.9.87c-1.9,0-6.49,3.79-3.14,3.72q63.73-1.38,127.46-2.19c85.64-1.21,171.3-2,257-1.66,44.28.18,88.57.61,132.83,2a12.2,12.2,0,0,0,4.18,2c-2.69,1.57-6,3.49-6.42,6.06-.73,4.32,3.79,3.53,6.06,5.73,4.2,4.06-1.84,8.15.94,12.06,2.14,3,7.79,3,11.54,4.34-2.27,1.8-4.95,4.2-5.37,6.45-.3,1.59.28,1.39.58,2.89.06.37,1.32.49,1.46.83C856.45,650.87,852.76,650.66,850.14,651.48Zm-11.71-76c-.13-.19-.27-.36-.41-.54l.61,0Zm-.21,7.3.25.73A1.38,1.38,0,0,1,838.22,582.8ZM239.81,604.09c-.37-10.76-.64-21.68-.11-32.45.31-6.43,1.32-13.27,5.35-18.52,8.47-11,25.59-9.53,37.87-9.63,7.86-.06,16.85-1.28,24.65.28,3,.6,5.23,1.65,6.17,4.75,1,3.36-4.65,5.77-5.65,2.43-.87-2.86-5.22-2-7.67-2.06-7.91-.16-15.84,0-23.75.15-11.84.18-26.27-.05-29.85,13.77-2,7.62-1.31,16.06-1.29,23.87,0,9.44.27,18.88.89,28.3,1.28,19.39,4.16,38.74,10.53,57.16q-3.19.12-6.38.29C243.28,650.42,240.62,627.21,239.81,604.09ZM452.73,384.34a4.3,4.3,0,0,0,2.17-2.44l3.05-1.18c1.34,5.23,1.3,12.43,4.61,16.61a11.73,11.73,0,0,0,3.38,2.73,22.2,22.2,0,0,0,1.66,9.47c5.91-1.58,9.21-2.9,11-4.07a17.51,17.51,0,0,1,5.19,3.07c3.48,3.38,1.48,7.27,0,11.24q-3.12,8.08-6.1,16.18a1.45,1.45,0,0,0,.17,1.52c6.4,7.51,17.26,10.15,28.15,10.68a225,225,0,0,1-23,13.25c-3,1.53-14.9,7.28-21.26,13.41-5.33-17.57-38.64-23.87-38.64-23.87-2.25,8.53-26.19,23.29-37.44,5.38s12.58-13.17,12.58-13.17,3.85-.29,6.24-6.17c8.14-5.45,18.79-18.34,24.89-29.72,6.08,2.36,12.8,3,16.44.33,4.62-3.35,2-13.29-3.41-21.34a54.82,54.82,0,0,0,5.38-1.62A6,6,0,0,0,452.73,384.34Zm79.9,48.46a5.17,5.17,0,0,0,2.93.64,5.22,5.22,0,0,0,4.38-7.41,79.63,79.63,0,0,0,6.38-7,8.82,8.82,0,0,1,1.26.13c2.36.39,4.78.46,7.15.85,18.71,3,36.74,12.89,41.34,32.59a2.23,2.23,0,0,0,2.64,1.8l2.35-.43a5.26,5.26,0,1,0,7.53-1.35c11-1.91,22.17-3.58,33.35-4.76a5.34,5.34,0,0,0-.27,2.08,5.26,5.26,0,1,0,9.82-3c8.13-.65,16.26-1,24.39-1-7.39,17.93-11.23,36.29-12.67,55.29a5.26,5.26,0,1,0-3,9.3,5.32,5.32,0,0,0,2.46-.85c-.12,3-.2,6.07-.21,9.13l-6.34-.21c-34.13-1-68.26-2.31-102.39-3.5a5.26,5.26,0,1,0-3.45-.11q-13.81-.48-27.62-.93a5.28,5.28,0,1,0-1.8-.06l-2.85-.09q-11.22-.36-22.44-.67a26.06,26.06,0,0,0,9.9-15.48c3.89-21.73-19.51-23.53-37.29-22.95,1-.71,1.89-1.3,2.49-1.72,8.81-6.05,19-10,28.27-15.31,4.83-2.79,9.49-5.83,14-9.05a5.25,5.25,0,1,0,8.34-6.3q5.15-4.12,10-8.56ZM546,419.07c-.6.3-.83,0,0,0Zm135,27,1.06,0c7,9.5,13.78,19.13,20.21,29,8.71,13.41,19.18,29,21.54,45.32-18.88-.08-37.79-.77-56.62-1.4a2.51,2.51,0,0,0,.1-.68C667.47,493.21,671.25,469.23,681.08,446.06Zm-221.64,71.1c-18.92.08-37.77-1.74-56.7-1.57-18.49.17-37.47,1.75-55.88-.35-4.66-.53-10.87-1.18-14.36-4.73-3-3.06-2.25-4-.5-7.44a221.18,221.18,0,0,1,11.86-20.88c3.83-5.87,8.38-13.34,14.73-16.95,8.88,8.45,17.83,13.92,30.22,15.76,3.87.57,7.76.95,11.66,1.18C389,484,377.57,486,366.16,488.1c-3,.54-2.6,5.1.53,4.53,23.42-4.23,46.92-8.24,70.54-11.21,14.54-.95,29.34-2.7,43.9-1.56,11.12.87,22,4.21,19.59,17.46C496.42,515.69,475,517.09,459.43,517.16ZM416.79,396.62c.77,2.81,3.36,5.52,6.75,7.7-2,3.29-4.66,6.85-7.16,10.72a109.25,109.25,0,0,1-10.16,13.33,63.07,63.07,0,0,0-.34-11c-1.68-15.39-.82-28-5.41-36.72a46.3,46.3,0,0,1,16.46,2.06C415.49,386.53,415.36,391.35,416.79,396.62ZM919.57,301c9.1,3.29,21.45,6.39,31,2.8,3.92-1.47,6-4.35,9-7.21,1.26-1.22,4.81-5.61,6.64-4.64,2,1.05,1.34,5.67.94,7.54a15.65,15.65,0,0,1-7.52,10c-2.11,1.26-4.89,1-6.74,2.56-1.46,1.21-2.36,3.33-3.69,4.71-8.59,8.83-22,6-33.17,6.42-9.2.38-19.43.58-28.21,3.71s-15.38,10.91-23.29,15.49c-3.88,2.25-7.29,4.3-10.91.06-2.15-2.52-2.43-6.49-3.09-9.58-.94-4.36-2-8.28-4.81-11.66v0c-1-11-.87-28.83,9.77-36.07,12.59,2.44,25.15,5.09,37.61,8.07A245.37,245.37,0,0,1,919.57,301ZM722.42,68.58c-.41-7.41-1.11-15.21-3.35-22.33-2.65-8.41-8.58-15.41-13.19-22.79-1.9-3-4.26-6.46-5.08-10a8.44,8.44,0,0,1-.23-4.34l5.15-3.41c1.93.13,3.44,2.11,4.53,3.48,1.52,1.91,3.12,8.67,5.59,9.51s3.05-1.49,3.62-3.22c1.52-4.64-.59-7.84,4.36-10.09,4.35-2,3.38.1,2.47,3.83a27.55,27.55,0,0,1-1.43,4.2c-.28.63-.53,1.2-.74,1.68-.82,1.78,2.77,1.27,3.41-.1a46.74,46.74,0,0,1,3.31-6.18c4.08-6.23,3.41,1.76,1.45,5-1,2,2.27,1.94,3.09.6.13-.23.28-.49.41-.79.62-1.14.89-1.12,3.05-1.12,1.85,0,2.36.38,2.23,1a14.94,14.94,0,0,0-2.41,3.08c-1.08,1.83,1.92,2,2.81.91a15.48,15.48,0,0,0,1.06-1.35c2.29-2.35,5.77-1.34,4.2,2.47-.33.8-1.58,1.17-1.93,2.17-.74,2.1.63,3.88,1.35,5.85,4.62,12.81,4.71,26.36,7.59,39.52A70.78,70.78,0,0,0,759.92,83c3.29,6.44,8.27,11.37,2.58,18-4.09,4.74-10.59,7.92-16.56,10.19a2.92,2.92,0,0,0-2.29-.12c-9.57,3.51-19.09-.88-25.44-8C724.26,94.09,722.92,77.73,722.42,68.58Zm-489,617.48a25.23,25.23,0,0,1-13.59-5.6c-9.39-7.37-14.93-19.11-18.9-30.08a168.76,168.76,0,0,1-7-86.73c1.93-10.08,5.34-24.16,13.87-31,1.09-.88,3.86-1.78,6.14-2.34,11-2.68,22.65-3.45,33.93-4.36,18.18-1.47,36.42-2.31,54.65-3,35.21-1.34,70.45-2,105.67-2.38,18,.46,36,1.61,54,1.23A97,97,0,0,0,479,520.16q48-.12,96,.22,24.62.87,49.24,1.72c36.07,1.23,72.44,3.26,108.63,2.81a127.89,127.89,0,0,0,35.07-1.81c8.57.2,17.14.38,25.7.6,33.58.85,67.22,1.52,100.74,3.71,2.78.18,5.58.39,8.36.66-.46,5.63-4.9,4.84-9.8,4.58-6.76-.37-13.54-.57-20.31-.78-24.28-.77-48.58-1.32-72.86-1.86q-101.9-2.24-203.8-3.67-47-.68-94.08-1.1a2.56,2.56,0,0,0-1.79-.62,3.21,3.21,0,0,0-2.31.94c-81.08-.52-162.88-.41-243.7,6.46-11,.93-22.17,1.79-32.92,4.26-9.88,2.27-10.86,4.86-12.63,15.07-6.2,35.78-6.29,75.28,9.33,108.86,2.08,4.46,5.78,14.41,10.41,17.15,1.92,1.14,4.73.26,6.88.06,5.64-.52,11.3-.86,17-1.12l4.14-.15q6.69-.25,13.39-.4a3.26,3.26,0,0,0,1.32-.35c16.93-.17,33.87-.11,50.8-.2q71.84-.37,143.68-.7l171.11-.8,147-.67,48.3-.22c7.27,0,15.08.73,22.34-.05a2.44,2.44,0,0,0,2,.84l50,.64q-.44,1.88-.86,3.76c-28.44,1.47-56.89,2.48-85.34,3.37q-65,2-130,3-86.51-.29-173,.8-47.12.55-94.24,1.45h-.52q-75.9.08-151.8-.31C258.18,686.26,245.57,687.07,233.38,686.05Zm76.35,127.4a2.08,2.08,0,0,0-.9-3.4c-.48-.14-5.46-1.11-5.84-1.62-1.18-1.58,0-1.47.27-2.34s1.92-1.43,2.07-2.93c.23-2.28-1.9-4.5-4.09-6.27,3.35-.81,7.37-1.24,9.23-3.73,2.68-3.61-2.28-7.38.28-10.31,1.82-2.08,6.52-1.42,6.66-5.37a4.21,4.21,0,0,0-.93-2.7c79-2.53,158.25-4.38,237.3-2.11,4,.12,7.94.24,11.91.41,1.87.09,5.45-3.26,2.48-3.4-50.77-2.4-101.84-1.49-152.63-.7q-51.55.81-103.06,2.52c1.93-.8,3.55-1.94,3.9-4.49a7.94,7.94,0,0,0-.52-3.16,2.26,2.26,0,0,0-.85-1.53,10.36,10.36,0,0,0,2.85-.79c1.36-.52,2.21-2.34,1.17-3.55a15.52,15.52,0,0,1-1.68-2.48c2.36-.71,4.77-1.57,6-3.76,2.24-4.15-3.07-5.63,2.32-9.08,1.37-.87,1.45-3.49-.42-3.84a55.94,55.94,0,0,0-6-.62,4.24,4.24,0,0,1,.84-1.4,2.25,2.25,0,0,0,.58-3.21c-.26-.32-1.52-1.56-2.64-2.76,97.49-5.92,195.29-6.91,292.93-6.4q114.5.6,229,4.41,18.86.62,37.72,1.36c-2.41,2.33-4.4,5.19-4.4,7.61,0,4.49,5.48,6.07,9.38,8.17-3.53,1.53-7.25,3.71-6.87,7.47.16,1.51.92,1.44,1.47,2.79,1.37,3.38,1.18,4.26.08,7.58-.78,2.33-2.29,3.35-1.25,6s4.18,2.8,5.79,4.82c2,2.47,1.71,1.75-.44,4.6-.56.73-1.42,1.2-1.88,2-3.23,5.9,3.83,8.14,7.12,11.85a7.5,7.5,0,0,0-1,1q-63.16-1.15-126.34-1.9c-77-.95-153.93-1.79-230.9-1-26.15.25-52.75-.2-78.8,2.62-2.11.23-4.69,3.75-1.36,3.39,21.91-2.37,44.23-2.18,66.24-2.48,36-.48,72-.44,108-.28q108.92.46,217.84,2.34,22.46.36,44.91.76c1.3,1.19,3.4,1.59,3.45,2.23.13,1.23-4.72,4.54-5.78,5.76a2.12,2.12,0,0,0-.1,2.75c3.74,3.31,8.57,4.6,12.75,7.07-1.73,1.24-2.89,2.47-3.31,4.16l-106.5-1q-94.28-.87-188.56-1.78-31.72-.31-63.45-.66c-1.65,0-5.43,3.12-2.59,3.16,47.64.61,95.29,1,142.93,1.43q89.61.85,179.21,1.66l39,.36c0,.22,0,.4.11.63.14.58,1.69,1,1.69,1.48,0,.1-1.41,1-1.48,1.24-.55,1.7-2,2.92-1.43,5.07.5,1.87,2.76,2.82,3.89,4.28.88,1.13,1.33,2.57,2.16,3.75-15.29-1.45-30.63-2.63-46-3a2.8,2.8,0,0,0-1.13.21c-4-.32-8-.62-12-.85-83-4.67-166.19-6.09-249.29-7.44q-141.5-2.29-283-2.68c1.91-2.68,3.85-3.84,1-7.14C307.82,816.91,308.1,815.43,309.73,813.45Zm591.91,26.17A200.54,200.54,0,0,0,912,786c.77-14.64,2.56-32.06-2.6-46.08-4.65-12.63-15.47-19.71-28.4-22-7.67-1.33-15.64-1.08-23.4-1-2.12,0-8-1-8.8,1.6-.68,2.29-5.67,2.79-4.82,0,2.58-8.61,17.71-5.66,24-5.58,14.38.18,30,2.34,39.86,14.06,11.25,13.43,9.72,32.61,9.38,49a212.53,212.53,0,0,1-11,64.16Zm-657-6.4c-2.69-.73-.8.87-2-2a20.36,20.36,0,0,1-1-4.12l58.28,2.17a1.91,1.91,0,0,0,1.52.66c143.27.63,286.59,1.6,429.8,5.85,39.38,1.17,78.83,2.4,118.16,5a2.57,2.57,0,0,0,1.07.25c1.79,0,3.58.1,5.36.17,7.29.51,14.58,1,21.86,1.66,7.1.6,14.23,1.56,21.35,1.71a2.59,2.59,0,0,0,1-.18l.76.07,2.34.23,10.18,1c6,.62,12.74,3.5,16.75-1.72,15.76-20.52,21.1-49.46,22-74.57a229.86,229.86,0,0,0-1.43-35c-.83-7.14-1.92-14.26-3.32-21.3-.39-2-.44-3.68-1.8-5.17-4.22-4.55-15.3-4.7-20.85-5.44-36.26-4.82-73.24-5.56-109.75-6.69q-78.43-2.42-156.92-1.87a2.64,2.64,0,0,0-1.24.31c-61.74.45-123.47,1.48-185.2,2.57-59.74,1.05-119.5,2.09-179.23,3.87-8.47.26-17,.49-25.42.91-6,.3-12.47,1.42-12.83-6.12,21.86-2.23,44.07-2.53,66.06-3.11l12.47.05q134.32.36,268.63-1,86.23-.94,172.46-3c9.37.16,18.72.3,28.09.5,38.5.83,77.21,1.6,115.56,5.3,9.18.88,19.17,1.4,28,4.39,14.41,4.9,18.24,29.53,19.88,42.18,3.53,27.44.79,57.46-9.21,83.35-4,10.42-9.73,22-19.37,28.36A22.23,22.23,0,0,1,924,856.16c-13.89.13-28-1.33-41.87-2q-143.84-6.58-287.78-10.87c-71.19-2.17-142.41-3.92-213.62-5.66-42.51-1-85.09-1.65-127.55-3.93C250.52,833.6,247.19,833.92,244.61,833.23Zm602.54,186.62c-72.39-1-144.79-2.16-217.19-2.94q-149.25-1.59-298.51-1.25-40.48.12-80.95.41c-16.31.12-34.21,3.88-46.87-8.58-19.35-19-23.49-52.74-24.27-78.36-.75-24.93.93-58.39,18.46-78.13,3.2-3.59,3.89-3.94,8.38-5a109.8,109.8,0,0,1,13.59-1.92c36.56-3.57,73.75-2.7,110.42-2.34,55.91.57,111.81,2.27,167.68,4.32q92.79,3.39,185.52,8.18,82,4.17,163.9,9.35c34.28,2.21,68.64,4.25,102.82,7.79,3.4.36,6.82.73,10.21,1.22-.28,7.86-6,7-12,6.43-7.4-.67-14.82-1.17-22.24-1.69-26.8-1.87-53.63-3.5-80.45-5.12q-110.79-6.68-221.66-12.51-51-2.69-102-5.12a2,2,0,0,0-1.64-.67,2.68,2.68,0,0,0-1.73.62q-73.44-3.28-147-4.27c-42.61-.58-85.41-1.14-128,1.27-10.62.6-22.09.76-32.41,3.76-2.24.65-4.95,1.46-6.38,3.46-2.13,3-2.25,8.08-3.06,11.64-1.76,7.8-3.22,15.67-4.3,23.59-4.67,34.28-3.29,73.4,14.64,104.09,1,1.76,2.61,5.51,4.43,6.66,2.24,1.4,6.25.31,8.8.14l8.13-.52a2.2,2.2,0,0,0,1.28.24,43.35,43.35,0,0,0,6-.7l1.42-.08,4.55-.27a2.36,2.36,0,0,1-.22.36,2.18,2.18,0,0,0,1.35.38c6.43.11,12.88-.44,19.31-.75,16-.75,32-1.17,48-1.44,33.29-.55,66.59-.5,99.88-.26,57.85.42,115.71,1.5,173.55,2.82q135.1,3.09,270.18,7.78,20.73.69,41.49,1.41a3,3,0,0,0,1.43-.34l39.53.08,23.13.06c.55,0,1.65.14,2.51.15-.39,1.06-.66,2.76-.85,3.4-.29,1-.6,2.1-.89,3.16C925.89,1021.55,886.45,1020.39,847.15,1019.84Z"/><path d="M500.08,469a5.26,5.26,0,1,0-5.64-4.85A5.26,5.26,0,0,0,500.08,469Z"/><path d="M565.81,434.66a5.26,5.26,0,1,0-5.65-4.85A5.26,5.26,0,0,0,565.81,434.66Z"/><path d="M548.07,452.43a5.26,5.26,0,1,0-5.65-4.84A5.26,5.26,0,0,0,548.07,452.43Z"/><path d="M524.67,465.34a5.26,5.26,0,1,0,4.85-5.65A5.27,5.27,0,0,0,524.67,465.34Z"/><path d="M511.77,477.47a5.26,5.26,0,1,0,5.65,4.84A5.27,5.27,0,0,0,511.77,477.47Z"/><path d="M575.64,460.88A5.26,5.26,0,1,0,570,456,5.26,5.26,0,0,0,575.64,460.88Z"/><path d="M557.89,478.65a5.26,5.26,0,1,0-5.65-4.84A5.27,5.27,0,0,0,557.89,478.65Z"/><path d="M540.14,496.41a5.26,5.26,0,1,0-5.65-4.85A5.26,5.26,0,0,0,540.14,496.41Z"/><path d="M588.13,479.87a5.26,5.26,0,1,0-5.65-4.85A5.25,5.25,0,0,0,588.13,479.87Z"/><path d="M575.23,492a5.26,5.26,0,1,0-4.85,5.65A5.26,5.26,0,0,0,575.23,492Z"/><path d="M629.6,472.59a5.26,5.26,0,1,0-5.65-4.85A5.26,5.26,0,0,0,629.6,472.59Z"/><path d="M611.85,490.35a5.26,5.26,0,1,0-5.65-4.84A5.25,5.25,0,0,0,611.85,490.35Z"/><path d="M588.46,503.27a5.26,5.26,0,1,0,4.84-5.65A5.26,5.26,0,0,0,588.46,503.27Z"/><path d="M659.83,473.81a5.26,5.26,0,1,0-5.64-4.85A5.25,5.25,0,0,0,659.83,473.81Z"/><path d="M642.08,491.57a5.26,5.26,0,1,0-5.64-4.85A5.26,5.26,0,0,0,642.08,491.57Z"/><path d="M624.34,509.33a5.26,5.26,0,1,0-5.64-4.84A5.26,5.26,0,0,0,624.34,509.33Z"/></svg>