<svg id="4696c071-6918-4e23-8119-8bf1a8aed2be" data-name="Calque 7" xmlns="http://www.w3.org/2000/svg" viewBox="0 0 1024 603.97"><title>alimentation</title><path d="M527.48,210C362.88,210,229,345.49,229,512s133.9,302,298.5,302S826,678.51,826,512,692.08,210,527.48,210Zm0,569.32c-145.65,0-264.16-119.93-264.16-267.34S381.83,244.62,527.48,244.62,791.65,364.59,791.65,512,673.14,779.34,527.48,779.34Z" transform="translate(0 -210.02)"/><path d="M527.48,317.16C421.15,317.16,335,404.37,335,512S421.15,706.8,527.48,706.8,720,619.56,720,512,633.82,317.16,527.48,317.16Zm0,362.81c-91.54,0-166-75.38-166-168s74.47-168,166-168,166,75.35,166,168S619,680,527.48,680Z" transform="translate(0 -210.02)"/><path d="M186.61,239.72a19.59,19.59,0,0,0-19.6,19.6v113.5a63.78,63.78,0,0,1-42.91,60.05V270.38a19.6,19.6,0,1,0-39.2,0V433.75c-26.33-7.89-45.71-32.07-45.71-60.93V259.32a19.6,19.6,0,0,0-39.2,0v113.5c0,50.62,36.74,92.61,84.9,101.25V780a19.6,19.6,0,0,0,39.2,0V473.72a103.27,103.27,0,0,0,82.11-100.91V259.32A19.59,19.59,0,0,0,186.61,239.72Z" transform="translate(0 -210.02)"/><path d="M920.88,273.68a19.59,19.59,0,0,0-19.6,19.6V787.53a19.6,19.6,0,0,0,39.2,0V547.87h63.93a19.59,19.59,0,0,0,19.6-19.6V376.8A103.26,103.26,0,0,0,920.88,273.68Zm63.93,235H940.48V316.27A63.79,63.79,0,0,1,984.8,376.8Z" transform="translate(0 -210.02)"/></svg>