<?xml version="1.0" encoding="utf-8"?>
<!-- Generator: Adobe Illustrator 21.1.0, SVG Export Plug-In . SVG Version: 6.00 Build 0)  -->
<svg version="1.1" id="Calque_1" xmlns="http://www.w3.org/2000/svg" xmlns:xlink="http://www.w3.org/1999/xlink" x="0px" y="0px"
	 viewBox="0 0 1024 1024" style="enable-background:new 0 0 1024 1024;" xml:space="preserve">
<g id="Page-1">
	<g id="icon-1-copy">
		<path d="M420.4,1023.6c-6.5,0-13-0.9-19.4-2.6l-47.9-12.8c-39.7-10.6-63.4-51.6-52.7-91.3l8.8-32.9
			c-40.2-20.3-76.4-46.5-107.9-78.2l-26.1,15c-35.6,20.5-81.3,8.3-101.9-27.3l-24.8-42.9C28.1,715,40.4,669.4,76,648.8l22.5-13
			c-14.3-44.7-20.9-90.6-19.7-137.2l-23.4-6.3c-19.2-5.2-35.3-17.5-45.3-34.7c-10-17.2-12.6-37.3-7.5-56.6l12.8-47.9
			c10.6-39.7,51.6-63.4,91.3-52.7l23.4,6.3c22.3-40.9,51-77.4,85.7-109l-13-22.4c-20.5-35.6-8.3-81.3,27.3-101.9L273,48.7
			c35.6-20.5,81.3-8.3,101.8,27.3l15.1,26.1c43.1-11.7,87.6-16.3,132.6-13.8l8.8-32.9c5.2-19.2,17.5-35.3,34.7-45.3
			c17.2-10,37.3-12.6,56.6-7.5l47.9,12.8c39.7,10.6,63.4,51.6,52.7,91.3l-10.3,38.5c36.5,21.3,69.3,47.9,97.8,79.3l37.6-21.7
			c35.6-20.5,81.3-8.3,101.9,27.3L975,273c20.5,35.6,8.3,81.3-27.3,101.8l-41.2,23.8c10.7,39.2,15.5,79.4,14.5,119.9l47.3,12.7
			c19.2,5.2,35.3,17.5,45.3,34.7c10,17.2,12.6,37.3,7.5,56.6l-12.8,47.9c-10.6,39.7-51.6,63.4-91.3,52.7l-47.3-12.7
			c-19.4,35.6-43.7,68-72.6,96.6l23.8,41.2c20.5,35.6,8.3,81.3-27.3,101.9L750.6,975c-11.7,6.8-24.5,10-37.1,10
			c-25.8,0-50.9-13.4-64.7-37.2L627,910.1c-40.5,12.9-82.1,19.5-124.4,19.8l-10.3,38.5c-5.2,19.2-17.5,35.3-34.7,45.3
			C446.1,1020.2,433.4,1023.6,420.4,1023.6z M211,742.5l13.5,15c34.7,38.4,76.5,68.7,124.4,90l19.5,8.7l-19.7,73.6
			c-3.5,13.1,4.3,26.6,17.4,30.1l47.9,12.8c6.3,1.7,12.9,0.8,18.6-2.5c5.7-3.3,9.7-8.6,11.4-14.9l20.5-76.7l20,0.8
			c49.5,2.1,98.3-5.7,145-23.2l19.8-7.4l42.6,73.8c6.8,11.7,21.8,15.8,33.5,9l42.9-24.8c11.7-6.8,15.8-21.8,9-33.6l-43.8-75.8
			l15-13.5c35.8-32.3,64.5-70.5,85.3-113.7l9-18.6l86.8,23.3c13.1,3.5,26.6-4.3,30.1-17.4l12.8-47.9c1.7-6.3,0.8-12.9-2.5-18.6
			c-3.3-5.7-8.6-9.7-14.9-11.4l-86.8-23.3l1.5-20.6c3.5-47.8-2.2-95.3-17-141.1l-6.2-19.2l75.8-43.8c11.7-6.8,15.8-21.8,9-33.6
			l-24.8-42.9c-6.8-11.7-21.8-15.7-33.6-9l-73.8,42.6l-13.5-16.3c-31.7-38.5-70.1-69.7-114-92.6l-17.8-9.3l20.5-76.7
			c3.5-13.1-4.3-26.6-17.4-30.1l-47.9-12.8c-6.3-1.7-12.9-0.8-18.6,2.5c-5.7,3.3-9.7,8.6-11.4,14.9l-19.7,73.6l-21.2-2.2
			c-52.1-5.5-103.5-0.2-152.8,15.7l-19.2,6.2l-35-60.7c-6.8-11.7-21.8-15.8-33.5-9l-42.9,24.8c-11.7,6.8-15.8,21.8-9,33.6L280,209
			l-16.3,13.5c-41.7,34.4-74.7,76.3-98,124.5l-9,18.6l-62.9-16.8c-13.1-3.5-26.6,4.3-30.1,17.4L50.9,414
			c-3.5,13.1,4.3,26.6,17.4,30.1l62.9,16.8l-1.5,20.6c-4,53.4,3.6,106.2,22.6,156.8l7.4,19.8L101,692.1c-11.7,6.8-15.8,21.8-9,33.5
			l24.8,42.9c6.8,11.7,21.8,15.7,33.6,9L211,742.5z M498.6,737.9c-19.4,0-38.9-2.5-58.1-7.7c-57.6-15.4-105.7-52.4-135.5-104
			c-29.8-51.6-37.7-111.8-22.3-169.4c15.4-57.6,52.4-105.7,104-135.5c51.6-29.8,111.8-37.7,169.4-22.3
			c57.6,15.4,105.7,52.4,135.5,104s37.7,111.8,22.3,169.4c-15.4,57.6-52.4,105.7-104,135.5C575.5,727.8,537.3,737.9,498.6,737.9z
			 M498.3,341.4c-76.5,0-146.6,51.1-167.3,128.4c-24.7,92.2,30.2,187.4,122.5,212.1c44.7,12,91.4,5.8,131.4-17.3
			c40.1-23.1,68.7-60.5,80.7-105.2c12-44.7,5.8-91.4-17.3-131.4c-23.1-40.1-60.5-68.7-105.2-80.7
			C528.1,343.3,513.1,341.4,498.3,341.4z"/>
	</g>
</g>
</svg>
