<svg id="Calque_4" data-name="Calque 4" xmlns="http://www.w3.org/2000/svg" viewBox="0 0 1024 1024"><title>Plan de travail 1</title><path d="M844.42,967.59H532.37c-17.65,0-45.44-5.52-61.76-12.26L350.36,905.62c-22.3-9.22-35.47-33.75-28.41-56.82a46.22,46.22,0,0,1,61.89-29.34l122.1,50.47a82.81,82.81,0,0,0,26.43,5.25h295.8a34.63,34.63,0,0,0,28.55-14.94c40.74-59,94.58-262.4,68.41-386.09a99.5,99.5,0,0,0-12.9-32.27,22.76,22.76,0,0,0-19.36-10.47H729a69.13,69.13,0,0,1-69.13-69.13V159.21c0-2.64,0-9.66-9.5-11.37-8.43-1.49-11.32,3.49-12.49,6.36L577.4,349c-6.19,19.94-25,46.46-41.7,58.94L393.79,513.6a46.25,46.25,0,0,1-69.62-17.74c-9.42-20-2.3-43.93,15.4-57.11l140.92-105c2.58-2.1,7.52-9.09,8.7-12.36L550,125.34c.26-.82.53-1.62.83-2.43,17.86-48,65.47-75.15,115.86-66S752.27,108,752.27,159.21V339H904.34c108,0,119.66,145.69,119.66,208.33,0,82.92-16,180.43-42.78,260.83C946,913.94,899.95,967.59,844.42,967.59Z"/><path d="M188,968.86H76.78A76.86,76.86,0,0,1,0,892.09V465.43a76.86,76.86,0,0,1,76.78-76.78H188a76.86,76.86,0,0,1,76.77,76.78V892.09A76.86,76.86,0,0,1,188,968.86Zm-84-92.42h56.85a11.55,11.55,0,0,0,11.55-11.55V492.62a11.55,11.55,0,0,0-11.55-11.55H104a11.55,11.55,0,0,0-11.55,11.55V864.89A11.55,11.55,0,0,0,104,876.44Z"/></svg>