<svg id="Calque_13" data-name="Calque 13" xmlns="http://www.w3.org/2000/svg" viewBox="0 0 1024 1024"><title>Plan de travail 1</title><path d="M520.62,813.18a46.23,46.23,0,0,1-46.23-46.23V429.75a46.23,46.23,0,0,1,92.46,0v337.2A46.23,46.23,0,0,1,520.62,813.18Z"/><path d="M571.29,269.18a50.73,50.73,0,1,1-50.87-50.75A50.84,50.84,0,0,1,571.29,269.18Z"/><path d="M500.59,1023.69a517.51,517.51,0,0,1-93.21-11.84c-275.63-60.68-450.51-334.3-389.85-610S351.8-48.67,627.48,12c193.92,42.68,347,195.57,389.91,389.49a46.23,46.23,0,0,1-90.28,20C891.92,262.6,766.51,137.31,607.6,102.33,381.77,52.63,157.55,195.91,107.84,421.77s93.58,450.07,319.42,499.79c109.44,24.1,221.67,4.12,316-56.21S903,711.52,927,602.1a46.23,46.23,0,0,1,90.3,19.87c-29.39,133.54-109,247.64-224.23,321.28C704.64,999.8,603.32,1027.29,500.59,1023.69Z"/></svg>