<?xml version="1.0" encoding="utf-8"?>
<!-- Generator: Adobe Illustrator 21.1.0, SVG Export Plug-In . SVG Version: 6.00 Build 0)  -->
<svg version="1.1" id="Calque_1" xmlns="http://www.w3.org/2000/svg" xmlns:xlink="http://www.w3.org/1999/xlink" x="0px" y="0px"
	 viewBox="0 0 1024 1024" style="enable-background:new 0 0 1024 1024;" xml:space="preserve">
<g>
	<g>
		<path d="M245.1,449.1c17.2,0,31.2-14,31.2-31.2c0-17.3-14-31.2-31.2-31.2c-17.3,0-31.3,14-31.3,31.2
			C213.8,435.1,227.8,449.1,245.1,449.1z"/>
		<path d="M840.2,578.7h-77.7v-38.3h77.2c2.6,0,5.1-2.1,5.1-4.7V489c0-2.6-2.5-5.2-5.1-5.2h-77.2v-38.4h77.7c2.6,0,4.6-1.9,4.6-4.5
			v-49.5c0-2.6-2-4.5-4.6-4.5H704.5c-2.6,0-4.2,1.9-4.2,4.5v241.4c0,2.6,1.6,4.6,4.2,4.6h135.7c2.6,0,4.6-2,4.6-4.6v-49
			C844.8,581.2,842.8,578.7,840.2,578.7z"/>
		<path d="M182.5,386.8h-53.8c-2.6,0-4.4,1.9-4.4,4.5v71.6c0,23,1.9,44.4,5.6,65.6L58.3,391.8c-1.6-3.1-4.9-5-8.4-5H4.1
			c-2.6,0-4.1,1.9-4.1,4.5v241.4c0,2.6,1.4,4.6,4.1,4.6h52.6c2.6,0,5.5-2,5.5-4.6v-71.6c0-23.3-2.5-44.4-6.5-65.6l71.7,136.8
			c1.6,3.1,4.6,4.9,8.1,4.9h47.1c2.7,0,4-2,4-4.6V391.3C186.5,388.7,185.2,386.8,182.5,386.8z"/>
		<path d="M269.9,481.9h-49.8c-2.6,0-4.4,1.6-4.4,4.2v146.6c0,2.6,1.9,4.6,4.4,4.6h49.8c2.6,0,4.4-2,4.4-4.6V486.1
			C274.3,483.5,272.5,481.9,269.9,481.9z"/>
		<path d="M455.9,574.7c-11.5,4.3-24.1,6.8-36.2,6.8c-34.4,0-56.3-22.6-56.3-67.7c0-46.9,24-70.9,58-70.9c12.8,0,23.7,1.8,32.6,5.3
			c3.1,1.2,6.8-1.1,6.8-4.4v-49.3c0-1.9-1.6-3.7-3.4-4.4c-14.5-5.4-29.4-8.6-44.7-8.6c-63.5,0-113.4,46.6-113.8,132.2
			c0,87.8,52.3,128.6,113.2,128.6c17.3,0,32.9-2.8,47.1-7.8c1.9-0.7,3.4-2.5,3.4-4.4v-51C462.6,575.9,459,573.6,455.9,574.7z"/>
		<path d="M1018.6,578.7h-78.7V391.3c0-2.6-1.8-4.5-4.4-4.5H883c-2.7,0-5.3,1.9-5.3,4.5v241.4c0,2.6,2.6,4.6,5.3,4.6h135.7
			c2.6,0,5.4-2,5.4-4.6v-49.1C1024,581,1021.2,578.7,1018.6,578.7z"/>
		<path d="M682.1,630.6l-61.8-118.3l61.7-118.9c1.5-3.1-0.8-6.6-4.3-6.6h-53.3c-1,0-1.9,0-2.4,0.9l-49.6,94.1h-22.1v-90.5
			c0-2.6-2.2-4.5-4.7-4.5h-52.6c-2.6,0-4.9,1.9-4.9,4.5v241.4c0,2.6,2.3,4.6,4.9,4.6h52.6c2.6,0,4.7-2,4.7-4.6v-90.5h22l49.1,92.7
			c0.7,1.7,2.5,2.4,4.3,2.4h52.1C681.4,637.3,683.7,633.7,682.1,630.6z"/>
	</g>
</g>
</svg>
