<?xml version="1.0" encoding="utf-8"?>
<!-- Generator: Adobe Illustrator 17.0.0, SVG Export Plug-In . SVG Version: 6.00 Build 0)  -->
<!DOCTYPE svg PUBLIC "-//W3C//DTD SVG 1.1//EN" "http://www.w3.org/Graphics/SVG/1.1/DTD/svg11.dtd">
<svg version="1.1" id="Calque_1" xmlns="http://www.w3.org/2000/svg" xmlns:xlink="http://www.w3.org/1999/xlink" x="0px" y="0px"
	 width="1024px" height="1024px" viewBox="0 0 1024 1024" enable-background="new 0 0 1024 1024" xml:space="preserve">
<title>CN-1280-BORNE-BURALISTES-ICONS</title>
<g>
	<g>
		<path fill="#333333" d="M1002.6,1024.2H29.3c-8.3,0-15-6.7-15-15s6.7-15,15-15h973.3c8.3,0,15,6.7,15,15
			S1010.9,1024.2,1002.6,1024.2z M40,976.2c-10,0-19.7-3.9-26.9-11.1c-8.9-8.9-12.8-21.6-10.4-33.9c0.2-1.2,0.6-2.3,1.1-3.4
			l113.6-246.7c0.8-1.6,1.8-3.1,3.1-4.4L681,120.4c5.9-5.8,15.3-5.8,21.1,0l161.9,160.7c2.8,2.8,4.4,6.6,4.4,10.6s-1.6,7.8-4.4,10.6
			L303.6,858.7c-1.3,1.3-2.7,2.3-4.4,3L50.6,974.4c-1.1,0.5-2.2,0.8-3.3,1.1C44.8,976,42.4,976.2,40,976.2z M32,938.3
			c-0.1,2.8,1.3,4.6,2.3,5.6c0.8,0.8,2.8,2.4,5.9,2.3l244.1-110.7l547.9-543.8L691.6,152.2L143.5,696.1L32,938.3z M911.7,249
			c-3.8,0-7.6-1.5-10.6-4.4L739.2,83.9c-2.8-2.8-4.4-6.6-4.4-10.6c0-4,1.6-7.8,4.4-10.6l42.7-42.3c26.9-26.8,70.8-26.8,97.7,0
			l85.3,84.7c13.1,13,20.3,30.2,20.3,48.6c0,18.4-7.2,35.7-20.3,48.7l-42.7,42.3C919.4,247.5,915.5,249,911.7,249z M771.1,73.3
			l140.6,139.6l32.1-31.8l0,0c7.4-7.3,11.5-17.1,11.5-27.4c0-10.3-4.1-20-11.4-27.3l-85.3-84.7c-15.3-15.2-40.2-15.2-55.5,0
			L771.1,73.3z"/>
	</g>
</g>
</svg>
