<svg id="1be9d9fc-06cb-4e89-a067-4510111ddc5e" data-name="Calque 26" xmlns="http://www.w3.org/2000/svg" viewBox="0 0 1024 1024"><title>multimedia</title><path d="M958.11,324.44H861.82V65.92A66,66,0,0,0,795.88,0H228.12a66,66,0,0,0-65.89,65.92v96.31H65.92A66,66,0,0,0,0,228.12V795.88a66,66,0,0,0,65.92,65.94H324.44v96.29A66,66,0,0,0,390.35,1024H958.11A66,66,0,0,0,1024,958.11V390.35A66,66,0,0,0,958.11,324.44ZM212.92,65.92a15.22,15.22,0,0,1,15.2-15.22H795.88a15.25,15.25,0,0,1,15.25,15.22V633.67a15.25,15.25,0,0,1-15.25,15.22H699.59V228.12a66,66,0,0,0-65.89-65.89H212.92Zm-162.23,730V228.12a15.22,15.22,0,0,1,15.22-15.2H633.7a15.22,15.22,0,0,1,15.2,15.2V795.88a15.24,15.24,0,0,1-15.2,15.25H65.92A15.25,15.25,0,0,1,50.69,795.88ZM973.31,958.11a15.23,15.23,0,0,1-15.2,15.2H390.35a15.24,15.24,0,0,1-15.22-15.2V861.82H633.7a66,66,0,0,0,65.89-65.94V699.59h96.29a66,66,0,0,0,65.94-65.92V375.13h96.29a15.24,15.24,0,0,1,15.2,15.22Z"/><path d="M560.6,512a89.28,89.28,0,0,0-45.07-78.07L299.36,309.16a90.1,90.1,0,0,0-135.18,78V636.82a89.91,89.91,0,0,0,135.18,78L515.53,590.08A89.28,89.28,0,0,0,560.6,512Zm-70.42,34.16L274,671a39.41,39.41,0,0,1-59.13-34.13V387.21a39.57,39.57,0,0,1,39.41-39.51A39.49,39.49,0,0,1,274,353.07L490.18,477.85a39.44,39.44,0,0,1,0,68.32Z"/></svg>