<svg id="b4acb73e-c5b2-4f20-9e1e-437e1a006bee" data-name="Calque 23" xmlns="http://www.w3.org/2000/svg" viewBox="0 0 999.3 1024"><title>impots</title><path d="M81,351.78H943a22,22,0,0,0,12.79-40L524.83,4.11a22.05,22.05,0,0,0-25.57,0L68.14,311.83A22.06,22.06,0,0,0,81,351.78ZM512,49.09,874.2,307.7H149.41Z" transform="translate(-12.35 0)"/><path d="M81,417.9H943a22,22,0,0,0,0-44.08H81a22,22,0,0,0,0,44.08Z" transform="translate(-12.35 0)"/><path d="M81,858.7H943a22,22,0,0,0,0-44.08H81a22,22,0,1,0,0,44.08Z" transform="translate(-12.35 0)"/><path d="M941.09,880.74H82.91c-38.91,0-70.55,32.11-70.55,71.63S44,1024,82.91,1024H941.09c38.91,0,70.55-32.11,70.55-71.63S980,880.74,941.09,880.74Zm0,99.18H82.91c-14.59,0-26.47-12.35-26.47-27.55s11.88-27.55,26.47-27.55H941.09c14.59,0,26.47,12.35,26.47,27.55S955.69,979.92,941.09,979.92Z" transform="translate(-12.35 0)"/><path d="M223.5,502.61V729.94c0,36.16,28,65.56,62.42,65.56s62.38-29.4,62.38-65.56V502.61c0-36.16-28-65.56-62.38-65.56S223.5,466.45,223.5,502.61Zm80.71,0V729.94c0,11.84-8.22,21.48-18.3,21.48s-18.34-9.64-18.34-21.48V502.61c0-11.84,8.22-21.48,18.34-21.48S304.21,490.78,304.21,502.61Z" transform="translate(-12.35 0)"/><path d="M449.62,502.61V729.94c0,36.16,28,65.56,62.38,65.56s62.38-29.4,62.38-65.56V502.61c0-36.16-28-65.56-62.38-65.56S449.62,466.45,449.62,502.61Zm80.67,0V729.94c0,11.84-8.22,21.48-18.3,21.48s-18.3-9.64-18.3-21.48V502.61c0-11.84,8.22-21.48,18.3-21.48S530.3,490.78,530.3,502.61Z" transform="translate(-12.35 0)"/><path d="M675.71,502.61V729.94c0,36.16,28,65.56,62.42,65.56s62.38-29.4,62.38-65.56V502.61c0-36.16-28-65.56-62.38-65.56S675.71,466.45,675.71,502.61Zm80.71,0V729.94c0,11.84-8.22,21.48-18.3,21.48s-18.34-9.64-18.34-21.48V502.61c0-11.84,8.22-21.48,18.34-21.48S756.42,490.78,756.42,502.61Z" transform="translate(-12.35 0)"/><path d="M132.28,751.43a22,22,0,1,0,0,44.08c34.44,0,62.42-29.4,62.42-65.56V502.61c0-36.16-28-65.56-62.42-65.56a22,22,0,1,0,0,44.08c10.12,0,18.34,9.64,18.34,21.48V729.94C150.62,741.78,142.4,751.43,132.28,751.43Z" transform="translate(-12.35 0)"/><path d="M891.72,481.13a22,22,0,1,0,0-44.08c-34.44,0-62.42,29.4-62.42,65.56V729.94c0,36.16,28,65.56,62.42,65.56a22,22,0,1,0,0-44.08c-10.12,0-18.34-9.64-18.34-21.48V502.61C873.38,490.78,881.6,481.13,891.72,481.13Z" transform="translate(-12.35 0)"/></svg>