<svg id="Calque_2" data-name="Calque 2" xmlns="http://www.w3.org/2000/svg" viewBox="0 0 1024 1024"><title>Plan de travail 1</title><path d="M500.59,1023.69a517.51,517.51,0,0,1-93.21-11.84c-275.63-60.68-450.51-334.3-389.85-610S351.8-48.67,627.48,12c193.92,42.68,347,195.57,389.91,389.49a46.23,46.23,0,0,1-90.28,20C891.92,262.6,766.51,137.31,607.6,102.33,381.77,52.63,157.55,195.91,107.84,421.77s93.58,450.07,319.42,499.79c109.44,24.1,221.67,4.12,316-56.21S903,711.52,927,602.1a46.23,46.23,0,0,1,90.3,19.87c-29.39,133.54-109,247.64-224.23,321.28C704.64,999.8,603.32,1027.29,500.59,1023.69Z"/><path d="M519.94,637.58a46.23,46.23,0,0,1-46.23-46.23c0-62.11,44.38-96.47,80-124.08,39.79-30.82,64.2-52,64.2-96,0-65.85-75-71-98-71-47.39,0-98,20.81-98,79.21a46.23,46.23,0,0,1-92.46,0c0-101.07,78.33-171.67,190.49-171.67S710.4,275,710.4,371.27c0,91.63-57.83,136.41-100.05,169.1-30.71,23.79-44.17,35.79-44.17,51A46.23,46.23,0,0,1,519.94,637.58Z"/><path d="M568.09,752.16a50.73,50.73,0,1,1-50.87-50.75A50.84,50.84,0,0,1,568.09,752.16Z"/></svg>