<?xml version="1.0" encoding="utf-8"?>
<!-- Generator: Adobe Illustrator 21.1.0, SVG Export Plug-In . SVG Version: 6.00 Build 0)  -->
<svg version="1.1" id="Calque_1" xmlns="http://www.w3.org/2000/svg" xmlns:xlink="http://www.w3.org/1999/xlink" x="0px" y="0px"
	 viewBox="0 0 1024 1024" style="enable-background:new 0 0 1024 1024;" xml:space="preserve">
<g id="Page-1">
	<g id="icon-1">
		<path d="M492.8,1024c-70.7,0-128.2-57.5-128.2-128.2s57.5-128.2,128.2-128.2s128.2,57.5,128.2,128.2S563.5,1024,492.8,1024z
			 M492.8,817.6c-43.1,0-78.2,35.1-78.2,78.2s35.1,78.2,78.2,78.2c43.1,0,78.2-35.1,78.2-78.2S536,817.6,492.8,817.6z M492.8,739.5
			c-35.4,0-65.7-11.4-87.6-33c-21.1-20.9-32.7-50.5-32.7-83.3V490.8c0-28.5,13.3-50.7,39.6-65.9c19.5-11.3,43.7-17.5,69.3-24
			c5.5-1.4,11.2-2.9,16.7-4.3c58-16,87.4-34,87.4-88.4c0-20-9.1-39-25.5-53.3c-16.3-14.2-37.9-22.3-59.3-22.3
			c-48,0-74.9,30.9-103.4,63.6c-27.6,31.6-58.8,67.4-109.6,67.4c-30.6,0-58-12.3-77.2-34.5c-18.7-21.7-28.5-51.4-28.5-85.8
			c0-38,11.3-73.9,33.4-106.7c19.3-28.6,46.4-54,80.4-75.6c30-19.1,65.2-34.8,101.8-45.4C432.8,5.4,468.4,0,500.8,0
			c91.7,0,176.3,28.8,238.3,81c32.4,27.3,57.7,60.1,75.2,97.6c18.4,39.4,27.8,83,27.8,129.7C842.1,450,761,551,613.1,594.6v28.6
			c0,32.5-12.2,62.2-34.5,83.5C556.7,727.8,526.2,739.5,492.8,739.5z M500.8,182.6c33.3,0,66.9,12.6,92.2,34.6
			c27.5,24,42.7,56.3,42.7,91c0,42-14.1,75.2-42,98.7c-23.7,19.9-53.5,30-82.3,37.9l-0.2,0c-5.9,1.6-11.7,3.1-17.3,4.5
			c-22.2,5.7-43.1,11-56.7,18.9c-12.2,7.1-14.7,13.9-14.7,22.6v132.3c0,19.6,6.2,36.1,17.9,47.7c12.3,12.2,30.4,18.6,52.4,18.6
			c20.4,0,38.5-6.7,51.2-18.8c12.5-12,19.1-28.4,19.1-47.5V556l18.9-4.8c95.8-24.2,210.1-86,210.1-243.1c0-76.7-29.5-142-85.2-189
			C653.9,74.6,580.7,50,500.8,50c-58.3,0-126.5,20.4-178.1,53.2C247.7,150.8,232,205.7,232,243.4c0,43.4,21.4,70.3,55.7,70.3
			c26.7,0,44.8-19.1,71.9-50.3C391,227.4,430.1,182.6,500.8,182.6z"/>
	</g>
</g>
</svg>
