<svg id="05c83cc7-b79f-40af-a25f-3f0db7e56a06" data-name="Calque 29" xmlns="http://www.w3.org/2000/svg" viewBox="0 0 865.27 1024"><title>profil</title><path d="M674.31,597c95.41-55.26,159.94-158.68,159.94-277.16C834.24,143.48,691.64,0,516.36,0S198.48,143.48,198.48,319.83c0,117.05,63,219.33,156.53,275.08C190.69,659.25,79.37,819.53,79.37,1000.3a23.7,23.7,0,1,0,47.4,0c0-175.51,117.49-329.69,285.74-374.86a22.46,22.46,0,0,0,4.25-2.11,313.22,313.22,0,0,0,196.37,1.05,23.31,23.31,0,0,0,6.32,3.32C783,675.38,897.24,828.59,897.24,1000.3a23.7,23.7,0,1,0,47.4,0C944.63,822.63,835.39,662.83,674.31,597ZM245.88,319.83c0-150.24,121.36-272.43,270.49-272.43S786.85,169.59,786.85,319.83,665.49,592.26,516.36,592.26,245.88,470.07,245.88,319.83Z" transform="translate(-79.37)"/><path d="M382.17,283.32a50,50,0,1,0-50-50A50.05,50.05,0,0,0,382.17,283.32Z" transform="translate(-79.37)"/><path d="M646.17,283.32a50,50,0,1,0-50-50A50.05,50.05,0,0,0,646.17,283.32Z" transform="translate(-79.37)"/><path d="M604.58,372.45c-24.95,4.58-56,10.28-88.77,10.28S451.93,377,427,372.45c-36.1-6.66-59.85-10.92-76.6,3-8.05,6.71-12.5,16.66-12.5,28.09,0,48.92,82.11,108.68,177.92,108.68s177.92-59.75,177.92-108.68c0-11.43-4.44-21.38-12.5-28.09C664.47,361.48,640.59,365.79,604.58,372.45Zm-88.77,92.38c-62.48,0-109.74-30.87-125.15-50.45,8.24,1.11,18.65,3,27.77,4.67,26.85,5,60.26,11.06,97.38,11.06s70.49-6.11,97.34-11.06c9.12-1.67,19.53-3.56,27.82-4.67C625.5,434,578.24,464.84,515.81,464.84Z" transform="translate(-79.37)"/></svg>