<svg id="62e492b1-237d-4f06-8060-8482315cac1c" data-name="Calque 30" xmlns="http://www.w3.org/2000/svg" viewBox="0 0 1024 1016.92"><title>quitter</title><path d="M980.4,271.13c-35-20.83-76.75-15.35-106.33,14.17-43.53,43.51-47.86,53.14-68.79,115.47l-3.42,10.17C785,461.08,774,463.69,773.52,463.78c0,.21-7.92.79-26.93-21.81-16.1-19.2-47.22-63.33-80.13-110C591.29,225.41,536,148.53,509,129.63c-29.75-20.91-81.16-25.26-110.14,1.73-10.7,10-31.33,37.48-7.11,87.58-1-1.09-1.8-2-2.44-2.68-38.1-40.73-71.7-59.52-98.63-59.27-16.27.47-30.65,7.68-41.57,20.83C233.21,197,212.92,238,255.9,298.07c1.71,2.38,8.3,10.21,22,26-21.36-8.69-44.69-9.14-69.43,7-33.86,22.2-40,64.45-16,110.23,6.81,13,35,44.54,83.73,95.31-15.71-2.74-32.45-1.18-48.59,8.11-21.75,12.56-35,31.78-37.28,54.15-3,29.73,13.53,62.22,46.62,91.54,63.91,56.4,178.68,160.44,203.5,192.54C468,918.6,546.56,1020.46,669.15,1020.46a230.68,230.68,0,0,0,38.53-3.27c88.78-15.07,187-86.79,238.86-174.44,41.78-70.61,51.11-144.64,27-214C934.73,517,960.45,477.67,987.72,436c12.24-18.66,24.87-38,32.4-63.18C1032,333.28,1016,292.4,980.4,271.13Zm-2.23,89.12C972.44,379.36,962,395.22,951,412c-30.35,46.42-64.81,99-18.92,231.07,25,71.81,1.11,136.08-23.33,177.35-45,76.09-132.66,140.66-208.47,153.5-119,20-198.84-83.71-225.21-117.83C442.71,814.28,295.2,683.36,266,657.57c-21.57-19.11-33.56-39.42-32.06-54.3.86-8.3,6-15,15.58-20.59a25.84,25.84,0,0,1,13.14-3.38c20.68,0,42.59,20.55,42.64,20.55C446.56,747,452.51,742.67,469.25,732.13c10.53-6.7,14.13-15.41,15.28-21.55,2.61-13.85-4.67-25.77-10.44-33.62-3.25-4.39-14.6-16-57.83-59.82-56.68-57.36-174.52-176.73-185-196.2-7.62-14.58-17.64-40.86,1.2-53.19,10.36-6.76,26.15-17.14,72.81,31.31,18.66,19.39,49.91,54.84,81.16,90.19,77.31,87.6,93.79,105.09,103.59,110,15.71,8,29.15,3,36.34-4.47,12.33-12.59,10.49-32.19,3.55-45.1-3.51-6.53-24.87-31.78-151.45-176.86-40.75-46.7-82.92-95-87-100.38-19.91-27.85-22.73-49.63-8.6-66.63,3.55-4.28,6.46-4.94,9.12-5,6.34-1,26.63,4,65.32,45.38v0c12.16,13,93.88,110.31,147.94,174.72,30.65,36.47,54.19,64.49,56,66.46,11.47,12.29,23,14.38,30.65,13.89a30,30,0,0,0,22.52-11.73c20.2-26.8-11-61.34-29.58-82l-3.68-4.15C525.71,340.58,489,297.62,436.63,209.79c-6.21-10.38-19.39-35.66-7.92-46.32,11.17-10.36,39-9.25,55.14,2.05,22.86,16,94.47,117.53,146.78,191.67,34.93,49.55,65.11,92.33,82.4,112.95,15.41,18.41,39.17,42.34,68.62,36.73,32.15-6.08,49.23-44.82,61.73-81.93l3.42-10.21c19.56-58.24,20.33-60.51,58.26-98.43,22.73-22.69,46.23-11.52,52.87-7.51C971.88,317.1,985.54,335.59,978.18,360.25Z" transform="translate(0 -3.54)"/><path d="M252.69,844.27C157.14,821.34,132.06,718.05,131,713.66a21.91,21.91,0,0,0-42.72,9.78c1.24,5.46,31.81,134.09,154.19,163.46a21.92,21.92,0,1,0,10.19-42.64Z" transform="translate(0 -3.54)"/><path d="M216.69,934.85C80.18,902.1,43.62,750.65,43.28,749.13A21.91,21.91,0,0,0,.56,758.89c1.67,7.3,42.55,179.38,205.94,218.59a21.92,21.92,0,1,0,10.19-42.64Z" transform="translate(0 -3.54)"/><path d="M635.68,137.38C731.22,160.3,756.31,263.59,757.34,268a22,22,0,0,0,21.36,17,23,23,0,0,0,4.92-.56,21.88,21.88,0,0,0,16.44-26.2c-1.24-5.46-31.81-134.09-154.19-163.46a21.92,21.92,0,1,0-10.19,42.64Z" transform="translate(0 -3.54)"/><path d="M671.68,46.8C808.19,79.55,844.75,231,845.09,232.52a22,22,0,0,0,21.36,17,21.08,21.08,0,0,0,4.88-.56,21.87,21.87,0,0,0,16.48-26.2c-1.67-7.32-42.59-179.38-205.94-218.59A21.92,21.92,0,1,0,671.68,46.8Z" transform="translate(0 -3.54)"/></svg>