<?xml version="1.0" encoding="utf-8"?>
<!-- Generator: Adobe Illustrator 21.1.0, SVG Export Plug-In . SVG Version: 6.00 Build 0)  -->
<svg version="1.1" id="Calque_1" xmlns="http://www.w3.org/2000/svg" xmlns:xlink="http://www.w3.org/1999/xlink" x="0px" y="0px"
	 viewBox="0 0 1024 1024" style="enable-background:new 0 0 1024 1024;" xml:space="preserve">
<g>
	<path d="M982.1,566.9c-25-5.5-49.6,10.3-55.1,35.2c-20.4,93-70.7,174.4-143.2,233.8c-4.8-19.2-11.3-37.6-19.4-55.2
		c-15-32.4-35.3-61-60.3-85.1c-51-49.2-119.2-76.3-192.1-76.3c-73,0-141.2,27.2-192.3,76.5c-25,24.1-45.3,52.9-60.3,85.3
		c-7,15.1-12.7,30.9-17.2,47.2C130.4,730.6,73.8,576.5,107.9,421.7c49.8-225.8,274-369.1,499.8-319.4
		c158.9,35,284.3,160.3,319.5,319.2c5.5,24.9,30.2,40.6,55.1,35.1s40.6-30.2,35.1-55.1C974.5,207.6,821.4,54.7,627.5,12
		C351.8-48.7,78.1,126.2,17.5,401.9c-60.6,275.7,114.3,549.3,389.9,610c30.6,6.7,61.8,10.7,93.2,11.8c102.7,3.6,204-23.9,292.5-80.4
		c115.2-73.7,194.8-187.8,224.2-321.3C1022.8,597,1007,572.4,982.1,566.9z M427.3,921.5c-36.2-8-70.3-20.4-101.8-36.7
		c6.4-48.4,27.1-91.4,58.9-122.2c34.1-32.9,78.2-50.3,127.6-50.3c49.4,0,93.4,17.4,127.5,50.2c33,31.8,54.1,76.9,59.7,127.4
		C615,930.6,520.1,941.9,427.3,921.5z"/>
	<path d="M315.7,411.6c0,108.6,88.1,197,196.3,197c108.2,0,196.3-88.4,196.3-197c0-108.6-88.1-197-196.3-197
		C403.8,214.7,315.7,303,315.7,411.6z M615.3,411.6c0,57.3-46.3,104-103.3,104c-57,0-103.3-46.6-103.3-104s46.3-104,103.3-104
		C569,307.7,615.3,354.3,615.3,411.6z"/>
</g>
</svg>
