<?xml version="1.0" encoding="utf-8"?>
<!-- Generator: Adobe Illustrator 21.1.0, SVG Export Plug-In . SVG Version: 6.00 Build 0)  -->
<svg version="1.1" id="Calque_1" xmlns="http://www.w3.org/2000/svg" xmlns:xlink="http://www.w3.org/1999/xlink" x="0px" y="0px"
	 viewBox="0 0 1024 1024" style="enable-background:new 0 0 1024 1024;" xml:space="preserve">
<g id="Page-1_1_">
	<g id="icon-1-copy">
		<g id="Page-1" transform="translate(100.000000, 20.000000)">
			<path d="M824,1004c-11,0-20-9-20-20c0-44-7.1-87.2-21.2-128.3c-13.6-39.8-33.4-77-58.9-110.7c-25.2-33.3-55.3-62.2-89.5-85.9
				c-34.7-24.1-72.7-42.2-112.9-54c-10.6-3.1-16.7-14.2-13.6-24.8s14.2-16.7,24.8-13.6c44.4,13,86.3,33,124.6,59.5
				c37.6,26.2,70.8,58,98.6,94.6c28.1,37,49.9,78,64.9,121.9C836.1,888.1,844,935.6,844,984C844,995,835,1004,824,1004z"/>
			<path d="M0.4,1004c-11,0-20-9-20-20c0-49.2,8.1-97.5,24.1-143.5c15.5-44.5,37.9-86,66.8-123.3c28.6-37,62.7-68.9,101.4-94.8
				c39.3-26.4,82.3-46,127.9-58.2c10.7-2.9,21.6,3.5,24.5,14.1c2.9,10.7-3.5,21.6-14.1,24.5c-41.3,11.1-80.3,28.8-115.9,52.8
				c-35.1,23.6-66.1,52.6-92.1,86.1c-26.2,33.9-46.7,71.6-60.7,111.9C27.8,895.4,20.4,939.3,20.4,984C20.4,995,11.4,1004,0.4,1004z"
				/>
			<path d="M416.6,617c-84.5,0-163.9-33.1-223.6-93.3c-59.7-60.1-92.6-140-92.6-224.9s32.9-164.8,92.6-224.9
				c59.7-60.1,139.2-93.3,223.6-93.3c84.5,0,164,33.1,223.7,93.3c59.7,60.1,92.6,140,92.6,224.9S700,463.6,640.3,523.7
				C580.5,583.8,501.1,617,416.6,617z M416.6,20.6c-73.8,0-143.1,28.9-195.3,81.4c-52.2,52.6-80.9,122.4-80.9,196.8
				c0,74.3,28.7,144.2,80.9,196.8C273.5,548,342.8,577,416.6,577c73.8,0,143.1-28.9,195.3-81.4c52.2-52.5,80.9-122.4,80.9-196.8
				S664.1,154.6,611.9,102C559.7,49.5,490.3,20.6,416.6,20.6z"/>
			<g>
				<ellipse id="Oval-4_1_" cx="537.3" cy="232.2" rx="15.3" ry="15.4"/>
				<path d="M537.3,267.6c-19.5,0-35.3-15.9-35.3-35.4c0-19.5,15.9-35.4,35.3-35.4s35.3,15.9,35.3,35.4
					C572.7,251.7,556.8,267.6,537.3,267.6z M537.3,227.6c-2.6,0-4.7,2-4.7,4.6s2.1,4.6,4.7,4.6s4.7-2,4.7-4.6
					S539.9,227.6,537.3,227.6z"/>
			</g>
			<g>
				<ellipse id="Oval-4_2_" cx="289.4" cy="232.2" rx="14.5" ry="15.4"/>
				<path d="M289.4,267.6c-19,0-34.5-15.9-34.5-35.4c0-19.5,15.5-35.4,34.5-35.4c19,0,34.5,15.9,34.5,35.4
					C323.9,251.7,308.4,267.6,289.4,267.6z M289.4,227.6c-3,0-5.5,2.1-5.5,4.6s2.5,4.6,5.5,4.6c3,0,5.5-2.1,5.5-4.6
					S292.4,227.6,289.4,227.6z"/>
			</g>
			<path d="M416,488.6c-42.5,0-85.2-11.9-120.3-33.6c-34.4-21.2-55-48.1-55-72c0-13.2,6.1-21.1,11.2-25.3c15.5-12.9,38.8-8.6,74-2.2
				c25.3,4.6,56.7,10.4,90.1,10.4s64.9-5.8,90.1-10.4c35.2-6.5,58.5-10.7,74,2.2c5.1,4.2,11.2,12.1,11.2,25.3
				c0,23.8-20.6,50.8-55,72C501.2,476.7,458.5,488.6,416,488.6z M282.9,389.4c4.1,7.6,14.2,19.5,33.8,31.6
				c28.5,17.5,64.7,27.6,99.3,27.6c34.7,0,70.9-10.1,99.3-27.6c19.6-12.1,29.7-24.1,33.8-31.6c-9.3,0.6-24.1,3.3-35.8,5.5
				c-26.9,4.9-60.3,11.1-97.4,11.1c-37,0-70.5-6.1-97.4-11.1C307,392.8,292.2,390,282.9,389.4z"/>
		</g>
	</g>
</g>
</svg>
