<?xml version="1.0" encoding="utf-8"?>
<!-- Generator: Adobe Illustrator 17.0.0, SVG Export Plug-In . SVG Version: 6.00 Build 0)  -->
<!DOCTYPE svg PUBLIC "-//W3C//DTD SVG 1.1//EN" "http://www.w3.org/Graphics/SVG/1.1/DTD/svg11.dtd">
<svg version="1.1" id="Calque_1" xmlns="http://www.w3.org/2000/svg" xmlns:xlink="http://www.w3.org/1999/xlink" x="0px" y="0px"
	 width="1024px" height="1024px" viewBox="0 0 1024 1024" enable-background="new 0 0 1024 1024" xml:space="preserve">
<g>
	<title>CN-1280-BORNE-BURALISTES-ICONS</title>
	<g>
		<path d="M858.7,330c-11,0-20-9-20-20V20.3c0-11,9-20,20-20s20,9,20,20V310C878.7,321,869.8,330,858.7,330z"/>
		<path d="M1003.7,185H714c-11,0-20-9-20-20s9-20,20-20h289.7c11,0,20,9,20,20S1014.8,185,1003.7,185z"/>
		<g>
			<path d="M767.4,1023.6c-11,0-20-9-20-20c0-78.7-25-153.3-72.3-215.7c-22.8-30-49.9-56.1-80.8-77.6
				c-31.3-21.7-65.6-38.1-101.9-48.7c-10.6-3.1-16.7-14.2-13.6-24.8c3.1-10.6,14.2-16.7,24.8-13.6c40.5,11.8,78.7,30.1,113.6,54.3
				c34.3,23.8,64.5,52.9,89.8,86.3c25.6,33.8,45.5,71.1,59.1,111.1c14.1,41.3,21.3,84.7,21.3,128.8
				C787.4,1014.7,778.5,1023.6,767.4,1023.6z M20.2,1023.6c-11,0-20-9-20-20c0-44.8,7.4-88.8,22-130.8
				c14.1-40.5,34.6-78.4,60.9-112.4c26.1-33.7,57.2-62.8,92.4-86.4c35.8-24.1,75.1-41.9,116.6-53.1c10.7-2.9,21.6,3.5,24.5,14.1
				c2.9,10.7-3.5,21.6-14.1,24.5c-37.2,10-72.5,26-104.6,47.6c-31.7,21.3-59.7,47.4-83.1,77.7C91,815.5,72.6,849.5,59.9,886
				c-13.1,37.7-19.7,77.3-19.7,117.6C40.2,1014.7,31.2,1023.6,20.2,1023.6z"/>
			<path d="M397.8,672.5c-77.1,0-149.7-30.2-204.2-85.2C139.1,532.4,109,459.5,109,381.9s30-150.5,84.5-205.4
				c54.5-54.9,127.1-85.2,204.2-85.2c77.2,0,149.7,30.2,204.3,85.2c54.5,54.9,84.5,127.8,84.5,205.4c0,77.6-30,150.5-84.5,205.4
				C547.5,642.2,474.9,672.5,397.8,672.5z M397.8,131.4c-66.4,0-128.9,26-175.8,73.3C174.9,252.1,149,315,149,381.9
				s25.9,129.9,72.9,177.2c47,47.3,109.4,73.3,175.8,73.3c66.4,0,128.9-26,175.9-73.3c47-47.3,72.9-110.3,72.9-177.2
				c0-66.9-25.9-129.9-72.9-177.2C526.7,157.4,464.2,131.4,397.8,131.4z"/>
		</g>
	</g>
</g>
</svg>
