<?xml version="1.0" encoding="utf-8"?>
<!-- Generator: Adobe Illustrator 21.1.0, SVG Export Plug-In . SVG Version: 6.00 Build 0)  -->
<svg version="1.1" id="Calque_1" xmlns="http://www.w3.org/2000/svg" xmlns:xlink="http://www.w3.org/1999/xlink" x="0px" y="0px"
	 viewBox="0 0 1024 1024" style="enable-background:new 0 0 1024 1024;" xml:space="preserve">
<g>
	<path d="M512,492.8c65.6,0,127.3-25.7,173.7-72.2c46.3-46.5,71.9-108.4,71.9-174.2s-25.5-127.6-71.9-174.2
		C639.3,25.7,577.7,0,512,0S384.7,25.7,338.3,72.2c-46.3,46.5-71.9,108.4-71.9,174.2s25.5,127.6,71.9,174.2
		C384.7,467.2,446.4,492.8,512,492.8z M512,93c84.1,0,152.6,68.8,152.6,153.4S596.1,399.8,512,399.8S359.5,331,359.5,246.4
		S427.9,93,512,93z"/>
	<path d="M869.3,879.2c-4.3-48.3-16.4-94.1-35.8-135.9c-19.2-41.3-45-77.8-76.9-108.5c-32.1-30.9-69.2-55-110.3-71.5
		c-42.1-16.9-87.3-25.5-134.3-25.5c-47.1,0-92.3,8.6-134.5,25.6c-41.2,16.6-78.3,40.7-110.4,71.7c-31.8,30.8-57.7,67.4-76.8,108.8
		c-19.4,42-31.4,87.8-35.7,136.2c-3.7,42.6,21.9,82.5,62.2,97c48.9,17.6,152.3,47.1,294.6,47.1c24.2,0,48.6-0.9,72.4-2.6
		c25.6-1.8,44.9-24.1,43.1-49.7c-1.8-25.6-24.1-44.9-49.7-43.1c-21.6,1.5-43.7,2.3-65.8,2.3c-128.2,0-219.9-26.1-263.2-41.6
		c-0.6-0.2-1.1-0.8-1-1.3C260.6,736.5,369.5,630.6,512,630.6c35.1,0,68.6,6.3,99.6,18.8c30,12.1,57.1,29.6,80.5,52.2
		c23.5,22.7,42.7,49.9,57.1,80.8c14.9,32.1,24.2,67.5,27.5,105.1c0.1,0.9-0.3,1.6-1,1.9c-13,4.6-27,9-41.6,13.1
		c-24.8,6.8-39.3,32.4-32.4,57.2c6.8,24.8,32.4,39.3,57.2,32.4c16.8-4.6,33-9.7,48.1-15.1C847.5,962.4,873.2,922.2,869.3,879.2z"/>
</g>
</svg>
