<svg id="Calque_1" data-name="Calque 1" xmlns="http://www.w3.org/2000/svg" viewBox="0 0 1024 1024"><title>Plan de travail 1</title><path d="M329.91,497C203.2,497,100.13,393.87,100.13,267.16S203.2,37.39,329.91,37.39,559.69,140.46,559.69,267.16,456.61,497,329.91,497Zm0-367.11c-75.72,0-137.33,61.6-137.33,137.32S254.19,404.5,329.91,404.5s137.33-61.61,137.33-137.34S405.63,129.84,329.91,129.84Z"/><path d="M332.69,986.61c-78.47,0-152.13-7.09-207.43-20C42.14,947.26,0,913.17,0,865.29,0,681.85,149.24,532.61,332.7,532.61,513,532.61,665.37,685,665.37,865.29,665.37,970.85,456.93,986.61,332.69,986.61ZM93.67,841c-1,10.28,4.52,20.27,14.12,24.06,34,13.45,110.43,29.11,224.89,29.11,114.29,0,190.65-15.62,224.75-29.06,9.68-3.81,15.28-13.92,14.12-24.26C558.43,723.35,452.45,625.06,332.7,625.06,208.43,625.06,105.9,719.9,93.67,841Z"/><path d="M778.37,427.41c-95.25,0-172.74-77.5-172.74-172.76S683.12,81.9,778.37,81.9s172.76,77.49,172.76,172.75S873.64,427.41,778.37,427.41Zm0-253.06a80.3,80.3,0,1,0,80.31,80.3A80.38,80.38,0,0,0,778.37,174.35Z"/><path d="M779.11,803c-16.33,0-29-.41-36-.69a46.23,46.23,0,1,1,3.79-92.37c70.23,2.89,129.14-3.44,163.18-11.49a23.16,23.16,0,0,0,17-28.31c-16.42-65.75-76-114.6-146.75-114.6a150.1,150.1,0,0,0-106.14,43.71c-17.16,17-45.4,18.95-63.66,3.17A46.23,46.23,0,0,1,608,534.7a242,242,0,0,1,172.36-71.63c134.37,0,243.68,109.32,243.68,243.7,0,17.77-7.62,34.87-21.46,48.15C958.72,797,842.09,803,779.11,803Z"/></svg>