<?xml version="1.0" encoding="utf-8"?>
<!-- Generator: Adobe Illustrator 21.1.0, SVG Export Plug-In . SVG Version: 6.00 Build 0)  -->
<svg version="1.1" id="Calque_1" xmlns="http://www.w3.org/2000/svg" xmlns:xlink="http://www.w3.org/1999/xlink" x="0px" y="0px"
	 viewBox="0 0 1024 1024" style="enable-background:new 0 0 1024 1024;" xml:space="preserve">
<g>
	<path d="M325.4,549.4c-59.9,0-116.2-23.4-158.6-66c-42.3-42.5-65.6-98.9-65.6-159c0-60,23.3-116.5,65.6-159
		c42.4-42.5,98.7-66,158.6-66s116.2,23.4,158.6,66c42.3,42.5,65.6,98.9,65.6,159c0,60-23.3,116.5-65.6,159
		C441.6,526,385.3,549.4,325.4,549.4z M325.4,192.5c-72.3,0-131.2,59.2-131.2,132s58.8,132,131.2,132s131.2-59.2,131.2-132
		S397.7,192.5,325.4,192.5z"/>
	<path d="M324.9,1023.5c-127.8,0-220.7-26.5-264.6-42.3c-38.2-13.7-62.4-51.4-58.8-91.7c3.8-43.8,14.7-85.3,32.3-123.2
		c17.4-37.5,40.8-70.7,69.7-98.6c29.1-28.1,62.8-50,100.2-65.1c38.2-15.4,79.2-23.2,121.9-23.2c42.6,0,83.6,7.8,121.7,23.1
		c37.3,15,71,36.9,100.1,64.9c28.9,27.8,52.3,60.9,69.7,98.4c17.6,37.9,28.5,79.3,32.4,123c3.6,40.7-20.6,78.7-58.9,92.4
		c-13.6,4.9-28.2,9.4-43.3,13.6c-24.8,6.8-50.4-7.7-57.2-32.4c-6.8-24.8,7.7-50.4,32.4-57.2c12-3.3,23.4-6.9,34.2-10.6
		c-3.1-32-11.2-62.2-23.9-89.6c-12.5-27-29.3-50.8-49.9-70.6c-42-40.5-96.4-62-157.2-62c-60.9,0-115.3,21.5-157.4,62.1
		c-20.6,19.9-37.4,43.7-49.9,70.8c-12.7,27.4-20.6,57.4-23.8,89.3c39.3,13.8,119.4,35.9,230.6,35.9c19.6,0,39.2-0.7,58.4-2.1
		c25.6-1.8,47.9,17.5,49.7,43.1c1.8,25.6-17.5,47.9-43.1,49.7C368.6,1022.7,346.7,1023.5,324.9,1023.5z"/>
</g>
<path d="M796.8,453.5c-25.7,0-46.5-20.8-46.5-46.5V47.5c0-25.7,20.8-46.5,46.5-46.5s46.5,20.8,46.5,46.5V407
	C843.2,432.7,822.4,453.5,796.8,453.5z"/>
<path d="M976.5,273.8H617c-25.7,0-46.5-20.8-46.5-46.5s20.8-46.5,46.5-46.5h359.5c25.7,0,46.5,20.8,46.5,46.5
	S1002.2,273.8,976.5,273.8z"/>
</svg>
