<?xml version="1.0" encoding="utf-8"?>
<!-- Generator: Adobe Illustrator 17.0.0, SVG Export Plug-In . SVG Version: 6.00 Build 0)  -->
<!DOCTYPE svg PUBLIC "-//W3C//DTD SVG 1.1//EN" "http://www.w3.org/Graphics/SVG/1.1/DTD/svg11.dtd">
<svg version="1.1" id="Calque_1" xmlns="http://www.w3.org/2000/svg" xmlns:xlink="http://www.w3.org/1999/xlink" x="0px" y="0px"
	 width="1024px" height="1024px" viewBox="0 0 1024 1024" enable-background="new 0 0 1024 1024" xml:space="preserve">
<g>
	<title>CN-1280-BORNE-BURALISTES-ICONS</title>
	<g>
		<g>
			<path d="M922.9,1023.3c-11,0-20-9-20-20c0-43.9-7.1-87-21.2-128.2c-13.6-39.8-33.4-76.9-58.8-110.5
				c-25.2-33.2-55.3-62.1-89.4-85.8c-34.6-24-72.6-42.2-112.8-53.9c-10.6-3.1-16.7-14.2-13.6-24.8c3.1-10.6,14.2-16.7,24.8-13.6
				c44.4,12.9,86.3,33,124.4,59.5c37.6,26.1,70.7,57.9,98.5,94.5c28,37,49.8,77.9,64.8,121.7c15.5,45.3,23.3,92.8,23.3,141.1
				C942.9,1014.4,933.9,1023.3,922.9,1023.3z M100.7,1023.3c-11,0-20-9-20-20c0-49.2,8.1-97.4,24.1-143.4
				c15.5-44.5,37.9-85.9,66.8-123.2c28.6-36.9,62.7-68.8,101.4-94.8c39.3-26.4,82.3-46,127.8-58.2c10.7-2.9,21.6,3.5,24.5,14.1
				c2.9,10.7-3.5,21.6-14.1,24.5c-41.3,11.1-80.3,28.8-115.9,52.8c-35.1,23.6-66.1,52.5-92,86.1c-26.2,33.9-46.6,71.5-60.7,111.9
				c-14.5,41.8-21.9,85.6-21.9,130.3C120.7,1014.4,111.7,1023.3,100.7,1023.3z"/>
			<path d="M516.4,636.4c-84.4,0-163.8-33.1-223.4-93.2c-59.6-60-92.5-139.8-92.5-224.7S233.4,153.9,293,93.8
				C352.7,33.8,432,0.7,516.4,0.7c84.4,0,163.8,33.1,223.5,93.2c59.6,60,92.5,139.8,92.5,224.7s-32.8,164.7-92.5,224.7
				C680.2,603.3,600.9,636.4,516.4,636.4z M516.4,40.7c-73.7,0-142.9,28.9-195.1,81.4c-52.1,52.5-80.9,122.3-80.9,196.5
				s28.7,144,80.9,196.5c52.1,52.5,121.4,81.4,195.1,81.4c73.7,0,143-28.9,195.1-81.4c52.1-52.5,80.9-122.3,80.9-196.5
				s-28.7-144-80.9-196.5C659.4,69.6,590.1,40.7,516.4,40.7z"/>
		</g>
	</g>
</g>
</svg>
