<?xml version="1.0" encoding="utf-8"?>
<!-- Generator: Adobe Illustrator 17.0.0, SVG Export Plug-In . SVG Version: 6.00 Build 0)  -->
<!DOCTYPE svg PUBLIC "-//W3C//DTD SVG 1.1//EN" "http://www.w3.org/Graphics/SVG/1.1/DTD/svg11.dtd">
<svg version="1.1" id="Calque_1" xmlns="http://www.w3.org/2000/svg" xmlns:xlink="http://www.w3.org/1999/xlink" x="0px" y="0px"
	 width="1024px" height="1024px" viewBox="0 0 1024 1024" enable-background="new 0 0 1024 1024" xml:space="preserve">
<g>
	<title>CN-1280-BORNE-BURALISTES-ICONS</title>
	<g>
		<g>
			<path d="M736.2,790.6c-11,0-20-9-20-20c0-45.7-14.5-89-42-125.2c-26.6-35.1-64.2-61.1-106-73.3c-10.6-3.1-16.7-14.2-13.6-24.8
				c3.1-10.6,14.2-16.7,24.8-13.6c50,14.6,95,45.7,126.7,87.5c32.8,43.2,50.1,94.9,50.1,149.4C756.2,781.6,747.3,790.6,736.2,790.6z
				 M285.9,790.6c-11,0-20-9-20-20c0-111.6,74.8-209.6,181.8-238.3c10.7-2.9,21.6,3.5,24.5,14.1c2.9,10.7-3.5,21.6-14.1,24.5
				c-89.6,24-152.2,106.1-152.2,199.7C305.9,781.6,297,790.6,285.9,790.6z"/>
			<path d="M513.5,578.9c-100.3,0-182-82.1-182-183.1s81.6-183.1,182-183.1c100.4,0,182,82.1,182,183.1S613.8,578.9,513.5,578.9z
				 M513.5,252.8c-78.3,0-142,64.2-142,143.1s63.7,143.1,142,143.1c78.3,0,142-64.2,142-143.1S591.8,252.8,513.5,252.8z"/>
			<g>
				<path d="M1003.6,582.3c-11,0-20-9-20-20c0-26.4-8.4-51.5-24.3-72.4c-15.4-20.3-37.1-35.3-61.3-42.4
					c-10.6-3.1-16.7-14.2-13.6-24.8c3.1-10.6,14.2-16.7,24.8-13.6c32.3,9.4,61.4,29.5,81.9,56.6c21.2,28,32.4,61.3,32.4,96.6
					C1023.6,573.3,1014.6,582.3,1003.6,582.3z M726.4,582.3c-11,0-20-9-20-20c0-72.1,48.4-135.5,117.6-154.1
					c10.7-2.9,21.6,3.5,24.5,14.1c2.9,10.7-3.5,21.6-14.1,24.5c-51.8,13.9-87.9,61.4-87.9,115.4
					C746.4,573.3,737.5,582.3,726.4,582.3z"/>
				<path d="M866.5,452c-66,0-119.7-54-119.7-120.3c0-66.4,53.7-120.3,119.7-120.3c66,0,119.7,54,119.7,120.3
					C986.2,398,932.5,452,866.5,452z M866.5,251.4c-43.9,0-79.7,36-79.7,80.3c0,44.3,35.7,80.3,79.7,80.3c43.9,0,79.7-36,79.7-80.3
					C946.2,287.4,910.4,251.4,866.5,251.4z"/>
			</g>
			<g>
				<path d="M296.4,582.3c-11,0-20-9-20-20c0-26.4-8.4-51.5-24.3-72.4c-15.4-20.3-37.1-35.3-61.3-42.4
					c-10.6-3.1-16.7-14.2-13.6-24.8c3.1-10.6,14.2-16.7,24.8-13.6c32.3,9.4,61.4,29.5,81.9,56.6c21.2,28,32.4,61.3,32.4,96.6
					C316.4,573.3,307.5,582.3,296.4,582.3z M19.3,582.3c-11,0-20-9-20-20c0-72.1,48.4-135.5,117.6-154.1
					c10.7-2.9,21.6,3.5,24.5,14.1s-3.5,21.6-14.1,24.5c-51.8,13.9-87.9,61.4-87.9,115.4C39.3,573.3,30.3,582.3,19.3,582.3z"/>
				<path d="M159.3,452c-66,0-119.7-54-119.7-120.3c0-66.4,53.7-120.3,119.7-120.3c65.7,0,119.2,53.4,119.7,119.4c0,0.3,0,0.7,0,1
					c0,0.3,0,0.7,0,1C278.5,398.6,225,452,159.3,452z M159.3,251.4c-43.9,0-79.7,36-79.7,80.3c0,44.3,35.7,80.3,79.7,80.3
					c43.9,0,79.7-36,79.7-80.3c0-21.5-8.3-41.7-23.4-56.9C200.6,259.7,180.6,251.4,159.3,251.4z"/>
			</g>
		</g>
	</g>
</g>
</svg>
