<svg id="b6ea96a6-c233-4daf-850b-d0773ac82cc8" data-name="Calque 5" xmlns="http://www.w3.org/2000/svg" viewBox="0 0 1024 1024"><title>ajout-express</title><path d="M512,0C229.69,0,0,229.69,0,512s229.69,512,512,512,512-229.68,512-512S794.32,0,512,0Zm0,953.81a439.11,439.11,0,0,1-242-72.46C273.66,775.59,345.3,683.78,447.11,656a225.31,225.31,0,0,0,129.05.7c.32.11.61.28.94.38C677.26,686.35,747.63,779,750.28,883.75A439,439,0,0,1,512,953.81ZM349.31,434.75c0-91,73.43-165,163.68-165s163.74,74,163.74,165-73.45,165-163.74,165S349.31,525.74,349.31,434.75ZM811.74,836.19a310.55,310.55,0,0,0-158.6-218.73c54.4-42.3,89.64-108.37,89.64-182.71,0-127.42-103.1-231.08-229.81-231.08S283.24,307.33,283.24,434.75a231.12,231.12,0,0,0,87.16,180.87A308.57,308.57,0,0,0,209,833.06C123.62,752.46,70.19,638.38,70.19,512,70.19,268.39,268.39,70.19,512,70.19S953.81,268.39,953.81,512C953.81,640,899,755.43,811.74,836.19Z"/></svg>