<svg id="97f612bf-60c0-4101-a5dd-68d2a2294199" data-name="Calque 36" xmlns="http://www.w3.org/2000/svg" viewBox="0 0 1024 765.92"><title>salaire</title><path d="M951.76,315.6a24.72,24.72,0,0,0-13.65,4.08l-29.59,19.44v-113c0-53.54-43-97.09-96-97.09H211.44c-52.91,0-96,43.56-96,97.09v113L85.9,319.68a24.72,24.72,0,0,0-13.65-4.08C32.41,315.6,0,348.35,0,388.62V821.94c0,40.28,32.41,73,72.24,73H951.76c39.84,0,72.24-32.75,72.24-73V388.62C1024,348.35,991.59,315.6,951.76,315.6ZM165.23,226.13c0-26.11,20.75-47.34,46.2-47.34H812.56c25.46,0,46.2,21.23,46.2,47.34V371.8L512,599.6,165.23,371.8Zm809,595.81c0,12.83-10.11,23.27-22.49,23.27H72.24c-12.39,0-22.49-10.45-22.49-23.27V388.62a23.23,23.23,0,0,1,16.37-22.4L498.37,650.15a24.88,24.88,0,0,0,27.3,0l432.2-283.92a23.23,23.23,0,0,1,16.37,22.4Z" transform="translate(0 -129.04)"/><path d="M612.76,474.54l-23.33-23.61a83.26,83.26,0,0,1-55.36,20.93c-32.93,0-61.39-18.93-75.56-46.63h75.56V398.58H449.88a83.86,83.86,0,0,1,0-26.65h84.19V345.27H458.51a85,85,0,0,1,75.56-46.67,84.06,84.06,0,0,1,55.49,20.93L612.76,296a116.4,116.4,0,0,0-78.69-30.68c-51.43,0-95,33.46-111.22,80H376.69v26.65h40.13a111.18,111.18,0,0,0,0,26.65H376.69v26.65h46.16c16.26,46.5,59.79,80,111.22,80A116.27,116.27,0,0,0,612.76,474.54Z" transform="translate(0 -129.04)"/></svg>