<?xml version="1.0" encoding="utf-8"?>
<!-- Generator: Adobe Illustrator 21.1.0, SVG Export Plug-In . SVG Version: 6.00 Build 0)  -->
<svg version="1.1" id="Calque_1" xmlns="http://www.w3.org/2000/svg" xmlns:xlink="http://www.w3.org/1999/xlink" x="0px" y="0px"
	 viewBox="0 0 1024 1024" style="enable-background:new 0 0 1024 1024;" xml:space="preserve">
<g>
	<path d="M977.5,492.1c-25.7,0-46.5,20.8-46.5,46.5v297.9c0,29.5-24,53.5-53.5,53.5h-731C117,890,93,866,93,836.5v-376
		c0-23.5,15.3-43.6,36.4-50.7l300,312l2.2,2.3l2.5,2c22.2,17.5,50,27.1,78.2,27.1c0,0,0.1,0,0.1,0c28.3,0,56.1-9.7,78.3-27.2l2.5-2
		l317.7-331.3c17.8-18.5,17.2-48-1.4-65.7c-18.5-17.8-48-17.2-65.7,1.4l-31.2,32.5V219.5c0-47-17-91.3-47.9-124.8
		C732.9,60,690.3,41,644.6,41H379.4c-45.6,0-88.3,19-120.2,53.6c-30.9,33.5-47.9,77.9-47.9,124.8v141.3l-45-46.7h-19.8
		C65.7,314,0,379.7,0,460.5v376C0,917.3,65.7,983,146.5,983h731c80.8,0,146.5-65.7,146.5-146.5V538.6
		C1024,512.9,1003.2,492.1,977.5,492.1z M304.2,219.5c0-47.1,33.7-85.5,75.1-85.5h265.3c41.4,0,75.1,38.3,75.1,85.5v238.3
		L531.1,654.4c-11.3,7.6-26,7.6-37.4,0l-189.5-197V219.5z"/>
	<path d="M499.8,486.2c3.9,0.3,8,0.7,12.2,0.7c4.1,0,8.1-0.4,12.3-0.7v2.7c0,15.8,11.5,29.9,27.1,31.4c18.1,1.7,33.1-12.3,33.1-30.1
		v-20c0-0.5,0.4-1,0.8-1.2c52.4-26.8,88.3-81.1,88.3-143.8c0-16.3-2.5-32.6-7.4-48.1c-6-19.4-29.7-28.3-47.7-14.7
		c-10.1,7.6-13.4,21-9.7,33.1c3,9.5,4.5,19.6,4.5,29.7c0,25.8-9.7,49.5-25.9,67.4c-0.9,1-2.7,0.3-2.7-1v-54.5
		c0-15.7-11.5-29.9-27.2-31.3c-17.9-1.8-33.1,12.3-33.1,30v88.3c0,0.8-0.6,1.4-1.6,1.6c-3.5,0.4-7,0.7-10.7,0.7
		c-3.7,0-7.4-0.3-11-0.7c-0.7-0.1-1.2-0.7-1.2-1.6v-87c0-15.7-11.7-29.9-27.3-31.3c-18.1-1.8-33.2,12.3-33.2,30v55.8
		c0,1.4-1.6,2-2.5,1c-16.1-17.9-25.9-41.6-25.9-67.4c0-10.1,1.4-20.2,4.4-29.6c3.7-12.2,0.3-25.6-9.7-33.3
		c-18.1-13.6-41.8-4.6-47.8,14.7c-4.9,15.6-7.4,31.8-7.4,48.1c0,62.6,36,116.9,88.3,143.8c0.4,0.3,0.7,0.8,0.7,1.2v18.7
		c0,15.8,11.5,29.9,27.3,31.4c17.9,1.7,33.1-12.4,33.1-30.1V486.2z"/>
</g>
</svg>
