<?xml version="1.0" encoding="utf-8"?>
<!-- Generator: Adobe Illustrator 21.1.0, SVG Export Plug-In . SVG Version: 6.00 Build 0)  -->
<svg version="1.1" id="Calque_1" xmlns="http://www.w3.org/2000/svg" xmlns:xlink="http://www.w3.org/1999/xlink" x="0px" y="0px"
	 viewBox="0 0 1024 1024" style="enable-background:new 0 0 1024 1024;" xml:space="preserve">
<path d="M674.9,931h-32.6V666.6c0-31.2-25.4-56.8-56.6-56.9l-452.3-2.1l208-208c21.4-21.4,56.3-21.4,77.8,0l174.7,174.7
	c18.2,18.2,47.6,18.2,65.8,0c18.2-18.2,18.2-47.6,0-65.8L484.9,333.8c-57.7-57.7-151.6-57.7-209.3,0L18.9,590.5
	C0.5,608.9-5,636.5,5,660.6c10,24.1,33.3,39.7,59.3,39.7l22.6,0.1V931H47c-25.7,0-46.5,20.8-46.5,46.5S21.3,1024,47,1024h627.9
	c25.7,0,46.5-20.8,46.5-46.5S700.6,931,674.9,931z M549.3,931H411.1V701.9l138.2,0.6V931z M179.9,700.8l138.2,0.6V931H179.9V700.8z"
	/>
<g>
	<path d="M1010.5,13.7c-18-18-47.2-18-65.3,0L820,139L694.8,13.8c-18-18-47.2-18-65.3,0c-18,18-18,47.2,0,65.3l125.2,125.2
		L629.6,329.4c-18,18-18,47.2,0,65.3c18,18,47.2,18,65.3,0L820,269.5l125.2,125.2c18,18,47.2,18,65.3,0c18-18,18-47.2,0-65.3
		L885.3,204.2L1010.5,79C1028.5,61,1028.5,31.8,1010.5,13.7z"/>
</g>
</svg>
