<?xml version="1.0" encoding="UTF-8"?>
<svg width="1024px" height="1024px" viewBox="0 0 1024 1024" version="1.1" xmlns="http://www.w3.org/2000/svg" xmlns:xlink="http://www.w3.org/1999/xlink" style="background: #FFFFFF;">
    <!-- Generator: Sketch 44 (41411) - http://www.bohemiancoding.com/sketch -->
    <title>CN-1280-BORNE-BURALISTES-ICONS</title>
    <desc>Created with Sketch.</desc>
    <defs></defs>
    <g id="Page-1" stroke="none" stroke-width="1" fill="none" fill-rule="evenodd">
        <g id="CN-1280-BORNE-BURALISTES-ICONS">
            <rect id="Rectangle-2" fill="#FFFFFF" x="0" y="0" width="768" height="520"></rect>
            <g id="1" transform="translate(4.000000, 168.000000)" stroke-linecap="round">
                <path d="M0.772882673,421.328726 L0.772882673,494.971857 L599.649138,687.273545 L933.490324,439.055917 L945.756364,253.580906 L1004.3454,121.287469 C1004.3454,121.287469 1015.58696,123.670802 1014.56248,103.218482 C1013.54723,82.7569249 993.103833,86.8492364 975.733865,85.8238491 C958.354667,84.7984618 944.048902,85.8238491 944.048902,85.8238491 C944.048902,85.8238491 946.097857,56.1615192 924.629979,52.0692077 C903.171331,47.9768962 525.046879,0.929170883 525.046879,0.929170883 C525.046879,0.929170883 514.885171,-2.14699101 507.7046,20.3653409 L436.129625,10.1299434 L282.836428,302.679406 L0.772882673,421.328726 L0.772882673,421.328726 Z" id="Stroke-1" stroke="#333333" stroke-width="10" stroke-linejoin="round"></path>
                <polygon id="Stroke-3" stroke="#333333" stroke-width="10" stroke-linejoin="round" points="117.518542 428.466323 573.697094 570.475319 752.70283 443.327123 322.919206 337.646183"></polygon>
                <polyline id="Stroke-5" stroke="#333333" stroke-width="10" stroke-linejoin="round" points="609.921601 678.039517 609.921601 629.994117 860.272494 446.653021 949.808126 244.430017"></polyline>
                <path d="M845.764602,105.464173 L522.740421,55.6543682 C516.768917,54.7305958 510.87125,57.6774296 508.010097,63.007596 L388.598489,285.488927 C384.196005,293.682787 388.690785,303.844283 397.717261,306.08905 L725.051631,387.759763 C731.733808,389.431791 738.655953,386.078497 741.498647,379.806083 L856.581607,125.463844 C860.476467,116.854286 855.095653,106.905258 845.764602,105.464173 L845.764602,105.464173 Z" id="Stroke-7" stroke="#333333" stroke-width="10" stroke-linejoin="round"></path>
                <path d="M207.897291,260.625594 C207.897291,260.625594 281.761188,186.483626 257.810568,186.917799 C230.657302,187.407398 199.793767,195.407267 164.87847,187.68453" id="Stroke-9" stroke="#F57528" stroke-width="20"></path>
                <path d="M253.306559,195.321356 C253.306559,195.321356 103.659024,232.928128 112.990075,397.793778" id="Stroke-11" stroke="#F57528" stroke-width="20"></path>
            </g>
        </g>
    </g>
</svg>