<?xml version="1.0" encoding="UTF-8"?>
<svg width="1024px" height="1024px" viewBox="0 0 1024 1024" version="1.1" xmlns="http://www.w3.org/2000/svg" xmlns:xlink="http://www.w3.org/1999/xlink" style="background: #FFFFFF;">
    <!-- Generator: Sketch 44 (41411) - http://www.bohemiancoding.com/sketch -->
    <title>CN-1280-BORNE-BURALISTES-ICONS</title>
    <desc>Created with Sketch.</desc>
    <defs></defs>
    <g id="Page-1" stroke="none" stroke-width="1" fill="none" fill-rule="evenodd">
        <g id="CN-1280-BORNE-BURALISTES-ICONS">
            <rect id="Rectangle-2" fill="#FFFFFF" x="0" y="0" width="768" height="520"></rect>
            <g id="2" transform="translate(9.000000, 195.000000)">
                <path d="M327.058674,274.616879 L320.078768,284.23929 L53.1688928,395.59052 L53.1688928,464.698501 L617.708901,645.157712 L932.298905,412.226021 L944.307812,238.164413 L999.592136,114.026646 C999.592136,114.026646 1010.27443,116.263206 1009.31198,97.061729 C1008.34953,77.8689205 989.213319,81.709216 972.886409,80.7469749 C956.568168,79.7847338 943.15461,80.7469749 943.15461,80.7469749 C943.15461,80.7469749 945.096845,52.9113345 924.928818,49.071039 C904.769462,45.2307436 549.53993,1.08034914 549.53993,1.08034914 C549.53993,1.08034914 540.010841,-1.80637408 533.256372,19.3109165 L466.023836,9.71451228 L439.690948,59.9070872" id="Stroke-1" stroke="#333333" stroke-width="10" stroke-linecap="round" stroke-linejoin="round"></path>
                <polygon id="Stroke-3" stroke="#333333" stroke-width="10" stroke-linecap="round" stroke-linejoin="round" points="156.751557 401.486715 599.601048 539.194598 773.376423 415.897417 356.150628 313.4173"></polygon>
                <polyline id="Stroke-5" stroke="#333333" stroke-width="10" stroke-linecap="round" stroke-linejoin="round" points="625.432752 636.491474 625.432752 591.404845 862.558805 419.354407 944.306078 238.167014"></polyline>
                <path d="M796.668816,248.855901 L860.182168,119.791423 C864.257393,110.7845 858.621444,100.373225 848.849575,98.8648474 L548.462163,52.5992563 C542.210595,51.6370152 536.028392,54.7144529 533.028333,60.2885161 L525.753624,73.8292418" id="Stroke-7" stroke="#333333" stroke-width="10" stroke-linecap="round" stroke-linejoin="round"></path>
                <polygon id="Stroke-11" stroke="#333333" stroke-width="10" stroke-linecap="round" stroke-linejoin="round" points="863.174044 418.123742 742.528698 108.901629 212.558734 23.158147 327.046535 274.615145 322.3015 283.851899"></polygon>
                <path d="M356.047395,420.587983 L392.022091,404.663327 C403.883596,399.41001 417.175765,398.309068 429.739596,401.533876 L528.550788,426.942242 C534.698308,428.51997 535.998912,436.677347 530.640425,440.084201 L499.720742,459.753795 C488.076004,467.165652 473.786705,469.150816 460.555231,465.189157 L356.905793,434.163384 C350.454799,432.230233 349.891204,423.318667 356.047395,420.587983" id="Fill-13" fill="#F67528"></path>
                <path d="M230.662269,388.258417 C230.662269,388.258417 370.980058,423.427894 353.482604,395.297513 C333.644064,363.413526 302.273504,332.448434 286.683602,285.541349" id="Stroke-15" stroke="#F67528" stroke-width="20" stroke-linecap="round"></path>
                <path d="M340.317895,395.906933 C340.317895,395.906933 189.603947,244.913104 0.678264789,372.761134" id="Stroke-17" stroke="#F67528" stroke-width="20" stroke-linecap="round"></path>
            </g>
        </g>
    </g>
</svg>