<?xml version="1.0" encoding="UTF-8"?>
<svg width="1024px" height="1024px" viewBox="0 0 1024 1024" version="1.1" xmlns="http://www.w3.org/2000/svg" xmlns:xlink="http://www.w3.org/1999/xlink" style="background: #FFFFFF;">
    <!-- Generator: Sketch 44 (41411) - http://www.bohemiancoding.com/sketch -->
    <title>CN-1280-BORNE-BURALISTES-ICONS</title>
    <desc>Created with Sketch.</desc>
    <defs></defs>
    <g id="Page-1" stroke="none" stroke-width="1" fill="none" fill-rule="evenodd">
        <g id="CN-1280-BORNE-BURALISTES-ICONS">
            <rect id="Rectangle-2" fill="#FFFFFF" x="0" y="0" width="768" height="520"></rect>
            <g id="3" transform="translate(4.000000, 168.000000)" stroke-linecap="round">
                <path d="M0.773664152,421.368065 L0.773664152,495.020242 L599.74732,687.345554 L933.667372,439.097434 L945.81647,253.599638 L1004.40931,121.28995 C1004.40931,121.28995 1015.62528,123.673575 1014.60901,103.218743 C1013.5835,82.7546725 993.110186,86.8474867 975.713416,85.8219734 C958.325884,84.7964601 943.996415,85.8219734 943.996415,85.8219734 C943.996415,85.8219734 946.038203,56.1559997 924.548619,52.0631855 C903.068273,47.9703713 524.561491,0.916866454 524.561491,0.916866454 C524.561491,0.916866454 514.389509,-2.15967333 507.201677,20.3554241 L435.554331,10.1187692 L282.614273,302.70417 L0.773664152,421.368065 L0.773664152,421.368065 Z" id="Stroke-1" stroke="#333333" stroke-width="10" stroke-linejoin="round"></path>
                <polygon id="Stroke-3" stroke="#333333" stroke-width="10" stroke-linejoin="round" points="121.783159 428.922399 571.004366 568.64147 747.280021 443.543565 324.051183 339.566752"></polygon>
                <polyline id="Stroke-5" stroke="#333333" stroke-width="10" stroke-linejoin="round" points="601.299448 682.202281 601.299448 630.058166 856.014769 446.703786 945.81647 253.593171"></polyline>
                <path d="M843.860127,105.196783 L523.188597,55.7873692 C516.647486,54.7803337 510.189524,58.0046952 507.057551,63.8344147 L388.790927,283.996406 C383.968243,292.967337 388.883315,304.072445 398.759655,306.529981 L723.690298,387.527051 C730.998235,389.356345 738.574099,385.688518 741.687594,378.824047 L855.704343,127.06516 C859.972695,117.650764 854.078304,106.767389 843.860127,105.196783 L843.860127,105.196783 Z" id="Stroke-7" stroke="#333333" stroke-width="10" stroke-linejoin="round"></path>
                <path d="M97.1571285,323.846373 C111.421926,356.672036 109.472527,388.527619 114.184344,415.292592 C118.351069,438.916352 176.990102,352.163473 176.990102,352.163473" id="Stroke-9" stroke="#F67528" stroke-width="20"></path>
                <path d="M293.483789,232.693026 C129.854372,255.041824 121.576355,409.266084 121.576355,409.266084" id="Stroke-11" stroke="#F67528" stroke-width="20"></path>
            </g>
        </g>
    </g>
</svg>