<?xml version="1.0" encoding="utf-8"?>
<!-- Generator: Adobe Illustrator 21.1.0, SVG Export Plug-In . SVG Version: 6.00 Build 0)  -->
<svg version="1.1" id="Calque_1" xmlns="http://www.w3.org/2000/svg" xmlns:xlink="http://www.w3.org/1999/xlink" x="0px" y="0px"
	 viewBox="0 0 1024 1024" style="enable-background:new 0 0 1024 1024;" xml:space="preserve">
<g id="Page-1">
	<g id="icon-1-copy-7">
		<g id="Linkedin">
			<path id="Combined-Shape" d="M1023.1,511.5c0,282.5-229,511.5-511.5,511.5S0,794.1,0,511.5S229,0,511.5,0
				S1023.1,229,1023.1,511.5z M284.5,434.2v307h96.9v-307H284.5z M646.1,431.3c-55.5,0-90.3,30.1-96.7,51.1v-48.2H440.5
				c1.4,25.6,0,307,0,307h108.8V575.1c0-9.2-0.4-18.5,2.4-25.1c7.5-18.5,23.6-37.6,52.5-37.6c37.8,0,55,28.4,55,70v158.8H769V570.5
				C769,475.4,714.9,431.3,646.1,431.3z M331.2,289.3c-35.8,0-59.2,23-59.2,53.3c0,29.7,22.7,53.2,57.8,53.2h0.7
				c36.4,0,59.1-23.6,59.1-53.3C388.9,312.2,366.9,289.3,331.2,289.3z"/>
		</g>
	</g>
</g>
</svg>
