<?xml version="1.0" encoding="utf-8"?>
<!-- Generator: Adobe Illustrator 21.1.0, SVG Export Plug-In . SVG Version: 6.00 Build 0)  -->
<svg version="1.1" id="Calque_1" xmlns="http://www.w3.org/2000/svg" xmlns:xlink="http://www.w3.org/1999/xlink" x="0px" y="0px"
	 viewBox="0 0 1024 1024" style="enable-background:new 0 0 1024 1024;" xml:space="preserve">
<g>
	<path d="M982.1,566.9c-24.9-5.5-49.6,10.3-55.1,35.2C903,711.5,837.6,805,743.3,865.4s-206.6,80.3-316,56.2
		C201.4,871.9,58.1,647.6,107.8,421.8c49.7-225.9,273.9-369.1,499.8-319.4c158.9,35,284.3,160.3,319.5,319.2
		c5.5,24.9,30.2,40.7,55.1,35.1c24.9-5.5,40.7-30.2,35.1-55.1C974.5,207.6,821.4,54.7,627.5,12C351.8-48.7,78.2,126.2,17.5,401.9
		c-60.7,275.7,114.2,549.3,389.9,610c30.6,6.8,61.8,10.7,93.2,11.8c102.7,3.6,204.1-23.9,292.5-80.4
		c115.2-73.6,194.8-187.7,224.2-321.3C1022.8,597,1007,572.4,982.1,566.9z"/>
	<path d="M323,467L323,467c-25.4,0-46,20.6-46,46v118c0,25.4,20.6,46,46,46h0c25.4,0,46-20.6,46-46V513C369,487.6,348.4,467,323,467
		z"/>
	<path d="M369,393c0-25.4-20.6-46-46-46h0c-25.4,0-46,20.6-46,46v0c0,25.4,20.6,46,46,46h0C348.4,439,369,418.4,369,393L369,393z"/>
	<path d="M655,542v89c0,25.4,20.6,46,46,46h0c25.4,0,46-20.6,46-46v-89v-25v-27c0-79-64-143-143-143s-143,64-143,143v52v89
		c0,25.4,20.6,46,46,46h0c25.4,0,46-20.6,46-46v-89v-52c0-28.2,22.8-51,51-51s51,22.8,51,51v27V542z"/>
</g>
</svg>
