<svg id="Calque_17" data-name="Calque 17" xmlns="http://www.w3.org/2000/svg" viewBox="0 0 1024 1024"><title>Plan de travail 1</title><path d="M616.95,371.52a86.76,86.76,0,0,1,53.78,18.66q2.57,2,5,4.25c1,.91,3.26,3.59,4.52,3.76a75.82,75.82,0,0,0,9.87.62c21.22,0,41.17-8.1,49.05-11.6a2.2,2.2,0,0,1,3.09,2.31c-1.62,11.49-8.67,45.71-36.39,65.15a7.08,7.08,0,0,0-2.71,5.09c-.38,190.21-121.39,252.83-227,252.83-49,0-94.66-13.46-123.48-33.89a4.65,4.65,0,0,1,2.05-8.39c33.81-4.58,73.77-12.63,92.41-30a5.64,5.64,0,0,0-.8-8.86C325.5,551.88,342.71,416.9,352.77,390.31a2.21,2.21,0,0,1,3.53-1c16,13.54,76.58,82.86,169.31,86a5.85,5.85,0,0,0,5.88-6.47c-1.82-22.08,4-50.61,20.71-69a87.81,87.81,0,0,1,64.76-28.34m0-92.46a180.21,180.21,0,0,0-133.16,58.59,177,177,0,0,0-14.2,17.79,4.54,4.54,0,0,1-5.73,1.55c-45-22.58-82.74-77.94-111.76-77-26.06.87-53,19.23-77.25,59.68-24.39,40.74-38.5,150.86,13.47,251.43a5.78,5.78,0,0,1-2.05,7.61c-26.63,15.92-53.4,20.15-58.41,38.6-7.71,28.39,27.49,79.82,54.9,103.87,45.56,40,117.84,63.84,193.35,63.84,88.32,0,168.51-31.7,225.8-89.27,39.31-39.5,85.39-109.67,92.69-224.94,48.19-54.31,33.74-138.1,10.15-175.18-9.21-14.47-35.63-5.78-100.73-14a179.17,179.17,0,0,0-87.08-22.56Z"/><path d="M500.59,1023.69a517.51,517.51,0,0,1-93.21-11.84c-275.63-60.68-450.51-334.3-389.85-610S351.8-48.67,627.48,12c193.92,42.68,347,195.57,389.91,389.49a46.23,46.23,0,0,1-90.28,20C891.92,262.6,766.51,137.31,607.6,102.33,381.77,52.63,157.55,195.91,107.84,421.77s93.58,450.07,319.42,499.79c109.44,24.1,221.67,4.12,316-56.21S903,711.52,927,602.1a46.23,46.23,0,0,1,90.3,19.87c-29.39,133.54-109,247.64-224.23,321.28C704.64,999.8,603.32,1027.29,500.59,1023.69Z"/></svg>