<?xml version="1.0" encoding="utf-8"?>
<!-- Generator: Adobe Illustrator 21.1.0, SVG Export Plug-In . SVG Version: 6.00 Build 0)  -->
<svg version="1.1" id="Calque_1" xmlns="http://www.w3.org/2000/svg" xmlns:xlink="http://www.w3.org/1999/xlink" x="0px" y="0px"
	 viewBox="0 0 1024 1024" style="enable-background:new 0 0 1024 1024;" xml:space="preserve">
<g id="Page-1">
	<g id="icon-1-copy-6">
		<g id="Twitter">
			<path id="Combined-Shape" d="M0,512C0,229.2,229.2,0,512,0s512,229.2,512,512s-229.2,512-512,512S0,794.8,0,512z M496.7,416.2
				l1.1,17.7l-17.9-2.2c-65.2-8.3-122.1-36.5-170.5-83.9l-23.6-23.5l-6.1,17.4c-12.9,38.7-4.7,79.5,22.2,107
				c14.3,15.2,11.1,17.4-13.6,8.3c-8.6-2.9-16.1-5.1-16.8-4c-2.5,2.5,6.1,35.4,12.9,48.4c9.3,18.1,28.3,35.8,49.1,46.3l17.5,8.3
				l-20.8,0.4c-20.1,0-20.8,0.4-18.6,8c7.2,23.5,35.5,48.4,67,59.3l22.2,7.6l-19.3,11.6c-28.7,16.6-62.3,26-96,26.8
				c-16.1,0.4-29.4,1.8-29.4,2.9c0,3.6,43.7,23.9,69.1,31.8c76.3,23.5,166.9,13.4,234.9-26.8c48.3-28.6,96.7-85.3,119.3-140.3
				c12.2-29.3,24.4-82.8,24.4-108.5c0-16.6,1.1-18.8,21.1-38.7c11.8-11.6,22.9-24.2,25.1-27.8c3.6-6.9,3.2-6.9-15-0.7
				c-30.4,10.8-34.7,9.4-19.7-6.9c11.1-11.6,24.4-32.5,24.4-38.7c0-1.1-5.4,0.7-11.5,4c-6.4,3.6-20.8,9-31.5,12.3l-19.3,6.1
				l-17.5-11.9c-9.7-6.5-23.3-13.7-30.4-15.9c-18.3-5.1-46.2-4.3-62.7,1.4C521.7,328.3,493.4,370.2,496.7,416.2z"/>
		</g>
	</g>
</g>
</svg>
